<svg viewBox="0 0 330 200" xmlns="http://www.w3.org/2000/svg"><g><g><g><g><g><line x1="40" y1="178" x2="35" y2="178" style="visibility: inherit;" fill="rgb(0, 0, 0)" stroke="rgb(204, 204, 204)" stroke-width="1px"></line><line x1="40" y1="160.20000000000005" x2="35" y2="160.20000000000005" style="visibility: inherit;" fill="rgb(0, 0, 0)" stroke="rgb(204, 204, 204)" stroke-width="1px"></line><line x1="40" y1="142.39999999999995" x2="35" y2="142.39999999999995" style="visibility: inherit;" fill="rgb(0, 0, 0)" stroke="rgb(204, 204, 204)" stroke-width="1px"></line><line x1="40" y1="124.59999999999998" x2="35" y2="124.59999999999998" style="visibility: inherit;" fill="rgb(0, 0, 0)" stroke="rgb(204, 204, 204)" stroke-width="1px"></line><line x1="40" y1="106.80000000000004" x2="35" y2="106.80000000000004" style="visibility: inherit;" fill="rgb(0, 0, 0)" stroke="rgb(204, 204, 204)" stroke-width="1px"></line><line x1="40" y1="88.99999999999991" x2="35" y2="88.99999999999991" style="visibility: inherit;" fill="rgb(0, 0, 0)" stroke="rgb(204, 204, 204)" stroke-width="1px"></line><line x1="40" y1="71.19999999999996" x2="35" y2="71.19999999999996" style="visibility: inherit;" fill="rgb(0, 0, 0)" stroke="rgb(204, 204, 204)" stroke-width="1px"></line><line x1="40" y1="53.39999999999985" x2="35" y2="53.39999999999985" style="visibility: inherit;" fill="rgb(0, 0, 0)" stroke="rgb(204, 204, 204)" stroke-width="1px"></line><line x1="40" y1="35.59999999999991" x2="35" y2="35.59999999999991" style="visibility: inherit;" fill="rgb(0, 0, 0)" stroke="rgb(204, 204, 204)" stroke-width="1px"></line><line x1="40" y1="17.799999999999955" x2="35" y2="17.799999999999955" style="visibility: inherit;" fill="rgb(0, 0, 0)" stroke="rgb(204, 204, 204)" stroke-width="1px"></line><line x1="40" y1="0" x2="35" y2="0" style="visibility: inherit;" fill="rgb(0, 0, 0)" stroke="rgb(204, 204, 204)" stroke-width="1px"></line></g><g transform="translate(30, 0)"><text x="0" y="178" dx="0em" dy="0.3em" style="text-anchor: end; visibility: hidden; font-family: &quot;Helvetica Neue&quot;, sans-serif; font-size: 12px; font-weight: 200;" fill="rgb(50, 49, 63)" stroke="none" stroke-width="1px">7.2</text><text x="0" y="160.20000000000005" dx="0em" dy="0.3em" style="text-anchor: end; visibility: inherit; font-family: &quot;Helvetica Neue&quot;, sans-serif; font-size: 12px; font-weight: 200;" fill="rgb(50, 49, 63)" stroke="none" stroke-width="1px">7.3</text><text x="0" y="142.39999999999995" dx="0em" dy="0.3em" style="text-anchor: end; visibility: hidden; font-family: &quot;Helvetica Neue&quot;, sans-serif; font-size: 12px; font-weight: 200;" fill="rgb(50, 49, 63)" stroke="none" stroke-width="1px">7.4</text><text x="0" y="124.59999999999998" dx="0em" dy="0.3em" style="text-anchor: end; visibility: inherit; font-family: &quot;Helvetica Neue&quot;, sans-serif; font-size: 12px; font-weight: 200;" fill="rgb(50, 49, 63)" stroke="none" stroke-width="1px">7.5</text><text x="0" y="106.80000000000004" dx="0em" dy="0.3em" style="text-anchor: end; visibility: hidden; font-family: &quot;Helvetica Neue&quot;, sans-serif; font-size: 12px; font-weight: 200;" fill="rgb(50, 49, 63)" stroke="none" stroke-width="1px">7.6</text><text x="0" y="88.99999999999991" dx="0em" dy="0.3em" style="text-anchor: end; visibility: inherit; font-family: &quot;Helvetica Neue&quot;, sans-serif; font-size: 12px; font-weight: 200;" fill="rgb(50, 49, 63)" stroke="none" stroke-width="1px">7.7</text><text x="0" y="71.19999999999996" dx="0em" dy="0.3em" style="text-anchor: end; visibility: hidden; font-family: &quot;Helvetica Neue&quot;, sans-serif; font-size: 12px; font-weight: 200;" fill="rgb(50, 49, 63)" stroke="none" stroke-width="1px">7.8</text><text x="0" y="53.39999999999985" dx="0em" dy="0.3em" style="text-anchor: end; visibility: inherit; font-family: &quot;Helvetica Neue&quot;, sans-serif; font-size: 12px; font-weight: 200;" fill="rgb(50, 49, 63)" stroke="none" stroke-width="1px">7.9</text><text x="0" y="35.59999999999991" dx="0em" dy="0.3em" style="text-anchor: end; visibility: hidden; font-family: &quot;Helvetica Neue&quot;, sans-serif; font-size: 12px; font-weight: 200;" fill="rgb(50, 49, 63)" stroke="none" stroke-width="1px">8</text><text x="0" y="17.799999999999955" dx="0em" dy="0.3em" style="text-anchor: end; visibility: inherit; font-family: &quot;Helvetica Neue&quot;, sans-serif; font-size: 12px; font-weight: 200;" fill="rgb(50, 49, 63)" stroke="none" stroke-width="1px">8.1</text><text x="0" y="0" dx="0em" dy="0.3em" style="text-anchor: end; visibility: hidden; font-family: &quot;Helvetica Neue&quot;, sans-serif; font-size: 12px; font-weight: 200;" fill="rgb(50, 49, 63)" stroke="none" stroke-width="1px">8.2</text></g><line x1="40" y1="0" x2="40" y2="178" fill="rgb(0, 0, 0)" stroke="rgb(204, 204, 204)" stroke-width="1px"></line></g></g><g transform="translate(40, 0)" clip-path="url(#clip_0)"><clipPath id="clip_0"><rect width="290" height="178"></rect></clipPath><g><g><g><line x1="0" y1="0" x2="0" y2="178" fill="rgb(0, 0, 0)" stroke="rgb(60, 60, 60)" stroke-width="1px" opacity="0.25"></line><line x1="24.166666666666664" y1="0" x2="24.166666666666664" y2="178" fill="rgb(0, 0, 0)" stroke="rgb(60, 60, 60)" stroke-width="1px" opacity="0.25"></line><line x1="48.33333333333333" y1="0" x2="48.33333333333333" y2="178" fill="rgb(0, 0, 0)" stroke="rgb(60, 60, 60)" stroke-width="1px" opacity="0.25"></line><line x1="72.5" y1="0" x2="72.5" y2="178" fill="rgb(0, 0, 0)" stroke="rgb(60, 60, 60)" stroke-width="1px" opacity="0.25"></line><line x1="96.66666666666666" y1="0" x2="96.66666666666666" y2="178" fill="rgb(0, 0, 0)" stroke="rgb(60, 60, 60)" stroke-width="1px" opacity="0.25"></line><line x1="120.83333333333334" y1="0" x2="120.83333333333334" y2="178" fill="rgb(0, 0, 0)" stroke="rgb(60, 60, 60)" stroke-width="1px" opacity="0.25"></line><line x1="145" y1="0" x2="145" y2="178" fill="rgb(0, 0, 0)" stroke="rgb(60, 60, 60)" stroke-width="1px" opacity="0.25"></line><line x1="169.16666666666669" y1="0" x2="169.16666666666669" y2="178" fill="rgb(0, 0, 0)" stroke="rgb(60, 60, 60)" stroke-width="1px" opacity="0.25"></line><line x1="193.33333333333331" y1="0" x2="193.33333333333331" y2="178" fill="rgb(0, 0, 0)" stroke="rgb(60, 60, 60)" stroke-width="1px" opacity="0.25"></line><line x1="217.5" y1="0" x2="217.5" y2="178" fill="rgb(0, 0, 0)" stroke="rgb(60, 60, 60)" stroke-width="1px" opacity="0.25"></line><line x1="241.66666666666669" y1="0" x2="241.66666666666669" y2="178" fill="rgb(0, 0, 0)" stroke="rgb(60, 60, 60)" stroke-width="1px" opacity="0.25"></line><line x1="265.8333333333333" y1="0" x2="265.8333333333333" y2="178" fill="rgb(0, 0, 0)" stroke="rgb(60, 60, 60)" stroke-width="1px" opacity="0.25"></line><line x1="290" y1="0" x2="290" y2="178" fill="rgb(0, 0, 0)" stroke="rgb(60, 60, 60)" stroke-width="1px" opacity="0.25"></line></g><g><line x1="0" y1="178" x2="290" y2="178" fill="rgb(0, 0, 0)" stroke="rgb(60, 60, 60)" stroke-width="1px" opacity="0.25"></line><line x1="0" y1="160.20000000000005" x2="290" y2="160.20000000000005" fill="rgb(0, 0, 0)" stroke="rgb(60, 60, 60)" stroke-width="1px" opacity="0.25"></line><line x1="0" y1="142.39999999999995" x2="290" y2="142.39999999999995" fill="rgb(0, 0, 0)" stroke="rgb(60, 60, 60)" stroke-width="1px" opacity="0.25"></line><line x1="0" y1="124.59999999999998" x2="290" y2="124.59999999999998" fill="rgb(0, 0, 0)" stroke="rgb(60, 60, 60)" stroke-width="1px" opacity="0.25"></line><line x1="0" y1="106.80000000000004" x2="290" y2="106.80000000000004" fill="rgb(0, 0, 0)" stroke="rgb(60, 60, 60)" stroke-width="1px" opacity="0.25"></line><line x1="0" y1="88.99999999999991" x2="290" y2="88.99999999999991" fill="rgb(0, 0, 0)" stroke="rgb(60, 60, 60)" stroke-width="1px" opacity="0.25"></line><line x1="0" y1="71.19999999999996" x2="290" y2="71.19999999999996" fill="rgb(0, 0, 0)" stroke="rgb(60, 60, 60)" stroke-width="1px" opacity="0.25"></line><line x1="0" y1="53.39999999999985" x2="290" y2="53.39999999999985" fill="rgb(0, 0, 0)" stroke="rgb(60, 60, 60)" stroke-width="1px" opacity="0.25"></line><line x1="0" y1="35.59999999999991" x2="290" y2="35.59999999999991" fill="rgb(0, 0, 0)" stroke="rgb(60, 60, 60)" stroke-width="1px" opacity="0.25"></line><line x1="0" y1="17.799999999999955" x2="290" y2="17.799999999999955" fill="rgb(0, 0, 0)" stroke="rgb(60, 60, 60)" stroke-width="1px" opacity="0.25"></line><line x1="0" y1="0" x2="290" y2="0" fill="rgb(0, 0, 0)" stroke="rgb(60, 60, 60)" stroke-width="1px" opacity="0.25"></line></g></g></g><g><g><line x1="0" y1="1459.600000000001" x2="290" y2="1459.600000000001" fill="rgb(0, 0, 0)" stroke="rgb(153, 153, 153)" stroke-width="1.5px"></line></g></g><g><g><line x1="24.166666666666664" y1="0" x2="24.166666666666664" y2="178" fill="rgb(0, 0, 0)" stroke="rgb(153, 153, 153)" stroke-width="1.5px"></line></g></g><g><g><g><g><g><path stroke="rgb(255, 112, 67)" stroke-width="2px" d="M24.770833333333332,125.96753845214842L24.891666666666666,124.69070625718305L25.375,96.0968623957724L25.495833333333334,120.50683001879815L25.737499999999997,116.53400381804515L25.858333333333334,148.44038531259565L25.979166666666668,152.09344359053833L26.34166666666667,157.5975098593862L26.4625,119.62921209090459L26.583333333333332,158.92365815679364L27.066666666666666,144.63183637103617L28.154166666666665,108.51513695163793L28.275000000000002,148.06073571547017L28.516666666666666,141.95813837877938L29,143.9710256551132L29.241666666666667,118.51036185504168L29.483333333333334,128.95744483946936L29.604166666666668,130.6001055570974L29.845833333333335,123.9917504481705L30.0875,126.04018684839018L30.208333333333336,158.240008780853L30.570833333333336,147.68832016326752L30.691666666666666,128.8993805728722L30.8125,128.37953557074223L30.933333333333334,103.98942158068427L31.054166666666667,138.76647240574442L31.416666666666668,97.33265917271336L31.5375,93.3025296259557L31.77916666666667,117.49083824934672L32.020833333333336,143.59994185035683L32.141666666666666,129.36620785405484L32.2625,159.6263049335589L32.38333333333333,141.6940738658689L32.74583333333333,115.474148079473L32.86666666666667,132.10872472308245L32.987500000000004,134.30561504917614L33.108333333333334,139.07285338270856L33.7125,132.8231515393559L34.31666666666666,172.47421329654836L34.4375,141.74369560701112L34.55833333333334,152.00904395923644L34.67916666666667,163.4744916088951L34.8,151.40372262061624L34.920833333333334,143.18606386095865L35.525,146.2783441676135L36.49166666666667,154.90448067922694L36.854166666666664,140.3862817405049L36.975,136.10251220467734L37.82083333333333,122.34763544621798L38.18333333333333,125.86103251195007L38.425000000000004,111.58993131460481L38.54583333333333,149.082534308967L38.666666666666664,137.04511444541967L39.150000000000006,153.36808313662513L39.27083333333333,136.18150932183403L39.391666666666666,136.09834307633813L39.75416666666667,131.78417081420736L39.875,167.40509883721668L40.72083333333333,130.49866917264936L40.9625,154.5060512657634L41.204166666666666,153.13662586794024L41.324999999999996,137.32873445955167L41.44583333333333,121.65066115015314L41.56666666666667,114.86485184015999L42.05,120.38414073045729L42.29166666666667,110.88342306162126L42.65416666666667,100.81253925608472L42.775,126.94705093078875L42.895833333333336,108.52905447186909L43.137499999999996,121.5202529868742L43.25833333333333,104.36269607654972L43.37916666666667,133.97662054684235L43.74166666666667,122.99991268232793L43.983333333333334,141.00229439049218L44.104166666666664,111.2508144819478L44.34583333333334,110.90230514544686L44.46666666666666,140.02463830507332L44.829166666666666,112.41481358892545L45.43333333333334,133.08098796193374L45.55416666666667,112.49491133383044L45.675,115.73759563355695L45.916666666666664,133.8798009564759L46.27916666666666,152.45628216678216L46.520833333333336,167.9504071925794L46.641666666666666,185.13787241918138L46.88333333333333,167.0453640249824L47.125,149.54895774365315L47.24583333333333,113.0764722805223L48.09166666666667,135.64210449503545L49.05833333333333,119.91341562118764L49.17916666666667,158.81345526755086L49.300000000000004,160.5555134044913L49.78333333333333,128.55284892058546L50.145833333333336,125.2207260427982L50.50833333333333,100.9122514520204L50.62916666666667,123.76458666695001L50.99166666666667,130.67554620735123L51.1125,120.34536202002647L51.35416666666667,131.99256538234246L51.474999999999994,129.50833051389912L51.59583333333333,139.1842777693841L51.8375,128.8200412118927L52.199999999999996,127.8967176216606L52.32083333333333,153.55606431722617L52.44166666666667,133.11154411175724L52.80416666666667,154.96290541351433L53.166666666666664,155.1186228579933L53.770833333333336,152.1347384453294L54.0125,108.34167078133133L54.25416666666666,131.5461662288381L54.375,115.72331889491426L54.979166666666664,99.32203550836928L55.34166666666666,114.2994044335976L55.4625,91.64181644817663L55.583333333333336,104.27537951105889L55.704166666666666,113.1720703130611L55.94583333333333,79.05678675237989L56.42916666666667,105.66349583775668L56.67083333333333,94.98639152798621L56.9125,130.67995142683762L57.15416666666667,129.81659020987848L57.75833333333333,138.58061909099453L58,159.48535263590574L58.483333333333334,109.86258309245977L59.0875,148.06089612913703L59.329166666666666,127.26891966143289L59.449999999999996,142.9060825568331L60.05416666666667,123.28328046121246L60.175,128.50519103740012L60.295833333333334,150.57368290376763L60.537499999999994,161.61114548172577L60.65833333333333,121.30372799638911L60.77916666666667,117.11625674729765L61.262499999999996,121.28794050882897L61.38333333333333,120.50145181842277L61.625,123.78864765179742L61.9875,111.01595362779052L62.47083333333334,143.85960092835538L62.59166666666666,141.45028295968L62.7125,122.64256815043515L62.833333333333336,129.444682389849L63.075,115.62642892991528L63.4375,107.34708372506563L63.55833333333334,117.20801634113514L63.67916666666667,127.75624168876222L64.04166666666667,141.99794967153906L64.1625,125.86648226478259L64.40416666666667,148.8910902805193L65.12916666666666,116.96809952016304L65.37083333333332,167.96770347101702L65.73333333333333,135.7234783856976L65.85416666666667,136.16887655539537L66.09583333333333,127.18867810508603L66.21666666666667,147.20669513238303L66.82083333333333,107.17604976191946L66.94166666666666,98.21336450496351L67.18333333333334,91.50564548903347L67.425,116.08177592222722L67.54583333333333,107.8109264948824L67.66666666666667,133.97865466090406L68.02916666666667,95.20869952057735L68.14999999999999,112.66204558231047L68.5125,96.55210794345835L68.63333333333333,105.86442378063504L68.875,96.75654533621024L68.99583333333334,104.81777647181113L69.2375,103.46038682520314L69.72083333333333,130.66201351296172L69.84166666666667,99.06173610609788L69.96249999999999,103.37022074805465L70.20416666666667,115.99317223266604L70.325,113.04111550563837L70.80833333333334,139.71316554861409L70.92916666666667,121.38926133466418L71.05,124.42298270919002L71.29166666666666,130.61446280199561L71.4125,122.98582411335289L71.53333333333333,137.5405851381227L71.65416666666667,143.49529269046175L72.74166666666667,130.30416144394385L72.8625,119.69873727926873L73.46666666666667,114.37058471151863L74.3125,126.72752284290524L74.43333333333332,109.55650719680057L74.91666666666667,129.14970459839094L75.0375,123.96328467682639L75.15833333333333,138.64575392539516L75.4,103.83025282530981L75.64166666666667,116.36704718718289L76.125,115.50399636202388L77.21249999999999,138.82094056324485L77.33333333333333,119.82396986101223L77.45416666666667,136.6634545302066L77.575,123.14745255367873L77.9375,124.31797575546643L78.30000000000001,135.99664787267926L78.6625,117.05359186124058L79.50833333333334,107.22290627123357L79.62916666666668,99.07485988345773L79.75,85.60114442170418L79.87083333333332,98.57931839124521L80.1125,85.8444860136347L80.23333333333333,93.97954873843491L80.59583333333333,66.27325875795245L80.71666666666667,96.42952145513621L80.8375,100.40125444722058L81.07916666666667,74.81644652918882L81.32083333333333,97.76298980394867L81.44166666666666,81.28169257472968L81.925,125.72330282889355L82.77083333333333,95.63039232807895L83.13333333333334,133.2305299338409L83.25416666666668,100.98182218555247L83.49583333333332,118.2371476503792L83.7375,116.62440882047794L84.1,129.11754988704752L85.42916666666666,143.11731829658402L85.79166666666667,86.18616829625813L85.91250000000001,106.18937904815768L86.03333333333335,62.33005481555786L86.27499999999999,89.0155950503292L86.51666666666667,85.86639974547707L86.6375,87.51262199496026L86.87916666666666,139.5143391726175L87.48333333333333,109.93621468746629L87.60416666666666,104.29769744723265L88.32916666666667,102.91225278304128L88.57083333333334,104.4268884998482L88.69166666666668,127.28039079575206L88.8125,116.17855831678102L88.93333333333332,105.86086086223821L89.05416666666666,116.85762284799964L89.175,85.63854061377535L89.29583333333333,80.56672931133647L89.41666666666667,95.49128133074888L89.53750000000001,72.30922216698507L89.65833333333333,79.19189522270248L89.9,82.24817347479271L90.2625,105.77891482557902L90.38333333333333,72.16788685755897L90.50416666666666,87.60227850073947L90.74583333333334,101.50617233235228L91.22916666666667,81.31164458125434L91.47083333333333,107.79008698107789L91.71249999999999,72.85813138370249L92.19583333333334,89.92890339314455L92.31666666666668,100.719232523033L92.4375,112.6694441138303L92.67916666666666,106.61821237045208L92.92083333333333,103.42868724622005L93.1625,89.21659062981833L93.40416666666667,74.61552549239661L93.525,85.08631425012697L93.88749999999999,99.22721680900868L94.12916666666666,107.92086812325864L94.25,94.94286715910631L94.37083333333334,85.75693748628274L94.49166666666666,89.52817039414836L94.6125,87.99122313071733L94.73333333333333,76.98896949008517L94.97500000000001,101.14565641763674L95.09583333333335,85.28656594864664L95.7,109.81853137419327L95.82083333333334,87.81807384248394L96.0625,126.79937964603923L96.18333333333334,88.73061114584564L96.30416666666667,102.66988164996106L96.66666666666666,102.10502480303464L96.90833333333333,85.74594041813803L97.15,73.74411143393323L97.39166666666667,102.13369408170928L97.63333333333334,84.15586492823176L97.875,83.56500678184746L97.99583333333332,93.76546614717324L98.11666666666666,50.741640676231114L98.47916666666667,91.60906944797682L98.9625,74.08554188594056L99.08333333333333,75.20399940624992L99.325,91.78739113845069L99.6875,66.53997920974952L100.17083333333333,84.63298461256304L100.77499999999999,91.15841690663828L101.62083333333332,80.4902656756972L101.74166666666666,88.52244571674832L101.98333333333333,84.92346792174091L102.10416666666667,94.04603575472507L102.225,85.60064711175437L102.34583333333333,88.05212648673265L102.46666666666667,91.07508807578932L102.5875,75.59674066452902L102.82916666666667,81.89835761319844L102.94999999999999,66.97133030349966L103.43333333333334,91.68481714705167L103.55416666666666,101.95624745204621L104.03750000000001,94.96297026925461L104.39999999999999,62.65626302586526L104.64166666666667,77.73728449089991L104.7625,105.81906103135258L104.88333333333334,81.93582250129812L105.24583333333334,94.56254297717389L105.36666666666667,64.10897662944983L105.48750000000001,72.45711831783846L105.60833333333333,65.0173356888794L105.72916666666666,80.91492491934646L105.97083333333333,68.50742732708032L106.09166666666667,61.10317424757709L106.2125,63.556559230328844L106.45416666666667,81.73874505764196L106.575,99.19441344419168L106.69583333333334,64.42054858068367L106.81666666666668,83.4475622169896L106.9375,86.98004183875858L107.05833333333332,86.94060038864193L107.3,66.99538423391053L107.42083333333333,69.29230922812769L107.78333333333333,81.66712246975791L108.26666666666667,103.20628927342564L108.62916666666666,75.59023262516648L108.75,77.5501423815134L108.87083333333334,113.49374139191293L109.1125,67.86429592091237L109.35416666666667,65.75501015361128L109.475,93.7828199654558L109.71666666666667,68.70245151122529L109.95833333333333,58.359145405912486L110.44166666666668,98.05287093214044L110.925,70.3016941945822L111.04583333333333,58.42405215331263L111.2875,50.03048004298867L111.40833333333333,55.83629773377223L111.52916666666667,48.88184836035606L111.65,66.20470839122892L111.77083333333334,110.31851583123434L112.25416666666666,59.642276700282224L112.375,74.38336210250257L113.10000000000001,42.670212707137324L113.34166666666665,68.28425539668714L113.46249999999999,62.020150666216054L113.58333333333333,76.62802203916317L113.70416666666667,57.53199141852903L113.94583333333334,40.41228060725868L114.30833333333334,96.76677802906421L114.42916666666667,87.40543766724511L114.79166666666666,78.46656061706145L114.9125,40.439911750682995L115.03333333333333,74.90977682573262L115.275,62.118819483604824L115.51666666666667,32.032745646624335L115.87916666666668,41.57326579237798L116.24166666666666,81.8747999614362L116.60416666666667,90.48258716353534L116.72500000000001,67.25776656484578L116.84583333333333,64.7927922298603L117.0875,63.23798575302456L117.20833333333333,56.603423087394646L117.32916666666667,72.88854595152569L117.57083333333333,95.1187977474631L117.69166666666666,56.94295859300523L117.8125,89.06657531753426L118.41666666666667,58.89867394395539L118.89999999999999,75.97466064413204L119.02083333333333,35.219635995135064L119.2625,30.8227873714346L119.50416666666668,71.11451549244428L119.74583333333332,86.89630845306066L119.86666666666666,86.5814727713655L119.9875,74.66057539521432L120.10833333333333,87.9974707964001L120.22916666666667,75.78698617599775L120.35,58.14783945405955L120.59166666666667,59.0761180389071L120.83333333333334,76.72026490255988L121.07499999999999,36.88311213700322L121.4375,66.74254826350622L121.67916666666666,68.11625061254402L121.8,84.87348107933836L121.92083333333333,73.10772439116931L122.40416666666665,77.28566558648004L122.64583333333333,92.48487046778193L122.76666666666667,83.18768522743942L123.00833333333334,54.26125327253828L123.37083333333334,67.21935270084612L123.85416666666666,65.91422851255922L124.21666666666667,60.829922702305495L124.57916666666667,79.18878286568551L124.7,77.85406598555961L124.94166666666668,55.811697495886136L125.18333333333332,62.931249720241766L125.425,48.09248371002033L126.02916666666667,67.70180220857769L126.27083333333333,82.8295145588754L126.39166666666667,100.03002587268189L126.5125,76.48876933233552L126.63333333333333,54.913426445649776L126.99583333333334,64.86372665830294L127.72083333333333,31.115408145905775L127.96249999999999,56.71656881150811L128.08333333333334,54.58076666247773L128.20416666666665,60.978233659227755L128.325,35.992315833707266L128.44583333333333,49.00925011110846L128.92916666666667,70.28607917709978L129.17083333333335,76.65491936606814L129.29166666666669,51.369655454590585L129.65416666666667,44.8536349617946L129.775,67.99804250492026L129.89583333333334,78.42791354017739L130.01666666666665,61.372133324601094L130.1375,61.978352923470894L130.37916666666666,57.0530018862426L130.5,43.48783925040587L130.62083333333334,27.98081296961007L130.74166666666665,41.1102184035926L130.98333333333332,59.29408795877323L131.34583333333333,59.61768229422522L131.5875,44.76238360287638L131.70833333333334,36.05502273489665L131.95000000000002,58.53848501518311L132.07083333333335,73.90097030757349L132.43333333333334,59.82327930264779L132.79583333333335,86.04738113627413L132.91666666666666,71.32963453408583L133.7625,77.69870857258879L133.88333333333333,41.11825076250332L134.00416666666666,46.517025849958884L134.125,81.00717703642451L134.24583333333334,39.72900452362032L134.36666666666667,50.16976403533447L134.4875,65.67808264585143L134.72916666666666,57.96407146029779L134.85,36.73884411651585L134.97083333333333,74.25711342019886L135.33333333333334,42.96055469042133L135.45416666666668,56.41221236368827L135.57500000000002,72.9876688826355L135.69583333333333,65.42948931018643L135.9375,73.86099151893154L136.6625,48.366567863310934L136.78333333333333,53.500820232099926L137.14583333333334,56.89983104264718L137.99166666666667,77.62557439481775L138.35416666666669,53.69317644046292L138.8375,46.53284997420994L139.2,89.7238225767252L139.32083333333333,54.41780219390756L139.44166666666666,77.35948374686626L139.68333333333334,78.74604855954188L139.80416666666665,66.5835619903105L139.92499999999998,56.20544675611069L140.2875,42.92477956893475L140.40833333333333,75.03891131459973L140.65,47.011754144693896L140.89166666666668,81.04743410064201L141.01250000000002,77.01847777865169L141.25416666666666,49.99162301022011L141.49583333333334,57.58835292517949L141.61666666666667,61.96672943586559L141.85833333333335,71.5268738727318L142.1,56.85478264177411L142.22083333333333,55.90866172031889L142.34166666666667,59.483729768162476L142.4625,45.6905856334123L142.825,67.21738621471702L142.94583333333333,36.104676749885556L143.06666666666666,36.711193699064324L143.42916666666667,62.2482154662823L143.55,60.25153147842714L144.51666666666668,63.61592669422582L144.87916666666666,57.14294443295179L145,69.23791824549339L145.24166666666667,73.92948562080008L145.48333333333335,98.87447441591841L145.60416666666666,52.96910956458626L145.96666666666667,62.4665456757792L146.0875,52.55849057754581L146.32916666666668,54.12419889384337L146.45,63.03147498795077L146.57083333333333,54.39172956679553L146.69166666666666,67.21792352981663L147.05416666666667,31.292739746652046L148.02083333333331,75.7477874731438L148.2625,95.2387743520005L148.50416666666666,55.98848989594619L148.74583333333334,31.298896689950993L148.86666666666665,34.233619789047594L148.9875,49.99259340517361L149.22916666666666,44.145943140432024L149.47083333333333,37.688900427281936L149.59166666666667,39.59143140056531L149.7125,52.27910993061637L150.075,38.8432464718413L150.19583333333335,49.84840977148562L150.31666666666666,33.123759804392535L150.92083333333332,64.61216049551983L151.1625,49.576314886097805L151.28333333333333,24.871932501472685L151.64583333333334,52.66771410047876L151.88750000000002,56.776467339617994L152.6125,42.73592442040203L152.73333333333332,33.73581009405635L152.975,73.26191680732727L153.21666666666667,61.73491859478119L153.70000000000002,45.529421042678365L153.9416666666667,61.74694632408003L154.1833333333333,61.27111783788831L154.42499999999998,39.90690130830956L154.66666666666666,73.89167516460046L154.90833333333333,58.41648663936479L155.02916666666667,51.21839033488334L155.15,39.261840664376564L155.27083333333334,55.369289437809826L155.39166666666668,66.58880727738037L156.11666666666667,59.03507990131962L156.23749999999998,48.385948307992294L156.9625,48.9872483878747L157.20416666666668,45.86183260677416L157.44583333333335,80.99918000206746L157.56666666666666,70.82788652185783L157.6875,60.48084412045934L158.775,77.3304011654672L159.01666666666668,65.95929976492668L159.37916666666666,93.44427510062522L159.74166666666665,81.0338470131441L159.8625,43.25801623639151L160.10416666666669,43.96440433461544L160.225,47.320161458085835L160.34583333333333,73.80324124744023L160.46666666666667,77.9742619405572L160.70833333333334,42.525256532255895L160.82916666666665,53.36851091166017L161.07083333333333,48.63523919158169L161.19166666666666,58.99528733903841L161.3125,42.1020872881092L161.675,75.27001226183256L161.79583333333332,39.3359159354838L162.0375,50.10315888319032L163.0041666666667,43.53751404146462L163.125,78.93701188101055L163.2458333333333,61.42719165570762L163.36666666666667,54.07537450628085L163.72916666666666,33.58844870778651L163.85,49.889148136099976L163.97083333333333,20.86990542026848L164.33333333333334,47.43902075325394L164.45416666666668,68.20564222978525L164.575,57.99999895661139L164.9375,48.08851791862489L166.3875,56.27714440328995L166.75,70.69859281152809L166.99166666666665,82.22617107204584L167.1125,48.175539206951555L167.35416666666666,57.87161347269296L167.475,66.63957412321487L167.8375,79.9508381265536L168.2,50.28499915643107L168.32083333333335,81.98868359465503L168.44166666666666,75.05725427170407L168.5625,83.93370991550644L168.68333333333334,66.11416938257511L168.80416666666665,74.57226624378796L168.925,68.6538706677202L169.04583333333332,64.06677052768869L169.2875,53.191254913584544L169.52916666666667,60.18356892483193L169.64999999999998,34.21285270676009L169.89166666666665,29.18712951383887L170.13333333333333,14.674893157050263L170.375,26.351422399559937L170.49583333333334,24.534409737926808L170.61666666666667,46.96956994966348L170.7375,44.26781298388485L170.85833333333332,47.15396293266102L170.97916666666666,56.92150462484024L172.0666666666667,70.57451677667383L172.1875,82.91717946013512L172.42916666666667,54.31766699515886L172.54999999999998,71.82015186482276L173.03333333333333,59.651850959658844L173.15416666666667,74.67088388496623L173.275,59.57118477552483L173.51666666666668,36.879554085822576L173.87916666666666,33.14526560225508L174.24166666666667,47.38463665562449L174.48333333333335,79.69433311262804L174.72500000000002,65.87739075402637L174.84583333333333,73.16672257521412L175.0875,34.38383245719038L175.20833333333331,44.822055371746046L175.57083333333335,35.85099266130095L175.69166666666666,50.06203236306011L175.8125,77.88525668820367L176.05416666666665,64.44876547836836L176.175,60.80354003134393L176.29583333333332,78.2908107001551L176.5375,52.47749265693493L176.65833333333333,38.47658082575376L176.77916666666667,55.57324044658861L176.9,84.00148912243681L177.02083333333334,37.80818561617758L177.14166666666668,70.0334180713578L177.74583333333334,67.32972614770878L177.86666666666665,59.10124415503171L178.10833333333332,45.72983294280965L178.59166666666667,73.46704300350814L178.71249999999998,73.45635723144535L178.95416666666665,48.76213850131464L179.4375,41.4781218590208L179.67916666666667,57.667740744300744L179.92083333333332,72.64303553621208L180.1625,76.76705958488961L180.28333333333333,52.90861615037795L180.40416666666667,81.43869099498535L180.525,31.095119681230187L180.76666666666665,51.753914732366084L181.1291666666667,52.976376315875726L181.25,77.38733151107205L181.49166666666667,33.39313729483396L181.61249999999998,49.9282441893227L181.73333333333335,50.06090140699267L181.975,58.45151276455276L182.45833333333334,93.11116607632546L182.7,55.84759209041789L182.82083333333333,80.31790760170996L183.0625,43.37807152327332L183.18333333333334,44.25121444851251L183.54583333333335,59.66874795044784L183.66666666666666,86.00071047277066L184.27083333333331,57.839454618021904L184.39166666666668,37.463863730887425L184.5125,77.16463361334968L184.63333333333335,77.87379388010132L184.875,55.95366502637384L185.11666666666665,71.3195353385344L185.2375,50.103258915530134L185.35833333333332,53.196341647935725L185.47916666666666,76.19336335592372L185.6,63.83691503717844L185.72083333333333,64.29342139585357L186.08333333333334,66.34230872690817L186.44583333333335,43.447493660438084L186.6875,57.5102852586256L187.05,47.576975862252766L187.17083333333332,52.671236369807914L187.29166666666669,49.79227003932223L187.4125,59.02992428671362L187.89583333333334,55.17191107101178L188.37916666666666,35.17005184946561L188.62083333333334,71.50883973151721L188.74166666666667,36.9000676701298L189.225,24.048163358483606L189.34583333333333,102.88649780741942L189.70833333333334,29.743167524614734L190.07083333333333,39.60524773337488L190.3125,44.2765095347454L190.55416666666667,82.36965388058243L190.67499999999998,66.13074155754884L190.79583333333335,36.48594714052237L191.15833333333333,60.68500134864098L191.4,69.34956895104253L191.52083333333334,39.353370591487874L191.7625,65.12725391264395L191.88333333333333,60.26250343538301L192.00416666666666,84.61967792305379L192.24583333333334,67.56837692467404L192.36666666666667,75.19107775748628L192.72916666666666,60.64513923136555L193.33333333333331,54.87551195028699L194.78333333333333,56.58805485499245L194.90416666666667,69.69441010439292L195.025,52.769304243392256L195.14583333333334,19.794403907358486L195.62916666666666,60.04575480778573L195.99166666666665,65.62485865180922L196.1125,74.25587314229334L196.35416666666669,35.57382135991452L196.475,35.51555700710253L196.59583333333333,61.673910159361085L196.71666666666667,77.91676962020894L197.20000000000002,84.35360457830255L197.32083333333333,76.17016055757915L197.44166666666666,79.63113539609613L197.68333333333334,52.694853898565555L197.80416666666667,52.676051781011964L197.925,51.78813497143861L198.16666666666666,57.35582440577264L198.40833333333333,57.79753755938303L199.13333333333333,72.03251935533301L199.375,39.59255475700189L199.97916666666666,57.57524221273694L200.1,57.444878797982994L201.1875,41.92495224770653L201.30833333333334,42.28798130973212L201.79166666666666,48.403091173650665L202.275,58.71522307404901L202.6375,43.54342138310432L203,62.140412042791866L203.12083333333334,79.48090349445701L203.24166666666665,48.31234033619032L203.60416666666666,25.691795717123938L203.725,58.51046900260431L204.0875,60.88834146694795L204.32916666666668,71.61883841871355L204.45,57.7481025538291L204.57083333333335,57.57363048612234L205.41666666666669,34.078463013216435L205.5375,49.29898642150388L205.65833333333333,60.871148408583466L205.77916666666667,40.62853002650951L206.02083333333334,70.11277713519704L206.14166666666665,70.90712888918891L206.26250000000002,27.707600957935114L206.38333333333333,65.6845137333519L206.50416666666666,31.889685596299927L206.625,41.59771463326754L206.74583333333334,52.124959486850344L206.86666666666667,31.221877478827736L206.9875,61.77256885368128L207.35,53.78129127530883L207.59166666666667,28.419441251251385L208.19583333333333,31.618622854597987L208.3166666666667,79.58121701017872L208.4375,54.12735266649972L208.67916666666667,63.70548581481917L209.525,65.73074484684574L209.76666666666668,68.26734355365818L210.37083333333334,92.47809072769643L210.49166666666667,64.43563242835187L210.97500000000002,58.87234191111814L211.21666666666667,61.910673363412386L211.3375,62.40083319505018L211.57916666666668,61.93939470155702L211.7,71.82282597252517L211.94166666666666,70.08842560237137L212.0625,39.82383224044665L212.7875,51.695725567301494L212.90833333333333,58.22052524710223L213.02916666666667,62.26546618957771L213.63333333333335,41.81051771785906L213.75416666666666,61.54881404234335L214.84166666666667,72.44197270240065L214.96249999999998,19.631692619119775L215.32500000000002,50.47551102155386L215.44583333333333,60.03108973622622L215.56666666666666,81.58747226136718L215.80833333333334,55.27178220854266L216.05,55.88389425632404L216.29166666666666,52.812946216584834L216.65416666666667,36.95946165422066L216.775,52.06458638120827L217.01666666666665,13.662682012520065L217.13750000000002,51.624889065005874L217.3791666666667,37.905253460152096L217.6208333333333,31.438388333169L217.74166666666667,46.85550921970625L217.98333333333335,46.76142953323432L218.10416666666666,41.82502705621522L218.5875,43.724694550336466L218.70833333333334,32.34398765657778L218.95,52.79920879068949L219.07083333333333,21.556535209794703L219.19166666666666,44.1793495686795L219.3125,80.62357776428168L219.67499999999998,63.1881275867443L219.79583333333335,45.91751114942451L219.91666666666666,82.53840250174521L220.4,83.33096396722816L220.64166666666668,68.58763906619367L220.7625,35.34111208640962L220.88333333333335,32.54605096958986L221.125,47.46361961830192L221.36666666666665,26.946717215468283L221.60833333333332,73.8659657458306L221.85,50.12305398957548L221.97083333333333,60.481431500338246L222.09166666666667,64.13446274092196L222.33333333333334,65.34764555237444L222.45416666666668,96.52852188847962L222.575,67.54254834262393L222.69583333333335,75.04595291295898L222.81666666666666,46.63313034089944L222.9375,89.1556205076948L223.17916666666665,30.98625771673531L223.3,63.01549651883212L223.6625,59.57843052024349L223.78333333333333,59.5451981565561L224.02499999999998,71.6797109480272L224.14583333333334,42.896228232002244L224.50833333333333,56.763071968056465L224.62916666666666,52.24346384621944L224.75,51.831056465692L224.87083333333334,38.21726284463264L225.23333333333332,56.0508274655284L225.71666666666667,41.322555653508516L225.95833333333334,54.52690562422629L226.07916666666665,59.225704413525975L226.20000000000002,78.29824794021677L226.5625,48.792870059464576L226.6833333333333,43.37745382582767L226.92499999999998,45.773681802434794L227.40833333333333,28.061575574421227L227.52916666666667,52.18400061751235L227.65,52.510418303873834L227.77083333333334,55.26775941906688L228.0125,69.32733716780234L228.49583333333334,63.66457421893206L228.61666666666667,73.22088865797845L228.85833333333335,46.54292634020436L228.97916666666666,80.26740770001528L229.10000000000002,55.74398284455927L229.22083333333333,77.29534075466465L229.4625,89.90820691655489L229.825,48.9830159612456L229.94583333333335,54.041115952696316L230.06666666666666,63.41029016965027L230.1875,74.24012083157766L230.30833333333334,70.15915776141914L230.67083333333332,62.48739902892534L230.79166666666666,37.30897919369562L231.39583333333334,57.04932076762846L231.6375,53.941670868978065L231.75833333333335,35.643473963065844L231.87916666666666,65.627689027275L232.3625,44.75520747884943L232.725,47.10174277728336L232.96666666666667,61.575985026282055L233.32916666666665,66.68547348336332L233.45000000000002,53.998217216372765L233.57083333333333,51.717577222551895L233.69166666666666,43.18235340747941L233.8125,44.5796313315515L234.05416666666667,60.95283118585222L234.175,36.73683299432918L234.29583333333332,51.334695390450534L234.65833333333333,74.7900260496174L234.77916666666667,88.45397815088309L235.02083333333334,49.82912068491197L235.14166666666665,38.01816430734695L235.26250000000002,62.10310766041552L235.625,47.048791788823905L235.86666666666667,50.167159992471525L235.98749999999998,48.850430880047355L236.10833333333335,67.41025731995711L236.22916666666666,50.809973122586484L237.075,44.187885448374544L237.19583333333333,48.87849086929967L237.55833333333334,54.43972278872556L238.16250000000002,75.41306813582828L238.64583333333331,63.29611006472399L238.8875,36.3721110927396L239.37083333333334,61.516952573211185L239.49166666666665,66.5293430116957L239.73333333333332,63.21505861282897L240.21666666666667,42.45652220878662L240.3375,47.42903444310451L240.45833333333334,65.46059542749681L240.7,75.01817590025533L240.82083333333335,53.31777234552466L240.94166666666666,80.33920012315552L241.425,48.380051974201564L241.66666666666669,60.072870319482064L241.90833333333333,34.728598024899554L242.14999999999998,58.611611174274515L242.27083333333334,73.8485268263405L242.51250000000002,51.36509075991559L242.99583333333334,72.66342668470017L243.2375,60.48783824875652L243.35833333333332,71.73813407801528L243.72083333333333,67.96226756337241L244.08333333333334,32.9984775503475L244.5666666666667,34.78709503130895L244.8083333333333,36.370761027175234L244.92916666666667,50.19781457863017L245.29166666666666,53.91103796970077L245.775,56.14766223775155L245.89583333333334,64.01718146485331L246.01666666666668,42.078441676084964L246.1375,34.57726245266491L246.5,52.715226744637604L246.62083333333334,51.904114265337284L246.74166666666667,45.612963832233476L246.98333333333335,92.2938685120026L247.10416666666666,83.16720843680856L247.22500000000002,80.60539219342617L247.46666666666667,75.65557368989771L247.5875,71.09373548283132L247.95,59.71338632887415L248.07083333333335,55.08983747080235L248.3125,76.86703761301489L248.55416666666665,54.33618055826875L248.675,46.8455516020081L248.79583333333332,59.83211537532392L249.64166666666668,49.35973136718155L249.7625,56.38929963725279L249.88333333333335,62.95577560319383L250.00416666666666,59.44645298954053L250.72916666666669,60.62457981807293L250.85,35.898701281728734L250.97083333333333,41.645625758629336L251.09166666666667,82.1186038323897L251.21249999999998,61.4069399008487L251.45416666666665,38.245268413405455L251.81666666666666,23.707990616760526L252.17916666666667,56.83841629013796L252.6625,86.19290556410161L252.78333333333333,61.08024631389287L252.90416666666667,22.89197545047196L253.025,72.03892111262803L253.38750000000002,55.63239677774071L253.50833333333333,39.16625922797243L253.99166666666667,37.00414087897562L254.35416666666666,43.04126170543836L254.475,53.488744643093526L254.8375,64.96190060111111L254.95833333333334,59.577713274716075L255.07916666666668,45.38964224326392L255.2,51.12839603970174L255.32083333333333,39.701386180704475L255.68333333333334,11.027056335933878L255.80416666666667,59.49075776543309L255.92499999999998,8.468604449445507L256.04583333333335,48.4881129762187L256.5291666666667,59.78790796550014L256.65,66.00213699011398L256.7708333333333,39.70609887812299L257.1333333333333,66.4020762630658L257.375,60.29971668559922L257.49583333333334,67.66398482639163L257.6166666666667,62.96646805473175L257.85833333333335,42.84335548930309L257.97916666666663,24.892033514365636L258.1,45.59854330454888L258.3416666666667,37.01993332935706L258.4625,39.8329264232278L259.06666666666666,39.6544550878271L259.30833333333334,70.93586098881019L259.4291666666667,43.028335528753075L259.67083333333335,30.38268597257877L260.0333333333333,41.95849537510799L260.275,69.43965071279197L260.3958333333333,27.706893573062928L260.51666666666665,23.593752185639175L260.7583333333333,47.042188326564L261,65.77109605713372L261.12083333333334,70.23176535384577L261.2416666666667,87.75726819483637L261.72499999999997,69.69551388044749L261.84583333333336,41.15410116269294L262.08750000000003,63.698882606051754L262.32916666666665,58.81389610306974L262.93333333333334,63.61654957444995L263.4166666666667,48.16846456198732L263.53749999999997,56.04426279452066L263.65833333333336,26.344684368929563L263.77916666666664,41.99262785428829L265.2291666666667,33.07892444577513L265.4708333333333,49.32973751964806L265.7125,62.03715255254306L265.95416666666665,66.58673597420973L266.075,43.5889714540256L266.1958333333333,33.85322641276221L266.31666666666666,31.69896976758082L266.4375,23.207830893406964L266.55833333333334,54.71425239923806L266.6791666666667,53.862405802696685L266.8,52.88489874087567L266.92083333333335,58.691317911213034L267.04166666666663,24.991741240661042L267.1625,58.3315185642453L267.4041666666667,36.11969740246036L267.525,55.07400135816192L267.64583333333337,48.858574383162136L267.8875,31.941922790888583L268.12916666666666,58.71797164487525L268.4916666666667,57.72486247008675L268.8541666666667,47.23825498319516L269.0958333333333,68.49664305170432L269.2166666666667,57.60896359017856L269.4583333333333,48.86335162029047L269.8208333333333,58.32899131428563L270.0625,50.772395269401216L270.18333333333334,44.42443436292348L270.425,26.49008054480143L270.6666666666667,67.87422351313911L270.78749999999997,47.91487522221311L270.90833333333336,39.866354668530164L271.15000000000003,78.52197764605903L271.2708333333333,19.516390968586677L271.5125,61.793104334104356L271.6333333333333,60.03445403822465L271.875,38.689245880488556L271.99583333333334,65.52432660059439L272.96250000000003,70.6991996483524L273.0833333333333,62.76997745133478L273.325,72.24194441014207L273.4458333333333,61.77996768397837L273.9291666666667,42.205228891156196L274.5333333333333,73.71743108834774L274.6541666666667,45.6131518797462L274.775,55.023299705991036L274.8958333333333,48.30760591750243" style="fill: none;" fill="none"></path></g></g></g></g><g opacity="0.2"><g><g><g><path stroke="rgb(255, 112, 67)" stroke-width="2px" d="M24.770833333333332,125.96753845214842L24.891666666666666,124.55280838012693L25.375,92.67520866394038L25.495833333333334,123.4585739135742L25.737499999999997,116.05305442810055L25.858333333333334,152.30343303680422L25.979166666666668,152.53574142456057L26.34166666666667,158.2639213562012L26.4625,115.03215370178219L26.583333333333332,163.68128166198733L27.066666666666666,142.90143642425537L28.154166666666665,104.14226303100583L28.275000000000002,152.84876785278323L28.516666666666666,141.21925888061523L29,144.21473846435546L29.241666666666667,115.42768058776852L29.483333333333334,130.2223382949829L29.604166666666668,130.798992729187L29.845833333333335,123.19163570404051L30.0875,126.28820381164549L30.208333333333336,162.1386419296265L30.570833333333336,146.41076145172119L30.691666666666666,126.62448654174803L30.8125,128.31659469604492L30.933333333333334,101.03635845184323L31.054166666666667,142.97714672088622L31.416666666666668,92.3160091400146L31.5375,92.81457672119136L31.77916666666667,120.41946754455564L32.020833333333336,146.7611337661743L32.141666666666666,127.64284095764158L32.2625,163.29008350372317L32.38333333333333,139.52290687561035L32.74583333333333,112.29953823089596L32.86666666666667,134.12277660369872L32.987500000000004,134.57160625457763L33.108333333333334,139.65005264282226L33.7125,132.06646118164062L34.31666666666666,177.27501449584963L34.4375,138.02296028137206L34.55833333333334,153.25193367004397L34.67916666666667,164.86268482208254L34.8,149.94223937988284L34.920833333333334,142.19110069274902L35.525,146.6527458190918L36.49166666666667,155.94890079498293L36.854166666666664,138.62847290039062L36.975,135.58384952545165L37.82083333333333,120.68224678039549L38.18333333333333,126.28642139434812L38.425000000000004,109.8620401382446L38.54583333333333,153.62199745178225L38.666666666666664,135.58766899108886L39.150000000000006,155.3444067001343L39.27083333333333,134.10062370300292L39.391666666666666,136.08827362060546L39.75416666666667,131.26182708740234L39.875,171.71794662475588L40.72083333333333,126.03017768859861L40.9625,157.41277465820315L41.204166666666666,152.97082099914553L41.324999999999996,135.41477451324462L41.44583333333333,119.75241909027098L41.56666666666667,114.04325160980221L42.05,121.05239543914793L42.29166666666667,109.73311195373532L42.65416666666667,99.59319458007809L42.775,130.11131916046142L42.895833333333336,106.29907283782956L43.137499999999996,123.09317836761473L43.25833333333333,102.28532371520993L43.37916666666667,137.56216297149658L43.74166666666667,121.67089424133299L43.983333333333334,143.18195495605468L44.104166666666664,107.64861736297604L44.34583333333334,110.86010894775387L44.46666666666666,143.5506607055664L44.829166666666666,109.0719200134277L45.43333333333334,135.58317050933837L45.55416666666667,110.0024267196655L45.675,116.13020763397213L45.916666666666664,136.07639083862304L46.27916666666666,154.70545253753664L46.520833333333336,169.82637748718264L46.641666666666666,187.21886596679693L46.88333333333333,164.85479125976565L47.125,147.4305587768555L47.24583333333333,108.66052112579342L48.09166666666667,138.37426624298095L49.05833333333333,118.00904521942137L49.17916666666667,163.52332553863528L49.300000000000004,160.76643524169924L49.78333333333333,124.67808685302732L50.145833333333336,124.81728515624998L50.50833333333333,97.9690729141235L50.62916666666667,126.5314613342285L50.99166666666667,131.51229915618896L51.1125,119.09462223052977L51.35416666666667,133.40276489257812L51.474999999999994,129.20754871368408L51.59583333333333,140.35580501556396L51.8375,127.56517848968504L52.199999999999996,127.78492507934568L52.32083333333333,156.662801361084L52.44166666666667,130.63619861602783L52.80416666666667,157.60858592987063L53.166666666666664,155.13747653961184L53.770833333333336,151.7734609603882L54.0125,103.03937110900875L54.25416666666666,134.3556791305542L54.375,113.80754814147946L54.979166666666664,97.33622989654538L55.34166666666666,116.1128078460693L55.4625,88.89852104187007L55.583333333333336,105.80500373840329L55.704166666666666,114.24924812316891L55.94583333333333,74.92623672485345L56.42916666666667,108.88493595123288L56.67083333333333,93.6936479568481L56.9125,135.00159320831298L57.15416666666667,129.71205768585205L57.75833333333333,139.64173469543456L58,162.01641902923586L58.483333333333334,103.85444507598874L59.0875,152.68580398559573L59.329166666666666,124.75150547027586L59.449999999999996,144.79937133789062L60.05416666666667,120.90742549896238L60.175,129.1374402999878L60.295833333333334,153.24565277099612L60.537499999999994,162.94751987457278L60.65833333333333,116.42345771789547L60.77916666666667,116.60925350189206L61.262499999999996,121.79303226470945L61.38333333333333,120.40622673034666L61.625,124.18664894104002L61.9875,109.46948394775387L62.47083333333334,147.83618602752688L62.59166666666666,141.15857181549072L62.7125,120.36540088653562L62.833333333333336,130.26825675964355L63.075,113.9533668518066L63.4375,106.34465179443356L63.55833333333334,118.40194091796873L63.67916666666667,129.03338108062744L64.04166666666667,143.72228202819824L64.1625,123.91334495544432L64.40416666666667,151.67882308959963L65.12916666666666,113.102984046936L65.37083333333332,174.1425434112549L65.73333333333333,131.81946907043456L65.85416666666667,136.2228036880493L66.09583333333333,126.10138950347898L66.21666666666667,149.63040122985842L66.82083333333333,102.32929000854489L66.94166666666666,97.12819633483883L67.18333333333334,90.69350013732905L67.425,119.05736122131346L67.54583333333333,106.80952320098874L67.66666666666667,137.1469446182251L68.02916666666667,90.51457939147944L68.14999999999999,114.7752309799194L68.5125,94.6015773773193L68.63333333333333,106.99192390441891L68.875,95.65379772186276L68.99583333333334,105.79379997253415L69.2375,103.29603919982907L69.72083333333333,133.95548400878906L69.84166666666667,95.23569355010983L69.96249999999999,103.89187583923336L70.20416666666667,117.52151165008543L70.325,112.68369159698483L70.80833333333334,142.94251689910888L70.92916666666667,119.17067203521727L71.05,124.79029426574705L71.29166666666666,131.36410388946533L71.4125,122.06217727661131L71.53333333333333,139.30282077789306L71.65416666666667,144.21626625061035L72.74166666666667,128.70702896118163L72.8625,118.41467247009275L73.46666666666667,113.72547206878659L74.3125,128.22365436553955L74.43333333333332,107.47750530242917L74.91666666666667,131.52197513580322L75.0375,123.33533248901365L75.15833333333333,140.4234519958496L75.4,99.61492309570309L75.64166666666667,117.88495502471922L76.125,115.39950141906735L77.21249999999999,141.6440683364868L77.33333333333333,117.52388820648191L77.45416666666667,138.70231590270996L77.575,121.51098594665525L77.9375,124.45969829559324L78.30000000000001,137.4106575012207L78.6625,114.76003799438473L79.50833333333334,106.03264389038083L79.62916666666668,98.08832511901852L79.75,83.96979770660396L79.87083333333332,100.150666809082L80.1125,84.30260047912593L80.23333333333333,94.96451148986813L80.59583333333333,62.91868553161615L80.71666666666667,100.08072814941403L80.8375,100.88213691711422L81.07916666666667,71.71873435974115L81.32083333333333,100.54127082824704L81.44166666666666,79.28619918823237L81.925,131.10412559509277L82.77083333333333,91.98685607910151L83.13333333333334,137.7830129623413L83.25416666666668,97.07727012634274L83.49583333333332,120.32635746002195L83.7375,116.4291444778442L84.1,130.63017234802246L85.42916666666666,144.81235752105712L85.79166666666667,79.2931591033935L85.91250000000001,108.61129245758053L86.03333333333335,57.01973304748529L86.27499999999999,92.24657974243159L86.51666666666667,85.48510704040523L86.6375,87.71194038391108L86.87916666666666,145.81051120758056L87.48333333333333,106.3550067901611L87.60416666666666,103.61500701904293L88.32916666666667,102.74450836181637L88.57083333333334,104.61027488708493L88.69166666666668,130.04740676879882L88.8125,114.83439025878903L88.93333333333332,104.61163291931149L89.05416666666666,118.18906936645506L89.175,81.85865173339839L89.29583333333333,79.95265350341792L89.41666666666667,97.29828987121579L89.53750000000001,69.50242576599115L89.65833333333333,80.02522335052485L89.9,82.61821613311763L90.2625,108.62792835235592L90.38333333333333,68.09839019775384L90.50416666666666,89.47101650238032L90.74583333333334,103.18960342407223L91.22916666666667,78.86656723022456L91.47083333333333,110.99599704742428L91.71249999999999,68.6287017822265L92.19583333333334,91.99576816558833L92.31666666666668,102.02568492889401L92.4375,114.1163307189941L92.67916666666666,105.88555202484127L92.92083333333333,103.04251155853268L93.1625,87.49584350585933L93.40416666666667,72.84768352508539L93.525,86.3540779113769L93.88749999999999,100.93934402465817L94.12916666666666,108.97346267700192L94.25,93.3715396881103L94.37083333333334,84.64473972320552L94.49166666666666,89.98477706909175L94.6125,87.80513534545894L94.73333333333333,75.65685806274408L94.97500000000001,104.07045707702633L95.09583333333335,83.3664070129394L95.7,112.7887693405151L95.82083333333334,85.1543413162231L96.0625,131.51908931732177L96.18333333333334,84.121388053894L96.30416666666667,104.35759601593014L96.66666666666666,102.03663406372067L96.90833333333333,83.76524410247798L97.15,72.29097518920892L97.39166666666667,105.57099781036374L97.63333333333334,81.97917709350581L97.875,83.49346790313716L97.99583333333332,95.00049934387204L98.11666666666666,45.532477951049714L98.47916666666667,96.5571437835693L98.9625,71.96385917663568L99.08333333333333,75.3394180297851L99.325,93.7952457427978L99.6875,63.48311767578119L100.17083333333333,86.82361755371089L100.77499999999999,91.94849166870112L101.62083333333332,79.19860610961909L101.74166666666666,89.49495182037349L101.98333333333333,84.48771724700923L102.10416666666667,95.15056190490719L102.225,84.5781112670898L102.34583333333333,88.34894237518306L102.46666666666667,91.44109687805171L102.5875,73.72268066406244L102.82916666666667,82.66133365631099L102.94999999999999,65.16402206420892L103.43333333333334,94.67703304290768L103.55416666666666,103.19987354278561L104.03750000000001,94.11625061035151L104.39999999999999,58.744688606262145L104.64166666666667,79.56323776245112L104.7625,109.21909675598141L104.88333333333334,79.04412994384761L105.24583333333334,96.09133872985836L105.36666666666667,60.42177352905267L105.48750000000001,73.46787986755365L105.60833333333333,64.11655483245843L105.72916666666666,82.83974514007564L105.97083333333333,67.00517425537103L106.09166666666667,60.206695175170836L106.2125,63.85360584259027L106.45416666666667,83.94017562866206L106.575,101.30788002014157L106.69583333333334,60.21026000976556L106.81666666666668,85.75128135681148L106.9375,87.40774116516108L107.05833333333332,86.93582496643062L107.3,64.58049259185785L107.42083333333333,69.57041225433343L107.78333333333333,83.16541824340815L108.26666666666667,105.81417045593258L108.62916666666666,72.24658451080316L108.75,77.78744087219232L108.87083333333334,117.84565696716307L109.1125,62.33965454101556L109.35416666666667,65.49962577819818L109.475,97.17632160186764L109.71666666666667,65.66581497192377L109.95833333333333,57.10681686401361L110.44166666666668,102.8588376998901L110.925,66.94168624877923L111.04583333333333,56.98595199584955L111.2875,49.01421794891348L111.40833333333333,56.539244270324645L111.52916666666667,48.03982982635489L111.65,68.30209503173822L111.77083333333334,115.65964946746823L112.25416666666666,53.50658855438223L112.375,76.16815719604486L113.10000000000001,38.830504035949616L113.34166666666665,71.38550720214837L113.46249999999999,61.26171646118158L113.58333333333333,78.39668807983394L113.70416666666667,55.21991596221915L113.94583333333334,38.33949050903311L114.30833333333334,103.58996829986569L114.42916666666667,86.27200183868403L114.79166666666666,77.38427505493158L114.9125,35.83578834533682L115.03333333333333,79.08325824737544L115.275,60.570138549804625L115.51666666666667,28.390037155151248L115.87916666666668,42.72839603424063L116.24166666666666,86.7543579101562L116.60416666666667,91.52478561401362L116.72500000000001,64.44579277038568L116.84583333333333,64.49434242248529L117.0875,63.04973564147943L117.20833333333333,55.800135231018004L117.32916666666667,74.86028728485101L117.57083333333333,97.81035289764401L117.69166666666666,52.32077178955069L117.8125,92.95598182678218L118.41666666666667,55.246058082580475L118.89999999999999,78.04215679168696L119.02083333333333,30.285171127319217L119.2625,30.290433502197146L119.50416666666668,75.99288616180414L119.74583333333332,88.80710849761958L119.86666666666666,86.54335365295405L119.9875,73.2172380447387L120.10833333333333,89.61225185394282L120.22916666666667,74.30858669281L120.35,56.012158012390074L120.59166666666667,59.1885105133056L120.83333333333334,78.85655174255366L121.07499999999999,32.05977973937976L121.4375,70.3578163146972L121.67916666666666,68.28257331848138L121.8,86.90238342285151L121.92083333333333,71.68317089080804L122.40416666666665,77.79151496887201L122.64583333333333,94.32513294219966L122.76666666666667,82.06201705932612L123.00833333333334,50.758949851989655L123.37083333333334,68.7882705688476L123.85416666666666,65.75620899200433L124.21666666666667,60.21433410644525L124.57916666666667,81.41160449981685L124.7,77.6924634933471L124.94166666666668,53.142890548705964L125.18333333333332,63.7932582855224L125.425,46.29586181640616L126.02916666666667,70.07602462768548L126.27083333333333,84.66112098693843L126.39166666666667,102.11259899139401L126.5125,73.63848266601556L126.63333333333333,52.301165199279694L126.99583333333334,66.06847152709955L127.72083333333333,27.029288864135623L127.96249999999999,59.81626091003412L128.08333333333334,54.322171783447175L128.20416666666665,61.75281486511224L128.325,32.967115020751834L128.44583333333333,50.585291481017975L128.92916666666667,72.86219749450677L129.17083333333335,77.42603454589837L129.29166666666669,48.308210945129304L129.65416666666667,44.06469974517813L129.775,70.8002801895141L129.89583333333334,79.69072303771968L130.01666666666665,59.30708370208734L130.1375,62.05175170898431L130.37916666666666,56.45665893554681L130.5,41.845420455932526L130.62083333333334,26.103280639648318L130.74166666666665,42.69987735748282L130.98333333333332,61.49572238922113L131.34583333333333,59.656861877441344L131.5875,42.963759994506745L131.70833333333334,35.000768280029206L131.95000000000002,61.260697937011656L132.07083333333335,75.76100215911859L132.43333333333334,58.11880550384515L132.79583333333335,89.22249660491939L132.91666666666666,69.54766521453851L133.7625,78.46985206603999L133.88333333333333,36.689226722717194L134.00416666666666,47.17068920135489L134.125,85.18311462402339L134.24583333333334,34.73119888305655L134.36666666666667,51.43389186859122L134.4875,67.55577144622796L134.72916666666666,57.03008804321283L134.85,34.168973541259675L134.97083333333333,78.79968414306636L135.33333333333334,39.17128524780264L135.45416666666668,58.04088840484613L135.57500000000002,74.99456272125238L135.69583333333333,64.51437339782709L135.9375,74.88184604644769L136.6625,45.27979907989493L136.78333333333333,54.12245616912833L137.14583333333334,57.311370468139586L137.99166666666667,80.13496932983394L138.35416666666669,50.79553184509268L138.8375,45.66590461730948L139.2,94.95322284698483L139.32083333333333,50.14308223724356L139.44166666666666,80.1371761322021L139.68333333333334,78.91392860412593L139.80416666666665,65.11097393035882L139.92499999999998,54.94890365600577L140.2875,41.31680641174307L140.40833333333333,78.92716941833491L140.65,43.61833152770987L140.89166666666668,85.16834602355952L141.01250000000002,76.53066692352289L141.25416666666666,46.71931324005118L141.49583333333334,58.50813636779779L141.61666666666667,62.49684677124017L141.85833333333335,72.68438014984125L142.1,55.07834110260001L142.22083333333333,55.79410896301263L142.34166666666667,59.91658554077142L142.4625,44.02056369781485L142.825,69.8237701416015L142.94583333333333,32.337667083740115L143.06666666666666,36.78462848663321L143.42916666666667,65.34014186859125L143.55,60.00978050231927L144.51666666666668,64.02327499389642L144.87916666666666,56.35922012329095L145,70.70233211517328L145.24166666666667,74.4975229263305L145.48333333333335,101.89471969604489L145.60416666666666,47.41106090545645L145.96666666666667,63.61645946502679L146.0875,51.35886058807364L146.32916666666668,54.31376895904532L146.45,64.10993442535394L146.57083333333333,53.34566173553458L146.69166666666666,68.77087078094476L147.05416666666667,26.943053817748904L148.02083333333331,81.13023719787593L148.2625,97.59866962432858L148.50416666666666,51.236213302612214L148.74583333333334,28.30957374572742L148.86666666666665,34.58894500732413L148.9875,51.90063056945792L149.22916666666666,43.4380527496337L149.47083333333333,36.907106018066315L149.59166666666667,39.82178268432608L149.7125,53.81528625488272L150.075,37.216482734680085L150.19583333333335,51.18087348937979L150.31666666666666,31.098802185058474L150.92083333333332,68.42465744018548L151.1625,47.75583133697501L151.28333333333333,21.880818939208865L151.64583333333334,56.03312263488763L151.88750000000002,57.27393970489496L152.6125,41.035948371887116L152.73333333333332,32.64611015319812L152.975,78.04758892059321L153.21666666666667,60.339273071289L153.70000000000002,43.567320442199616L153.9416666666667,63.710503196716246L154.1833333333333,61.21350631713861L154.42499999999998,37.320202445983796L154.66666666666666,78.00642356872554L154.90833333333333,56.54280910491937L155.02916666666667,50.3468719482421L155.15,37.814186668395905L155.27083333333334,57.31951866149896L155.39166666666668,67.9472242355346L156.11666666666667,58.120503044128355L156.23749999999998,47.09659156799307L156.9625,49.06005153655997L157.20416666666668,45.48341903686514L157.44583333333335,85.25347766876216L157.56666666666666,69.59638462066644L157.6875,59.228063201904234L158.775,79.37048206329341L159.01666666666668,64.58252964019769L159.37916666666666,96.77205238342282L159.74166666666665,79.53123912811274L159.8625,38.68426094055167L160.10416666666669,44.049931144714265L160.225,47.72646389007559L160.34583333333333,77.00971279144281L160.46666666666667,78.47927341461177L160.70833333333334,38.2332244873046L160.82916666666665,54.681371307372956L161.07083333333333,48.06215248107901L161.19166666666666,60.249642944335875L161.3125,40.05672225952139L161.675,79.28585968017573L161.79583333333332,34.98515090942374L162.0375,51.40681610107413L163.0041666666667,42.74257049560538L163.125,83.2230497360229L163.2458333333333,59.3071685791015L163.36666666666667,53.18524417877188L163.72916666666666,31.10796890258777L163.85,51.86277542114249L163.97083333333333,17.356364822387576L164.33333333333334,50.655909156799225L164.45416666666668,70.71998653411859L164.575,56.76433811187738L164.9375,46.88847312927237L166.3875,57.26859245300287L166.75,72.44468746185296L166.99166666666665,83.62188682556148L167.1125,44.05281696319571L167.35416666666666,59.0455776214599L167.475,67.70116577148431L167.8375,81.5625158309936L168.2,46.69317111968985L168.32083333333335,85.82724628448481L168.44166666666666,74.21802291870111L168.5625,85.00843772888179L168.68333333333334,63.9566465377807L168.80416666666665,75.59634075164789L168.925,67.93729362487787L169.04583333333332,63.51138172149652L169.2875,51.87448844909659L169.52916666666667,61.03017196655267L169.64999999999998,31.06841621398914L169.89166666666665,28.578633880615115L170.13333333333333,12.917806243896365L170.375,27.765172576904178L170.49583333333334,24.314412689208865L170.61666666666667,49.68593463897696L170.7375,43.94069442749014L170.85833333333332,47.5034070968627L170.97916666666666,58.104121780395445L172.0666666666667,72.22757205963129L172.1875,84.41158256530757L172.42916666666667,50.85494575500479L172.54999999999998,73.93928680419916L173.03333333333333,58.1785589218139L173.15416666666667,76.48933181762689L173.275,57.74297008514398L173.51666666666668,34.13213691711417L173.87916666666666,32.69313201904285L174.24166666666667,49.10868606567374L174.48333333333335,83.606269454956L174.72500000000002,64.20448741912836L174.84583333333333,74.04928741455072L175.0875,29.688146209716678L175.20833333333331,46.08587608337393L175.57083333333335,34.76481018066397L175.69166666666666,51.7826515197753L175.8125,81.25398788452144L176.05416666666665,62.82192573547357L176.175,60.36218986511224L176.29583333333332,80.40810356140132L176.5375,49.352113342285065L176.65833333333333,36.781403160095124L176.77916666666667,57.6432395935058L176.9,87.44347438812251L177.02083333333334,32.21527442932117L177.14166666666668,73.93512783050531L177.74583333333334,67.00237331390375L177.86666666666665,58.10497055053705L178.10833333333332,44.11087284088126L178.59166666666667,76.82535991668695L178.71249999999998,73.45506343841546L178.95416666666665,45.772255516052155L179.4375,40.59620056152335L179.67916666666667,59.62791881561273L179.92083333333332,74.45618782043451L180.1625,77.26638088226312L180.28333333333333,50.019925689697175L180.40416666666667,84.89300498962398L180.525,24.999709701537967L180.76666666666665,54.25520381927481L181.1291666666667,53.12438735961905L181.25,80.34291801452632L181.49166666666667,28.066485977172732L181.61249999999998,51.93025264739981L181.73333333333335,50.0769630432128L181.975,59.467416381835875L182.45833333333334,97.3076263427734L182.7,51.33585891723624L182.82083333333333,83.28068122863765L183.0625,38.905535316467194L183.18333333333334,44.35693130493155L183.54583333333335,61.53544483184808L183.66666666666666,89.18888530731196L184.27083333333331,54.42979583740225L184.39166666666668,34.99686393737784L184.5125,81.97145328521724L184.63333333333335,77.95965633392329L184.875,53.29965839385977L185.11666666666665,73.1799770355224L185.2375,47.53447208404532L185.35833333333332,53.57084045410147L185.47916666666666,78.97775611877437L185.6,62.340842819213805L185.72083333333333,64.34869346618646L186.08333333333334,66.59038028717035L186.44583333333335,40.67547569274893L186.6875,59.21295509338373L187.05,46.37428817749014L187.17083333333332,53.28803024291983L187.29166666666669,49.443695640563874L187.4125,60.14838466644281L187.89583333333334,54.70479736328116L188.37916666666666,32.74830207824695L188.62083333333334,75.9086032867431L188.74166666666667,32.70976791381824L189.225,22.49210319519031L189.34583333333333,112.4319463729858L189.70833333333334,20.887248611450076L190.07083333333333,40.7993112564086L190.3125,44.842088317871L190.55416666666667,86.98182830810542L190.67499999999998,64.16459522247308L190.79583333333335,32.896667098998904L191.15833333333333,63.61493167877191L191.4,70.39864215850824L191.52083333333334,35.72154388427725L191.7625,68.24785861968988L191.88333333333333,59.673497772216734L192.00416666666666,87.5687528610229L192.24583333333334,65.50386962890619L192.36666666666667,76.11400566101068L192.72916666666666,58.88397178649896L193.33333333333331,54.17694721221915L194.78333333333333,56.795403099059996L194.90416666666667,71.2812782287597L195.025,50.720076179504304L195.14583333333334,15.801927185058474L195.62916666666666,64.91923675537103L195.99166666666665,66.3003555297851L196.1125,75.30088386535638L196.35416666666669,30.89034423828113L196.475,35.50850257873526L196.59583333333333,64.84106502532953L196.71666666666667,79.88339385986323L197.20000000000002,85.13295230865474L197.32083333333333,75.17933998107904L197.44166666666666,80.05017719268794L197.68333333333334,49.433510398864655L197.80416666666667,52.67377529144278L197.925,51.68062934875479L198.16666666666666,58.02993927001947L198.40833333333333,57.85101852416986L199.13333333333333,73.75603733062738L199.375,35.66484603881827L199.97916666666666,59.75251827239984L200.1,57.42909488677972L201.1875,40.04585800170889L201.30833333333334,42.33193550109854L201.79166666666666,49.1434856414794L202.275,59.96377716064447L202.6375,41.70647678375235L203,64.3920656204223L203.12083333333334,81.5804248809814L203.24166666666665,44.538568115234284L203.60416666666666,22.95298538207996L203.725,62.48403034210199L204.0875,61.1762453079223L204.32916666666668,72.91804656982416L204.45,56.06868610382074L204.57083333333335,57.55250606536859L205.41666666666669,31.233756637573123L205.5375,51.14183006286612L205.65833333333333,62.2722621917724L205.77916666666667,38.177630043029694L206.02083333333334,73.68261871337884L206.14166666666665,71.00330600738519L206.26250000000002,22.477164840698123L206.38333333333333,70.2826152801513L206.50416666666666,27.797935104369998L206.625,42.773126220703034L206.74583333333334,53.399558639526276L206.86666666666667,28.691011047363162L206.9875,65.47153148651117L207.35,52.81373748779288L207.59166666666667,25.34872398376453L208.19583333333333,32.005967712402224L208.3166666666667,85.38834724426265L208.4375,51.04549465179434L208.67916666666667,64.86517009735101L209.525,65.97595558166498L209.76666666666668,68.57446537017816L210.37083333333334,95.40943679809567L210.49166666666667,61.04035720825189L210.97500000000002,58.19875965118402L211.21666666666667,62.27854309082025L211.3375,62.460179901122984L211.57916666666668,61.88352546691888L211.7,73.01947460174554L211.94166666666666,69.87843093872064L212.0625,36.15950927734366L212.7875,53.133129692077546L212.90833333333333,59.010523414611754L213.02916666666667,62.75521240234369L213.63333333333335,39.3339096069335L213.75416666666666,63.938652610778746L214.84166666666667,73.76087532043451L214.96249999999998,13.237622833251834L215.32500000000002,54.20996437072745L215.44583333333333,61.18804321289056L215.56666666666666,84.1974378585815L215.80833333333334,52.0855775833129L216.05,55.958006477355895L216.29166666666666,52.44112739562979L216.65416666666667,35.0399814605712L216.775,53.893457984924225L217.01666666666665,9.013124084472537L217.13750000000002,56.22121009826654L217.3791666666667,36.244131660461335L217.6208333333333,30.655404663085818L217.74166666666667,48.722156143188386L217.98333333333335,46.750038719177155L218.10416666666666,41.22734603881827L218.5875,43.95469913482657L218.70833333333334,30.96605453491199L218.95,55.27584991455069L219.07083333333333,17.773789978027224L219.19166666666666,46.918434715270905L219.3125,85.036107635498L219.67499999999998,61.07710895538324L219.79583333333335,43.82644996643057L219.91666666666666,86.97232208251948L220.4,83.4269243240356L220.64166666666668,66.80257282257074L220.7625,31.315747833251834L220.88333333333335,32.207635498046756L221.125,49.269782638549714L221.36666666666665,24.462607955932498L221.60833333333332,79.54677162170405L221.85,47.24835166931143L221.97083333333333,61.73558483123773L222.09166666666667,64.5767580032348L222.33333333333334,65.49453315734857L222.45416666666668,100.30378494262692L222.575,64.03303585052484L222.69583333333335,75.95443687438959L222.81666666666666,43.19301280975333L222.9375,94.30408344268794L223.17916666666665,23.943330383300662L223.3,66.89347610473627L223.6625,59.16228351593011L223.78333333333333,59.54117450714105L224.02499999999998,73.14891204833978L224.14583333333334,39.411232566833405L224.50833333333333,58.44201717376703L224.62916666666666,51.69624671936026L224.75,51.78112373352042L224.87083333333334,36.56895599365225L225.23333333333332,58.21004829406732L225.71666666666667,39.53931198120108L225.95833333333334,56.1256385803222L226.07916666666665,59.79461727142328L226.20000000000002,80.60747966766353L226.5625,45.22047004699698L226.6833333333333,42.72177562713614L226.92499999999998,46.06380805969229L227.40833333333333,25.917060470580935L227.52916666666667,55.104652976989655L227.65,52.54993972778311L227.77083333333334,55.60160789489737L228.0125,71.02961788177484L228.49583333333334,62.97894821166986L228.61666666666667,74.37793121337884L228.85833333333335,43.31285915374747L228.97916666666666,84.35064086914058L229.10000000000002,52.774778938293366L229.22083333333333,79.90469799041743L229.4625,91.43532524108882L229.825,44.027947998046784L229.94583333333335,54.653531646728425L230.06666666666666,64.54467449188226L230.1875,75.551355934143L230.30833333333334,69.66505012512201L230.67083333333332,61.558531379699645L230.79166666666666,34.26047096252432L231.39583333333334,59.43940696716302L231.6375,53.56540832519522L231.75833333333335,33.42799720764151L231.87916666666666,69.25806484222406L232.3625,42.22804603576651L232.725,47.385852432250886L232.96666666666667,63.32847175598138L233.32916666666665,67.3041110992431L233.45000000000002,52.46209201812735L233.57083333333333,51.44144592285147L233.69166666666666,42.148940658569245L233.8125,44.74880847930899L234.05416666666667,62.93523654937738L234.175,33.804851150512604L234.29583333333332,53.10214958190909L234.65833333333333,77.62990913391107L234.77916666666667,90.10835800170894L235.02083333333334,45.152568435668854L235.14166666666665,36.58813819885245L235.26250000000002,65.0192218780517L235.625,45.22607192993155L235.86666666666667,50.54472026824942L235.98749999999998,48.69100627899161L236.10833333333335,69.6574111938476L236.22916666666666,48.80007324218741L237.075,43.38610801696768L237.19583333333333,49.446411705017L237.55833333333334,55.11305580139151L238.16250000000002,77.95244178771968L238.64583333333331,61.82903442382806L238.8875,33.1122547149657L239.37083333333334,64.56139526367181L239.49166666666665,67.13622436523431L239.73333333333332,62.813777542114195L240.21666666666667,39.943156814575104L240.3375,48.03108749389639L240.45833333333334,67.64378890991205L240.7,76.17537174224847L240.82083333333335,50.69036922454825L240.94166666666666,83.61085281372065L241.425,44.51055870056143L241.66666666666669,61.488592720031676L241.90833333333333,31.660009002685428L242.14999999999998,61.50327644348138L242.27083333333334,75.69335517883295L242.51250000000002,48.6428810119628L242.99583333333334,75.24214897155755L243.2375,59.01366386413568L243.35833333333332,73.10027751922601L243.72083333333333,67.50509986877435L244.08333333333334,28.76519355773914L244.5666666666667,35.00365409851065L244.8083333333333,36.56250534057608L244.92916666666667,51.871942138671784L245.29166666666666,54.360621070861725L245.775,56.41846427917474L245.89583333333334,64.9699932098388L246.01666666666668,39.422181701660065L246.1375,33.669047927856354L246.5,54.91130313873282L246.62083333333334,51.80590782165518L246.74166666666667,44.8512550354003L246.98333333333335,97.94581661224362L247.10416666666666,82.06218681335444L247.22500000000002,80.29521713256831L247.46666666666667,75.05626831054681L247.5875,70.54140529632562L247.95,58.33549652099603L248.07083333333335,54.5300355911254L248.3125,79.50373897552485L248.55416666666665,51.60822925567618L248.675,45.93861446380606L248.79583333333332,61.40447959899896L249.64166666666668,48.091774559020905L249.7625,57.240413284301695L249.88333333333335,63.75081977844232L250.00416666666666,59.021557426452574L250.72916666666669,60.76722297668451L250.85,32.9049850463866L250.97083333333333,42.34144172668448L251.09166666666667,87.01891956329341L251.21249999999998,58.89924964904779L251.45416666666665,35.440940475463776L251.81666666666666,21.94787178039539L252.17916666666667,60.84972343444818L252.6625,89.74703655242915L252.78333333333333,58.03970012664789L252.90416666666667,18.268283462524295L253.025,77.9894481658935L253.38750000000002,53.64595661163321L253.50833333333333,37.172601318359284L253.99166666666667,36.74235973358145L254.35416666666666,43.77221355438223L254.475,54.75368652343741L254.8375,66.3510271072387L254.95833333333334,58.92581615447992L255.07916666666668,43.67180404663077L255.2,51.823222732543854L255.32083333333333,38.31784687042227L255.68333333333334,7.555276489257693L255.80416666666667,65.358560180664L255.92499999999998,2.291034317016482L256.04583333333335,53.333524322509675L256.5291666666667,61.156044578552184L256.65,66.75453243255609L256.7708333333333,36.52227363586417L257.1333333333333,69.63432464599603L257.375,59.56086597442621L257.49583333333334,68.5556226730346L257.6166666666667,62.39771041870111L257.85833333333335,40.4069248199462L257.97916666666663,22.718555068969607L258.1,48.10560951232901L258.3416666666667,35.98126754760733L258.4625,40.17351303100577L259.06666666666666,39.63284645080557L259.30833333333334,74.72329578399652L259.4291666666667,39.649397468566804L259.67083333333335,28.851598358154178L260.0333333333333,43.360050773620515L260.275,72.76696548461908L260.3958333333333,22.65404853820789L260.51666666666665,23.09574851989734L260.7583333333333,49.88123664855948L261,68.03872165679925L261.12083333333334,70.77184638977045L261.2416666666667,89.87919006347651L261.72499999999997,67.50866470336908L261.84583333333336,37.69841442108145L262.08750000000003,66.42851982116693L262.32916666666665,58.2224403381347L262.93333333333334,64.19803676605218L263.4166666666667,46.29806861877432L263.53749999999997,56.99783477783197L263.65833333333336,22.748771286010623L263.77916666666664,43.887221908569245L265.2291666666667,31.999686813354373L265.4708333333333,51.297324752807526L265.7125,63.57571849822992L265.95416666666665,67.13758239746087L266.075,40.80448875427237L266.1958333333333,32.674459075927615L266.31666666666666,31.43814048767078L266.4375,22.179755783080935L266.55833333333334,58.52893123626703L266.6791666666667,53.75926742553702L266.8,52.76654586791983L266.92083333333335,59.39433727264398L267.04166666666663,20.91152343749988L267.1625,62.368173217773375L267.4041666666667,33.430373764037995L267.525,57.36891708374017L267.64583333333337,48.10603389739981L267.8875,29.893718338012576L268.12916666666666,61.95991477966302L268.4916666666667,57.604620552062926L268.8541666666667,45.9685760498046L269.0958333333333,71.07052860260004L269.2166666666667,56.29072437286371L269.4583333333333,47.804465866088776L269.8208333333333,59.47505531311029L270.0625,49.857471084594636L270.18333333333334,43.65584716796866L270.425,24.318656539916873L270.6666666666667,72.88485965728754L270.78749999999997,45.49827251434317L270.90833333333336,38.89187011718741L271.15000000000003,83.20225486755366L271.2708333333333,12.37221679687488L271.5125,66.91180953979486L271.6333333333333,59.82152328491205L271.875,36.10484848022452L271.99583333333334,68.77341709136957L272.96250000000003,71.32575378417962L273.0833333333333,61.80993709564203L273.325,73.38877449035638L273.4458333333333,60.51327095031732L273.9291666666667,39.835193252563386L274.5333333333333,77.53280982971185L274.6541666666667,42.2103916168212L274.775,56.16264495849603L274.8958333333333,47.494495010375886" style="fill: none;" fill="none"></path></g></g></g></g></g></g><g transform="translate(40, 178)" clip-path="url(#clip_1)"><clipPath id="clip_1"><rect width="290" height="22"></rect></clipPath><g><g><line x1="0" y1="0" x2="0" y2="5" style="visibility: inherit;" fill="rgb(0, 0, 0)" stroke="rgb(204, 204, 204)" stroke-width="1px"></line><line x1="24.166666666666664" y1="0" x2="24.166666666666664" y2="5" style="visibility: inherit;" fill="rgb(0, 0, 0)" stroke="rgb(204, 204, 204)" stroke-width="1px"></line><line x1="48.33333333333333" y1="0" x2="48.33333333333333" y2="5" style="visibility: inherit;" fill="rgb(0, 0, 0)" stroke="rgb(204, 204, 204)" stroke-width="1px"></line><line x1="72.5" y1="0" x2="72.5" y2="5" style="visibility: inherit;" fill="rgb(0, 0, 0)" stroke="rgb(204, 204, 204)" stroke-width="1px"></line><line x1="96.66666666666666" y1="0" x2="96.66666666666666" y2="5" style="visibility: inherit;" fill="rgb(0, 0, 0)" stroke="rgb(204, 204, 204)" stroke-width="1px"></line><line x1="120.83333333333334" y1="0" x2="120.83333333333334" y2="5" style="visibility: inherit;" fill="rgb(0, 0, 0)" stroke="rgb(204, 204, 204)" stroke-width="1px"></line><line x1="145" y1="0" x2="145" y2="5" style="visibility: inherit;" fill="rgb(0, 0, 0)" stroke="rgb(204, 204, 204)" stroke-width="1px"></line><line x1="169.16666666666669" y1="0" x2="169.16666666666669" y2="5" style="visibility: inherit;" fill="rgb(0, 0, 0)" stroke="rgb(204, 204, 204)" stroke-width="1px"></line><line x1="193.33333333333331" y1="0" x2="193.33333333333331" y2="5" style="visibility: inherit;" fill="rgb(0, 0, 0)" stroke="rgb(204, 204, 204)" stroke-width="1px"></line><line x1="217.5" y1="0" x2="217.5" y2="5" style="visibility: inherit;" fill="rgb(0, 0, 0)" stroke="rgb(204, 204, 204)" stroke-width="1px"></line><line x1="241.66666666666669" y1="0" x2="241.66666666666669" y2="5" style="visibility: inherit;" fill="rgb(0, 0, 0)" stroke="rgb(204, 204, 204)" stroke-width="1px"></line><line x1="265.8333333333333" y1="0" x2="265.8333333333333" y2="5" style="visibility: inherit;" fill="rgb(0, 0, 0)" stroke="rgb(204, 204, 204)" stroke-width="1px"></line><line x1="290" y1="0" x2="290" y2="5" style="visibility: inherit;" fill="rgb(0, 0, 0)" stroke="rgb(204, 204, 204)" stroke-width="1px"></line></g><g transform="translate(0, 8)"><text x="0" y="0" dx="0em" dy="0.95em" style="text-anchor: middle; visibility: hidden; font-family: &quot;Helvetica Neue&quot;, sans-serif; font-size: 12px; font-weight: 200;" fill="rgb(50, 49, 63)" stroke="none" stroke-width="1px">-200</text><text x="24.166666666666664" y="0" dx="0em" dy="0.95em" style="text-anchor: middle; visibility: inherit; font-family: &quot;Helvetica Neue&quot;, sans-serif; font-size: 12px; font-weight: 200;" fill="rgb(50, 49, 63)" stroke="none" stroke-width="1px">0</text><text x="48.33333333333333" y="0" dx="0em" dy="0.95em" style="text-anchor: middle; visibility: hidden; font-family: &quot;Helvetica Neue&quot;, sans-serif; font-size: 12px; font-weight: 200;" fill="rgb(50, 49, 63)" stroke="none" stroke-width="1px">200</text><text x="72.5" y="0" dx="0em" dy="0.95em" style="text-anchor: middle; visibility: inherit; font-family: &quot;Helvetica Neue&quot;, sans-serif; font-size: 12px; font-weight: 200;" fill="rgb(50, 49, 63)" stroke="none" stroke-width="1px">400</text><text x="96.66666666666666" y="0" dx="0em" dy="0.95em" style="text-anchor: middle; visibility: hidden; font-family: &quot;Helvetica Neue&quot;, sans-serif; font-size: 12px; font-weight: 200;" fill="rgb(50, 49, 63)" stroke="none" stroke-width="1px">600</text><text x="120.83333333333334" y="0" dx="0em" dy="0.95em" style="text-anchor: middle; visibility: inherit; font-family: &quot;Helvetica Neue&quot;, sans-serif; font-size: 12px; font-weight: 200;" fill="rgb(50, 49, 63)" stroke="none" stroke-width="1px">800</text><text x="145" y="0" dx="0em" dy="0.95em" style="text-anchor: middle; visibility: hidden; font-family: &quot;Helvetica Neue&quot;, sans-serif; font-size: 12px; font-weight: 200;" fill="rgb(50, 49, 63)" stroke="none" stroke-width="1px">1k</text><text x="169.16666666666669" y="0" dx="0em" dy="0.95em" style="text-anchor: middle; visibility: inherit; font-family: &quot;Helvetica Neue&quot;, sans-serif; font-size: 12px; font-weight: 200;" fill="rgb(50, 49, 63)" stroke="none" stroke-width="1px">1.2k</text><text x="193.33333333333331" y="0" dx="0em" dy="0.95em" style="text-anchor: middle; visibility: hidden; font-family: &quot;Helvetica Neue&quot;, sans-serif; font-size: 12px; font-weight: 200;" fill="rgb(50, 49, 63)" stroke="none" stroke-width="1px">1.4k</text><text x="217.5" y="0" dx="0em" dy="0.95em" style="text-anchor: middle; visibility: inherit; font-family: &quot;Helvetica Neue&quot;, sans-serif; font-size: 12px; font-weight: 200;" fill="rgb(50, 49, 63)" stroke="none" stroke-width="1px">1.6k</text><text x="241.66666666666669" y="0" dx="0em" dy="0.95em" style="text-anchor: middle; visibility: hidden; font-family: &quot;Helvetica Neue&quot;, sans-serif; font-size: 12px; font-weight: 200;" fill="rgb(50, 49, 63)" stroke="none" stroke-width="1px">1.8k</text><text x="265.8333333333333" y="0" dx="0em" dy="0.95em" style="text-anchor: middle; visibility: inherit; font-family: &quot;Helvetica Neue&quot;, sans-serif; font-size: 12px; font-weight: 200;" fill="rgb(50, 49, 63)" stroke="none" stroke-width="1px">2k</text><text x="290" y="0" dx="0em" dy="0.95em" style="text-anchor: middle; visibility: hidden; font-family: &quot;Helvetica Neue&quot;, sans-serif; font-size: 12px; font-weight: 200;" fill="rgb(50, 49, 63)" stroke="none" stroke-width="1px">2.2k</text></g><line x1="0" y1="0" x2="290" y2="0" fill="rgb(0, 0, 0)" stroke="rgb(204, 204, 204)" stroke-width="1px"></line></g></g></g></g></svg>