<svg viewBox="0 0 330 200" xmlns="http://www.w3.org/2000/svg"><g><g><g><g><g><line x1="50" y1="178" x2="45" y2="178" style="visibility: inherit;" fill="rgb(0, 0, 0)" stroke="rgb(204, 204, 204)" stroke-width="1px"></line><line x1="50" y1="152.57142857142858" x2="45" y2="152.57142857142858" style="visibility: inherit;" fill="rgb(0, 0, 0)" stroke="rgb(204, 204, 204)" stroke-width="1px"></line><line x1="50" y1="127.14285714285714" x2="45" y2="127.14285714285714" style="visibility: inherit;" fill="rgb(0, 0, 0)" stroke="rgb(204, 204, 204)" stroke-width="1px"></line><line x1="50" y1="101.71428571428572" x2="45" y2="101.71428571428572" style="visibility: inherit;" fill="rgb(0, 0, 0)" stroke="rgb(204, 204, 204)" stroke-width="1px"></line><line x1="50" y1="76.28571428571429" x2="45" y2="76.28571428571429" style="visibility: inherit;" fill="rgb(0, 0, 0)" stroke="rgb(204, 204, 204)" stroke-width="1px"></line><line x1="50" y1="50.85714285714286" x2="45" y2="50.85714285714286" style="visibility: inherit;" fill="rgb(0, 0, 0)" stroke="rgb(204, 204, 204)" stroke-width="1px"></line><line x1="50" y1="25.428571428571445" x2="45" y2="25.428571428571445" style="visibility: inherit;" fill="rgb(0, 0, 0)" stroke="rgb(204, 204, 204)" stroke-width="1px"></line><line x1="50" y1="0" x2="45" y2="0" style="visibility: inherit;" fill="rgb(0, 0, 0)" stroke="rgb(204, 204, 204)" stroke-width="1px"></line></g><g transform="translate(40, 0)"><text x="0" y="178" dx="0em" dy="0.3em" style="text-anchor: end; visibility: hidden; font-family: &quot;Helvetica Neue&quot;, sans-serif; font-size: 12px; font-weight: 200;" fill="rgb(50, 49, 63)" stroke="none" stroke-width="1px">14.5</text><text x="0" y="152.57142857142858" dx="0em" dy="0.3em" style="text-anchor: end; visibility: inherit; font-family: &quot;Helvetica Neue&quot;, sans-serif; font-size: 12px; font-weight: 200;" fill="rgb(50, 49, 63)" stroke="none" stroke-width="1px">15</text><text x="0" y="127.14285714285714" dx="0em" dy="0.3em" style="text-anchor: end; visibility: inherit; font-family: &quot;Helvetica Neue&quot;, sans-serif; font-size: 12px; font-weight: 200;" fill="rgb(50, 49, 63)" stroke="none" stroke-width="1px">15.5</text><text x="0" y="101.71428571428572" dx="0em" dy="0.3em" style="text-anchor: end; visibility: inherit; font-family: &quot;Helvetica Neue&quot;, sans-serif; font-size: 12px; font-weight: 200;" fill="rgb(50, 49, 63)" stroke="none" stroke-width="1px">16</text><text x="0" y="76.28571428571429" dx="0em" dy="0.3em" style="text-anchor: end; visibility: inherit; font-family: &quot;Helvetica Neue&quot;, sans-serif; font-size: 12px; font-weight: 200;" fill="rgb(50, 49, 63)" stroke="none" stroke-width="1px">16.5</text><text x="0" y="50.85714285714286" dx="0em" dy="0.3em" style="text-anchor: end; visibility: inherit; font-family: &quot;Helvetica Neue&quot;, sans-serif; font-size: 12px; font-weight: 200;" fill="rgb(50, 49, 63)" stroke="none" stroke-width="1px">17</text><text x="0" y="25.428571428571445" dx="0em" dy="0.3em" style="text-anchor: end; visibility: inherit; font-family: &quot;Helvetica Neue&quot;, sans-serif; font-size: 12px; font-weight: 200;" fill="rgb(50, 49, 63)" stroke="none" stroke-width="1px">17.5</text><text x="0" y="0" dx="0em" dy="0.3em" style="text-anchor: end; visibility: hidden; font-family: &quot;Helvetica Neue&quot;, sans-serif; font-size: 12px; font-weight: 200;" fill="rgb(50, 49, 63)" stroke="none" stroke-width="1px">18</text></g><line x1="50" y1="0" x2="50" y2="178" fill="rgb(0, 0, 0)" stroke="rgb(204, 204, 204)" stroke-width="1px"></line></g></g><g transform="translate(50, 0)" clip-path="url(#clip_0)"><clipPath id="clip_0"><rect width="280" height="178"></rect></clipPath><g><g><g><line x1="0" y1="0" x2="0" y2="178" fill="rgb(0, 0, 0)" stroke="rgb(60, 60, 60)" stroke-width="1px" opacity="0.25"></line><line x1="23.333333333333332" y1="0" x2="23.333333333333332" y2="178" fill="rgb(0, 0, 0)" stroke="rgb(60, 60, 60)" stroke-width="1px" opacity="0.25"></line><line x1="46.666666666666664" y1="0" x2="46.666666666666664" y2="178" fill="rgb(0, 0, 0)" stroke="rgb(60, 60, 60)" stroke-width="1px" opacity="0.25"></line><line x1="70" y1="0" x2="70" y2="178" fill="rgb(0, 0, 0)" stroke="rgb(60, 60, 60)" stroke-width="1px" opacity="0.25"></line><line x1="93.33333333333333" y1="0" x2="93.33333333333333" y2="178" fill="rgb(0, 0, 0)" stroke="rgb(60, 60, 60)" stroke-width="1px" opacity="0.25"></line><line x1="116.66666666666667" y1="0" x2="116.66666666666667" y2="178" fill="rgb(0, 0, 0)" stroke="rgb(60, 60, 60)" stroke-width="1px" opacity="0.25"></line><line x1="140" y1="0" x2="140" y2="178" fill="rgb(0, 0, 0)" stroke="rgb(60, 60, 60)" stroke-width="1px" opacity="0.25"></line><line x1="163.33333333333334" y1="0" x2="163.33333333333334" y2="178" fill="rgb(0, 0, 0)" stroke="rgb(60, 60, 60)" stroke-width="1px" opacity="0.25"></line><line x1="186.66666666666666" y1="0" x2="186.66666666666666" y2="178" fill="rgb(0, 0, 0)" stroke="rgb(60, 60, 60)" stroke-width="1px" opacity="0.25"></line><line x1="210" y1="0" x2="210" y2="178" fill="rgb(0, 0, 0)" stroke="rgb(60, 60, 60)" stroke-width="1px" opacity="0.25"></line><line x1="233.33333333333334" y1="0" x2="233.33333333333334" y2="178" fill="rgb(0, 0, 0)" stroke="rgb(60, 60, 60)" stroke-width="1px" opacity="0.25"></line><line x1="256.66666666666663" y1="0" x2="256.66666666666663" y2="178" fill="rgb(0, 0, 0)" stroke="rgb(60, 60, 60)" stroke-width="1px" opacity="0.25"></line><line x1="280" y1="0" x2="280" y2="178" fill="rgb(0, 0, 0)" stroke="rgb(60, 60, 60)" stroke-width="1px" opacity="0.25"></line></g><g><line x1="0" y1="178" x2="280" y2="178" fill="rgb(0, 0, 0)" stroke="rgb(60, 60, 60)" stroke-width="1px" opacity="0.25"></line><line x1="0" y1="152.57142857142858" x2="280" y2="152.57142857142858" fill="rgb(0, 0, 0)" stroke="rgb(60, 60, 60)" stroke-width="1px" opacity="0.25"></line><line x1="0" y1="127.14285714285714" x2="280" y2="127.14285714285714" fill="rgb(0, 0, 0)" stroke="rgb(60, 60, 60)" stroke-width="1px" opacity="0.25"></line><line x1="0" y1="101.71428571428572" x2="280" y2="101.71428571428572" fill="rgb(0, 0, 0)" stroke="rgb(60, 60, 60)" stroke-width="1px" opacity="0.25"></line><line x1="0" y1="76.28571428571429" x2="280" y2="76.28571428571429" fill="rgb(0, 0, 0)" stroke="rgb(60, 60, 60)" stroke-width="1px" opacity="0.25"></line><line x1="0" y1="50.85714285714286" x2="280" y2="50.85714285714286" fill="rgb(0, 0, 0)" stroke="rgb(60, 60, 60)" stroke-width="1px" opacity="0.25"></line><line x1="0" y1="25.428571428571445" x2="280" y2="25.428571428571445" fill="rgb(0, 0, 0)" stroke="rgb(60, 60, 60)" stroke-width="1px" opacity="0.25"></line><line x1="0" y1="0" x2="280" y2="0" fill="rgb(0, 0, 0)" stroke="rgb(60, 60, 60)" stroke-width="1px" opacity="0.25"></line></g></g></g><g><g><line x1="0" y1="915.4285714285714" x2="280" y2="915.4285714285714" fill="rgb(0, 0, 0)" stroke="rgb(153, 153, 153)" stroke-width="1.5px"></line></g></g><g><g><line x1="23.333333333333332" y1="0" x2="23.333333333333332" y2="178" fill="rgb(0, 0, 0)" stroke="rgb(153, 153, 153)" stroke-width="1.5px"></line></g></g><g><g><g><g><g><path stroke="rgb(255, 112, 67)" stroke-width="2px" d="M23.916666666666668,139.58844648088728L24.03333333333333,141.59358386491732L24.5,137.6116548207441L24.616666666666667,147.81180889979697L24.849999999999998,157.03904642846135L24.96666666666667,131.64098574699835L25.083333333333332,149.95696580140805L25.433333333333334,142.75147265658188L25.55,146.83643310074848L25.666666666666664,144.4339300785788L26.133333333333333,141.5727078561869L27.18333333333333,98.11760917094527L27.3,123.65545016867776L27.53333333333333,94.54547241251034L28,88.95835864802724L28.233333333333334,76.5335879085474L28.46666666666667,77.04103400570243L28.583333333333332,81.79126099216093L28.816666666666666,55.4342253391134L29.049999999999997,18.32343491084302L29.166666666666668,-233.3785964910898L29.51666666666667,109.07186527158923L29.633333333333333,142.8198350664494L29.75,147.83709206161848L29.866666666666667,148.27477844893266L29.983333333333334,141.4800441776919L30.333333333333336,138.1520752726381L30.45,141.82381692773245L30.683333333333334,139.51858901242707L30.916666666666664,143.29624407661638L31.033333333333335,135.12521590263287L31.150000000000002,140.59756431785055L31.266666666666666,125.9458022944899L31.616666666666667,134.41211519508104L31.73333333333333,141.51637778877728L31.85,128.14714135106232L31.966666666666665,126.18709264487325L32.550000000000004,115.79198312051446L33.13333333333333,111.21376356457138L33.25,99.29138736393442L33.36666666666667,130.99546264623535L33.483333333333334,84.64106431760003L33.6,96.20314408675132L33.71666666666667,136.21751067604544L34.3,127.17632470142254L35.233333333333334,92.11562022927004L35.58333333333333,116.91035006982673L35.7,85.74654355914566L36.516666666666666,40.80413206240257L36.86666666666666,53.00498282890155L37.1,69.37656398955046L37.21666666666666,131.70397661307214L37.333333333333336,115.10181312202148L37.800000000000004,47.53911499268054L37.916666666666664,41.45128561131324L38.03333333333333,28.1275106748094L38.38333333333333,42.76560283971668L38.5,41.23279023974615L39.31666666666666,11.29761173948205L39.55,42.28713748150804L39.78333333333333,65.61962099902131L39.9,87.09202287997581L40.016666666666666,19.47350434976923L40.13333333333333,38.2152194416291L40.599999999999994,59.97946499573386L40.833333333333336,-87.61159991721439L41.18333333333334,96.36748709759527L41.3,119.80794239943927L41.416666666666664,138.56115646513973L41.65,115.09488997165168L41.766666666666666,106.87940558328182L41.88333333333334,110.55374353588714L42.233333333333334,138.43479412862317L42.46666666666667,132.5492522670597L42.58333333333333,76.81239532952434L42.81666666666667,86.26332700474032L42.93333333333333,99.41878744360453L43.28333333333333,101.0921467205625L43.86666666666667,111.14371841904557L43.983333333333334,87.55988837130901L44.1,79.33265890566669L44.33333333333333,64.39055654762399L44.68333333333333,58.23644137248931L44.91666666666667,-31.491632871635886L45.03333333333333,41.96304244816832L45.266666666666666,58.289261078124284L45.5,27.09385373054735L45.61666666666666,-19.86162477035009L47.36666666666667,-36.6380833308686L47.483333333333334,32.95276513136963L47.6,62.90313838900087L48.06666666666666,-108.55607321916654L48.416666666666664,88.846516987925L48.766666666666666,110.05926684355465L48.88333333333333,99.57008617851375L49.233333333333334,125.93307125168518L49.349999999999994,99.59546849432402L49.583333333333336,133.77697654325752L49.699999999999996,129.983816224589L49.81666666666667,100.92252330529693L50.05,108.5859026890912L50.4,45.668679363329176L50.516666666666666,100.98855301446287L50.63333333333334,70.66537674959244L50.983333333333334,116.54609764051148L51.33333333333333,89.499641212586L51.91666666666667,79.55850563659676L52.15,-37.81653575700514L52.38333333333333,47.60154639009198L52.5,67.83056356338757L53.08333333333333,-66.41344574595911L53.43333333333333,117.66670491946016L53.550000000000004,129.11591645429976L53.66666666666667,123.91156168205524L53.78333333333333,131.5506470128408L54.016666666666666,100.79677371475428L54.483333333333334,103.26412141592974L54.71666666666666,117.67358121948782L54.95,130.91787194609088L55.18333333333333,131.38223522258085L55.766666666666666,70.97260955955632L56,68.70770148732177L56.46666666666667,108.96273549772614L57.05,97.56695030034903L57.28333333333333,70.0887868109394L57.4,71.06673318421707L57.983333333333334,73.62415363862478L58.099999999999994,20.338997538632782L58.21666666666667,86.18450977930348L58.449999999999996,46.678269894997214L58.56666666666667,43.5316757473623L58.68333333333334,27.726955548411865L59.15,127.80042593965464L59.266666666666666,96.19895687445975L59.5,109.43400023611834L59.85,94.17860932582867L60.31666666666667,69.91424161557406L60.43333333333333,47.61558875889327L60.55,86.43587380551264L60.66666666666667,44.81845703962679L60.9,62.71040221909658L61.25,77.2713828286133L61.36666666666667,59.95965760337256L61.483333333333334,61.81459176907158L61.83333333333333,94.43294883760818L61.95,9.75479329501826L62.18333333333333,51.60688346827261L62.88333333333333,71.98194321228547L63.11666666666666,123.63317069691774L63.46666666666666,89.04970015813254L63.583333333333336,86.5082257190593L63.81666666666666,59.77520422151305L63.93333333333333,125.92362825360757L64.51666666666667,119.47709738448813L64.63333333333334,101.14400702987132L64.86666666666666,83.45358430132295L65.10000000000001,124.74794304805914L65.21666666666667,88.91242098535108L65.33333333333333,103.03216244681688L65.68333333333334,72.62041478047965L65.8,98.70596019485141L66.14999999999999,104.1980655110851L66.26666666666667,55.868646882256314L66.5,121.1135080052166L66.61666666666666,132.54639127815497L66.85,126.47890619309929L67.31666666666666,140.38080427285507L67.43333333333334,121.41585577600168L67.55,133.75536653191017L67.78333333333333,114.67372562513654L67.89999999999999,104.25219871874596L68.36666666666667,114.19322623987506L68.48333333333333,101.4934669969645L68.6,124.77511241793707L68.83333333333333,104.66149624453072L68.95,85.96945528808253L69.06666666666666,56.64888969127203L69.18333333333334,31.33082022947957L70.23333333333333,84.43328838615795L70.35,98.86084878688803L70.93333333333334,126.77923070872643L71.75,129.5443989252966L71.86666666666666,125.59928028290659L72.33333333333334,60.79548761653601L72.44999999999999,63.88613497878295L72.56666666666666,104.89971621906594L72.8,128.9651026860097L73.03333333333333,139.95567738787088L73.5,135.74715435051698L74.55,88.64600590227775L74.66666666666667,126.36187643861085L74.78333333333333,23.65658955234261L74.9,116.5503911028053L75.25,58.440712816670015L75.60000000000001,89.78622248120084L75.95,71.23078008740056L76.76666666666667,87.25354372575754L76.88333333333334,58.75128002201215L77,97.05455315936946L77.11666666666666,90.08222667599142L77.35,102.91696398364027L77.46666666666667,116.70389978165473L77.81666666666666,108.00630638280477L77.93333333333334,85.00061629180517L78.05,109.92105251706937L78.28333333333333,134.52851387875256L78.51666666666667,143.56815160758273L78.63333333333333,142.96887957789488L79.1,151.49995917394324L79.91666666666666,70.16398205406021L80.26666666666667,108.84650494447652L80.38333333333334,48.85035294520594L80.61666666666666,75.21398173380489L80.85000000000001,85.73672025238345L81.19999999999999,33.761321350175876L82.48333333333332,91.34868421879327L82.83333333333333,79.78865945202618L82.95,84.35429492819891L83.06666666666668,79.23106396646854L83.3,97.75865334675062L83.53333333333333,125.21711208438084L83.65,121.27819267952376L83.88333333333333,68.30080154941372L84.46666666666667,130.0202017620388L84.58333333333333,146.39732162838263L85.28333333333333,139.39369318694995L85.51666666666667,146.50732175551315L85.63333333333334,137.98732466116417L85.75,143.7803320826928L85.86666666666666,142.90167818470277L85.98333333333333,147.00143683825596L86.1,131.31168771462953L86.21666666666667,135.9296165011724L86.33333333333334,132.1707518318127L86.45,124.8478152212733L86.56666666666666,121.2364050451356L86.8,137.20273870419032L87.15,96.72821675957972L87.26666666666667,81.85504172330198L87.38333333333333,54.02632616069246L87.61666666666667,55.78235359261208L88.08333333333333,79.83545742303976L88.31666666666666,94.88411865339724L88.55,127.19981906488087L89.01666666666667,119.47034095705402L89.13333333333334,123.17653112424767L89.25,93.06503096374853L89.48333333333333,84.96311713332176L89.71666666666667,114.09664361224301L89.94999999999999,112.03571026969604L90.18333333333334,125.8003688246057L90.3,122.27017137864192L90.64999999999999,128.29664019407397L90.88333333333334,120.34637649860852L91,88.66288479710359L91.11666666666667,114.21336485171858L91.23333333333332,124.52048432631402L91.35,61.49085161126665L91.46666666666667,117.27603581042516L91.7,59.324899579405056L91.81666666666668,107.36028025782977L92.4,108.68319888566086L92.51666666666668,94.64306954598787L92.75,106.06861042035561L92.86666666666666,102.1408571256286L92.98333333333333,76.13367464493754L93.33333333333333,71.50776529182906L93.56666666666666,136.45621421391292L93.80000000000001,96.9280230533503L94.03333333333333,37.575108465208274L94.26666666666667,77.53750711306368L94.5,91.41794957192172L94.61666666666666,89.5381949764099L94.73333333333333,-17.98498599165481L95.08333333333334,129.65583143678168L95.55,130.038809878093L95.66666666666667,140.25226090086375L95.9,128.18725966496416L96.25,131.3292992042514L96.71666666666667,121.70784674552542L97.3,135.91483678523895L98.11666666666666,135.10468176951682L98.23333333333333,123.31804062517867L98.46666666666667,91.69312830346512L98.58333333333334,120.39576265064971L98.69999999999999,85.40566713608052L98.81666666666666,119.88587527875887L98.93333333333334,144.9969880328263L99.05,144.2300351855377L99.28333333333333,148.77868433261335L99.39999999999999,131.35562762986348L99.86666666666667,135.71748445944024L99.98333333333332,139.8930049166426L100.45,129.96325746042328L100.8,132.94662369415346L101.03333333333333,109.75636731479655L101.15,110.4548843296311L101.26666666666668,59.115245410083446L101.61666666666666,65.43510336028095L101.73333333333333,68.85567844928731L101.85000000000001,68.1351318655754L101.96666666666667,106.71520660938462L102.08333333333333,138.63781184593543L102.31666666666666,131.45646303596328L102.43333333333334,129.2566585272932L102.55000000000001,120.84215128909074L102.78333333333333,105.55556654689829L102.89999999999999,97.19395754256857L103.01666666666667,89.20381432307957L103.13333333333334,73.2027132016011L103.25,85.60490446550504L103.36666666666666,61.97733497053488L103.6,102.00373039947407L103.71666666666667,74.61625351703694L104.06666666666666,122.6577270848135L104.53333333333333,89.2794676524268L104.88333333333333,93.78184724906808L105,67.91036483946468L105.11666666666667,91.18827511729656L105.35,97.19872071479556L105.58333333333333,87.65092651092144L105.7,80.25248552722103L105.93333333333334,55.17311850843822L106.16666666666666,36.61081075590761L106.63333333333334,74.99358783577307L107.10000000000001,98.37297719887512L107.21666666666667,94.49900350490309L107.44999999999999,103.17584370081258L107.56666666666666,59.003406555478804L107.68333333333334,121.50713588284518L107.8,107.49660721229966L107.91666666666667,122.55498310546994L108.38333333333334,134.56337578438206L108.5,135.35548919879662L109.2,83.53976879695362L109.43333333333332,106.29838844655751L109.55,60.60002809369021L109.66666666666667,41.99305612511327L109.78333333333333,110.73300156995249L110.01666666666668,65.99667454989104L110.36666666666666,99.64255165940662L110.48333333333333,106.04198189164617L110.83333333333333,122.35388507274021L110.95,136.51501363126067L111.06666666666666,128.7748361633382L111.30000000000001,107.47198108798918L111.53333333333333,99.63286985768423L111.88333333333334,100.51564207196658L112.23333333333333,97.1108295633245L112.58333333333334,125.04171511983404L112.7,116.93896070343592L112.81666666666666,137.84982555469452L113.05,129.78970752535062L113.16666666666667,132.10458490408826L113.28333333333333,107.55851772779927L113.51666666666667,94.89989588593333L113.63333333333333,105.69041068604838L113.75,53.18008459596686L114.33333333333333,81.87530069886441L114.8,113.68519946330524L114.91666666666666,126.24678768574859L115.15,111.25040450874668L115.38333333333334,129.1290086048087L115.61666666666666,77.05163327286013L115.73333333333333,43.192008500576776L115.85000000000001,123.55010646195532L115.96666666666667,136.68045995762537L116.08333333333334,138.09827855699788L116.19999999999999,77.07138320123869L116.43333333333334,130.06188616970417L116.66666666666667,121.39250615287872L116.89999999999999,146.49575295611947L117.25,106.3025274555611L117.48333333333332,144.12368498258692L117.6,113.54149042876807L117.71666666666667,98.05539900917103L118.18333333333332,127.99805006599549L118.41666666666667,126.60448631308103L118.53333333333333,82.68897388338493L118.76666666666668,107.35003091620456L119.11666666666666,128.21357470343463L119.58333333333333,125.0442064095934L119.93333333333334,74.4768286876393L120.28333333333333,116.05184993487569L120.39999999999999,105.47850182282147L120.63333333333334,107.75258554767736L120.86666666666666,91.14901149535724L121.1,121.34407476964448L121.68333333333334,98.82115645660863L121.91666666666667,118.63600052318563L122.03333333333333,133.03350070691204L122.15,146.40875486703075L122.26666666666667,126.46832498207763L122.61666666666667,123.47221111056786L123.31666666666666,82.51006915167825L123.55,62.83931544340912L123.66666666666666,79.77050675950359L123.78333333333333,109.31683133333276L123.9,93.01005353839439L124.01666666666667,78.39158264755541L124.48333333333333,63.830159177191604L124.71666666666667,52.927075011658445L124.83333333333334,104.99897300872985L125.18333333333334,54.339876529139175L125.3,100.65886330751579L125.41666666666667,112.09816003610958L125.53333333333333,115.95400234373172L125.64999999999999,66.00418011078895L125.88333333333334,76.78313571710201L126,86.7647003833469L126.11666666666667,118.23714873759292L126.23333333333332,123.97622700811806L126.46666666666667,84.74374804683639L126.81666666666668,124.76886982864397L127.05,141.6546900258441L127.16666666666667,135.48053918619098L127.4,136.7531258540045L127.51666666666668,134.67091236901814L127.86666666666666,83.67064166748074L128.21666666666667,1.0890978312332038L128.33333333333331,119.47910171790767L129.15,145.6223355104712L129.26666666666668,142.80880544017407L129.38333333333333,112.11171618703652L129.5,51.03042600493829L129.61666666666667,51.21824102998278L129.73333333333332,16.254743815766602L129.85,97.0647820311995L130.08333333333334,92.59674019018703L130.20000000000002,33.47219736506585L130.31666666666666,94.18372086976584L130.66666666666666,136.9272751010922L130.78333333333333,135.41446271008087L130.9,136.3034520950206L131.01666666666665,140.01305051224506L131.25,131.94231063068514L131.95,145.91300380104366L132.06666666666666,113.55407046188687L132.41666666666666,108.78252721887509L133.23333333333332,88.7332518094417L133.58333333333334,131.89650665562476L134.05,106.35526749071043L134.4,103.6746871088628L134.51666666666665,83.62479700696902L134.63333333333333,74.5639746369855L134.86666666666667,81.68658061263585L134.98333333333332,24.434565658034103L135.1,97.43830475811224L135.45000000000002,48.3828980580237L135.56666666666666,118.99984488131011L135.79999999999998,128.78979952264189L136.03333333333333,118.13667857131085L136.15,113.95136997841568L136.38333333333333,87.13058517254751L136.61666666666667,126.48218950670577L136.73333333333335,132.5486042115624L136.96666666666667,46.20719502947199L137.2,115.12649167630725L137.31666666666666,101.12407709050828L137.43333333333334,119.45423043441743L137.55,137.9061546020224L137.9,128.82959788837232L138.01666666666668,83.0458365273014L138.13333333333333,60.362311062721886L138.48333333333332,130.12830249211282L138.6,100.69775844614315L139.53333333333333,88.3190309686497L139.88333333333333,58.0472104977251L140,88.64449724972812L140.23333333333335,106.53266766019375L140.46666666666667,51.238637883389146L140.58333333333334,128.0218277162351L140.93333333333334,137.09734321139885L141.05,137.66580792331126L141.28333333333336,140.4146580644334L141.4,130.57708336174775L141.51666666666665,111.66417071055342L141.63333333333333,111.43312885898101L141.98333333333332,93.18661151313583L142.91666666666666,84.96300934650178L143.15,90.06808739380419L143.38333333333333,85.46057947351271L143.61666666666667,98.98840922655455L143.73333333333332,93.35263447489277L143.85000000000002,136.07466082159337L144.08333333333331,145.11808138718217L144.31666666666666,132.4014171923687L144.43333333333334,150.0147754374956L144.54999999999998,80.69145336530889L144.89999999999998,92.83080661956383L145.01666666666668,82.52469580387768L145.13333333333333,89.01528582096068L145.71666666666667,127.1774647375951L145.95,137.73132686234942L146.06666666666666,140.74503870797668L146.41666666666669,138.7285621658653L146.65,141.6911775771598L147.35,119.89006230894842L147.46666666666664,128.3952970196322L147.7,131.6598865143298L147.93333333333334,134.1236113540387L148.4,61.40332368956615L148.63333333333335,91.32282729081828L148.86666666666665,72.81532805056835L149.1,128.62158918844224L149.33333333333334,113.03986515721921L149.56666666666666,97.11900384047435L149.68333333333334,75.88264771157654L149.8,13.898085073246563L149.91666666666666,21.475186486250436L150.03333333333336,12.204921729172895L150.73333333333332,42.83445675514213L150.85,77.15139393872113L151.55,139.03120867134098L151.78333333333333,130.50731805934942L152.01666666666668,68.6609749163625L152.13333333333333,131.1323696507083L152.25,125.80292555004925L153.29999999999998,127.5919295715531L153.53333333333333,137.89718227599963L153.88333333333333,130.37086925104583L154.23333333333332,77.50685240642177L154.35,104.4339545243536L154.58333333333334,49.50711574585668L154.7,13.459278205142368L154.81666666666666,54.37310929190038L154.93333333333334,122.9018978194293L155.16666666666669,126.66835032277476L155.28333333333333,119.81593742611591L155.51666666666668,47.02212795152809L155.63333333333333,65.43247514155384L155.75,85.0682138373302L156.1,84.9436955856427L156.21666666666664,64.02918723325224L156.45,49.46390629746779L157.38333333333335,123.61214139603047L157.5,121.25471896948432L157.61666666666665,133.79987314793692L157.73333333333335,130.58552523997088L158.08333333333334,142.80407849227424L158.2,147.98105696232537L158.31666666666666,117.15833920965298L158.66666666666666,124.52259167337371L158.78333333333336,137.93061741275704L158.9,121.76898835259232L159.25,125.18502780812001L160.65,135.8842623088713L161,131.23613113641719L161.23333333333332,68.94631094394818L161.35000000000002,113.01322142491159L161.58333333333331,125.93626741104794L161.70000000000002,111.45507454379299L162.04999999999998,134.22586599419367L162.39999999999998,138.60737427078107L162.51666666666668,82.69206739030818L162.63333333333333,107.6238306063829L162.75,124.58767889652935L162.86666666666667,136.37680335751597L162.98333333333332,141.2136908302038L163.1,141.81978863381448L163.21666666666667,123.72957196031125L163.45,120.5373811587986L163.68333333333334,119.14077058538601L163.79999999999998,88.95977195752701L164.03333333333333,25.791055748958883L164.26666666666668,42.87087788598251L164.5,112.34170941155712L164.61666666666667,136.63126250044644L164.73333333333335,130.9132929075782L164.85,118.31076897185666L164.96666666666664,124.67032959602736L165.08333333333334,135.14667654991445L166.13333333333335,49.687001136447776L166.25,7.619074972310841L166.48333333333335,84.68382442196074L166.6,90.08967800182258L167.06666666666666,118.18161347301103L167.18333333333334,126.4161044109864L167.3,132.7537586929777L167.53333333333336,113.94412186378578L167.88333333333333,138.4080401800354L168.23333333333332,57.798884867764045L168.46666666666667,120.73221212841031L168.70000000000002,104.99637256744363L168.81666666666666,88.70973414845169L169.05,98.64944570854749L169.16666666666666,77.48807506432726L169.51666666666668,72.47024079783047L169.63333333333333,18.28856458369785L169.75,83.0333773817427L169.98333333333332,85.77167722775698L170.10000000000002,67.87695490140963L170.21666666666667,53.92481777520885L170.45000000000002,50.85584559943794L170.56666666666666,45.19958328483975L170.68333333333334,58.99321820277052L170.79999999999998,85.79500282590891L170.91666666666669,67.19955233923828L171.03333333333333,49.4006715910794L171.61666666666667,66.13271735169567L171.73333333333332,71.02278809870414L171.96666666666667,58.04160303883695L172.43333333333334,91.69090661086038L172.54999999999998,98.86221645523267L172.78333333333333,142.00558432990647L173.25,119.4048619184906L173.48333333333335,124.76422107631527L173.71666666666664,108.01709821711462L173.95,119.48717297986747L174.06666666666666,88.39305851204328L174.18333333333334,120.80489436968091L174.3,137.64115734297184L174.53333333333333,135.41347222910755L174.88333333333335,137.29173222983465L175,104.889101436814L175.23333333333335,133.3400546978168L175.35,128.84665997195685L175.46666666666667,86.34034166431795L175.7,70.77780962540193L176.16666666666666,77.8438018404223L176.4,127.63073048497863L176.51666666666665,123.82535768806693L176.75,130.72755945027498L176.86666666666667,127.1498095138914L177.21666666666667,135.51132629770458L177.33333333333331,129.17772038021906L177.91666666666666,98.57047245706953L178.03333333333333,84.97789373148797L178.15,43.53918491069592L178.26666666666668,52.393229393799615L178.5,61.06516742216559L178.73333333333332,119.3907472577936L178.85000000000002,121.2231321679007L178.96666666666667,127.27655060567626L179.08333333333331,82.15786455316409L179.20000000000002,108.76681547848354L179.31666666666666,132.07522386935344L179.66666666666669,116.66390110311335L180.01666666666668,64.71944825429937L180.25,136.22185540806376L180.6,142.65535307990652L180.71666666666667,134.49197959660177L180.83333333333334,126.08239557185856L180.95,64.56378500454525L181.41666666666669,96.35672456104342L181.88333333333333,96.58162987284939L182.11666666666667,132.61745734445267L182.23333333333335,143.16041137586683L182.7,81.87249306001107L182.81666666666666,101.03167230904006L183.16666666666666,94.07870556508222L183.51666666666665,104.72599194602395L183.75,124.5981467084176L183.98333333333335,130.74158350670567L184.1,77.11287486271837L184.21666666666667,125.53196944635522L184.56666666666666,102.18280109759749L184.8,108.28111918610813L184.91666666666666,121.43267195521219L185.15,135.09020305628772L185.26666666666665,94.36027361168493L185.38333333333333,131.49126450437282L185.61666666666667,130.2476793539478L185.73333333333332,100.00788654238036L186.08333333333331,132.12456873527688L186.66666666666666,109.90172487944713L188.06666666666666,137.32666915659175L188.18333333333334,106.78372846750281L188.29999999999998,67.74810034224986L188.41666666666669,57.38518210066975L188.88333333333333,53.718832973757L189.23333333333332,57.931331392457636L189.35,46.649022092561665L189.58333333333334,88.5419656890101L189.7,95.49458423097131L189.81666666666666,129.40800463769892L189.93333333333334,115.41479655217591L190.4,60.88659449718709L190.51666666666668,64.7252402166476L190.63333333333333,15.94421499020308L190.86666666666667,111.37921139011941L190.98333333333335,128.59131615825783L191.1,130.10675830467258L191.33333333333334,87.63467003362337L191.56666666666666,56.13548614481144L192.26666666666665,108.38678565828528L192.5,130.5819273703121L193.08333333333334,99.10171660779326L193.2,103.6537279320938L194.25,94.93875676967261L194.36666666666667,65.88972452419797L194.83333333333331,77.66095455002242L195.3,79.6819956445902L195.65,75.2668844550483L196,66.4208199418692L196.11666666666667,74.78205123665293L196.23333333333332,105.69943789769424L196.58333333333331,131.6024769934951L196.70000000000002,135.1855319906567L197.04999999999998,79.36227908881483L197.28333333333333,14.114677323930266L197.39999999999998,57.97311705842026L197.51666666666668,35.879570366674585L198.33333333333334,0.17513956081728566L198.45,45.30466126659033L198.56666666666666,127.0092855797033L198.68333333333334,132.6615562069529L198.91666666666669,130.39847120485496L199.03333333333333,69.28388805697703L199.15,60.761769433381644L199.26666666666668,63.571691831575876L199.38333333333333,76.01580704014552L199.5,22.41079565695256L199.61666666666667,106.23635803343754L199.73333333333335,48.073355001874546L199.85,59.893520179557825L200.2,134.90137075870308L200.43333333333334,132.77752142973992L201.01666666666665,130.4225034140039L201.13333333333335,140.44183240597883L201.25,151.25550515090947L201.48333333333335,113.6665454905721L202.3,107.4061909447898L202.53333333333336,72.1286500464235L203.11666666666667,24.011279519955167L203.23333333333332,79.4315549757878L203.70000000000002,31.09164869143089L203.93333333333334,55.24584169706736L204.05,19.92718349780054L204.28333333333333,71.75628886777648L204.4,45.9802640583853L204.63333333333333,9.139971855184854L204.75,9.394507454570288L205.45000000000002,67.44688779351435L205.56666666666666,33.13409535491371L205.68333333333334,31.114706550214095L206.26666666666668,127.46202423707581L206.38333333333333,128.82521587398674L207.43333333333334,55.80488506801791L207.54999999999998,119.56243451919583L207.9,127.96496504808569L208.01666666666668,89.77347801369767L208.13333333333333,53.342218791983186L208.36666666666667,56.17804688800942L208.6,95.20965715577165L208.83333333333334,38.98575757940807L209.18333333333334,25.206873910512456L209.3,92.70433276929819L209.53333333333333,18.54526731478171L209.65,42.25818337770431L209.88333333333335,5.360702229561866L210.11666666666665,78.22276365852429L210.23333333333335,24.829170884439804L210.46666666666667,33.73168425766096L210.58333333333334,6.927983513073713L211.05,115.29508892517018L211.16666666666666,120.63686497832542L211.4,133.30042812437645L211.51666666666665,126.90121155943669L211.63333333333333,76.66532131821545L211.75,106.40260555031996L212.1,134.27826742325573L212.21666666666667,129.91526169606007L212.33333333333331,118.89190203732693L212.8,122.74519915573163L213.03333333333333,139.36093599403108L213.15,111.31567146690679L213.26666666666668,108.49319079810651L213.5,62.38095111655406L213.73333333333332,89.59622187446622L213.96666666666667,107.56803172205107L214.20000000000002,125.44085632621517L214.31666666666666,8.735725607533766L214.43333333333334,29.047207001041897L214.66666666666669,65.47981196172073L214.78333333333333,49.7712156269244L214.89999999999998,60.473957185622154L215.01666666666668,2.700159840472452L215.13333333333333,42.83500672374345L215.25,94.15191923411629L215.48333333333332,54.279908402075236L215.6,51.83049380981676L215.95,30.545577225154318L216.06666666666666,45.89665016275666L216.29999999999998,55.15717771255537L216.41666666666669,73.74987836939984L216.76666666666668,101.39776604523927L216.88333333333333,135.6304156464252L217,111.9075653040682L217.11666666666667,128.65015216505685L217.46666666666664,40.32057100012776L217.93333333333334,101.27466037520196L218.16666666666666,113.74303112055318L218.28333333333333,128.95602088353294L218.4,132.71203326236207L218.75,106.51585319689698L218.86666666666665,87.61843154921299L219.1,88.2929571417388L219.56666666666666,125.73666790088365L219.68333333333334,117.20562754880535L219.8,77.0707976277403L219.91666666666666,87.29052384242173L220.15,103.47371200022218L220.61666666666667,15.591623708175149L220.73333333333332,70.84572722606605L220.96666666666667,105.47406029857643L221.08333333333331,93.39574636380877L221.20000000000002,126.85814888017083L221.31666666666666,115.75084848595364L221.55,119.45594611123187L221.9,69.48928103324965L222.01666666666668,38.46992104334592L222.13333333333333,53.91311588744149L222.25,80.97170516504849L222.36666666666667,63.9685536766937L222.71666666666667,107.71041757010185L222.83333333333331,137.0032655987568L223.41666666666669,134.41390569151903L223.64999999999998,90.97233386860415L223.76666666666668,107.2674085487237L223.88333333333333,121.72155715573282L224.35,43.6258552837636L224.7,123.73241845096872L224.93333333333334,161.8564748085144L225.28333333333333,128.3356453953038L225.4,132.10978254396645L225.51666666666668,137.00761562860504L225.63333333333333,107.53505703945531L225.75,111.8793979810271L225.98333333333335,114.05025142979201L226.1,119.23481584809088L226.21666666666664,72.15800321723688L226.56666666666666,89.56901036622558L226.68333333333334,88.28029591042846L226.91666666666666,53.96453506344629L227.03333333333333,15.289014979897559L227.15,35.40978594012947L227.5,-97.05326718811591L227.73333333333335,33.08532634115841L227.85,30.802272007540495L227.96666666666667,61.38242567205016L228.08333333333334,24.84485323775297L228.9,81.59638916920869L229.01666666666665,19.7972385999592L229.36666666666667,122.13083174272487L229.95000000000002,63.21205260130304L230.41666666666666,119.79401896871278L230.65,128.87548379802806L231.11666666666667,68.152476771497L231.23333333333332,57.58693785439358L231.46666666666667,106.28581813436125L231.93333333333334,112.14937884565875L232.04999999999998,70.84463347336693L232.16666666666669,42.77716395760413L232.39999999999998,86.46051468799463L232.51666666666668,76.58552462700514L232.63333333333333,129.4473834645262L233.1,82.08367606982591L233.33333333333334,130.95412020863898L233.56666666666666,124.3768475098244L233.79999999999998,104.64435492438902L233.91666666666669,98.55091490371595L234.15,111.17253919961598L234.61666666666667,123.52314223788328L234.85,82.65816464925419L234.96666666666664,17.437697857907636L235.31666666666666,132.5606710333966L235.66666666666666,103.58773133077251L236.13333333333335,32.72060818423256L236.36666666666665,49.86212429403943L236.48333333333335,50.87574931197467L236.83333333333334,120.64245759762059L237.3,126.92808546108779L237.41666666666666,78.9364176606011L237.53333333333336,63.08751052695288L237.65,69.45926550720243L238,130.68567107229106L238.11666666666667,118.9000448987288L238.23333333333332,86.14079910914229L238.46666666666667,-17.796494009235744L238.58333333333331,58.805250837641466L238.70000000000002,12.755279450956408L238.93333333333334,-20.011324088967598L239.05,43.20897262042692L239.4,78.87693654004148L239.51666666666668,140.37783838390814L239.75,104.7872613794464L239.98333333333332,76.75728401640356L240.10000000000002,50.76066730208487L240.21666666666667,44.43583515665526L241.03333333333333,87.85759190363616L241.14999999999998,123.6712984730432L241.26666666666668,119.62485700301553L241.38333333333333,50.322274665142714L242.08333333333334,71.32093420387451L242.2,43.329590285061954L242.31666666666666,52.90843912149677L242.43333333333334,69.38750920431383L242.54999999999998,78.13320174567035L242.78333333333333,19.737130879561988L243.13333333333333,30.404257626447787L243.48333333333335,39.86064527985059L243.95,131.70954465220763L244.06666666666666,113.57925309111516L244.18333333333334,140.67078978951142L244.3,128.07658409993184L244.65,101.05736835975263L244.76666666666665,22.52625171285473L245.23333333333335,65.28138009814397L245.58333333333334,56.22426997536934L245.7,41.831535409920804L246.05,36.23038309041965L246.16666666666666,24.840418727280905L246.28333333333336,66.7070261478393L246.4,96.4297654009407L246.51666666666665,107.90920267948464L246.86666666666667,66.03927942579614L246.98333333333332,66.356037666616L247.1,112.70959072025103L247.21666666666667,102.67135977501225L247.68333333333334,32.7629371012369L247.8,100.22009990032777L247.91666666666666,108.15407277810957L248.26666666666668,121.61826370690727L248.5,46.93530993849336L248.61666666666667,76.13424545926688L248.73333333333332,135.74364406536955L248.96666666666667,132.26505425119862L249.08333333333331,133.2671208978431L249.20000000000002,142.9045016078006L249.43333333333334,130.0564362281382L249.54999999999998,93.33398446897962L250.13333333333333,66.99448544890542L250.36666666666667,63.63524911580738L250.48333333333332,71.9738576151308L250.71666666666667,29.663489370934286L251.06666666666666,56.1913466278004L251.29999999999998,42.45226516288804L251.41666666666669,7.267152289656536L251.53333333333333,104.18344286868702L251.76666666666668,137.40623511080662L252,123.3548791336314L252.11666666666667,121.94523067655209L252.23333333333335,107.60448968732467L252.7,125.37090053695304L252.81666666666666,133.03621421207507L253.05,78.44382811401258L253.28333333333333,125.66576190136638L253.86666666666665,129.51690022323118L254.33333333333334,80.91667923237478L254.45,108.51141467409565L254.56666666666666,114.94516046686141L254.68333333333334,125.29241888751505L256.0833333333333,62.223252469622864L256.31666666666666,53.002551068616654L256.55,17.424674545823564L256.78333333333336,75.15368424792159L256.9,67.02318887603566L257.01666666666665,56.13299269730038L257.1333333333333,63.59336299332578L257.25,66.92218269930314L257.3666666666667,107.3270775299692L257.48333333333335,128.04340824644052L257.6,124.03298523373424L257.71666666666664,86.50289577490709L257.8333333333333,111.9435223209779L257.95,120.41056863663512L258.18333333333334,129.078003591886L258.3,86.30164360004694L258.4166666666667,46.97559106296936L258.65,5.035551949511927L258.8833333333333,57.7934566672577L259.23333333333335,59.0030309403904L259.58333333333337,32.526817048419076L259.81666666666666,47.91460574876285L259.93333333333334,47.34956589481314L260.1666666666667,99.01900781198714L260.51666666666665,138.46577784979812L260.75,83.07410261356087L260.8666666666667,111.85957063292378L261.1,113.9980980173938L261.3333333333333,103.30466885345659L261.45,103.72238952234103L261.56666666666666,129.06053967485812L261.8,129.34655553603565L261.9166666666667,108.94552912878612L262.15000000000003,120.42813065211703L262.26666666666665,119.84069158202115L262.5,62.87966235356045L262.6166666666667,45.255122212686274L263.55,105.34144571170029L263.6666666666667,107.78299335052156L263.9,29.02555096147401L264.01666666666665,18.35841289826581L264.48333333333335,28.87708258157292L265.06666666666666,105.76471172867663L265.18333333333334,117.54354850284037L265.3,79.58263042336533L265.41666666666663,136.3502956677547" style="fill: none;" fill="none"></path></g></g></g></g><g opacity="0.2"><g><g><g><path stroke="rgb(255, 112, 67)" stroke-width="2px" d="M23.916666666666668,139.58844648088728L24.03333333333333,141.81013870239258L24.5,137.13516126360213L24.616666666666667,149.0452493940081L24.849999999999998,158.1560935974121L24.96666666666667,128.5659294128418L25.083333333333332,152.17459215436662L25.433333333333334,141.87905883789062L25.55,147.33102471487862L25.666666666666664,144.14304406302315L26.133333333333333,141.22628184727262L27.18333333333333,92.85622950962612L27.3,126.74747576032365L27.53333333333333,91.0209459577288L28,88.28189195905414L28.233333333333334,75.02924346923828L28.46666666666667,77.10247366768974L28.583333333333332,82.36640058244977L28.816666666666666,52.24301474434989L29.049999999999997,13.8302001953125L29.166666666666668,-263.85373033796037L29.51666666666667,150.53447723388672L29.633333333333333,146.9059121268136L29.75,148.44456263950892L29.866666666666667,148.32777186802454L29.983333333333334,140.65736334664481L30.333333333333336,137.74913733346122L30.45,142.2683775765555L30.683333333333334,139.23948069981168L30.916666666666664,143.75362832205636L31.033333333333335,134.1358985900879L31.150000000000002,141.26013565063477L31.266666666666666,124.17182213919503L31.616666666666667,135.43718447004045L31.73333333333333,142.37653514317105L31.85,126.5284445626395L31.966666666666665,125.94977733067104L32.550000000000004,114.53338241577148L33.13333333333333,110.65944998604911L33.25,97.84787096296037L33.36666666666667,134.83407265799386L33.483333333333334,79.02864837646484L33.6,97.60303715297154L33.71666666666667,141.0622994559152L34.3,126.08165196010044L35.233333333333334,87.87060219900948L35.58333333333333,119.9124025617327L35.7,81.97334725516183L36.516666666666666,35.36267416817802L36.86666666666666,54.482215881347656L37.1,71.35877336774554L37.21666666666666,139.25034495762418L37.333333333333336,113.09168570382255L37.800000000000004,39.35887799944197L37.916666666666664,40.71419416155135L38.03333333333333,26.514318193708164L38.38333333333333,44.537927900041836L38.5,41.047203063964844L39.31666666666666,7.673173086983809L39.55,46.03923252650668L39.78333333333333,68.4446302141462L39.9,89.6918204171317L40.016666666666666,11.286508832659024L40.13333333333333,40.4843957083566L40.599999999999994,62.61459786551339L40.833333333333336,-105.48137010846818L41.18333333333334,118.64298193795341L41.3,122.64602443150112L41.416666666666664,140.83172498430525L41.65,112.25368281773159L41.766666666666666,105.88470567975725L41.88333333333334,110.9986185346331L42.233333333333334,141.81052671160018L42.46666666666667,131.83665302821566L42.58333333333333,70.06398664202008L42.81666666666667,87.40761021205357L42.93333333333333,101.01160103934151L43.28333333333333,101.2947507585798L43.86666666666667,112.36072485787528L43.983333333333334,84.70444706508091L44.1,78.33653695242745L44.33333333333333,62.58142307826451L44.68333333333333,57.49132428850446L44.91666666666667,-42.35557011195593L45.03333333333333,50.856657845633364L45.266666666666666,60.265978131975444L45.5,23.316831316266757L45.61666666666666,-25.546817234584267L47.36666666666667,-40.70488194056921L47.483333333333334,41.378562927246094L47.6,66.5294167654855L48.06666666666666,-129.3157087053571L48.416666666666664,112.74727903093611L48.766666666666666,112.62762669154576L48.88333333333333,98.30009569440568L49.233333333333334,129.125002179827L49.349999999999994,96.40661076136998L49.583333333333336,137.91554478236606L49.699999999999996,129.52455466134208L49.81666666666667,97.40389142717635L50.05,109.51375579833984L50.4,38.050898960658486L50.516666666666666,107.68647493634904L50.63333333333334,66.99396078927177L50.983333333333334,122.10116250174386L51.33333333333333,86.22495814732143L51.91666666666667,78.35487038748605L52.15,-52.02786363874162L52.38333333333333,57.94364602225167L52.5,70.27981676374164L53.08333333333333,-82.66720472063338L53.43333333333333,139.95443616594588L53.550000000000004,130.50214385986328L53.66666666666667,123.28143801007951L53.78333333333333,132.4755586896624L54.016666666666666,97.07321058000838L54.483333333333334,103.56285858154297L54.71666666666666,119.4182243347168L54.95,132.5214407784598L55.18333333333333,131.43845857892717L55.766666666666666,63.65843963623047L56,68.43347494942802L56.46666666666667,113.83666338239397L57.05,96.18719155447823L57.28333333333333,66.76183428083148L57.4,71.18513924734933L57.983333333333334,73.93379647391183L58.099999999999994,13.887431553431924L58.21666666666667,94.15683637346541L58.449999999999996,41.89500318254744L58.56666666666667,43.15069798060824L58.68333333333334,25.813379560198086L59.15,139.91694477626254L59.266666666666666,92.37277003696987L59.5,111.03644943237305L59.85,92.3315440586635L60.31666666666667,66.97640337262835L60.43333333333333,44.915751865931924L60.55,91.13608769008091L60.66666666666667,39.779576982770664L60.9,64.87669154575893L61.25,79.03437151227679L61.36666666666667,57.86361912318638L61.483333333333334,62.039180210658486L61.83333333333333,98.38225664411272L61.95,-0.49771881103515625L62.18333333333333,56.67417689732143L62.88333333333333,74.44887869698661L63.11666666666666,129.8869067600795L63.46666666666666,84.86246381487165L63.583333333333336,86.2005135672433L63.81666666666666,56.53847067696708L63.93333333333333,133.93263026646207L64.51666666666667,118.69657570975167L64.63333333333334,98.92430550711495L64.86666666666666,81.3116945539202L65.10000000000001,129.74770845685686L65.21666666666667,84.57359095982143L65.33333333333333,104.74172755650112L65.68333333333334,68.93827492850167L65.8,101.86429977416992L66.14999999999999,104.86302893502372L66.26666666666667,50.017102922712056L66.5,129.01311002458846L66.61666666666666,133.93064171927315L66.85,125.74427795410156L67.31666666666666,142.06399372645785L67.43333333333334,119.11965124947685L67.55,135.24938801356723L67.78333333333333,112.36339242117745L67.89999999999999,102.99039949689592L68.36666666666667,115.3968484061105L68.48333333333333,99.95582798549107L68.6,127.59396634783064L68.83333333333333,102.22621536254883L68.95,83.70629337855748L69.06666666666666,53.09886605398995L69.18333333333334,28.265403747558594L70.23333333333333,90.86273520333427L70.35,100.60768345424107L70.93333333333334,130.15948322841098L71.75,129.8791950770787L71.86666666666666,125.12162017822266L72.33333333333334,52.94928850446429L72.44999999999999,64.26033891950335L72.56666666666666,109.86548614501953L72.8,131.87884902954102L73.03333333333333,141.286374773298L73.5,135.23760223388672L74.55,82.94317626953125L74.66666666666667,130.9283719744001L74.78333333333333,11.221420288085938L74.9,127.79762268066406L75.25,51.40501185825893L75.60000000000001,93.5814187186105L75.95,68.98415701729911L76.76666666666667,89.19351959228516L76.88333333333334,55.30033329554966L77,101.69216918945312L77.11666666666666,89.23804364885603L77.35,104.47094563075474L77.46666666666667,118.373170035226L77.81666666666666,106.9532345363072L77.93333333333334,82.21517399379185L78.05,112.93832506452287L78.28333333333333,137.50789260864258L78.51666666666667,144.66263689313615L78.63333333333333,142.89632197788785L79.1,152.5328701564244L79.91666666666666,60.31612832205636L80.26666666666667,113.53003910609654L80.38333333333334,41.58624485560824L80.61666666666666,78.40599060058594L80.85000000000001,87.01077379499164L81.19999999999999,27.46833583286832L82.48333333333332,98.3211451939174L82.83333333333333,78.3890151977539L82.95,84.90708487374442L83.06666666666668,78.61076245989118L83.3,100.0019040788923L83.53333333333333,128.54167883736747L83.65,120.8012831551688L83.88333333333333,61.886498587472104L84.46666666666667,137.4929542541504L84.58333333333333,148.38020161220007L85.28333333333333,138.545720236642L85.51666666666667,147.36861310686385L85.63333333333334,136.955755506243L85.75,144.48172760009766L85.86666666666666,142.79529408046176L85.98333333333333,147.49782017299108L86.1,129.4120319911412L86.21666666666667,136.48873792375838L86.33333333333334,131.7156426565988L86.45,123.961181640625L86.56666666666666,120.79914910452706L86.8,139.13588224138533L87.15,91.82771410260881L87.26666666666667,80.05425371442523L87.38333333333333,50.65693010602679L87.61666666666667,55.99496677943638L88.08333333333333,82.74771663120815L88.31666666666666,96.7061538696289L88.55,131.1124823434012L89.01666666666667,118.53448486328125L89.13333333333334,123.62526266915458L89.25,89.41924394880022L89.48333333333333,83.98216792515346L89.71666666666667,117.624021257673L89.94999999999999,111.78618022373745L90.18333333333334,127.4669418334961L90.3,121.8427483694894L90.64999999999999,129.02630233764648L90.88333333333334,119.38378851754325L91,84.82676696777344L91.11666666666667,117.30692073277065L91.23333333333332,125.768431527274L91.35,53.85946110316685L91.46666666666667,124.03029578072685L91.7,52.30839429582868L91.81666666666668,113.17622320992606L92.4,108.84337288992745L92.51666666666668,92.94314357212612L92.75,107.45197187151228L92.86666666666666,101.66529955182756L92.98333333333333,72.98482295445034L93.33333333333333,70.94767761230469L93.56666666666666,144.31992776053292L93.80000000000001,92.14209856305803L94.03333333333333,30.38888113839286L94.26666666666667,82.37600381033761L94.5,93.09854125976562L94.61666666666666,89.31060137067522L94.73333333333333,-31.003487723214278L95.08333333333334,147.53162547520228L95.55,130.08517946515764L95.66666666666667,141.48886707850863L95.9,126.72647476196289L96.25,131.70972551618303L96.71666666666667,120.54291752406529L97.3,137.63496562412809L98.11666666666666,135.00659125191825L98.23333333333333,121.89095851353237L98.46666666666667,87.86410304478237L98.58333333333334,123.8709694998605L98.69999999999999,81.16919817243304L98.81666666666666,124.06060900006975L98.93333333333334,148.03734697614397L99.05,144.13717542375838L99.28333333333333,149.3294176374163L99.39999999999999,129.2461095537458L99.86666666666667,136.24560165405273L99.98333333333332,140.39856120518277L100.45,128.76100104195731L100.8,133.3078384399414L101.03333333333333,106.94857842581612L101.15,110.53945813860213L101.26666666666668,52.899235316685264L101.61666666666666,66.20028795514789L101.73333333333333,69.26982879638672L101.85000000000001,68.04789079938617L101.96666666666667,111.38633673531669L102.08333333333333,142.5028806413923L102.31666666666666,130.58697237287248L102.43333333333334,128.99031448364258L102.55000000000001,119.82335444859096L102.78333333333333,103.7047244480678L102.89999999999999,96.18156542096818L103.01666666666667,88.23639787946429L103.13333333333334,71.26536015101841L103.25,87.10651506696429L103.36666666666666,59.11659785679409L103.6,106.8499755859375L103.71666666666667,71.30028097970145L104.06666666666666,128.47440774100167L104.53333333333333,85.23815373011998L104.88333333333333,94.3269784109933L105,64.77794320242745L105.11666666666667,94.00667681012834L105.35,97.92644282749721L105.58333333333333,86.49491555350167L105.7,79.35671016148159L105.93333333333334,52.13660321916852L106.16666666666666,34.363356454031816L106.63333333333334,79.64082990373883L107.10000000000001,101.20366559709822L107.21666666666667,94.0299573625837L107.44999999999999,104.22640282767159L107.56666666666666,53.655174255371094L107.68333333333334,129.0748519897461L107.8,105.80026517595564L107.91666666666667,124.37819453648159L108.38333333333334,136.0173067365374L108.5,135.4513953072684L109.2,77.26611655099052L109.43333333333332,109.0539163861956L109.55,55.06704275948661L109.66666666666667,39.74019404820035L109.78333333333333,119.05577523367745L110.01666666666668,60.580168587820864L110.36666666666666,103.71626772199357L110.48333333333333,106.81680079868862L110.83333333333333,124.3288688659668L110.95,138.22958973475863L111.06666666666666,127.83768463134766L111.30000000000001,104.8927116394043L111.53333333333333,98.68373979840959L111.88333333333334,100.62252480643136L112.23333333333333,96.69858769008091L112.58333333333334,128.42348153250558L112.7,115.95790972028459L112.81666666666666,140.38163430350167L113.05,128.8138187953404L113.16666666666667,132.3848615373884L113.28333333333333,104.58657237461635L113.51666666666667,93.3672376360212L113.63333333333333,106.99688557216099L113.75,46.82233210972379L114.33333333333333,85.349609375L114.8,117.5366221836635L114.91666666666666,127.76769747052873L115.15,109.43469892229353L115.38333333333334,131.29368264334542L115.61666666666666,70.74630083356585L115.73333333333333,39.09241267613004L115.85000000000001,133.27956226893832L115.96666666666667,138.27023369925362L116.08333333333334,138.26994269234794L116.19999999999999,69.68247658865792L116.43333333333334,136.47777666364397L116.66666666666667,120.34285027640206L116.89999999999999,149.53515951974052L117.25,101.4360831124442L117.48333333333332,148.70292827061243L117.6,109.83871350969588L117.71666666666667,96.18040139334542L118.18333333333332,131.62339346749442L118.41666666666667,126.43575886317662L118.53333333333333,77.3718490600586L118.76666666666668,110.3358988080706L119.11666666666666,130.73965399605888L119.58333333333333,124.66047123500279L119.93333333333334,68.3543210710798L120.28333333333333,121.08559690202986L120.39999999999999,104.19832066127232L120.63333333333334,108.02792303902763L120.86666666666666,89.13871329171317L121.1,124.99997929164341L121.68333333333334,96.0941663469587L121.91666666666667,121.0351072038923L122.03333333333333,134.7766957964216L122.15,148.02818025861467L122.26666666666667,124.05401284354073L122.61666666666667,123.10945292881557L123.31666666666666,77.55052730015346L123.55,60.457654680524556L123.66666666666666,81.82047162737165L123.78333333333333,112.89418901715959L123.9,91.03569030761719L124.01666666666667,76.62163325718471L124.48333333333333,62.06711687360492L124.71666666666667,51.606970650809146L124.83333333333334,111.30364227294922L125.18333333333334,48.20626395089286L125.3,106.26699175153459L125.41666666666667,113.48318699428013L125.53333333333333,116.42085320608956L125.64999999999999,59.956443786621094L125.88333333333334,78.08821105957031L126,87.97323063441685L126.11666666666667,122.04771423339844L126.23333333333332,124.67109298706055L126.46666666666667,79.9936272757394L126.81666666666668,129.61496080671037L127.05,143.69916152954102L127.16666666666667,134.73299625941684L127.4,136.9072058541434L127.51666666666668,134.41880580357144L127.86666666666666,77.49572099958148L128.21666666666667,-8.90956442696708L128.33333333333331,133.81331743512834L129.15,148.78765978131975L129.26666666666668,142.46815381731307L129.38333333333333,108.39502825055803L129.5,43.63493347167969L129.61666666666667,51.24098096575055L129.73333333333332,12.021495274135049L129.85,106.84895706176758L130.08333333333334,92.05576651436942L130.20000000000002,26.313620431082597L130.31666666666666,101.53444344656808L130.66666666666666,142.1025036403111L130.78333333333333,135.2312970842634L130.9,136.41108758108956L131.01666666666665,140.46219471522738L131.25,130.96513584681918L131.95,147.60452270507812L132.06666666666666,109.63617270333427L132.41666666666666,108.20480673653739L133.23333333333332,86.3057610648019L133.58333333333334,137.12255096435547L134.05,103.26283046177456L134.4,103.35013253348214L134.51666666666665,81.19723183768136L134.63333333333333,73.46692439488002L134.86666666666667,82.54895891462054L134.98333333333332,17.502707345145097L135.1,106.27732249668666L135.45000000000002,42.44345419747489L135.56666666666666,127.5498788016183L135.79999999999998,129.97513035365512L136.03333333333333,116.84683881487166L136.15,113.44462857927596L136.38333333333333,83.8832255772182L136.61666666666667,131.24673352922713L136.73333333333335,133.2831028529576L136.96666666666667,35.753302437918535L137.2,123.4709805079869L137.31666666666666,99.42871747698103L137.43333333333334,121.67357635498047L137.55,140.14024407523019L137.9,127.73064259120396L138.01666666666668,77.50251116071429L138.13333333333333,57.615875244140625L138.48333333333332,138.5753059387207L138.6,97.13441903250558L139.53333333333333,86.82026127406529L139.88333333333333,54.38201250348773L140,92.34910147530692L140.23333333333335,108.6984999520438L140.46666666666667,44.5438450404576L140.58333333333334,137.3184471130371L140.93333333333334,138.19617244175504L141.05,137.73463548932756L141.28333333333336,140.74747848510742L141.4,129.38598687308175L141.51666666666665,109.3742664882115L141.63333333333333,111.40515518188477L141.98333333333332,90.9773919241769L142.91666666666666,83.96732657296317L143.15,90.68619101388114L143.38333333333333,84.90271977015904L143.61666666666667,100.62630789620536L143.73333333333332,92.67027609688895L143.85000000000002,141.24728284563338L144.08333333333331,146.21302468436105L144.31666666666666,130.86173139299666L144.43333333333334,152.1473345075335L144.54999999999998,72.2980466570173L144.89999999999998,94.30059378487724L145.01666666666668,81.27687072753906L145.13333333333333,89.80114201136998L145.71666666666667,131.7979976109096L145.95,139.00914873395647L146.06666666666666,141.10992758614677L146.41666666666669,138.48441478184293L146.65,142.04987989153182L147.35,117.2504653930664L147.46666666666664,129.42507880074638L147.7,132.0551507132394L147.93333333333334,134.42190987723214L148.4,52.59862518310547L148.63333333333335,94.94536808558873L148.86666666666665,70.5745097569057L149.1,135.37840107509066L149.33333333333334,111.15328870500838L149.56666666666666,95.19136592320034L149.68333333333334,73.31142970493862L149.8,6.393227713448653L149.91666666666666,22.392593383789062L150.03333333333336,11.082512991768965L150.73333333333332,46.54296548025948L150.85,81.30635942731585L151.55,146.52338354928153L151.78333333333333,129.47527749197823L152.01666666666668,61.17285265241351L152.13333333333333,138.69617080688477L152.25,125.15765653337752L153.29999999999998,127.80853543962752L153.53333333333333,139.14490345546176L153.88333333333333,129.45961162022184L154.23333333333332,71.1062763759068L154.35,107.69418661934989L154.58333333333334,42.856781005859375L154.7,9.094741821289062L154.81666666666666,59.326801845005576L154.93333333333334,131.19910539899553L155.16666666666669,127.1243782043457L155.28333333333333,118.98627308436802L155.51666666666668,38.20852770124162L155.63333333333333,67.66153063092914L155.75,87.44563511439732L156.1,84.92861938476562L156.21666666666664,61.49693734305245L156.45,47.70039694649833L157.38333333333335,132.58973039899553L157.5,120.96929114205497L157.61666666666665,135.31879316057478L157.73333333333335,130.196344103132L158.08333333333334,144.28345489501953L158.2,148.60786601475306L158.31666666666666,113.4264406476702L158.66666666666666,125.41422762189592L158.78333333333336,139.5540106637137L158.9,119.81219918387276L159.25,125.59862899780273L160.65,137.179685320173L161,130.67335292271207L161.23333333333332,61.4044941493443L161.35000000000002,118.34867695399693L161.58333333333331,127.50094114031111L161.70000000000002,109.70174625941685L162.04999999999998,136.98286764962333L162.39999999999998,139.13787078857422L162.51666666666668,75.92205265590123L162.63333333333333,110.64247458321708L162.75,126.64159774780273L162.86666666666667,137.80418613978793L162.98333333333332,141.79932294573103L163.1,141.8931726728167L163.21666666666667,121.53927666800362L163.45,120.15088272094727L163.68333333333334,118.97167423793248L163.79999999999998,85.30557032993862L164.03333333333333,18.142825535365517L164.26666666666668,44.938838413783486L164.5,120.75297600882394L164.61666666666667,139.57215009416853L164.73333333333335,130.2209826878139L164.85,116.78490284511021L164.96666666666664,125.4403212411063L165.08333333333334,136.41511317661832L166.13333333333335,39.3398655482701L166.25,2.525648934500566L166.48333333333335,94.01453399658203L166.6,90.74419839041573L167.06666666666666,121.58287920270647L167.18333333333334,127.41310555594308L167.3,133.52109800066268L167.53333333333336,111.66672188895089L167.88333333333333,141.37003925868441L168.23333333333332,48.039031982421875L168.46666666666667,128.3519423348563L168.70000000000002,103.0911363874163L168.81666666666666,86.73780931745257L169.05,99.85290854317802L169.16666666666666,74.92593601771763L169.51666666666668,71.86270032610211L169.63333333333333,11.728451320103233L169.75,90.872435433524L169.98333333333332,86.10322025844029L170.10000000000002,65.7103293282645L170.21666666666667,52.2355455671038L170.45000000000002,50.484266008649556L170.56666666666666,44.51474434988839L170.68333333333334,60.663299560546875L170.79999999999998,89.0400619506836L170.91666666666669,64.94808523995536L171.03333333333333,47.24565015520369L171.61666666666667,68.15857042585101L171.73333333333332,71.61485944475446L171.96666666666667,56.469890049525674L172.43333333333334,95.7650375366211L172.54999999999998,99.7304916381836L172.78333333333333,147.2292207990374L173.25,116.66845158168248L173.48333333333335,125.41311209542411L173.71666666666664,105.98941966465541L173.95,120.8759264264788L174.06666666666666,84.62830025809151L174.18333333333334,124.72919736589705L174.3,139.67962864467074L174.53333333333333,135.14375250680106L174.88333333333335,137.51914487566268L175,100.96591295514787L175.23333333333335,136.784788949149L175.35,128.3026166643415L175.46666666666667,81.19383675711495L175.7,68.893556867327L176.16666666666666,78.69932556152344L176.4,133.65874426705497L176.51666666666665,123.36461748395647L176.75,131.56325204031808L176.86666666666667,126.71662902832031L177.21666666666667,136.52370725359236L177.33333333333331,128.41087123325894L177.91666666666666,94.86466217041016L178.03333333333333,83.3321555001395L178.15,38.521942138671875L178.26666666666668,53.46524374825614L178.5,62.11513301304409L178.73333333333332,126.4525887625558L178.85000000000002,121.44499043055943L178.96666666666667,128.0094757080078L179.08333333333331,76.69506399972099L179.20000000000002,111.98852702549526L179.31666666666666,134.8973181588309L179.66666666666669,114.79795619419643L180.01666666666668,58.43020956856864L180.25,144.87909752982003L180.6,143.43429674421037L180.71666666666667,133.5035890851702L180.83333333333334,125.06419481549943L180.95,57.115343366350444L181.41666666666669,100.20609392438615L181.88333333333333,96.60886056082589L182.11666666666667,136.98053959437777L182.23333333333335,144.4369125366211L182.7,74.45198277064732L182.81666666666666,103.35139356340682L183.16666666666666,93.2368665422712L183.51666666666665,106.0151252746582L183.75,127.00419235229492L183.98333333333335,131.4854076930455L184.1,70.61971282958984L184.21666666666667,131.39437103271484L184.56666666666666,99.35577174595424L184.8,109.01948056902205L184.91666666666666,123.02501242501395L185.15,136.74380547659737L185.26666666666665,89.42884717668807L185.38333333333333,135.98694501604353L185.61666666666667,130.09711074829102L185.73333333333332,96.34656633649553L186.08333333333331,136.01313563755582L186.66666666666666,107.21106665475028L188.06666666666666,140.6471781049456L188.18333333333334,103.08570425851005L188.29999999999998,63.021813528878354L188.41666666666669,56.13047899518695L188.88333333333333,53.274925231933594L189.23333333333332,58.441364833286826L189.35,45.283002580915195L189.58333333333334,93.61420549665178L189.7,96.33638109479631L189.81666666666666,133.51411383492606L189.93333333333334,113.72055162702287L190.4,54.28452519008091L190.51666666666668,65.19000898088727L190.63333333333333,10.037992204938632L190.86666666666667,122.93412126813615L190.98333333333335,130.67529296875L191.1,130.29024233136857L191.33333333333334,82.4923095703125L191.56666666666666,52.32168361118862L192.26666666666665,114.71317618233817L192.5,133.2692315237863L193.08333333333334,95.2902112688337L193.2,104.20486831665039L194.25,93.88358088902065L194.36666666666667,62.37257712227958L194.83333333333331,79.08617074148995L195.3,79.92669568743024L195.65,74.73231942313058L196,65.34977177211216L196.11666666666667,75.79439762660435L196.23333333333332,109.44279861450195L196.58333333333331,134.7387193952288L196.70000000000002,135.61935479300362L197.04999999999998,72.60340990339007L197.28333333333333,6.214743477957597L197.39999999999998,63.28333173479352L197.51666666666668,33.204566955566406L198.33333333333334,-4.147818429129472L198.45,50.7687737601144L198.56666666666666,136.90177372523715L198.68333333333334,133.3459118434361L198.91666666666669,130.12446539742606L199.03333333333333,61.88436453683036L199.15,59.729943411690854L199.26666666666668,63.911906651088174L199.38333333333333,77.52249363490513L199.5,15.920502798897871L199.61666666666667,116.38564137050084L199.73333333333335,41.03119768415178L199.85,61.32466125488281L200.2,143.98303876604353L200.43333333333334,132.52037375313895L201.01666666666665,130.1373667035784L201.13333333333335,141.65493501935686L201.25,152.5647839137486L201.48333333333335,109.11541584559849L202.3,106.64821079799107L202.53333333333336,67.85737827845982L203.11666666666667,18.185409545898438L203.23333333333332,86.14163316999164L203.70000000000002,25.238834926060264L203.93333333333334,58.17034040178571L204.05,15.650933401925215L204.28333333333333,78.03156171526227L204.4,42.859400068010586L204.63333333333333,4.679488045828691L204.75,9.425325666155118L205.45000000000002,74.47565133231026L205.56666666666666,28.979631696428555L205.68333333333334,30.870206560407382L206.26666666666668,139.12739453996932L206.38333333333333,128.99026598249162L207.43333333333334,46.96385846819197L207.54999999999998,127.28195844377791L207.9,128.98231179373605L208.01666666666668,85.14939662388393L208.13333333333333,48.93125915527344L208.36666666666667,56.52139827183315L208.6,99.93545750209263L208.83333333333334,32.17837960379464L209.18333333333334,23.538578578404014L209.3,100.87667083740234L209.53333333333333,9.566367013113847L209.65,45.12925393240792L209.88333333333335,0.8932941981724412L210.11666666666665,87.0446275983538L210.23333333333335,18.36447579520089L210.46666666666667,34.80956704275948L210.58333333333334,3.682692391531816L211.05,128.41576984950473L211.16666666666666,121.28362710135323L211.4,134.8336846487863L211.51666666666665,126.12641852242606L211.63333333333333,70.58294895717076L211.75,110.00308391026088L212.1,137.6533475603376L212.21666666666667,129.38700539725167L212.33333333333331,117.55723517281669L212.8,123.2117418561663L213.03333333333333,141.3727068219866L213.15,107.9200564793178L213.26666666666668,108.15145547049386L213.5,56.79785483224052L213.73333333333332,92.89134434291294L213.96666666666667,109.74399076189314L214.20000000000002,127.60483060564314L214.31666666666666,-5.394492013113847L214.43333333333334,31.506444658551914L214.66666666666669,69.89093453543526L214.78333333333333,47.86927795410156L214.89999999999998,61.769804818289614L215.01666666666668,-4.294873918805791L215.13333333333333,47.694382803780684L215.25,100.36517769949776L215.48333333333332,49.45235552106584L215.6,51.53392791748047L215.95,27.96847970145089L216.06666666666666,47.755300249372226L216.29999999999998,56.27840750558036L216.41666666666669,76.00101252964565L216.76666666666668,104.74526814052037L216.88333333333333,139.77517591203963L217,109.0352919442313L217.11666666666667,130.6772815159389L217.46666666666664,29.62595803397042L217.93333333333334,108.6547519138881L218.16666666666666,115.25265448434013L218.28333333333333,130.79795237949918L218.4,133.1667970929827L218.75,103.3441183907645L218.86666666666665,85.33040291922433L219.1,88.37462615966797L219.56666666666666,130.27021135602678L219.68333333333334,116.17272131783622L219.8,72.211423601423L219.91666666666666,88.52788979666573L220.15,105.43311146327427L220.61666666666667,4.951191493443076L220.73333333333332,77.53568594796317L220.96666666666667,109.66672842843192L221.08333333333331,91.933349609375L221.20000000000002,130.90965053013394L221.31666666666666,114.4060183933803L221.55,119.90454537527901L221.9,63.43950544084821L222.01666666666668,34.714213779994424L222.13333333333333,55.78291974748883L222.25,84.24785723005023L222.36666666666667,61.90987614222935L222.71666666666667,113.0065176827567L222.83333333333331,140.54993329729353L223.41666666666669,134.10039574759347L223.64999999999998,85.71259198869977L223.76666666666668,109.24035481044224L223.88333333333333,123.47161102294922L224.35,34.17032187325614L224.7,133.4314193725586L224.93333333333334,166.47239194597518L225.28333333333333,124.27706963675362L225.4,132.56674085344588L225.51666666666668,137.60062680925643L225.63333333333333,103.96663066319057L225.75,112.405394417899L225.98333333333335,114.31309018816268L226.1,119.86254337855748L226.21666666666664,66.45812007359096L226.56666666666666,91.67706952776228L226.68333333333334,88.12426321847099L226.91666666666666,49.809712001255576L227.03333333333333,10.606328691755039L227.15,37.845933096749434L227.5,-113.09139469691684L227.73333333333335,48.84201703752791L227.85,30.525848388671875L227.96666666666667,65.08495548793248L228.08333333333334,20.421021597725996L228.9,88.4676513671875L229.01666666666665,12.314830235072549L229.36666666666667,134.52099772862027L229.95000000000002,56.078388759068076L230.41666666666666,126.6447503226144L230.65,129.97503335135323L231.11666666666667,60.80036381312779L231.23333333333332,56.307702200753354L231.46666666666667,112.18209511893136L231.93333333333334,112.85931668962752L232.04999999999998,65.84361049107143L232.16666666666669,39.37886047363281L232.39999999999998,91.74953024727958L232.51666666666668,75.38989802769252L232.63333333333333,135.84769821166992L233.1,76.34905678885323L233.33333333333334,136.87116949898856L233.56666666666666,123.58049610682896L233.79999999999998,102.25521905081612L233.91666666666669,97.81314413888114L234.15,112.70071792602539L234.61666666666667,125.0185067313058L234.85,77.71038709368024L234.96666666666664,9.541049412318642L235.31666666666666,146.499326978411L235.66666666666666,100.07979692731584L236.13333333333335,24.140283857073086L236.36666666666665,51.93755449567523L236.48333333333335,50.99847521100726L236.83333333333334,129.08954783848355L237.3,127.6891256059919L237.41666666666666,73.12576729910714L237.53333333333336,61.168584551130024L237.65,70.23073359898159L238,138.09873362949918L238.11666666666667,117.47308567592076L238.23333333333332,82.17443302699498L238.46666666666667,-30.38082994733537L238.58333333333331,68.07990155901227L238.70000000000002,7.179722377232139L238.93333333333334,-23.978581019810264L239.05,50.86344800676618L239.4,83.19547925676618L239.51666666666668,147.82413591657365L239.75,100.47808837890625L239.98333333333332,73.36351994105748L240.10000000000002,47.61309487479073L240.21666666666667,43.670048304966514L241.03333333333333,93.11493464878627L241.14999999999998,128.00748716081893L241.26666666666668,119.13492911202567L241.38333333333333,41.931379045758945L242.08333333333334,73.86337280273438L242.2,39.94050380161832L242.31666666666666,54.06821005684989L242.43333333333334,71.38273293631417L242.54999999999998,79.19209725516183L242.78333333333333,12.666754586356035L243.13333333333333,31.69579315185547L243.48333333333335,41.00558907645089L243.95,142.83026341029574L244.06666666666666,111.38410568237305L244.18333333333334,143.95093100411552L244.3,126.55172511509487L244.65,97.78598349434989L244.76666666666665,13.017999921526211L245.23333333333335,70.458009992327L245.58333333333334,55.12766919817243L245.7,40.0889173235212L246.05,35.55221666608537L246.16666666666666,23.46136474609375L246.28333333333336,71.77607727050781L246.4,100.02848270961216L246.51666666666665,109.29908970424107L246.86666666666667,60.96982683454242L246.98333333333332,66.39438956124442L247.1,118.32190431867326L247.21666666666667,101.45596858433315L247.68333333333334,24.298688616071445L247.8,108.38755907331193L247.91666666666666,109.11468832833427L248.26666666666668,123.24845722743443L248.5,37.89297921316964L248.61666666666667,79.66954258510044L248.73333333333332,142.96092551095145L248.96666666666667,131.84387969970703L249.08333333333331,133.38844735281808L249.20000000000002,144.07135936192105L249.43333333333334,128.5008408682687L249.54999999999998,88.8877683367048L250.13333333333333,63.80539812360492L250.36666666666667,63.22852543422154L250.48333333333332,72.98346492222377L250.71666666666667,24.540709359305254L251.06666666666666,59.403239658900674L251.29999999999998,40.78878893171037L251.41666666666669,3.0070713588169724L251.53333333333333,115.91770226614815L251.76666666666668,141.42872565133231L252,121.65359388078963L252.11666666666667,121.77455575125558L252.23333333333335,105.86816678728377L252.7,127.52199063982283L252.81666666666666,133.96430151803153L253.05,71.83398764474052L253.28333333333333,131.38321576799666L253.86666666666665,129.9831815447126L254.33333333333334,75.03234754289899L254.45,111.85248129708427L254.56666666666666,115.72413417271206L254.68333333333334,126.54522596086775L256.0833333333333,54.58707536969867L256.31666666666666,51.88614327566964L256.55,13.117039271763389L256.78333333333336,82.14329528808594L256.9,66.03877912248883L257.01666666666665,54.814448765345986L257.1333333333333,64.49663652692523L257.25,67.32522365025112L257.3666666666667,112.21914999825614L257.48333333333335,130.55166353498186L257.6,123.54741832188198L257.71666666666664,81.95889391217914L257.8333333333333,115.02377755301339L257.95,121.43572671072823L258.18333333333334,130.12742396763394L258.3,81.12244306291852L258.4166666666667,42.21414075578963L258.65,-0.042390005929121344L258.8833333333333,64.18118504115513L259.23333333333335,59.14948163713727L259.58333333333337,29.321176801409024L259.81666666666666,49.77770124162947L259.93333333333334,47.281152997698086L260.1666666666667,105.27494921003068L260.51666666666665,143.2418441772461L260.75,76.36748722621373L260.8666666666667,115.34480667114258L261.1,114.25702285766602L261.3333333333333,102.00994873046875L261.45,103.77296556745256L261.56666666666666,132.12838745117188L261.8,129.38118525913785L261.9166666666667,106.47544969831193L262.15000000000003,121.81840079171317L262.26666666666665,119.76956667218889L262.5,55.98303549630302L262.6166666666667,43.121209280831465L263.55,112.61647142682756L263.6666666666667,108.07860674176897L263.9,19.489896501813632L264.01666666666665,17.06687600272042L264.48333333333335,30.150643484933028L265.06666666666666,115.07397624424526L265.18333333333334,118.96968569074357L265.3,74.98646545410156L265.41666666666663,143.2235107421875" style="fill: none;" fill="none"></path></g></g></g></g></g></g><g transform="translate(50, 178)" clip-path="url(#clip_1)"><clipPath id="clip_1"><rect width="280" height="22"></rect></clipPath><g><g><line x1="0" y1="0" x2="0" y2="5" style="visibility: inherit;" fill="rgb(0, 0, 0)" stroke="rgb(204, 204, 204)" stroke-width="1px"></line><line x1="23.333333333333332" y1="0" x2="23.333333333333332" y2="5" style="visibility: inherit;" fill="rgb(0, 0, 0)" stroke="rgb(204, 204, 204)" stroke-width="1px"></line><line x1="46.666666666666664" y1="0" x2="46.666666666666664" y2="5" style="visibility: inherit;" fill="rgb(0, 0, 0)" stroke="rgb(204, 204, 204)" stroke-width="1px"></line><line x1="70" y1="0" x2="70" y2="5" style="visibility: inherit;" fill="rgb(0, 0, 0)" stroke="rgb(204, 204, 204)" stroke-width="1px"></line><line x1="93.33333333333333" y1="0" x2="93.33333333333333" y2="5" style="visibility: inherit;" fill="rgb(0, 0, 0)" stroke="rgb(204, 204, 204)" stroke-width="1px"></line><line x1="116.66666666666667" y1="0" x2="116.66666666666667" y2="5" style="visibility: inherit;" fill="rgb(0, 0, 0)" stroke="rgb(204, 204, 204)" stroke-width="1px"></line><line x1="140" y1="0" x2="140" y2="5" style="visibility: inherit;" fill="rgb(0, 0, 0)" stroke="rgb(204, 204, 204)" stroke-width="1px"></line><line x1="163.33333333333334" y1="0" x2="163.33333333333334" y2="5" style="visibility: inherit;" fill="rgb(0, 0, 0)" stroke="rgb(204, 204, 204)" stroke-width="1px"></line><line x1="186.66666666666666" y1="0" x2="186.66666666666666" y2="5" style="visibility: inherit;" fill="rgb(0, 0, 0)" stroke="rgb(204, 204, 204)" stroke-width="1px"></line><line x1="210" y1="0" x2="210" y2="5" style="visibility: inherit;" fill="rgb(0, 0, 0)" stroke="rgb(204, 204, 204)" stroke-width="1px"></line><line x1="233.33333333333334" y1="0" x2="233.33333333333334" y2="5" style="visibility: inherit;" fill="rgb(0, 0, 0)" stroke="rgb(204, 204, 204)" stroke-width="1px"></line><line x1="256.66666666666663" y1="0" x2="256.66666666666663" y2="5" style="visibility: inherit;" fill="rgb(0, 0, 0)" stroke="rgb(204, 204, 204)" stroke-width="1px"></line><line x1="280" y1="0" x2="280" y2="5" style="visibility: inherit;" fill="rgb(0, 0, 0)" stroke="rgb(204, 204, 204)" stroke-width="1px"></line></g><g transform="translate(0, 8)"><text x="0" y="0" dx="0em" dy="0.95em" style="text-anchor: middle; visibility: hidden; font-family: &quot;Helvetica Neue&quot;, sans-serif; font-size: 12px; font-weight: 200;" fill="rgb(50, 49, 63)" stroke="none" stroke-width="1px">-200</text><text x="23.333333333333332" y="0" dx="0em" dy="0.95em" style="text-anchor: middle; visibility: inherit; font-family: &quot;Helvetica Neue&quot;, sans-serif; font-size: 12px; font-weight: 200;" fill="rgb(50, 49, 63)" stroke="none" stroke-width="1px">0</text><text x="46.666666666666664" y="0" dx="0em" dy="0.95em" style="text-anchor: middle; visibility: hidden; font-family: &quot;Helvetica Neue&quot;, sans-serif; font-size: 12px; font-weight: 200;" fill="rgb(50, 49, 63)" stroke="none" stroke-width="1px">200</text><text x="70" y="0" dx="0em" dy="0.95em" style="text-anchor: middle; visibility: inherit; font-family: &quot;Helvetica Neue&quot;, sans-serif; font-size: 12px; font-weight: 200;" fill="rgb(50, 49, 63)" stroke="none" stroke-width="1px">400</text><text x="93.33333333333333" y="0" dx="0em" dy="0.95em" style="text-anchor: middle; visibility: hidden; font-family: &quot;Helvetica Neue&quot;, sans-serif; font-size: 12px; font-weight: 200;" fill="rgb(50, 49, 63)" stroke="none" stroke-width="1px">600</text><text x="116.66666666666667" y="0" dx="0em" dy="0.95em" style="text-anchor: middle; visibility: inherit; font-family: &quot;Helvetica Neue&quot;, sans-serif; font-size: 12px; font-weight: 200;" fill="rgb(50, 49, 63)" stroke="none" stroke-width="1px">800</text><text x="140" y="0" dx="0em" dy="0.95em" style="text-anchor: middle; visibility: hidden; font-family: &quot;Helvetica Neue&quot;, sans-serif; font-size: 12px; font-weight: 200;" fill="rgb(50, 49, 63)" stroke="none" stroke-width="1px">1k</text><text x="163.33333333333334" y="0" dx="0em" dy="0.95em" style="text-anchor: middle; visibility: inherit; font-family: &quot;Helvetica Neue&quot;, sans-serif; font-size: 12px; font-weight: 200;" fill="rgb(50, 49, 63)" stroke="none" stroke-width="1px">1.2k</text><text x="186.66666666666666" y="0" dx="0em" dy="0.95em" style="text-anchor: middle; visibility: hidden; font-family: &quot;Helvetica Neue&quot;, sans-serif; font-size: 12px; font-weight: 200;" fill="rgb(50, 49, 63)" stroke="none" stroke-width="1px">1.4k</text><text x="210" y="0" dx="0em" dy="0.95em" style="text-anchor: middle; visibility: inherit; font-family: &quot;Helvetica Neue&quot;, sans-serif; font-size: 12px; font-weight: 200;" fill="rgb(50, 49, 63)" stroke="none" stroke-width="1px">1.6k</text><text x="233.33333333333334" y="0" dx="0em" dy="0.95em" style="text-anchor: middle; visibility: hidden; font-family: &quot;Helvetica Neue&quot;, sans-serif; font-size: 12px; font-weight: 200;" fill="rgb(50, 49, 63)" stroke="none" stroke-width="1px">1.8k</text><text x="256.66666666666663" y="0" dx="0em" dy="0.95em" style="text-anchor: middle; visibility: inherit; font-family: &quot;Helvetica Neue&quot;, sans-serif; font-size: 12px; font-weight: 200;" fill="rgb(50, 49, 63)" stroke="none" stroke-width="1px">2k</text><text x="280" y="0" dx="0em" dy="0.95em" style="text-anchor: middle; visibility: hidden; font-family: &quot;Helvetica Neue&quot;, sans-serif; font-size: 12px; font-weight: 200;" fill="rgb(50, 49, 63)" stroke="none" stroke-width="1px">2.2k</text></g><line x1="0" y1="0" x2="280" y2="0" fill="rgb(0, 0, 0)" stroke="rgb(204, 204, 204)" stroke-width="1px"></line></g></g></g></g></svg>