<svg viewBox="0 0 330 200" xmlns="http://www.w3.org/2000/svg"><g><g><g><g><g><line x1="50" y1="178" x2="45" y2="178" style="visibility: inherit;" fill="rgb(0, 0, 0)" stroke="rgb(204, 204, 204)" stroke-width="1px"></line><line x1="50" y1="163.1666666666667" x2="45" y2="163.1666666666667" style="visibility: inherit;" fill="rgb(0, 0, 0)" stroke="rgb(204, 204, 204)" stroke-width="1px"></line><line x1="50" y1="148.3333333333333" x2="45" y2="148.3333333333333" style="visibility: inherit;" fill="rgb(0, 0, 0)" stroke="rgb(204, 204, 204)" stroke-width="1px"></line><line x1="50" y1="133.5" x2="45" y2="133.5" style="visibility: inherit;" fill="rgb(0, 0, 0)" stroke="rgb(204, 204, 204)" stroke-width="1px"></line><line x1="50" y1="118.66666666666657" x2="45" y2="118.66666666666657" style="visibility: inherit;" fill="rgb(0, 0, 0)" stroke="rgb(204, 204, 204)" stroke-width="1px"></line><line x1="50" y1="103.83333333333329" x2="45" y2="103.83333333333329" style="visibility: inherit;" fill="rgb(0, 0, 0)" stroke="rgb(204, 204, 204)" stroke-width="1px"></line><line x1="50" y1="89" x2="45" y2="89" style="visibility: inherit;" fill="rgb(0, 0, 0)" stroke="rgb(204, 204, 204)" stroke-width="1px"></line><line x1="50" y1="74.16666666666671" x2="45" y2="74.16666666666671" style="visibility: inherit;" fill="rgb(0, 0, 0)" stroke="rgb(204, 204, 204)" stroke-width="1px"></line><line x1="50" y1="59.33333333333316" x2="45" y2="59.33333333333316" style="visibility: inherit;" fill="rgb(0, 0, 0)" stroke="rgb(204, 204, 204)" stroke-width="1px"></line><line x1="50" y1="44.49999999999986" x2="45" y2="44.49999999999986" style="visibility: inherit;" fill="rgb(0, 0, 0)" stroke="rgb(204, 204, 204)" stroke-width="1px"></line><line x1="50" y1="29.666666666666572" x2="45" y2="29.666666666666572" style="visibility: inherit;" fill="rgb(0, 0, 0)" stroke="rgb(204, 204, 204)" stroke-width="1px"></line><line x1="50" y1="14.833333333333286" x2="45" y2="14.833333333333286" style="visibility: inherit;" fill="rgb(0, 0, 0)" stroke="rgb(204, 204, 204)" stroke-width="1px"></line><line x1="50" y1="0" x2="45" y2="0" style="visibility: inherit;" fill="rgb(0, 0, 0)" stroke="rgb(204, 204, 204)" stroke-width="1px"></line></g><g transform="translate(40, 0)"><text x="0" y="178" dx="0em" dy="0.3em" style="text-anchor: end; visibility: hidden; font-family: &quot;Helvetica Neue&quot;, sans-serif; font-size: 12px; font-weight: 200;" fill="rgb(50, 49, 63)" stroke="none" stroke-width="1px">15</text><text x="0" y="163.1666666666667" dx="0em" dy="0.3em" style="text-anchor: end; visibility: inherit; font-family: &quot;Helvetica Neue&quot;, sans-serif; font-size: 12px; font-weight: 200;" fill="rgb(50, 49, 63)" stroke="none" stroke-width="1px">15.2</text><text x="0" y="148.3333333333333" dx="0em" dy="0.3em" style="text-anchor: end; visibility: hidden; font-family: &quot;Helvetica Neue&quot;, sans-serif; font-size: 12px; font-weight: 200;" fill="rgb(50, 49, 63)" stroke="none" stroke-width="1px">15.4</text><text x="0" y="133.5" dx="0em" dy="0.3em" style="text-anchor: end; visibility: inherit; font-family: &quot;Helvetica Neue&quot;, sans-serif; font-size: 12px; font-weight: 200;" fill="rgb(50, 49, 63)" stroke="none" stroke-width="1px">15.6</text><text x="0" y="118.66666666666657" dx="0em" dy="0.3em" style="text-anchor: end; visibility: hidden; font-family: &quot;Helvetica Neue&quot;, sans-serif; font-size: 12px; font-weight: 200;" fill="rgb(50, 49, 63)" stroke="none" stroke-width="1px">15.8</text><text x="0" y="103.83333333333329" dx="0em" dy="0.3em" style="text-anchor: end; visibility: inherit; font-family: &quot;Helvetica Neue&quot;, sans-serif; font-size: 12px; font-weight: 200;" fill="rgb(50, 49, 63)" stroke="none" stroke-width="1px">16</text><text x="0" y="89" dx="0em" dy="0.3em" style="text-anchor: end; visibility: hidden; font-family: &quot;Helvetica Neue&quot;, sans-serif; font-size: 12px; font-weight: 200;" fill="rgb(50, 49, 63)" stroke="none" stroke-width="1px">16.2</text><text x="0" y="74.16666666666671" dx="0em" dy="0.3em" style="text-anchor: end; visibility: inherit; font-family: &quot;Helvetica Neue&quot;, sans-serif; font-size: 12px; font-weight: 200;" fill="rgb(50, 49, 63)" stroke="none" stroke-width="1px">16.4</text><text x="0" y="59.33333333333316" dx="0em" dy="0.3em" style="text-anchor: end; visibility: hidden; font-family: &quot;Helvetica Neue&quot;, sans-serif; font-size: 12px; font-weight: 200;" fill="rgb(50, 49, 63)" stroke="none" stroke-width="1px">16.6</text><text x="0" y="44.49999999999986" dx="0em" dy="0.3em" style="text-anchor: end; visibility: inherit; font-family: &quot;Helvetica Neue&quot;, sans-serif; font-size: 12px; font-weight: 200;" fill="rgb(50, 49, 63)" stroke="none" stroke-width="1px">16.8</text><text x="0" y="29.666666666666572" dx="0em" dy="0.3em" style="text-anchor: end; visibility: hidden; font-family: &quot;Helvetica Neue&quot;, sans-serif; font-size: 12px; font-weight: 200;" fill="rgb(50, 49, 63)" stroke="none" stroke-width="1px">17</text><text x="0" y="14.833333333333286" dx="0em" dy="0.3em" style="text-anchor: end; visibility: inherit; font-family: &quot;Helvetica Neue&quot;, sans-serif; font-size: 12px; font-weight: 200;" fill="rgb(50, 49, 63)" stroke="none" stroke-width="1px">17.2</text><text x="0" y="0" dx="0em" dy="0.3em" style="text-anchor: end; visibility: hidden; font-family: &quot;Helvetica Neue&quot;, sans-serif; font-size: 12px; font-weight: 200;" fill="rgb(50, 49, 63)" stroke="none" stroke-width="1px">17.4</text></g><line x1="50" y1="0" x2="50" y2="178" fill="rgb(0, 0, 0)" stroke="rgb(204, 204, 204)" stroke-width="1px"></line></g></g><g transform="translate(50, 0)" clip-path="url(#clip_0)"><clipPath id="clip_0"><rect width="280" height="178"></rect></clipPath><g><g><g><line x1="0" y1="0" x2="0" y2="178" fill="rgb(0, 0, 0)" stroke="rgb(60, 60, 60)" stroke-width="1px" opacity="0.25"></line><line x1="23.333333333333332" y1="0" x2="23.333333333333332" y2="178" fill="rgb(0, 0, 0)" stroke="rgb(60, 60, 60)" stroke-width="1px" opacity="0.25"></line><line x1="46.666666666666664" y1="0" x2="46.666666666666664" y2="178" fill="rgb(0, 0, 0)" stroke="rgb(60, 60, 60)" stroke-width="1px" opacity="0.25"></line><line x1="70" y1="0" x2="70" y2="178" fill="rgb(0, 0, 0)" stroke="rgb(60, 60, 60)" stroke-width="1px" opacity="0.25"></line><line x1="93.33333333333333" y1="0" x2="93.33333333333333" y2="178" fill="rgb(0, 0, 0)" stroke="rgb(60, 60, 60)" stroke-width="1px" opacity="0.25"></line><line x1="116.66666666666667" y1="0" x2="116.66666666666667" y2="178" fill="rgb(0, 0, 0)" stroke="rgb(60, 60, 60)" stroke-width="1px" opacity="0.25"></line><line x1="140" y1="0" x2="140" y2="178" fill="rgb(0, 0, 0)" stroke="rgb(60, 60, 60)" stroke-width="1px" opacity="0.25"></line><line x1="163.33333333333334" y1="0" x2="163.33333333333334" y2="178" fill="rgb(0, 0, 0)" stroke="rgb(60, 60, 60)" stroke-width="1px" opacity="0.25"></line><line x1="186.66666666666666" y1="0" x2="186.66666666666666" y2="178" fill="rgb(0, 0, 0)" stroke="rgb(60, 60, 60)" stroke-width="1px" opacity="0.25"></line><line x1="210" y1="0" x2="210" y2="178" fill="rgb(0, 0, 0)" stroke="rgb(60, 60, 60)" stroke-width="1px" opacity="0.25"></line><line x1="233.33333333333334" y1="0" x2="233.33333333333334" y2="178" fill="rgb(0, 0, 0)" stroke="rgb(60, 60, 60)" stroke-width="1px" opacity="0.25"></line><line x1="256.66666666666663" y1="0" x2="256.66666666666663" y2="178" fill="rgb(0, 0, 0)" stroke="rgb(60, 60, 60)" stroke-width="1px" opacity="0.25"></line><line x1="280" y1="0" x2="280" y2="178" fill="rgb(0, 0, 0)" stroke="rgb(60, 60, 60)" stroke-width="1px" opacity="0.25"></line></g><g><line x1="0" y1="178" x2="280" y2="178" fill="rgb(0, 0, 0)" stroke="rgb(60, 60, 60)" stroke-width="1px" opacity="0.25"></line><line x1="0" y1="163.1666666666667" x2="280" y2="163.1666666666667" fill="rgb(0, 0, 0)" stroke="rgb(60, 60, 60)" stroke-width="1px" opacity="0.25"></line><line x1="0" y1="148.3333333333333" x2="280" y2="148.3333333333333" fill="rgb(0, 0, 0)" stroke="rgb(60, 60, 60)" stroke-width="1px" opacity="0.25"></line><line x1="0" y1="133.5" x2="280" y2="133.5" fill="rgb(0, 0, 0)" stroke="rgb(60, 60, 60)" stroke-width="1px" opacity="0.25"></line><line x1="0" y1="118.66666666666657" x2="280" y2="118.66666666666657" fill="rgb(0, 0, 0)" stroke="rgb(60, 60, 60)" stroke-width="1px" opacity="0.25"></line><line x1="0" y1="103.83333333333329" x2="280" y2="103.83333333333329" fill="rgb(0, 0, 0)" stroke="rgb(60, 60, 60)" stroke-width="1px" opacity="0.25"></line><line x1="0" y1="89" x2="280" y2="89" fill="rgb(0, 0, 0)" stroke="rgb(60, 60, 60)" stroke-width="1px" opacity="0.25"></line><line x1="0" y1="74.16666666666671" x2="280" y2="74.16666666666671" fill="rgb(0, 0, 0)" stroke="rgb(60, 60, 60)" stroke-width="1px" opacity="0.25"></line><line x1="0" y1="59.33333333333316" x2="280" y2="59.33333333333316" fill="rgb(0, 0, 0)" stroke="rgb(60, 60, 60)" stroke-width="1px" opacity="0.25"></line><line x1="0" y1="44.49999999999986" x2="280" y2="44.49999999999986" fill="rgb(0, 0, 0)" stroke="rgb(60, 60, 60)" stroke-width="1px" opacity="0.25"></line><line x1="0" y1="29.666666666666572" x2="280" y2="29.666666666666572" fill="rgb(0, 0, 0)" stroke="rgb(60, 60, 60)" stroke-width="1px" opacity="0.25"></line><line x1="0" y1="14.833333333333286" x2="280" y2="14.833333333333286" fill="rgb(0, 0, 0)" stroke="rgb(60, 60, 60)" stroke-width="1px" opacity="0.25"></line><line x1="0" y1="0" x2="280" y2="0" fill="rgb(0, 0, 0)" stroke="rgb(60, 60, 60)" stroke-width="1px" opacity="0.25"></line></g></g></g><g><g><line x1="0" y1="1290.5000000000007" x2="280" y2="1290.5000000000007" fill="rgb(0, 0, 0)" stroke="rgb(153, 153, 153)" stroke-width="1.5px"></line></g></g><g><g><line x1="23.333333333333332" y1="0" x2="23.333333333333332" y2="178" fill="rgb(0, 0, 0)" stroke="rgb(153, 153, 153)" stroke-width="1.5px"></line></g></g><g><g><g><g><g><path stroke="rgb(255, 112, 67)" stroke-width="2px" d="M23.916666666666668,155.33316898345947L24.03333333333333,149.68797936537067L24.5,154.16900329307927L24.616666666666667,171.85683624649602L24.849999999999998,159.47307969378298L24.96666666666667,161.82436223523354L25.083333333333332,159.79525267586294L25.433333333333334,152.68937429430912L25.55,148.15175605508028L25.666666666666664,161.60677283365698L26.133333333333333,163.49846653611687L27.18333333333333,116.21739759277216L27.3,95.17389852238037L27.53333333333333,96.14147513475726L28,23.74377441393915L28.233333333333334,51.34310897062858L28.46666666666667,7.8639612075688206L28.583333333333332,111.81633752118707L28.816666666666666,99.13457649808471L29.049999999999997,72.50609859411928L29.166666666666668,63.697185585013656L29.51666666666667,54.435860821827305L29.633333333333333,54.20800895686554L29.75,69.99701061273747L29.866666666666667,-70.20751682355115L29.983333333333334,68.6899328193377L30.333333333333336,35.60497668161196L30.45,67.4190464316569L30.683333333333334,62.33276260823666L30.916666666666664,42.84085392209391L31.033333333333335,36.03828242952878L31.150000000000002,72.25300550840106L31.266666666666666,65.83150668439487L31.616666666666667,17.58750209325251L31.73333333333333,43.183669296505684L31.85,-68.63973096400406L31.966666666666665,37.353675587513834L32.550000000000004,21.028029198151756L33.13333333333333,-44.46390424944198L33.25,26.693785527746343L33.36666666666667,9.942939234589716L33.483333333333334,23.491555322670735L33.6,-103.15660601013707L33.71666666666667,-307.67162151158493L34.3,29.18617536920084L35.233333333333334,-127.91097179166348L35.58333333333333,98.44893121941806L35.7,76.11699522487498L36.516666666666666,83.42786243079928L36.86666666666666,75.1679105165802L37.1,-35.74144618483942L37.21666666666666,3.598548921391881L37.333333333333336,9.183555128399547L37.800000000000004,10.66232537929227L37.916666666666664,53.322638499260194L38.03333333333333,-27.736626873083935L38.38333333333333,1.7710636265234427L38.5,18.600006366568067L39.31666666666666,-101.76917042497985L39.55,-259.28207968324165L39.78333333333333,6.80764081591181L39.9,37.24994795846425L40.016666666666666,-25.626142014986755L40.13333333333333,36.38169155165346L40.599999999999994,-12.193133559369727L40.833333333333336,-83.85127740532863L41.18333333333334,37.64699322435729L41.3,-156.53999212780644L41.65,-11.369415505318813L41.766666666666666,96.43405767394329L41.88333333333334,137.3897145077013L42.233333333333334,160.23822487723004L42.46666666666667,168.80294036865004L42.58333333333333,144.5575998833972L42.81666666666667,138.0287293819197L42.93333333333333,109.39206399939263L43.28333333333333,128.11446900929562L43.86666666666667,164.7571670098968L43.983333333333334,140.51097869303396L44.1,122.78238172088135L44.33333333333333,134.69706221430928L44.68333333333333,133.6324751699866L44.91666666666667,91.8197384401846L45.03333333333333,77.08812018130871L45.266666666666666,77.43756031199908L45.5,90.4045995694208L45.61666666666666,59.286205567991146L46.43333333333333,42.62375081693335L47.36666666666667,96.44464893985237L47.483333333333334,107.7042832282347L47.6,109.14341673878553L48.06666666666666,35.90906711880149L48.416666666666664,67.95523548764073L48.766666666666666,18.185321580940013L48.88333333333333,66.28801272039607L49.233333333333334,66.30287868414617L49.349999999999994,42.71706747671459L49.583333333333336,-18.792243495351983L49.699999999999996,44.623778642341705L49.81666666666667,108.4621206161593L50.05,135.35427456609597L50.4,104.40830120137647L50.516666666666666,103.69782598887541L50.63333333333334,31.254417101939936L50.983333333333334,49.706165939373875L51.33333333333333,55.643461268284454L51.91666666666667,121.9566837482084L52.15,41.02516521206525L52.38333333333333,127.7350558492405L52.5,107.13352553964745L53.08333333333333,69.42573100379585L53.43333333333333,45.282994292393994L53.550000000000004,69.46011510197248L53.66666666666667,138.55144615034274L53.78333333333333,153.83405736170678L54.016666666666666,127.56773242009585L54.483333333333334,140.52464193890992L54.71666666666666,116.03851156502337L54.95,113.62246530472717L55.18333333333333,154.28073942060973L55.766666666666666,135.32971765469244L56,59.16912536948968L56.46666666666667,99.20865386146347L57.05,138.2283651160513L57.28333333333333,76.3109378465959L57.4,116.97673454543818L57.983333333333334,43.69265228986117L58.099999999999994,70.64180590180312L58.21666666666667,67.76287429235882L58.449999999999996,64.8885252184456L58.56666666666667,118.26786309849537L58.68333333333334,124.14046639458431L59.15,123.60580366249539L59.266666666666666,119.44468819386478L59.5,119.44544852863709L59.85,125.61144029432356L60.31666666666667,59.24473260633182L60.43333333333333,60.604883620873565L60.55,104.00999356493485L60.66666666666667,96.40516931025185L60.9,99.62665194700618L61.25,80.91412634347361L61.36666666666667,112.48438107938571L61.483333333333334,125.4998386597322L61.83333333333333,80.11572456565843L61.95,73.7382680106798L62.18333333333333,71.12128763138188L62.88333333333333,50.24292939026951L63.11666666666666,85.69457046660719L63.46666666666666,114.7460437496809L63.583333333333336,149.27119908999146L63.81666666666666,126.59083947171015L63.93333333333333,123.61378604924624L64.51666666666667,123.21049715925886L64.63333333333334,116.67093541629865L64.86666666666666,113.14672550745838L65.10000000000001,109.65738296572664L65.21666666666667,88.87572574240917L65.33333333333333,83.65715394297499L65.68333333333334,133.99383298121847L65.8,147.74413126612504L66.14999999999999,127.32800433108916L66.26666666666667,107.38540195977211L66.5,107.31741957585017L66.61666666666666,125.81190740138055L66.85,110.7495109467062L67.31666666666666,111.82228584788862L67.43333333333334,92.41782284879557L67.55,82.52625160081386L67.78333333333333,81.52294657730684L67.89999999999999,105.78939345124553L68.36666666666667,120.2481055110043L68.48333333333333,88.83869551751302L68.6,110.66911219313134L68.83333333333333,66.81297976296614L68.95,95.65908136940305L69.06666666666666,49.93791205264549L69.18333333333334,116.6837964548107L70.23333333333333,81.60070645607419L70.35,108.40146861928766L70.93333333333334,130.59734468024436L71.75,138.1041872144445L71.86666666666666,135.7171125541922L72.33333333333334,100.34512528114769L72.44999999999999,111.075586381316L72.56666666666666,109.84247244999612L72.8,122.1511477422458L73.03333333333333,124.15115171813045L73.5,117.50268882774758L74.55,97.13265932294183L74.66666666666667,107.30123492935088L74.78333333333333,77.97349182014418L74.9,62.59831496793453L75.25,77.80806889849481L75.60000000000001,110.13225694073725L75.95,92.63946652700427L76.76666666666667,112.3040202344189L76.88333333333334,86.71498433180165L77,95.42084747475543L77.11666666666666,64.09827343940324L77.35,118.77532752897844L77.46666666666667,113.25128608317195L77.81666666666666,144.73617070138528L77.93333333333334,97.96862438364583L78.05,104.44765045524353L78.28333333333333,117.15945475060062L78.51666666666667,123.72946292672441L78.63333333333333,116.28868419360609L79.1,123.79403277801073L79.91666666666666,80.88027373104472L80.26666666666667,134.2569621576081L80.38333333333334,37.177282299628416L80.61666666666666,124.77523997641724L80.85000000000001,91.942912053063L81.19999999999999,125.10358066096634L82.48333333333332,105.65392372742645L82.83333333333333,121.68124492815559L82.95,148.84378899145082L83.06666666666668,116.89369839379049L83.3,105.0979842550206L83.53333333333333,94.29779905445561L83.65,143.16421312172855L83.88333333333333,110.75957246145205L84.46666666666667,118.53262970316632L84.58333333333333,114.49587204693313L85.28333333333333,82.64694304495015L85.51666666666667,87.80946261593417L85.63333333333334,113.77135239642995L85.75,113.56562601781908L85.86666666666666,103.92681187470501L85.98333333333333,123.24457107894233L86.1,146.9047904656188L86.21666666666667,102.14872979475575L86.33333333333334,139.60779331900855L86.45,117.34953309690992L86.56666666666666,124.26431666990493L86.8,114.79836210751012L87.15,156.20030373187348L87.26666666666667,107.99431869705465L87.38333333333333,109.61909691872748L87.61666666666667,87.47536679563235L88.08333333333333,114.27735577171433L88.31666666666666,137.77072335314455L88.55,146.4342318876527L89.01666666666667,87.83837983322377L89.13333333333334,113.59213982484452L89.25,117.72831857023509L89.48333333333333,112.55057102994458L89.71666666666667,75.26923056924413L89.94999999999999,92.36904697136347L90.18333333333334,108.69453808665033L90.3,151.90340026024938L90.64999999999999,161.20847488191544L90.88333333333334,151.53025844304418L91,119.10075871334206L91.11666666666667,108.90678126672958L91.23333333333332,126.5754237079073L91.35,80.257503067888L91.46666666666667,119.68373627534223L91.7,110.43050992500422L91.81666666666668,123.71239473264662L92.4,112.6099071808542L92.51666666666668,107.50406103528053L92.75,101.80060705774234L92.86666666666666,109.18292213190777L92.98333333333333,49.526297403142706L93.33333333333333,87.17251607245068L93.56666666666666,114.26622532815051L93.80000000000001,122.78064910591749L94.03333333333333,92.17986526141834L94.26666666666667,102.84618019498807L94.5,109.73483756736154L94.61666666666666,119.93755228932662L94.73333333333333,99.21166222531119L95.08333333333334,128.7948715995725L95.55,133.95308929554474L95.66666666666667,129.89235344753826L95.9,83.78534304821919L96.25,114.56413757533068L96.71666666666667,108.42887673937142L97.3,64.85114876216234L98.11666666666666,127.49114502693054L98.23333333333333,139.04140773825128L98.46666666666667,125.46785153453078L98.58333333333334,110.74049190666754L98.69999999999999,83.33045460683633L98.81666666666666,128.71031169046438L98.93333333333334,141.30211437108656L99.05,88.36437089052947L99.28333333333333,140.1754373057601L99.39999999999999,115.8110169877552L99.86666666666667,136.55117579570148L99.98333333333332,102.01464708277817L100.45,119.77235672815583L100.8,110.01326413665151L101.03333333333333,88.2188880181423L101.15,81.57635946086046L101.26666666666668,110.53197675137903L101.61666666666666,78.09868801037892L101.73333333333333,107.01068850162862L101.85000000000001,89.72629429271564L101.96666666666667,110.9059201964144L102.08333333333333,116.10721983559392L102.31666666666666,95.18319820766773L102.43333333333334,103.8038567845L102.55000000000001,124.38202534607534L102.78333333333333,129.3064418536532L102.89999999999999,113.49349835640469L103.01666666666667,133.86484189750394L103.13333333333334,100.91934401710364L103.25,121.89496259350881L103.36666666666666,127.56256085460987L103.6,102.36098346286178L103.71666666666667,80.49838827799454L104.06666666666666,121.71897696678906L104.53333333333333,65.11536748167181L104.88333333333333,107.9640264884559L105,95.05705077765371L105.11666666666667,125.20905433041193L105.35,110.67102732930344L105.58333333333333,138.123011512605L105.7,111.3418811772755L105.93333333333334,93.8973060775563L106.16666666666666,120.82206930545027L106.63333333333334,63.39363230472125L107.10000000000001,111.84113524995422L107.21666666666667,130.67803804538008L107.44999999999999,148.780545985081L107.56666666666666,92.97080563829428L107.68333333333334,137.3507013504427L107.8,103.31286532409491L107.91666666666667,107.16591566553281L108.38333333333334,101.95929373928949L108.5,106.53537331167796L109.2,83.11062516665008L109.43333333333332,101.27187170089003L109.55,113.21770787861028L109.66666666666667,118.40807411674271L109.78333333333333,114.92185522362777L110.01666666666668,101.9961726408648L110.36666666666666,120.14481199718287L110.48333333333333,69.3827381504889L110.83333333333333,75.28928172957069L110.95,149.09689987969477L111.06666666666666,134.92361797834812L111.30000000000001,122.1577478806386L111.53333333333333,103.7683182792368L111.88333333333334,100.2640160671811L112.23333333333333,157.43932018069523L112.58333333333334,135.153238315482L112.7,129.8391922672417L112.81666666666666,120.20496100430302L113.05,120.71501090290553L113.16666666666667,86.032193256473L113.28333333333333,103.12943052122007L113.51666666666667,97.62654437611332L113.63333333333333,89.6854316712111L113.75,100.61020641225915L114.33333333333333,75.02056158538072L114.8,147.6799190911371L114.91666666666666,119.99149250744321L115.15,111.04583359533477L115.38333333333334,138.8689843701082L115.61666666666666,87.88708034330297L115.73333333333333,103.92376869558045L115.85000000000001,89.48123563306493L115.96666666666667,114.25960314617072L116.08333333333334,111.18717329014655L116.19999999999999,91.01710802333939L116.43333333333334,129.72551884279528L116.66666666666667,90.59929589504789L116.89999999999999,140.9271596974539L117.25,126.39505081426009L117.48333333333332,176.27237000530454L117.6,115.11002210706737L117.71666666666667,106.1842834018912L118.18333333333332,125.4659309518764L118.41666666666667,107.29540289512303L118.53333333333333,109.13667116772803L118.76666666666668,151.2587168784028L119.11666666666666,116.39248646999164L119.58333333333333,118.61744771488608L119.93333333333334,96.52270128792046L120.28333333333333,146.96806004152967L120.39999999999999,132.28901807100254L120.63333333333334,101.64922428695469L120.86666666666666,72.57793155603959L121.1,72.86816074613414L121.68333333333334,85.52722587372534L121.91666666666667,88.67940133440543L122.03333333333333,124.92418262306671L122.15,149.18557194604404L122.26666666666667,116.67452087453267L122.61666666666667,140.79708089376228L123.31666666666666,82.52795810510736L123.55,79.80652608749362L123.66666666666666,106.61121935119162L123.78333333333333,108.73104206191248L123.9,132.34241401805883L124.01666666666667,159.22371258523742L124.48333333333333,113.35810525572462L124.71666666666667,130.05530391592245L124.83333333333334,109.9159277420989L125.18333333333334,120.73301438483679L125.3,80.53618207501606L125.41666666666667,111.65548200237886L125.53333333333333,116.08261973875202L125.64999999999999,104.15523995983085L125.88333333333334,109.05400220055354L126,120.5966453734426L126.11666666666667,119.27875381348585L126.23333333333332,117.21438946120843L126.46666666666667,113.49292839576432L126.81666666666668,94.73252550599024L127.05,119.13415359543166L127.16666666666667,135.97341199617898L127.4,127.36352636978361L127.51666666666668,136.61991130659035L127.86666666666666,85.77804782432007L128.21666666666667,95.2319605716833L128.33333333333331,95.00123957743516L129.15,102.88508238802982L129.26666666666668,111.93747674262862L129.38333333333333,118.0256434474221L129.5,130.58495026573866L129.61666666666667,68.53953406219168L129.73333333333332,85.21859963095645L129.85,135.02878418471903L130.08333333333334,80.12579008970536L130.20000000000002,105.3969216124183L130.31666666666666,118.68753782922077L130.66666666666666,136.5740778274687L130.78333333333333,105.82080580494342L130.9,131.2597751753306L131.01666666666665,156.11604159756212L131.25,96.11031072765427L131.95,102.9259340880156L132.06666666666666,127.34887099869307L132.41666666666666,121.70163351664513L133.23333333333332,117.35902496894113L133.58333333333334,110.31818022248886L134.05,98.50072181033207L134.4,112.79261841419509L134.51666666666665,77.78396913699966L134.63333333333333,118.94605511724568L134.86666666666667,118.40534335891758L134.98333333333332,97.08957722823033L135.1,95.20754044858946L135.45000000000002,44.13894860408388L135.56666666666666,85.0077062834287L135.79999999999998,87.21407223069765L136.03333333333333,63.45446702991924L136.15,98.43745601762053L136.38333333333333,109.54759322976645L136.61666666666667,140.02730961621367L136.73333333333335,141.31222829800737L136.96666666666667,118.07014571009917L137.2,79.34839683120354L137.31666666666666,94.35635828782364L137.43333333333334,102.7590941296757L137.55,128.5852457145381L137.9,92.21798795501675L138.01666666666668,139.25332227194653L138.13333333333333,112.39935545415867L138.48333333333332,116.4780390893563L138.6,128.2105383887087L139.53333333333333,91.51947090227716L139.88333333333333,93.03813490598911L140,62.094808674013436L140.23333333333335,76.88655495467266L140.46666666666667,74.5116704725903L140.58333333333334,126.70058871151578L140.93333333333334,133.39826096434268L141.05,109.65740450923239L141.28333333333336,114.7425294645239L141.4,72.0063798022449L141.51666666666665,133.10305977224854L141.63333333333333,150.21255096601274L141.98333333333332,97.46896189394738L142.91666666666666,97.9889743628686L143.15,128.03764353599936L143.38333333333333,89.70772606631054L143.61666666666667,137.38655639455695L143.73333333333332,122.67806873435505L143.85000000000002,108.37709925167947L144.08333333333331,149.51301243492034L144.31666666666666,159.40323617704223L144.43333333333334,100.77942662809217L144.54999999999998,137.69264097790304L144.89999999999998,109.82788324316618L145.01666666666668,133.53040698937292L145.13333333333333,88.2575236132079L145.71666666666667,110.7821196994777L145.95,110.30081294330071L146.06666666666666,108.28919696917154L146.41666666666669,107.13067418110244L146.65,168.59505983431495L147.35,110.28677590983953L147.46666666666664,106.69328521442576L147.7,143.01218988634375L147.93333333333334,127.68938964691576L148.4,76.9820784015792L148.63333333333335,74.57940064646787L148.86666666666665,116.62095765825134L149.1,114.6954079317654L149.33333333333334,89.25289123467012L149.56666666666666,125.9311102180762L149.68333333333334,126.89145407749226L149.8,110.6765738784937L149.91666666666666,100.1366632164362L150.03333333333336,116.2242119220426L150.73333333333332,77.02662399987506L150.85,128.4860310735966L151.55,121.60242635986486L151.78333333333333,150.08058478182528L152.01666666666668,101.69183629700115L152.13333333333333,133.3008035289689L152.25,141.25466611131867L153.29999999999998,134.98044839739435L153.53333333333333,99.14366513997176L153.88333333333333,126.51009909978572L154.23333333333332,133.7525171465127L154.35,74.22854480104208L154.58333333333334,78.49491847363414L154.7,76.52614341138975L154.81666666666666,147.67551763236128L154.93333333333334,149.7071193017661L155.16666666666669,117.50719398898626L155.28333333333333,108.356944988225L155.51666666666668,98.70443174970727L155.63333333333333,123.03860063659265L155.75,127.0017788655476L156.1,114.40327775171068L156.21666666666664,109.79391080298605L156.45,94.90502289701621L157.38333333333335,122.8622723890053L157.5,126.36948201209809L157.61666666666665,128.86045174356548L157.73333333333335,138.55484057788118L158.08333333333334,121.84013589047383L158.2,142.50614237575613L158.31666666666666,112.1847255580544L158.66666666666666,126.42382309370392L158.78333333333336,145.79167285177692L158.9,117.33398047552774L159.25,111.95731629155435L160.65,145.76507348430164L161,140.0188968756408L161.23333333333332,96.56830098677565L161.35000000000002,151.66128183595808L161.58333333333331,142.11102855460618L161.70000000000002,98.49508302191624L162.04999999999998,110.04145434844699L162.39999999999998,128.226937841193L162.51666666666668,119.78238156951272L162.63333333333333,137.05087229788117L162.75,145.05692073201558L162.86666666666667,108.73646177265556L162.98333333333332,74.18600880599678L163.1,123.55851904544872L163.21666666666667,126.71111380322097L163.45,130.72587782446973L163.68333333333334,137.63510019342976L163.79999999999998,118.70311755238143L164.03333333333333,102.55660048477046L164.26666666666668,128.67517527224658L164.5,92.04157920136501L164.61666666666667,84.94620192739431L164.73333333333335,148.95561203792542L164.85,134.99548882447644L164.96666666666664,111.5063834531894L165.08333333333334,93.85690157877696L166.13333333333335,69.03943375373748L166.25,48.509435327286354L166.48333333333335,71.37451203572245L166.6,102.02306035858398L167.06666666666666,115.3369574389439L167.18333333333334,102.20087858983787L167.3,141.29059773499256L167.53333333333336,119.2526757515665L167.88333333333333,102.83298895395767L168.23333333333332,102.71670880540992L168.46666666666667,99.9845105105586L168.70000000000002,76.30744363472314L168.81666666666666,132.4839079537131L169.05,155.4289994361678L169.16666666666666,108.88439988013597L169.51666666666668,95.38534856743601L169.63333333333333,120.9581089560385L169.75,72.90454090956568L169.98333333333332,101.51902445474217L170.10000000000002,121.46332090253074L170.21666666666667,77.23736647856907L170.45000000000002,74.16381415583682L170.56666666666666,90.35021684007496L170.68333333333334,110.80592098406109L170.79999999999998,112.61015003655038L170.91666666666669,133.67795700386404L171.03333333333333,98.27655577329743L171.61666666666667,71.13834477675088L171.73333333333332,101.21218615089775L171.96666666666667,143.17298081173502L172.43333333333334,117.77539381439118L172.54999999999998,105.008978971977L172.78333333333333,136.17534973830686L173.25,107.91977673874246L173.48333333333335,138.9409629343692L173.71666666666664,100.72169248344329L173.95,101.39177277224098L174.06666666666666,119.74205816413934L174.18333333333334,102.03132537320857L174.3,84.21561842447596L174.53333333333333,78.65503034300485L174.88333333333335,126.58081218001377L175,92.85968534559886L175.23333333333335,113.31506613489367L175.35,117.92792299433955L175.46666666666667,99.8226405389387L175.7,131.75847958524875L176.16666666666666,101.64858266913872L176.4,111.68847657062629L176.51666666666665,116.40706862600976L176.75,129.71834134956168L176.86666666666667,82.50988500139313L177.21666666666667,130.25154358379717L177.33333333333331,98.22839806843919L177.91666666666666,113.6033393750177L178.03333333333333,72.54164830178365L178.15,126.53098118614817L178.26666666666668,133.53426617290233L178.5,69.78159961523424L178.73333333333332,128.9541763565695L178.85000000000002,148.0134185798754L178.96666666666667,123.82047012960516L179.08333333333331,45.629638809479076L179.20000000000002,36.51145975454608L179.31666666666666,136.31035053419777L179.66666666666669,65.9742593178575L180.01666666666668,76.91108497876094L180.25,141.58487275410693L180.6,127.14753958597035L180.71666666666667,82.3662456359618L180.83333333333334,100.26188245277662L180.95,109.83529436497875L181.41666666666669,50.65341697762564L181.88333333333333,114.194681206664L182.11666666666667,132.93848077750857L182.23333333333335,107.83272034454379L182.7,54.72070138296503L182.81666666666666,52.84860450749821L183.16666666666666,129.3405699805252L183.51666666666665,90.79318044044469L183.75,130.02039047222786L183.98333333333335,134.3608415377863L184.1,87.48398697901708L184.21666666666667,103.21802188437297L184.56666666666666,99.60382285276995L184.8,114.63630770020161L184.91666666666666,131.2720322311742L185.15,127.60758060070755L185.26666666666665,110.68123365823523L185.38333333333333,100.3067575371015L185.61666666666667,117.90145779977054L185.73333333333332,28.11569601328776L186.08333333333331,105.10901614009747L186.66666666666666,41.42821905181569L188.06666666666666,108.64766626785095L188.18333333333334,66.44034078173661L188.29999999999998,88.37399189099568L188.41666666666669,67.64008156154445L188.88333333333333,81.26477625051075L189.23333333333332,110.44987117481743L189.35,51.60509700835836L189.58333333333334,90.70809006913697L189.7,64.504885493519L189.81666666666666,131.28727637190678L189.93333333333334,135.53249878606763L190.4,116.2176615438016L190.51666666666668,106.38813616606038L190.63333333333333,111.34330779043256L190.86666666666667,147.42110672261876L190.98333333333335,139.08373454236965L191.1,120.21213451137734L191.33333333333334,67.296871647834L191.56666666666666,103.09164450045884L192.26666666666665,122.32490361101885L192.5,104.55382113829931L193.08333333333334,109.02077084397234L193.2,90.39234524470976L194.25,97.70634343515108L194.36666666666667,117.3047118640676L194.83333333333331,163.00043476276866L195.3,157.19190319242637L195.65,90.42734742563127L196,69.02084241687567L196.11666666666667,67.18111975925129L196.23333333333332,126.0500258457779L196.58333333333331,157.03005491384155L196.70000000000002,103.0879355338644L197.04999999999998,106.84332467946228L197.28333333333333,117.1731385733876L197.39999999999998,152.41580559943012L197.51666666666668,48.96714809996328L198.33333333333334,85.3157749763125L198.45,98.43543273415426L198.56666666666666,132.30721481257945L198.68333333333334,110.26885095713868L198.91666666666669,135.9062493077084L199.03333333333333,104.95334365870202L199.15,133.3334857803365L199.26666666666668,99.57147555037655L199.38333333333333,120.35821609851024L199.5,106.17184149182708L199.61666666666667,122.73024677085229L199.73333333333335,69.12013174982374L199.85,108.04297394415028L200.2,145.24188218391848L200.43333333333334,152.54235201146906L201.01666666666665,147.1970699793815L201.13333333333335,142.85533738760213L201.25,167.18464391807538L201.48333333333335,143.08697904798404L202.3,110.05930216219546L202.53333333333336,136.03674211279065L203.11666666666667,52.279253434130894L203.23333333333332,23.465738574173912L203.70000000000002,67.68328762128623L203.93333333333334,50.58645677320226L204.05,105.29735719844915L204.28333333333333,97.14976077189056L204.4,119.20404650515601L204.63333333333333,85.05588051570058L204.75,121.98645273129537L205.45000000000002,107.9902259335744L205.56666666666666,94.67666003294667L205.68333333333334,68.65503068050032L206.26666666666668,121.4863999214398L206.38333333333333,149.90862066015347L207.43333333333334,154.7081376860359L207.54999999999998,149.10587586945098L207.9,154.60541590251987L208.01666666666668,129.38032540946634L208.13333333333333,104.62633825787992L208.36666666666667,41.10580408156406L208.6,107.83422814212925L208.83333333333334,98.75637023833876L209.18333333333334,160.74932573763772L209.3,115.17442850527212L209.53333333333333,148.37777367857848L209.65,133.42171548517337L209.88333333333335,116.42061471896227L210.11666666666665,90.1002906411026L210.23333333333335,116.20685248769378L210.46666666666667,112.13729200094225L210.58333333333334,119.63625643777411L211.05,151.0861647353745L211.16666666666666,152.5898081400024L211.4,134.18570249300265L211.51666666666665,122.67591198394965L211.63333333333333,108.36538359431323L211.75,151.00008539185973L212.1,120.20577926092555L212.21666666666667,107.43229555796138L212.33333333333331,149.48195203909012L212.8,116.23447622508829L213.03333333333333,136.2437208595504L213.15,106.6271519347711L213.26666666666668,110.8737868777459L213.5,100.30269507074806L213.73333333333332,93.90066574568034L213.96666666666667,84.64098612503084L214.20000000000002,138.16699162423475L214.31666666666666,52.23764660028995L214.43333333333334,47.99554521083218L214.66666666666669,100.46432151033322L214.78333333333333,29.704685681347314L214.89999999999998,59.86593177405463L215.01666666666668,58.09504700132837L215.13333333333333,71.38438831248168L215.25,51.25696614213429L215.48333333333332,120.16457364258551L215.6,75.76157214192665L215.95,35.290851472083745L216.06666666666666,109.4060390208289L216.29999999999998,127.63963436197487L216.41666666666669,103.5039523804984L216.76666666666668,88.14743240620676L216.88333333333333,70.461689371369L217,51.32185836783839L217.11666666666667,103.87216460895925L217.46666666666664,119.58766630304632L217.93333333333334,123.30198897208146L218.16666666666666,129.69383922508172L218.28333333333333,77.04890493634741L218.4,122.21899393456178L218.75,121.52035382079833L218.86666666666665,89.36739438472462L219.1,115.86649916862854L219.56666666666666,104.41038664603127L219.68333333333334,107.05529813716582L219.8,122.3522814588643L219.91666666666666,74.78862496506224L220.15,132.70423147661919L220.61666666666667,127.93942021333194L220.73333333333332,93.96200514050646L220.96666666666667,86.14869359420668L221.08333333333331,40.11804868987187L221.20000000000002,114.58595705587445L221.31666666666666,130.29491579624369L221.55,123.73363510284796L221.9,39.24091103247301L222.01666666666668,79.6514297125113L222.13333333333333,51.54992869636561L222.25,88.45000293432915L222.36666666666667,103.67680197960676L222.71666666666667,101.6663817066421L222.83333333333331,135.2468374684884L223.41666666666669,118.33887530323534L223.64999999999998,107.66139842644647L223.76666666666668,75.4013937146875L223.88333333333333,107.57642127555523L224.35,133.18106540584617L224.7,75.61844676711897L224.93333333333334,102.95219717079101L225.28333333333333,129.0056619334478L225.4,109.29272065209662L225.51666666666668,80.7800095480472L225.63333333333333,72.05681268646237L225.75,114.87513269422041L225.98333333333335,136.64473884625488L226.1,136.7432226182511L226.21666666666664,89.80779668224662L226.56666666666666,124.31639133685366L226.68333333333334,51.83175767308167L226.91666666666666,61.49249575912283L227.03333333333333,129.97335108233457L227.15,97.99620678627686L227.5,63.95760812085123L227.73333333333335,16.276848489541777L227.85,78.19630219042874L227.96666666666667,85.76335683697512L228.08333333333334,12.435738674613418L228.9,54.30193277159913L229.01666666666665,96.94942054378632L229.36666666666667,127.01710053162361L229.95000000000002,75.65886326061351L230.41666666666666,104.34086183406993L230.65,103.46240217669182L231.11666666666667,107.8609346387367L231.23333333333332,131.43682803647292L231.46666666666667,143.4406285947278L231.93333333333334,124.6700880249238L232.04999999999998,95.82546238185449L232.16666666666669,113.28584085203012L232.39999999999998,68.3237336533074L232.51666666666668,132.5677305240368L232.63333333333333,105.11606796361255L233.1,23.959334436495368L233.33333333333334,74.35216169402142L233.56666666666666,103.11916285621406L233.79999999999998,158.68515878194236L233.91666666666669,141.83294402815446L234.15,91.95913791974192L234.61666666666667,100.23166147520676L234.85,123.03716807010028L234.96666666666664,114.16330296484387L235.31666666666666,147.10622979118705L235.66666666666666,61.287051245080804L236.13333333333335,66.25085389042579L236.36666666666665,101.03910296680385L236.48333333333335,121.07836407665769L236.83333333333334,125.00463524677747L237.3,97.83876787832966L237.41666666666666,106.12284885433162L237.53333333333336,133.91708253311492L237.65,133.30489185266325L238,125.97714834165335L238.11666666666667,133.50959442171643L238.23333333333332,122.81071707650241L238.46666666666667,110.84292467753846L238.58333333333331,103.30960334716872L238.70000000000002,74.2105116383721L238.93333333333334,53.083964423610624L239.05,97.24450748371844L239.4,95.9927324269853L239.51666666666668,103.52970672186017L239.75,120.17447060356406L239.98333333333332,71.4735265257463L240.10000000000002,61.49959676179388L240.21666666666667,119.72193435618291L241.03333333333333,103.33540698648696L241.14999999999998,114.50827414769142L241.26666666666668,83.79605056875594L241.38333333333333,76.94131444449842L242.08333333333334,80.21200827475381L242.2,108.14410677831691L242.31666666666666,96.87512372925241L242.43333333333334,83.59780185814098L242.54999999999998,69.60893878959321L242.78333333333333,97.59764918978254L243.13333333333333,126.12823831856124L243.48333333333335,126.6272530021324L243.95,136.10001222414792L244.06666666666666,71.39751060085767L244.18333333333334,147.80446907252008L244.3,153.77596336102428L244.65,71.22082083528771L244.76666666666665,94.94937877614674L245.23333333333335,89.8968690309724L245.58333333333334,74.31260939105054L245.7,80.9508280526366L246.05,145.7157012978438L246.16666666666666,88.00216819194925L246.28333333333336,93.71669616017307L246.4,118.49409339818409L246.51666666666665,114.3308257456545L246.86666666666667,123.99861214561864L246.98333333333332,71.27883249799784L247.1,88.65250947354501L247.21666666666667,143.11793263775155L247.68333333333334,63.32926580812891L247.8,73.54855922463204L247.91666666666666,120.90347384966495L248.26666666666668,140.64004967705569L248.5,55.22172704842063L248.61666666666667,103.76602821042823L248.73333333333332,79.09731492683272L248.96666666666667,133.0286857488431L249.08333333333331,156.0111197715887L249.20000000000002,154.25111163390437L249.43333333333334,153.41774560132757L249.54999999999998,78.99089331174746L250.13333333333333,106.42836695679468L250.36666666666667,78.70761890807738L250.48333333333332,88.93733852836169L250.71666666666667,81.36410786369555L251.06666666666666,104.55721479307793L251.29999999999998,15.35809973115039L251.41666666666669,56.69617395970522L251.53333333333333,72.37956391497774L251.76666666666668,95.70821821155361L252,123.99501832284446L252.11666666666667,136.28645964808703L252.23333333333335,126.54609941440344L252.7,160.47501050491854L252.81666666666666,158.90907633569284L253.05,104.73428665269181L253.28333333333333,84.63851705583163L253.86666666666665,111.0404827848907L254.33333333333334,55.98853403651998L254.45,59.88059333208227L254.56666666666666,97.38585796704146L254.68333333333334,116.87703681016984L256.0833333333333,50.92218678508894L256.31666666666666,97.32977584757401L256.55,43.50353843964996L256.78333333333336,59.877711962578246L256.9,86.92263615240549L257.01666666666665,111.90540531122546L257.1333333333333,92.4322256554278L257.25,5.596303388415095L257.3666666666667,74.41199669541251L257.48333333333335,146.11191252212276L257.6,149.7358538240669L257.71666666666664,128.12633201906004L257.8333333333333,153.78178013366778L257.95,162.02377311607444L258.18333333333334,140.00725337719695L258.3,82.97919036877575L258.4166666666667,95.95921781683663L258.65,64.11010797157535L258.8833333333333,17.34266318472362L259.23333333333335,53.79553284164217L259.58333333333337,112.62928484057306L259.81666666666666,75.20997094530755L259.93333333333334,148.34807688968615L260.1666666666667,126.11524065130489L260.51666666666665,126.92282289260325L260.75,92.06936132803881L260.8666666666667,61.32493998786509L261.1,111.63752734068534L261.3333333333333,111.91068368068913L261.45,67.53003876767998L261.56666666666666,145.5627948848719L261.8,95.83908336886721L261.9166666666667,95.54025056112923L262.15000000000003,106.50906126984053L262.26666666666665,108.95376452997434L262.5,49.18924340853175L262.6166666666667,113.9657613338519L263.55,117.24115820143236L263.6666666666667,107.53943801610329L263.9,61.186105996870765L264.01666666666665,31.7802841082555L264.48333333333335,114.92416202585463L265.06666666666666,123.17757600435151L265.18333333333334,128.2585001619256L265.3,75.00819719610728L265.41666666666663,112.37108690329418" style="fill: none;" fill="none"></path></g></g></g></g><g opacity="0.2"><g><g><g><path stroke="rgb(255, 112, 67)" stroke-width="2px" d="M23.916666666666668,155.33316898345947L24.03333333333333,149.078298886617L24.5,154.70522054036456L24.616666666666667,173.99571466445923L24.849999999999998,157.97390508651733L24.96666666666667,162.109042485555L25.083333333333332,159.54957612355548L25.433333333333334,151.82902145385742L25.55,147.602358341217L25.666666666666664,163.23585557937622L26.133333333333333,163.72750568389893L27.18333333333333,110.49278386433915L27.3,92.62603092193599L27.53333333333333,96.2586256663004L28,14.978133519490456L28.233333333333334,54.684732437133704L28.46666666666667,2.599669774373268L28.583333333333332,124.4024996757507L28.816666666666666,97.59911664326981L29.049999999999997,69.28202279408765L29.166666666666668,62.63063557942701L29.51666666666667,53.31453450520826L29.633333333333333,54.18042151133213L29.75,71.90868345896396L29.866666666666667,-87.18295288085955L29.983333333333334,85.50711282094315L30.333333333333336,31.599174817403053L30.45,71.27097415924067L30.683333333333334,61.716934521992926L30.916666666666664,40.48084704081208L31.033333333333335,35.214652697245185L31.150000000000002,76.63774776458735L31.266666666666666,65.05401579538974L31.616666666666667,11.746299743652258L31.73333333333333,46.28275680541984L31.85,-82.17888704935729L31.966666666666665,50.186957995096776L32.550000000000004,19.051381429036354L33.13333333333333,-52.3934208552044L33.25,35.30929056803376L33.36666666666667,7.914809862772529L33.483333333333334,25.131970723469948L33.6,-118.49068832397478L33.71666666666667,-332.4335292180382L34.3,69.97164853413892L35.233333333333334,-146.93170261383074L35.58333333333333,125.85573561986284L35.7,73.41312853495273L36.516666666666666,84.31303469340001L36.86666666666666,74.1678266525268L37.1,-49.16993331909191L37.21666666666666,8.361687342325752L37.333333333333336,9.85976664225251L37.800000000000004,10.841369311014716L37.916666666666664,58.48778851826978L38.03333333333333,-37.55097738901787L38.38333333333333,5.34374364217112L38.5,20.637591361999426L39.31666666666666,-116.34301694234233L39.55,-278.3531494140627L39.78333333333333,39.0247818628946L39.9,40.93578783671052L40.016666666666666,-33.23894214630138L40.13333333333333,43.88936646779371L40.599999999999994,-18.074390411377067L40.833333333333336,-92.52737553914403L41.18333333333334,52.357546170552496L41.3,-180.05142084757506L41.416666666666664,-503.79640134175656L41.65,43.7109832763671L41.766666666666666,109.48649613062537L41.88333333333334,142.34847116470334L42.233333333333334,163.00463644663492L42.46666666666667,169.83992385864258L42.58333333333333,141.62206538518268L42.81666666666667,137.23823833465573L42.93333333333333,105.9248444239298L43.28333333333333,130.38130728403723L43.86666666666667,169.19372685750324L43.983333333333334,137.57534154256183L44.1,120.63586997985837L44.33333333333333,136.1396468480428L44.68333333333333,133.50357898076373L44.91666666666667,86.75720977783197L45.03333333333333,75.30447133382157L45.266666666666666,77.47986920674637L45.5,91.9745998382568L45.61666666666666,55.51850763956699L46.43333333333333,40.60632356007886L47.36666666666667,102.96108055114742L47.483333333333334,109.06755733489986L47.6,109.31766160329178L48.06666666666666,27.042127927144264L48.416666666666664,71.83526484171543L48.766666666666666,12.159367879231667L48.88333333333333,72.11210536956781L49.233333333333334,66.30467859903965L49.349999999999994,39.861386299133216L49.583333333333336,-26.239559173584098L49.699999999999996,52.30195172627759L49.81666666666667,116.19142659505205L50.05,138.61027526855466L50.4,100.66147931416825L50.516666666666666,103.61180432637528L50.63333333333334,22.483242034912024L50.983333333333334,51.94023418426505L51.33333333333333,56.36232662200919L51.91666666666667,129.98563893636066L52.15,31.226281801859443L52.38333333333333,138.23356278737384L52.5,104.63916985193883L53.08333333333333,64.86021327972406L53.43333333333333,42.35988267262769L53.550000000000004,72.38738981882724L53.66666666666667,146.91676425933835L53.78333333333333,155.68441836039224L54.016666666666666,124.3875047365824L54.483333333333334,142.09341573715207L54.71666666666666,113.07382313410437L54.95,113.32993952433264L55.18333333333333,159.20349009831745L55.766666666666666,133.03519932428992L56,49.94788773854566L56.46666666666667,104.05648914972936L57.05,142.95272477467853L57.28333333333333,68.81420898437494L57.4,121.90039602915442L57.983333333333334,34.819691658019934L58.099999999999994,73.90470790863031L58.21666666666667,67.41430409749341L58.449999999999996,64.5405098597208L58.56666666666667,124.73083225886023L58.68333333333334,124.85149908065793L59.15,123.54106871287024L59.266666666666666,118.94087600708004L59.5,119.4455405871073L59.85,126.35799535115557L60.31666666666667,51.20930163065586L60.43333333333333,60.769565582275305L60.55,109.26532077789302L60.66666666666667,95.48440583546952L60.9,100.0166969299316L61.25,78.64848423004145L61.36666666666667,116.30678860346472L61.483333333333334,127.07570123672483L61.83333333333333,74.62078698476151L61.95,72.96610959370926L62.18333333333333,70.80443350474033L62.88333333333333,47.71505641937247L63.11666666666666,89.9869216283162L63.46666666666666,118.26348670323686L63.583333333333336,153.45137484868366L63.81666666666666,123.84478696187334L63.93333333333333,123.25333563486731L64.51666666666667,123.16166845957434L64.63333333333334,115.8791499137878L64.86666666666666,112.72002744674678L65.10000000000001,109.23490651448563L65.21666666666667,86.35956096649164L65.33333333333333,83.02530892690018L65.68333333333334,140.08840847015378L65.8,149.40896558761597L66.14999999999999,124.8560965855916L66.26666666666667,104.97082678476964L66.5,107.30918852488195L66.61666666666666,128.05115032196042L66.85,108.9258127212524L67.31666666666666,111.95217339197791L67.43333333333334,90.06840356190995L67.55,81.32861741383866L67.78333333333333,81.40147018432612L67.89999999999999,108.72748343149817L68.36666666666667,121.99871190388994L68.48333333333333,85.03576246897374L68.6,113.31225681304927L68.83333333333333,61.50304444630933L68.95,99.15165869394933L69.06666666666666,44.4021650950113L69.18333333333334,124.76513671874997L70.23333333333333,77.35297807057694L70.35,111.64640394846595L70.93333333333334,133.28473774592078L71.75,139.01308743158972L71.86666666666666,135.42809454600012L72.33333333333334,96.06241830190018L72.44999999999999,112.37479019165035L72.56666666666666,109.69317166010535L72.8,123.64143578211463L73.03333333333333,124.39330466588335L73.5,116.69771798451738L74.55,94.66633288065587L74.66666666666667,108.53240776062007L74.78333333333333,74.42259915669754L74.9,60.7367464701334L75.25,79.64960861206049L75.60000000000001,114.0459478696187L75.95,90.52150535583492L76.76666666666667,114.6849303245544L76.88333333333334,83.6167602539062L77,96.47492059071854L77.11666666666666,60.30585416158033L77.35,125.39541927973427L77.46666666666667,112.58245595296219L77.81666666666666,148.54824193318683L77.93333333333334,92.30618604024247L78.05,105.23210652669266L78.28333333333333,118.69855213165279L78.51666666666667,124.52493476867673L78.63333333333333,115.38778273264563L79.1,124.70275211334226L79.91666666666666,75.68443743387851L80.26666666666667,140.71961053212482L80.38333333333334,25.42324034372956L80.61666666666666,135.3812707265218L80.85000000000001,87.96769746144608L81.19999999999999,129.1185495058695L82.48333333333332,103.2990325291951L82.83333333333333,123.62177260716753L82.95,152.1325275103251L83.06666666666668,113.02530177434281L83.3,103.66980361938472L83.53333333333333,92.99015331268306L83.65,149.0807744661967L83.88333333333333,106.83614063262935L84.46666666666667,119.47376219431555L84.58333333333333,114.00711663564041L85.28333333333333,78.79079469044999L85.51666666666667,88.43452103932694L85.63333333333334,116.91472021738684L85.75,113.54071744283036L85.86666666666666,102.75978056589757L85.98333333333333,125.58349259694414L86.1,149.76948070526123L86.21666666666667,96.72983455657955L86.33333333333334,144.14319562911984L86.45,114.65458679199214L86.56666666666666,125.10153261820471L86.8,113.65225998560584L87.15,161.21309487024942L87.26666666666667,102.15771961212154L87.38333333333333,109.81581894556678L87.61666666666667,84.7942873636881L88.08333333333333,117.52243963877356L88.31666666666666,140.61521180470783L88.55,147.48317686716715L89.01666666666667,80.74381478627518L89.13333333333334,116.71030807495113L89.25,118.229111512502L89.48333333333333,111.92366886138912L89.71666666666667,70.75534629821772L89.94999999999999,94.43942832946773L90.18333333333334,110.67116705576575L90.3,157.1349665323893L90.64999999999999,162.33509826660156L90.88333333333334,150.35845645268756L91,115.17431704203284L91.11666666666667,107.67253287633255L91.23333333333332,128.71467638015744L91.35,74.64950370788569L91.46666666666667,124.45731608072913L91.7,109.31016413370764L91.81666666666668,125.32051531473793L92.4,111.2656598091125L92.51666666666668,106.88586441675817L92.75,101.11005433400467L92.86666666666666,110.07674503326412L92.98333333333333,42.30329799652091L93.33333333333333,91.73057842254634L93.56666666666666,117.5466295878092L93.80000000000001,123.81154346466062L94.03333333333333,88.47483762105301L94.26666666666667,104.13761742909745L94.5,110.56889025370276L94.61666666666666,121.17285855611162L94.73333333333333,96.7022495269775L95.08333333333334,132.37669515609738L95.55,134.57762686411536L95.66666666666667,129.4006948471069L95.9,78.20287990570063L96.25,118.29071807861324L96.71666666666667,107.68604246775304L97.3,59.574921607971106L98.11666666666666,135.07535982131955L98.23333333333333,140.43987003962195L98.46666666666667,123.8244164784749L98.58333333333334,108.95735867818192L98.69999999999999,80.01175053914383L98.81666666666666,134.20473384857175L98.93333333333334,142.8266824086507L99.05,81.95486831665033L99.28333333333333,146.44852606455484L99.39999999999999,112.8610647519429L99.86666666666667,139.06231609980262L99.98333333333332,97.8330942789713L100.45,121.92239332199094L100.8,108.83166996637976L101.03333333333333,85.58010705312088L101.15,80.77210712432856L101.26666666666668,114.03781382242835L101.61666666666666,74.17178757985428L101.73333333333333,110.51124461491898L101.85000000000001,87.63356494903559L101.96666666666667,113.47026952107743L102.08333333333333,116.73697360356645L102.31666666666666,92.64979648590084L102.43333333333334,104.84761365254715L102.55000000000001,126.87355248133339L102.78333333333333,129.9026716550191L102.89999999999999,111.57892672220862L103.01666666666667,136.33132743835446L103.13333333333334,96.93042723337804L103.25,124.43461147944129L103.36666666666666,128.2487723032633L103.6,99.3096714019775L103.71666666666667,77.8513476053873L104.06666666666666,126.70981057484941L104.53333333333333,58.262015660603765L104.88333333333333,113.15198071797684L105,93.49432277679439L105.11666666666667,128.85974534352619L105.35,108.91081778208411L105.58333333333333,141.44679435094196L105.7,108.09932279586788L105.93333333333334,91.78518263498937L106.16666666666666,124.08201821645098L106.63333333333334,56.440413475036536L107.10000000000001,117.70697641372676L107.21666666666667,132.95873928070066L107.44999999999999,150.9723294576009L107.56666666666666,86.21357250213617L107.68333333333334,142.72405195236203L107.8,99.19169235229488L107.91666666666667,107.63242848714188L108.38333333333334,101.32889556884761L108.5,107.08942778905228L109.2,80.27444489796952L109.43333333333332,103.47076702117916L109.55,114.66406472524004L109.66666666666667,119.03650410970049L109.78333333333333,114.499756971995L110.01666666666668,100.43117968241368L110.36666666666666,122.34218088785804L110.48333333333333,63.23665746053052L110.83333333333333,76.0044237772623L110.95,158.0332482655843L111.06666666666666,133.2075703938802L111.30000000000001,120.61210441589353L111.53333333333333,101.54179541269933L111.88333333333334,99.83972835540767L112.23333333333333,164.36189063390094L112.58333333333334,132.454923470815L112.7,129.19578758875525L112.81666666666666,119.03848457336422L113.05,120.77676582336423L113.16666666666667,81.83292833964023L113.28333333333333,105.19949960708614L113.51666666666667,96.96027565002437L113.63333333333333,88.72395165761307L113.75,101.93293698628739L114.33333333333333,71.92226378122959L114.8,156.47724040349323L114.91666666666666,116.63908211390174L115.15,109.96272691090897L115.38333333333334,142.23770666122434L115.61666666666666,81.71438344319657L115.73333333333333,105.86543051401769L115.85000000000001,87.73258813222245L115.96666666666667,117.25967454910274L116.08333333333334,110.81517505645748L116.19999999999999,88.574992497762L116.43333333333334,134.4121874173482L116.66666666666667,85.86204020182286L116.89999999999999,147.02066787083942L117.25,124.63555781046546L117.48333333333332,182.31132793426514L117.6,107.70471541086827L117.71666666666667,105.10358858108516L118.18333333333332,127.80048020680742L118.41666666666667,105.09538380304967L118.53333333333333,109.35960499445594L118.76666666666668,156.35869550704956L119.11666666666666,112.17101462682083L119.58333333333333,118.88683764139807L119.93333333333334,93.8475526173909L120.28333333333333,153.07579406102496L120.39999999999999,130.51173496246335L120.63333333333334,97.93947347005204L120.86666666666666,69.05808893839512L121.1,72.90330060323075L121.68333333333334,87.05993779500321L121.91666666666667,89.06105486551915L122.03333333333333,129.31256421407062L122.15,152.1230495770772L122.26666666666667,112.73820527394608L122.61666666666667,143.71774959564206L123.31666666666666,75.47295220692948L123.55,79.47702534993485L123.66666666666666,109.85663064320877L123.78333333333333,108.98770221074417L123.9,135.20118999481198L124.01666666666667,162.47839895884195L124.48333333333333,107.80487028757726L124.71666666666667,132.07693783442176L124.83333333333334,107.4775279362996L125.18333333333334,122.04270648956296L125.3,75.66930103301996L125.41666666666667,115.42328961690264L125.53333333333333,116.61864089965816L125.64999999999999,102.71111774444576L125.88333333333334,109.64712587992346L126,121.9941851298014L126.11666666666667,119.1191884676615L126.23333333333332,116.96444400151567L126.46666666666667,113.04234790801998L126.81666666666668,92.46108659108475L127.05,122.08861080805457L127.16666666666667,138.01224597295123L127.4,126.3210738499959L127.51666666666668,137.74063952763873L127.86666666666666,79.62230650583896L128.21666666666667,96.37660471598302L128.33333333333331,94.97330474853511L129.15,103.83962837855016L129.26666666666668,113.0335065523783L129.38333333333333,118.76277573903398L129.5,132.1055838267008L129.61666666666667,61.027308781941656L129.73333333333332,87.23803806304926L129.85,141.05961370468137L130.08333333333334,73.4783423741658L130.20000000000002,108.45665502548214L130.31666666666666,120.29671557744341L130.66666666666666,138.7397127151489L130.78333333333333,102.09731547037755L130.9,134.33982976277667L131.01666666666665,159.12554470698038L131.25,88.84504286448156L131.95,103.7511440912882L132.06666666666666,130.30590820312497L132.41666666666666,121.0178872744242L133.23333333333332,116.8332382837931L133.58333333333334,109.46570126215613L134.05,97.06990845998124L134.4,114.5230274200439L134.51666666666665,73.54525375366205L134.63333333333333,123.92980543772376L134.86666666666667,118.339876015981L134.98333333333332,94.50874455769852L135.1,94.97967052459713L135.45000000000002,37.95575586954743L135.56666666666666,89.95594151814774L135.79999999999998,87.48121070861811L136.03333333333333,60.57774353027335L136.15,102.67306454976395L136.38333333333333,110.89276679356888L136.61666666666667,143.71767886479694L136.73333333333335,141.4678014119466L136.96666666666667,115.25608189900713L137.2,74.6601133346557L137.31666666666666,96.17346572875972L137.43333333333334,103.77646573384598L137.55,131.71217886606848L137.9,87.81477737426752L138.01666666666668,144.9481833775838L138.13333333333333,109.14797830581661L138.48333333333332,116.97187074025469L138.6,129.6310652097066L139.53333333333333,87.0770546595255L139.88333333333333,93.22200902303055L140,58.3483072916666L140.23333333333335,78.67748387654618L140.46666666666667,74.22412840525303L140.58333333333334,133.01942634582517L140.93333333333334,134.20918989181516L141.05,106.78295103708898L141.28333333333336,115.35821723937984L141.4,66.83204778035474L141.51666666666665,140.50041564305621L141.63333333333333,152.2841037114461L141.98333333333332,91.08296680450435L142.91666666666666,98.05193551381424L143.15,131.6758232116699L143.38333333333333,85.06688404083246L143.61666666666667,143.15932957331336L143.73333333333332,120.89722045262651L143.85000000000002,106.6455917358398L144.08333333333331,154.49359385172525L144.31666666666666,160.6007072130839L144.43333333333334,93.68147659301754L144.54999999999998,142.1619539260864L144.89999999999998,106.45412333806351L145.01666666666668,136.40021928151447L145.13333333333333,82.77605342864985L145.71666666666667,113.5093129475911L145.95,110.24253813425696L146.06666666666666,108.04563808441158L146.41666666666669,106.99040460586544L146.65,176.03693612416586L147.35,103.22702852884923L147.46666666666664,106.25819889704381L147.7,147.4095460573832L147.93333333333334,125.83416271209714L148.4,70.8426281611124L148.63333333333335,74.2884934743245L148.86666666666665,121.71119101842241L149.1,114.46226962407427L149.33333333333334,86.1724071502685L149.56666666666666,130.37197081247962L149.68333333333334,127.00772889455156L149.8,108.71333726247147L149.91666666666666,98.86053053538L150.03333333333336,118.1720317204793L150.73333333333332,72.28072770436597L150.85,134.7165422439575L151.55,120.76898543039954L151.78333333333333,153.5286129315694L152.01666666666668,95.8331089019775L152.13333333333333,137.12789821624753L152.25,142.21768983205158L153.29999999999998,134.22078975041705L153.53333333333333,94.80468241373693L153.88333333333333,129.82352383931476L154.23333333333332,134.62940184275305L154.35,67.02160644531244L154.58333333333334,79.01147492726639L154.7,76.28777154286698L154.81666666666666,156.29001585642496L154.93333333333334,149.9530979792277L155.16666666666669,113.60854832331336L155.28333333333333,107.24906730651851L155.51666666666668,97.53574180603023L155.63333333333333,125.98489014307656L155.75,127.48162555694577L156.1,112.87789869308467L156.21666666666664,109.23582601547237L156.45,93.10233243306473L157.38333333333335,126.24723084767656L157.5,126.7941217422485L157.61666666666665,129.1620489756266L157.73333333333335,139.72860066095984L158.08333333333334,119.81638240814206L158.2,145.00830459594724L158.31666666666666,108.51352262496944L158.66666666666666,128.14783938725787L158.78333333333336,148.1366591453552L158.9,113.88843027750647L159.25,111.30633004506424L160.65,149.858389377594L161,139.32317145665485L161.23333333333332,91.30746650695797L161.35000000000002,158.33173243204752L161.58333333333331,140.95471986134845L161.70000000000002,93.21422863006588L162.04999999999998,111.43944549560543L162.39999999999998,130.4287676811218L162.51666666666668,118.75994650522864L162.63333333333333,139.14167610804236L162.75,146.02626291910806L162.86666666666667,104.33891741434728L162.98333333333332,70.00277010599766L163.1,129.53635660807288L163.21666666666667,127.09281810124712L163.45,131.21197032928464L163.68333333333334,138.47164281209308L163.79999999999998,116.41090440750118L164.03333333333333,100.60164101918534L164.26666666666668,131.837513923645L164.5,87.60612138112381L164.61666666666667,84.08712037404374L164.73333333333335,156.7056303024292L164.85,133.3052496910095L164.96666666666664,108.66241105397538L165.08333333333334,91.71996879577632L166.13333333333335,66.03462823232007L166.25,46.023740450541084L166.48333333333335,74.14292939503983L166.6,105.73387114206945L167.06666666666666,116.94895394643144L167.18333333333334,100.61041164398189L167.3,146.0234336853027L167.53333333333336,116.58440717061357L167.88333333333333,100.84495512644445L168.23333333333332,102.70263004302974L168.46666666666667,99.65370623270665L168.70000000000002,73.44071356455478L168.81666666666666,139.28554264704383L169.05,158.20710468292236L169.16666666666666,103.24895509084061L169.51666666666668,93.75093428293859L169.63333333333333,124.05436245600379L169.75,67.08639589945469L169.98333333333332,104.98355833689367L170.10000000000002,123.8781011899312L170.21666666666667,71.88265450795484L170.45000000000002,73.79168001810703L170.56666666666666,92.31000550587967L170.68333333333334,113.28262058893836L170.79999999999998,112.82859929402665L170.91666666666669,136.22876771291095L171.03333333333333,93.99028746287023L171.61666666666667,67.85255241394037L171.73333333333332,104.8534135818481L171.96666666666667,148.25343577067056L172.43333333333334,114.7003496487935L172.54999999999998,103.463269551595L172.78333333333333,139.94885651270545L173.25,104.49869839350377L173.48333333333335,142.69689130783078L173.71666666666664,96.09424718221024L173.95,101.47290356953934L174.06666666666666,121.96384159723914L174.18333333333334,99.88697655995682L174.3,82.058559735616L174.53333333333333,77.98177528381342L174.88333333333335,132.3834853172302L175,88.77685832977289L175.23333333333335,115.79172658920284L175.35,118.48643032709754L175.46666666666667,97.63052113850907L175.7,135.62515068054196L176.16666666666666,98.00298976898189L176.4,112.90406910578406L176.51666666666665,116.97837797800696L176.75,131.33002010981238L176.86666666666667,76.79406293233231L177.21666666666667,136.0319237709045L177.33333333333331,94.35115623474117L177.91666666666666,115.46487935384111L178.03333333333333,67.5700534184773L178.15,133.06780624389646L178.26666666666668,134.3821975390116L178.5,62.062666893005314L178.73333333333332,136.118569056193L178.85000000000002,150.32103983561197L178.96666666666667,120.8912790616353L179.08333333333331,36.162587483723854L179.20000000000002,35.407464981079016L179.31666666666666,148.39362430572507L179.66666666666669,57.458230336507086L180.01666666666668,78.23527463277176L180.25,149.41533136367798L180.6,125.399521668752L180.71666666666667,76.94429524739579L180.83333333333334,102.4286187489827L180.95,110.99440701802567L181.41666666666669,43.48789819081617L181.88333333333333,121.88801813125608L182.11666666666667,135.20790942509967L182.23333333333335,104.79300944010411L182.7,48.29009819030753L182.81666666666666,52.62193806966138L183.16666666666666,138.60192902882892L183.51666666666665,86.12600771586095L183.75,134.7698733011881L183.98333333333335,134.88636700312293L184.1,81.80831400553379L184.21666666666667,105.12303956349686L184.56666666666666,99.16622924804683L184.8,116.456384340922L184.91666666666666,133.28622309366858L185.15,127.16390260060625L185.26666666666665,108.63185532887772L185.38333333333333,99.05065504709874L185.61666666666667,120.03175783157346L185.73333333333332,17.24477418263743L186.08333333333331,114.43107732137041L186.66666666666666,33.717988014221106L188.06666666666666,116.78634373346961L188.18333333333334,61.33003679911289L188.29999999999998,91.02963574727372L188.41666666666669,65.12969779968256L188.88333333333333,82.9144029617309L189.23333333333332,113.98349253336585L189.35,44.48039340972892L189.58333333333334,95.4425331751505L189.7,61.33230018615717L189.81666666666666,139.37303670247394L189.93333333333334,136.04649432500202L190.4,113.87909380594886L190.51666666666668,105.19801425933834L190.63333333333333,111.94326130549109L190.86666666666667,151.7892707188924L190.98333333333335,138.07427692413327L191.1,117.92723226547237L191.33333333333334,60.89009094238273L191.56666666666666,107.4255407651265L192.26666666666665,124.65359417597449L192.5,102.40216541290279L193.08333333333334,109.56161228815711L193.2,88.13688564300531L194.25,98.5918947855631L194.36666666666667,119.6776084899902L194.83333333333331,168.5331007639567L195.3,156.48862806955972L195.65,82.34374650319413L196,66.42902342478428L196.11666666666667,66.95837306976313L196.23333333333332,133.17765124638873L196.58333333333331,160.7810001373291L196.70000000000002,96.55682690938309L197.04999999999998,107.29801305135086L197.28333333333333,118.42383352915442L197.39999999999998,156.6828549702962L197.51666666666668,36.441974322001045L198.33333333333334,89.71672979990636L198.45,100.02391147613521L198.56666666666666,136.40828259785968L198.68333333333334,107.60052887598668L198.91666666666669,139.01032892862952L199.03333333333333,101.20568243662511L199.15,136.76964648564655L199.26666666666668,95.48369852701818L199.38333333333333,122.87499634424842L199.5,104.45420869191483L199.61666666666667,124.73507610956824L199.73333333333335,62.62922096252436L199.85,112.75560506184891L200.2,149.7457858721415L200.43333333333334,153.4262653986613L201.01666666666665,146.54988336563108L201.13333333333335,142.32965675989783L201.25,170.13034470876056L201.48333333333335,140.16932455698645L202.3,106.06043545405065L202.53333333333336,139.18199268976844L203.11666666666667,42.13821220397941L203.23333333333332,19.977106730143134L203.70000000000002,73.036981900533L203.93333333333334,48.516436894734625L204.05,111.92154693603511L204.28333333333333,96.1632804870605L204.4,121.87429634730017L204.63333333333333,80.92134920756016L204.75,126.45786730448403L205.45000000000002,106.29561551411942L205.56666666666666,93.06470362345372L205.68333333333334,65.50442981719965L206.26666666666668,127.88302310307817L206.38333333333333,153.34987608591715L207.43333333333334,155.2892451286316L207.54999999999998,148.42757511138913L207.9,155.27127949396768L208.01666666666668,126.32616647084551L208.13333333333333,101.62921873728429L208.36666666666667,33.41497707366935L208.6,115.91345437367754L208.83333333333334,97.65725739796952L209.18333333333334,168.2551992734273L209.3,109.65639162063594L209.53333333333333,152.39790964126587L209.65,131.61089229583737L209.88333333333335,114.3621854782104L210.11666666666665,86.91352494557694L210.23333333333335,119.3677366574605L210.46666666666667,111.64456494649247L210.58333333333334,120.5442028045654L211.05,154.8940011660258L211.16666666666666,152.77186361948648L211.4,131.9574027061462L211.51666666666665,121.28234990437822L211.63333333333333,106.6327187220255L211.75,156.16213448842365L212.1,116.4773206710815L212.21666666666667,105.885730266571L212.33333333333331,154.5731660525004L212.8,112.2089970906575L213.03333333333333,138.6663648287455L213.15,103.04128932952877L213.26666666666668,111.38795344034827L213.5,99.02278709411617L213.73333333333332,93.12553215026851L213.96666666666667,83.51985899607335L214.20000000000002,144.64771874745685L214.31666666666666,41.83364518483472L214.43333333333334,47.48192755381257L214.66666666666669,106.81704330444332L214.78333333333333,21.13737551371247L214.89999999999998,63.51774183909092L215.01666666666668,57.88063494364414L215.13333333333333,72.99341169993076L215.25,48.82001368204743L215.48333333333332,128.50764719645179L215.6,70.38542397816968L215.95,30.39080905914298L216.06666666666666,118.379626750946L216.29999999999998,129.8472894032796L216.41666666666669,100.5816949208577L216.76666666666668,86.28812281290685L216.88333333333333,68.32036622365308L217,49.00447972615552L217.11666666666667,110.23475774129227L217.46666666666664,121.49044005076087L217.93333333333334,123.7517051696777L218.16666666666666,130.46774037679035L218.28333333333333,70.67485459645582L218.4,127.68801816304521L218.75,121.4357651074727L218.86666666666665,85.47443517049149L219.1,119.07491095860796L219.56666666666666,103.02332369486486L219.68333333333334,107.37553405761714L219.8,124.20438257853186L219.91666666666666,69.02979660034174L220.15,139.7164349555969L220.61666666666667,127.36251481374102L220.73333333333332,89.84814771016434L220.96666666666667,85.20268726348871L221.08333333333331,34.544831593831276L221.20000000000002,123.60225089391069L221.31666666666666,132.19689734776813L221.55,122.93921995162961L221.9,29.01085027058909L222.01666666666668,84.54418309529618L222.13333333333333,48.14750480651847L222.25,92.91772492726639L222.36666666666667,105.52040545145665L222.71666666666667,101.42296759287511L222.83333333333331,139.31263256072995L223.41666666666669,116.2917229334513L223.64999999999998,106.36860974629715L223.76666666666668,71.49547386169428L223.88333333333333,111.47205241521195L224.35,136.28117926915485L224.7,68.64898173014316L224.93333333333334,106.26166470845536L225.28333333333333,132.1601173082987L225.4,106.90595197677608L225.51666666666668,77.32779788970942L225.63333333333333,71.00064086914057L225.75,120.05941359202063L225.98333333333335,139.28052075703937L226.1,136.75514666239417L226.21666666666664,84.12503210703527L226.56666666666666,128.4945619901021L226.68333333333334,43.05559126536042L226.91666666666666,62.66218153635654L227.03333333333333,138.2647550900777L227.15,94.12453460693355L227.5,59.83634281158439L227.73333333333335,10.503841718037819L227.85,85.69327640533442L227.96666666666667,86.67954730987543L228.08333333333334,3.5575068791706315L228.9,59.37093385060621L229.01666666666665,102.11301771799718L229.36666666666667,130.65758196512854L229.95000000000002,69.4406013488769L230.41666666666666,107.81357018152868L230.65,103.35604159037267L231.11666666666667,108.39349238077794L231.23333333333332,134.2913084030151L231.46666666666667,144.89400355021155L231.93333333333334,122.39742167790727L232.04999999999998,92.33306376139318L232.16666666666669,115.39987770716345L232.39999999999998,62.87989107767734L232.51666666666668,140.34615166982013L232.63333333333333,101.79232406616207L233.1,14.1331828435261L233.33333333333334,80.45353539784745L233.56666666666666,106.60216299692785L233.79999999999998,165.41288026173908L233.91666666666669,139.7925413449605L234.15,85.92060534159337L234.61666666666667,101.23326746622716L234.85,125.79837290445961L234.96666666666664,113.0888888041178L235.31666666666666,151.09483528137207L235.66666666666666,50.896388371785406L236.13333333333335,66.85185241699213L236.36666666666665,105.25113312403356L236.48333333333335,123.50464232762651L236.83333333333334,125.48001337051389L237.3,94.54962698618566L237.41666666666666,107.12585417429601L237.53333333333336,137.2823036511739L237.65,133.23077011108396L238,125.08993275960283L238.11666666666667,134.42159461975095L238.23333333333332,121.51533730824785L238.46666666666667,109.39390945434566L238.58333333333331,102.39749717712398L238.70000000000002,70.68730322519932L238.93333333333334,50.5260416666666L239.05,102.59129969278966L239.4,95.84117221832271L239.51666666666668,104.44225517908727L239.75,122.18975591659543L239.98333333333332,65.57699966430658L240.10000000000002,60.29199091593418L240.21666666666667,126.7712756792704L241.03333333333333,101.35138797760006L241.14999999999998,115.86104281743364L241.26666666666668,80.07753022511795L241.38333333333333,76.1113688151041L242.08333333333334,80.60801156361893L242.2,111.52602005004879L242.31666666666666,95.51071770985916L242.43333333333334,81.99023373921708L242.54999999999998,67.91521994272861L242.78333333333333,100.98641681671138L243.13333333333333,129.58261458079016L243.48333333333335,126.68767182032265L243.95,137.24693822860715L244.06666666666666,63.5635754267374L244.18333333333334,157.05553579330444L244.3,154.49896939595538L244.65,61.22535514831537L244.76666666666665,97.82234319051102L245.23333333333335,89.28513018290197L245.58333333333334,72.42572593688959L245.7,81.75455856323237L246.05,153.55718819300333L246.16666666666666,81.0144309997558L246.28333333333336,94.40858968098954L246.4,121.49404732386267L246.51666666666665,113.82675298055008L246.86666666666667,125.16915130615232L246.98333333333332,64.89572016398105L247.1,90.75604883829747L247.21666666666667,149.71240091323853L247.68333333333334,53.66875457763663L247.8,74.78587277730301L247.91666666666666,126.63702853520708L248.26666666666668,143.02967993418372L248.5,44.87959829966218L248.61666666666667,109.64358933766678L248.73333333333332,76.1105200449625L248.96666666666667,139.55849297841388L249.08333333333331,158.7937463124593L249.20000000000002,154.0380164782206L249.43333333333334,153.3168447812398L249.54999999999998,69.97957038879389L250.13333333333333,109.75039291381832L250.36666666666667,75.3512951532999L250.48333333333332,90.1759144465128L250.71666666666667,80.44716962178543L251.06666666666666,107.36534881591793L251.29999999999998,4.558206876118874L251.41666666666669,61.7012322743733L251.53333333333333,74.27844969431553L251.76666666666668,98.53276379903153L252,127.41987752914426L252.11666666666667,137.77466106414792L252.23333333333335,125.36677328745522L252.7,164.58299525578815L252.81666666666666,158.71947892506915L253.05,98.17500718434647L253.28333333333333,82.20539697011307L253.86666666666665,114.23713334401445L254.33333333333334,49.32305145263663L254.45,60.35182921091709L254.56666666666666,101.92685413360591L254.68333333333334,119.23695532480872L256.0833333333333,42.93662198384595L256.31666666666666,102.94863192240392L256.55,36.98646036783845L256.78333333333336,61.86023521423334L256.9,90.19713370005285L257.01666666666665,114.93022489547725L257.1333333333333,90.07448641459142L257.25,-4.91746298472097L257.3666666666667,82.74394162495926L257.48333333333335,154.79306825002033L257.6,150.1746269861857L257.71666666666664,125.50993251800534L257.8333333333333,156.88804515202838L257.95,163.02168258031207L258.18333333333334,137.34157609939572L258.3,76.07444731394443L258.4166666666667,97.53079064687088L258.65,60.253937721252356L258.8833333333333,11.680237134297585L259.23333333333335,58.209108988443944L259.58333333333337,119.7526539166768L259.81666666666666,70.67938137054438L259.93333333333334,157.20336325963336L260.1666666666667,123.42337258656816L260.51666666666665,127.02060190836586L260.75,87.84943548838292L260.8666666666667,57.60252126057935L261.1,117.72918589909868L261.3333333333333,111.94375642140702L261.45,62.156597455342535L261.56666666666666,155.010707060496L261.8,89.81872367858882L261.9166666666667,95.50406901041661L262.15000000000003,107.83712355295812L262.26666666666665,109.24975999196366L262.5,41.953180313110266L262.6166666666667,121.80865812301633L263.55,117.63773091634111L263.6666666666667,106.36479028065995L263.9,55.57381916046134L264.01666666666665,28.21993796030671L264.48333333333335,124.99090957641599L265.06666666666666,124.17686827977495L265.18333333333334,128.87367932001746L265.3,68.56085109710688L265.41666666666663,116.89484484990435" style="fill: none;" fill="none"></path></g></g></g></g></g></g><g transform="translate(50, 178)" clip-path="url(#clip_1)"><clipPath id="clip_1"><rect width="280" height="22"></rect></clipPath><g><g><line x1="0" y1="0" x2="0" y2="5" style="visibility: inherit;" fill="rgb(0, 0, 0)" stroke="rgb(204, 204, 204)" stroke-width="1px"></line><line x1="23.333333333333332" y1="0" x2="23.333333333333332" y2="5" style="visibility: inherit;" fill="rgb(0, 0, 0)" stroke="rgb(204, 204, 204)" stroke-width="1px"></line><line x1="46.666666666666664" y1="0" x2="46.666666666666664" y2="5" style="visibility: inherit;" fill="rgb(0, 0, 0)" stroke="rgb(204, 204, 204)" stroke-width="1px"></line><line x1="70" y1="0" x2="70" y2="5" style="visibility: inherit;" fill="rgb(0, 0, 0)" stroke="rgb(204, 204, 204)" stroke-width="1px"></line><line x1="93.33333333333333" y1="0" x2="93.33333333333333" y2="5" style="visibility: inherit;" fill="rgb(0, 0, 0)" stroke="rgb(204, 204, 204)" stroke-width="1px"></line><line x1="116.66666666666667" y1="0" x2="116.66666666666667" y2="5" style="visibility: inherit;" fill="rgb(0, 0, 0)" stroke="rgb(204, 204, 204)" stroke-width="1px"></line><line x1="140" y1="0" x2="140" y2="5" style="visibility: inherit;" fill="rgb(0, 0, 0)" stroke="rgb(204, 204, 204)" stroke-width="1px"></line><line x1="163.33333333333334" y1="0" x2="163.33333333333334" y2="5" style="visibility: inherit;" fill="rgb(0, 0, 0)" stroke="rgb(204, 204, 204)" stroke-width="1px"></line><line x1="186.66666666666666" y1="0" x2="186.66666666666666" y2="5" style="visibility: inherit;" fill="rgb(0, 0, 0)" stroke="rgb(204, 204, 204)" stroke-width="1px"></line><line x1="210" y1="0" x2="210" y2="5" style="visibility: inherit;" fill="rgb(0, 0, 0)" stroke="rgb(204, 204, 204)" stroke-width="1px"></line><line x1="233.33333333333334" y1="0" x2="233.33333333333334" y2="5" style="visibility: inherit;" fill="rgb(0, 0, 0)" stroke="rgb(204, 204, 204)" stroke-width="1px"></line><line x1="256.66666666666663" y1="0" x2="256.66666666666663" y2="5" style="visibility: inherit;" fill="rgb(0, 0, 0)" stroke="rgb(204, 204, 204)" stroke-width="1px"></line><line x1="280" y1="0" x2="280" y2="5" style="visibility: inherit;" fill="rgb(0, 0, 0)" stroke="rgb(204, 204, 204)" stroke-width="1px"></line></g><g transform="translate(0, 8)"><text x="0" y="0" dx="0em" dy="0.95em" style="text-anchor: middle; visibility: hidden; font-family: &quot;Helvetica Neue&quot;, sans-serif; font-size: 12px; font-weight: 200;" fill="rgb(50, 49, 63)" stroke="none" stroke-width="1px">-200</text><text x="23.333333333333332" y="0" dx="0em" dy="0.95em" style="text-anchor: middle; visibility: inherit; font-family: &quot;Helvetica Neue&quot;, sans-serif; font-size: 12px; font-weight: 200;" fill="rgb(50, 49, 63)" stroke="none" stroke-width="1px">0</text><text x="46.666666666666664" y="0" dx="0em" dy="0.95em" style="text-anchor: middle; visibility: hidden; font-family: &quot;Helvetica Neue&quot;, sans-serif; font-size: 12px; font-weight: 200;" fill="rgb(50, 49, 63)" stroke="none" stroke-width="1px">200</text><text x="70" y="0" dx="0em" dy="0.95em" style="text-anchor: middle; visibility: inherit; font-family: &quot;Helvetica Neue&quot;, sans-serif; font-size: 12px; font-weight: 200;" fill="rgb(50, 49, 63)" stroke="none" stroke-width="1px">400</text><text x="93.33333333333333" y="0" dx="0em" dy="0.95em" style="text-anchor: middle; visibility: hidden; font-family: &quot;Helvetica Neue&quot;, sans-serif; font-size: 12px; font-weight: 200;" fill="rgb(50, 49, 63)" stroke="none" stroke-width="1px">600</text><text x="116.66666666666667" y="0" dx="0em" dy="0.95em" style="text-anchor: middle; visibility: inherit; font-family: &quot;Helvetica Neue&quot;, sans-serif; font-size: 12px; font-weight: 200;" fill="rgb(50, 49, 63)" stroke="none" stroke-width="1px">800</text><text x="140" y="0" dx="0em" dy="0.95em" style="text-anchor: middle; visibility: hidden; font-family: &quot;Helvetica Neue&quot;, sans-serif; font-size: 12px; font-weight: 200;" fill="rgb(50, 49, 63)" stroke="none" stroke-width="1px">1k</text><text x="163.33333333333334" y="0" dx="0em" dy="0.95em" style="text-anchor: middle; visibility: inherit; font-family: &quot;Helvetica Neue&quot;, sans-serif; font-size: 12px; font-weight: 200;" fill="rgb(50, 49, 63)" stroke="none" stroke-width="1px">1.2k</text><text x="186.66666666666666" y="0" dx="0em" dy="0.95em" style="text-anchor: middle; visibility: hidden; font-family: &quot;Helvetica Neue&quot;, sans-serif; font-size: 12px; font-weight: 200;" fill="rgb(50, 49, 63)" stroke="none" stroke-width="1px">1.4k</text><text x="210" y="0" dx="0em" dy="0.95em" style="text-anchor: middle; visibility: inherit; font-family: &quot;Helvetica Neue&quot;, sans-serif; font-size: 12px; font-weight: 200;" fill="rgb(50, 49, 63)" stroke="none" stroke-width="1px">1.6k</text><text x="233.33333333333334" y="0" dx="0em" dy="0.95em" style="text-anchor: middle; visibility: hidden; font-family: &quot;Helvetica Neue&quot;, sans-serif; font-size: 12px; font-weight: 200;" fill="rgb(50, 49, 63)" stroke="none" stroke-width="1px">1.8k</text><text x="256.66666666666663" y="0" dx="0em" dy="0.95em" style="text-anchor: middle; visibility: inherit; font-family: &quot;Helvetica Neue&quot;, sans-serif; font-size: 12px; font-weight: 200;" fill="rgb(50, 49, 63)" stroke="none" stroke-width="1px">2k</text><text x="280" y="0" dx="0em" dy="0.95em" style="text-anchor: middle; visibility: hidden; font-family: &quot;Helvetica Neue&quot;, sans-serif; font-size: 12px; font-weight: 200;" fill="rgb(50, 49, 63)" stroke="none" stroke-width="1px">2.2k</text></g><line x1="0" y1="0" x2="280" y2="0" fill="rgb(0, 0, 0)" stroke="rgb(204, 204, 204)" stroke-width="1px"></line></g></g></g></g></svg>