<svg viewBox="0 0 330 200" xmlns="http://www.w3.org/2000/svg"><g><g><g><g><g><line x1="40" y1="178" x2="35" y2="178" style="visibility: inherit;" fill="rgb(0, 0, 0)" stroke="rgb(204, 204, 204)" stroke-width="1px"></line><line x1="40" y1="163.16666666666666" x2="35" y2="163.16666666666666" style="visibility: inherit;" fill="rgb(0, 0, 0)" stroke="rgb(204, 204, 204)" stroke-width="1px"></line><line x1="40" y1="148.33333333333334" x2="35" y2="148.33333333333334" style="visibility: inherit;" fill="rgb(0, 0, 0)" stroke="rgb(204, 204, 204)" stroke-width="1px"></line><line x1="40" y1="133.5" x2="35" y2="133.5" style="visibility: inherit;" fill="rgb(0, 0, 0)" stroke="rgb(204, 204, 204)" stroke-width="1px"></line><line x1="40" y1="118.66666666666667" x2="35" y2="118.66666666666667" style="visibility: inherit;" fill="rgb(0, 0, 0)" stroke="rgb(204, 204, 204)" stroke-width="1px"></line><line x1="40" y1="103.83333333333333" x2="35" y2="103.83333333333333" style="visibility: inherit;" fill="rgb(0, 0, 0)" stroke="rgb(204, 204, 204)" stroke-width="1px"></line><line x1="40" y1="89" x2="35" y2="89" style="visibility: inherit;" fill="rgb(0, 0, 0)" stroke="rgb(204, 204, 204)" stroke-width="1px"></line><line x1="40" y1="74.16666666666666" x2="35" y2="74.16666666666666" style="visibility: inherit;" fill="rgb(0, 0, 0)" stroke="rgb(204, 204, 204)" stroke-width="1px"></line><line x1="40" y1="59.33333333333334" x2="35" y2="59.33333333333334" style="visibility: inherit;" fill="rgb(0, 0, 0)" stroke="rgb(204, 204, 204)" stroke-width="1px"></line><line x1="40" y1="44.5" x2="35" y2="44.5" style="visibility: inherit;" fill="rgb(0, 0, 0)" stroke="rgb(204, 204, 204)" stroke-width="1px"></line><line x1="40" y1="29.666666666666657" x2="35" y2="29.666666666666657" style="visibility: inherit;" fill="rgb(0, 0, 0)" stroke="rgb(204, 204, 204)" stroke-width="1px"></line><line x1="40" y1="14.833333333333343" x2="35" y2="14.833333333333343" style="visibility: inherit;" fill="rgb(0, 0, 0)" stroke="rgb(204, 204, 204)" stroke-width="1px"></line><line x1="40" y1="0" x2="35" y2="0" style="visibility: inherit;" fill="rgb(0, 0, 0)" stroke="rgb(204, 204, 204)" stroke-width="1px"></line></g><g transform="translate(30, 0)"><text x="0" y="178" dx="0em" dy="0.3em" style="text-anchor: end; visibility: hidden; font-family: &quot;Helvetica Neue&quot;, sans-serif; font-size: 12px; font-weight: 200;" fill="rgb(50, 49, 63)" stroke="none" stroke-width="1px">-20</text><text x="0" y="163.16666666666666" dx="0em" dy="0.3em" style="text-anchor: end; visibility: inherit; font-family: &quot;Helvetica Neue&quot;, sans-serif; font-size: 12px; font-weight: 200;" fill="rgb(50, 49, 63)" stroke="none" stroke-width="1px">0</text><text x="0" y="148.33333333333334" dx="0em" dy="0.3em" style="text-anchor: end; visibility: hidden; font-family: &quot;Helvetica Neue&quot;, sans-serif; font-size: 12px; font-weight: 200;" fill="rgb(50, 49, 63)" stroke="none" stroke-width="1px">20</text><text x="0" y="133.5" dx="0em" dy="0.3em" style="text-anchor: end; visibility: inherit; font-family: &quot;Helvetica Neue&quot;, sans-serif; font-size: 12px; font-weight: 200;" fill="rgb(50, 49, 63)" stroke="none" stroke-width="1px">40</text><text x="0" y="118.66666666666667" dx="0em" dy="0.3em" style="text-anchor: end; visibility: hidden; font-family: &quot;Helvetica Neue&quot;, sans-serif; font-size: 12px; font-weight: 200;" fill="rgb(50, 49, 63)" stroke="none" stroke-width="1px">60</text><text x="0" y="103.83333333333333" dx="0em" dy="0.3em" style="text-anchor: end; visibility: inherit; font-family: &quot;Helvetica Neue&quot;, sans-serif; font-size: 12px; font-weight: 200;" fill="rgb(50, 49, 63)" stroke="none" stroke-width="1px">80</text><text x="0" y="89" dx="0em" dy="0.3em" style="text-anchor: end; visibility: hidden; font-family: &quot;Helvetica Neue&quot;, sans-serif; font-size: 12px; font-weight: 200;" fill="rgb(50, 49, 63)" stroke="none" stroke-width="1px">100</text><text x="0" y="74.16666666666666" dx="0em" dy="0.3em" style="text-anchor: end; visibility: inherit; font-family: &quot;Helvetica Neue&quot;, sans-serif; font-size: 12px; font-weight: 200;" fill="rgb(50, 49, 63)" stroke="none" stroke-width="1px">120</text><text x="0" y="59.33333333333334" dx="0em" dy="0.3em" style="text-anchor: end; visibility: hidden; font-family: &quot;Helvetica Neue&quot;, sans-serif; font-size: 12px; font-weight: 200;" fill="rgb(50, 49, 63)" stroke="none" stroke-width="1px">140</text><text x="0" y="44.5" dx="0em" dy="0.3em" style="text-anchor: end; visibility: inherit; font-family: &quot;Helvetica Neue&quot;, sans-serif; font-size: 12px; font-weight: 200;" fill="rgb(50, 49, 63)" stroke="none" stroke-width="1px">160</text><text x="0" y="29.666666666666657" dx="0em" dy="0.3em" style="text-anchor: end; visibility: hidden; font-family: &quot;Helvetica Neue&quot;, sans-serif; font-size: 12px; font-weight: 200;" fill="rgb(50, 49, 63)" stroke="none" stroke-width="1px">180</text><text x="0" y="14.833333333333343" dx="0em" dy="0.3em" style="text-anchor: end; visibility: inherit; font-family: &quot;Helvetica Neue&quot;, sans-serif; font-size: 12px; font-weight: 200;" fill="rgb(50, 49, 63)" stroke="none" stroke-width="1px">200</text><text x="0" y="0" dx="0em" dy="0.3em" style="text-anchor: end; visibility: hidden; font-family: &quot;Helvetica Neue&quot;, sans-serif; font-size: 12px; font-weight: 200;" fill="rgb(50, 49, 63)" stroke="none" stroke-width="1px">220</text></g><line x1="40" y1="0" x2="40" y2="178" fill="rgb(0, 0, 0)" stroke="rgb(204, 204, 204)" stroke-width="1px"></line></g></g><g transform="translate(40, 0)" clip-path="url(#clip_0)"><clipPath id="clip_0"><rect width="290" height="178"></rect></clipPath><g><g><g><line x1="0" y1="0" x2="0" y2="178" fill="rgb(0, 0, 0)" stroke="rgb(60, 60, 60)" stroke-width="1px" opacity="0.25"></line><line x1="24.166666666666664" y1="0" x2="24.166666666666664" y2="178" fill="rgb(0, 0, 0)" stroke="rgb(60, 60, 60)" stroke-width="1px" opacity="0.25"></line><line x1="48.33333333333333" y1="0" x2="48.33333333333333" y2="178" fill="rgb(0, 0, 0)" stroke="rgb(60, 60, 60)" stroke-width="1px" opacity="0.25"></line><line x1="72.5" y1="0" x2="72.5" y2="178" fill="rgb(0, 0, 0)" stroke="rgb(60, 60, 60)" stroke-width="1px" opacity="0.25"></line><line x1="96.66666666666666" y1="0" x2="96.66666666666666" y2="178" fill="rgb(0, 0, 0)" stroke="rgb(60, 60, 60)" stroke-width="1px" opacity="0.25"></line><line x1="120.83333333333334" y1="0" x2="120.83333333333334" y2="178" fill="rgb(0, 0, 0)" stroke="rgb(60, 60, 60)" stroke-width="1px" opacity="0.25"></line><line x1="145" y1="0" x2="145" y2="178" fill="rgb(0, 0, 0)" stroke="rgb(60, 60, 60)" stroke-width="1px" opacity="0.25"></line><line x1="169.16666666666669" y1="0" x2="169.16666666666669" y2="178" fill="rgb(0, 0, 0)" stroke="rgb(60, 60, 60)" stroke-width="1px" opacity="0.25"></line><line x1="193.33333333333331" y1="0" x2="193.33333333333331" y2="178" fill="rgb(0, 0, 0)" stroke="rgb(60, 60, 60)" stroke-width="1px" opacity="0.25"></line><line x1="217.5" y1="0" x2="217.5" y2="178" fill="rgb(0, 0, 0)" stroke="rgb(60, 60, 60)" stroke-width="1px" opacity="0.25"></line><line x1="241.66666666666669" y1="0" x2="241.66666666666669" y2="178" fill="rgb(0, 0, 0)" stroke="rgb(60, 60, 60)" stroke-width="1px" opacity="0.25"></line><line x1="265.8333333333333" y1="0" x2="265.8333333333333" y2="178" fill="rgb(0, 0, 0)" stroke="rgb(60, 60, 60)" stroke-width="1px" opacity="0.25"></line><line x1="290" y1="0" x2="290" y2="178" fill="rgb(0, 0, 0)" stroke="rgb(60, 60, 60)" stroke-width="1px" opacity="0.25"></line></g><g><line x1="0" y1="178" x2="290" y2="178" fill="rgb(0, 0, 0)" stroke="rgb(60, 60, 60)" stroke-width="1px" opacity="0.25"></line><line x1="0" y1="163.16666666666666" x2="290" y2="163.16666666666666" fill="rgb(0, 0, 0)" stroke="rgb(60, 60, 60)" stroke-width="1px" opacity="0.25"></line><line x1="0" y1="148.33333333333334" x2="290" y2="148.33333333333334" fill="rgb(0, 0, 0)" stroke="rgb(60, 60, 60)" stroke-width="1px" opacity="0.25"></line><line x1="0" y1="133.5" x2="290" y2="133.5" fill="rgb(0, 0, 0)" stroke="rgb(60, 60, 60)" stroke-width="1px" opacity="0.25"></line><line x1="0" y1="118.66666666666667" x2="290" y2="118.66666666666667" fill="rgb(0, 0, 0)" stroke="rgb(60, 60, 60)" stroke-width="1px" opacity="0.25"></line><line x1="0" y1="103.83333333333333" x2="290" y2="103.83333333333333" fill="rgb(0, 0, 0)" stroke="rgb(60, 60, 60)" stroke-width="1px" opacity="0.25"></line><line x1="0" y1="89" x2="290" y2="89" fill="rgb(0, 0, 0)" stroke="rgb(60, 60, 60)" stroke-width="1px" opacity="0.25"></line><line x1="0" y1="74.16666666666666" x2="290" y2="74.16666666666666" fill="rgb(0, 0, 0)" stroke="rgb(60, 60, 60)" stroke-width="1px" opacity="0.25"></line><line x1="0" y1="59.33333333333334" x2="290" y2="59.33333333333334" fill="rgb(0, 0, 0)" stroke="rgb(60, 60, 60)" stroke-width="1px" opacity="0.25"></line><line x1="0" y1="44.5" x2="290" y2="44.5" fill="rgb(0, 0, 0)" stroke="rgb(60, 60, 60)" stroke-width="1px" opacity="0.25"></line><line x1="0" y1="29.666666666666657" x2="290" y2="29.666666666666657" fill="rgb(0, 0, 0)" stroke="rgb(60, 60, 60)" stroke-width="1px" opacity="0.25"></line><line x1="0" y1="14.833333333333343" x2="290" y2="14.833333333333343" fill="rgb(0, 0, 0)" stroke="rgb(60, 60, 60)" stroke-width="1px" opacity="0.25"></line><line x1="0" y1="0" x2="290" y2="0" fill="rgb(0, 0, 0)" stroke="rgb(60, 60, 60)" stroke-width="1px" opacity="0.25"></line></g></g></g><g><g><line x1="0" y1="163.16666666666666" x2="290" y2="163.16666666666666" fill="rgb(0, 0, 0)" stroke="rgb(153, 153, 153)" stroke-width="1.5px"></line></g></g><g><g><line x1="24.166666666666664" y1="0" x2="24.166666666666664" y2="178" fill="rgb(0, 0, 0)" stroke="rgb(153, 153, 153)" stroke-width="1.5px"></line></g></g><g><g><g><g><g><path stroke="rgb(255, 112, 67)" stroke-width="2px" d="M24.770833333333332,40.832181294759096L24.891666666666666,68.59876191085282L25.375,88.95316317386526L25.495833333333334,83.71601007396302L25.737499999999997,63.25780787372916L25.858333333333334,49.69851723467295L25.979166666666668,40.426231828959885L26.34166666666667,9.562888174073066L26.4625,-1.295743887379075L26.583333333333332,12.351955766014754L27.066666666666666,6.021094361111437L28.154166666666665,40.74030361070416L28.275000000000002,13.496090668366605L28.516666666666666,9.540217261075895L29,8.540168923485737L29.241666666666667,16.30401561139189L29.483333333333334,39.777679005651095L29.604166666666668,38.57103999331588L29.845833333333335,43.13968758773109L30.0875,52.46054861095607L30.208333333333336,65.66553355286005L30.570833333333336,67.7461521094877L30.691666666666666,67.97419016665523L30.8125,50.281215795750256L30.933333333333334,71.51122672891465L31.054166666666667,56.71247853998612L31.416666666666668,68.99978497886798L31.5375,91.0904790144019L31.77916666666667,64.80780800064525L32.020833333333336,16.04985401744696L32.141666666666666,52.37189310483559L32.2625,51.78967849849447L32.38333333333333,29.630072903976753L32.74583333333333,57.24117936929598L32.86666666666667,65.90830542038658L32.987500000000004,42.02696396538224L33.108333333333334,42.51773066956093L33.7125,23.18636376485162L34.31666666666666,7.56891395296546L34.4375,18.23570686453337L34.55833333333334,22.056044098734475L34.67916666666667,38.62106889679825L34.8,34.26620100339488L34.920833333333334,43.48932701091792L35.525,26.70208541176325L36.49166666666667,23.458835247460343L36.854166666666664,-1.7411198039961278L36.975,31.775453229259227L37.82083333333333,36.571185538827535L38.18333333333333,33.65353269303955L38.425000000000004,35.62060708321644L38.54583333333333,31.300164616297593L38.666666666666664,15.899105231766526L39.150000000000006,18.00244873856593L39.27083333333333,11.173006403055467L39.391666666666666,-13.08342180871415L39.875,-17.156578408543425L40.72083333333333,38.26765143780179L40.9625,19.838411803687507L41.204166666666666,43.33510761277839L41.324999999999996,14.80322358527414L41.44583333333333,26.77805462303968L41.56666666666667,11.93585701008746L42.05,41.11152769370645L42.29166666666667,47.67904335212637L42.65416666666667,65.80073417653648L42.775,69.28752257134957L42.895833333333336,78.44510210506415L43.137499999999996,61.40075580314446L43.25833333333333,67.19650061426809L43.37916666666667,54.62387513691796L43.74166666666667,74.3050245902266L43.983333333333334,79.19081958369247L44.104166666666664,97.91815052477389L44.34583333333334,70.06869494804116L44.46666666666666,24.319432601649993L44.829166666666666,57.4779524741317L45.43333333333334,57.2248306419051L45.55416666666667,49.9543297841752L45.675,65.07257832886947L45.916666666666664,52.166327405542475L46.27916666666666,42.46342895529827L46.520833333333336,13.528556871666837L46.641666666666666,43.3814917878106L46.88333333333333,20.675680118007023L47.125,23.92801131997294L47.24583333333333,40.35950422239432L48.09166666666667,37.07996870455375L49.05833333333333,25.71635094199121L49.17916666666667,-12.53273999883865L49.300000000000004,25.43916707186534L49.78333333333333,11.95998007427903L50.145833333333336,35.56552723868782L50.50833333333333,70.58078355544609L50.62916666666667,66.62092217596978L50.99166666666667,46.512971220167486L51.1125,41.793226962945056L51.35416666666667,38.5239552180324L51.474999999999994,10.005997461704226L51.59583333333333,43.111814488152476L51.8375,15.253680256509199L52.199999999999996,40.11615250056025L52.32083333333333,-13.022042280732961L52.44166666666667,6.5867087637182635L52.80416666666667,24.46518746263962L53.166666666666664,49.39132947427723L53.770833333333336,34.10992019078623L54.0125,39.1358436497903L54.25416666666666,60.89127542987154L54.375,41.6651638117948L54.979166666666664,55.48117288047591L55.34166666666666,84.1729174119056L55.4625,94.61939086697465L55.583333333333336,100.25571399741622L55.704166666666666,90.55401185354224L55.94583333333333,71.633257917532L56.42916666666667,79.25077842049262L56.67083333333333,99.83397919194128L56.9125,66.72914235048762L57.15416666666667,65.7245277622397L57.75833333333333,78.83982197449782L58,68.17417224541373L58.483333333333334,59.946983244513135L59.0875,33.31915671858533L59.329166666666666,33.5903155488372L59.449999999999996,44.70558688109327L60.05416666666667,64.02685151649953L60.175,59.23637806589376L60.295833333333334,50.48514876519856L60.537499999999994,35.09589456771974L60.65833333333333,52.016291266532306L60.77916666666667,46.71930472350914L61.262499999999996,46.41766735642804L61.38333333333333,31.213807020111915L61.625,42.17830150108793L61.9875,21.31770803560792L62.47083333333334,55.83736605671284L62.59166666666666,29.68892404476543L62.7125,37.997748207031606L62.833333333333336,54.17210657544307L63.075,67.23179693270441L63.4375,48.15887825869382L63.55833333333334,58.36557520732629L63.67916666666667,48.1007646363276L64.04166666666667,29.99096372442048L64.1625,20.481630256960727L64.40416666666667,10.688318795005983L65.12916666666666,31.748314089548956L65.37083333333332,33.20745425488255L65.73333333333333,63.188336706255825L65.85416666666667,41.246713167518635L66.09583333333333,26.912337944048403L66.21666666666667,51.66247960641668L66.82083333333333,62.492360749661785L66.94166666666666,54.84931948000646L67.18333333333334,71.77930846286576L67.425,57.0533678840782L67.54583333333333,76.0567474307704L67.66666666666667,71.92115341022664L68.02916666666667,102.55203143821822L68.14999999999999,106.29029160246054L68.5125,95.58589478352188L68.63333333333333,91.71531809373299L68.875,94.70097838010379L68.99583333333334,98.54051114219354L69.2375,97.21256687765296L69.72083333333333,72.90954402774867L69.84166666666667,65.63241478463961L69.96249999999999,60.40124056470576L70.20416666666667,82.9531307974962L70.325,87.91272948024539L70.80833333333334,76.12572797422497L70.92916666666667,74.55161681981453L71.05,68.80452485559434L71.29166666666666,73.80212337907581L71.4125,57.672157659494204L71.53333333333333,63.139175049320116L71.65416666666667,59.015819196240486L72.74166666666667,71.76686203510397L72.8625,65.99656934503048L73.46666666666667,58.70763123029113L74.3125,59.431462108764194L74.43333333333332,27.501099096406193L74.91666666666667,62.69149091310524L75.0375,75.01007737735966L75.15833333333333,68.50957693555124L75.4,69.46086415624818L75.64166666666667,82.17305213289092L76.125,75.49672730099633L77.21249999999999,72.9595102920989L77.33333333333333,66.88928215508508L77.45416666666667,36.84501968425633L77.575,45.76065557224979L77.9375,69.04261161697836L78.30000000000001,85.22582001295683L78.6625,57.783072628680415L79.50833333333334,97.27511201138812L79.62916666666668,91.73035808849171L79.75,103.7702179855383L79.87083333333332,100.33649933197876L80.1125,99.83692497635631L80.23333333333333,105.04850094015075L80.59583333333333,117.96325133764569L80.71666666666667,117.96424053269001L80.8375,103.74792212619182L81.07916666666667,114.09265102882753L81.32083333333333,110.82902657224213L81.44166666666666,120.18639815016205L81.925,95.88843266266257L82.77083333333333,85.47290071637777L83.13333333333334,77.83969865807559L83.25416666666668,91.897408240086L83.49583333333332,91.31454891225596L83.7375,88.04496115399378L84.1,65.02958858000162L85.42916666666666,58.06570467511999L85.79166666666667,87.04915229311486L85.91250000000001,88.17266322365738L86.03333333333335,81.05450308266346L86.27499999999999,82.54919700492472L86.51666666666667,90.09280689505198L86.6375,80.34303320249641L86.87916666666666,72.36630559063036L87.48333333333333,66.35142101101056L87.60416666666666,74.52154315653654L88.32916666666667,90.00676694182026L88.57083333333334,85.80296691115782L88.69166666666668,80.09031615063802L88.8125,69.9320455406007L88.93333333333332,82.06981374787298L89.05416666666666,71.06707417050636L89.175,84.31147252171635L89.29583333333333,93.62300658173298L89.41666666666667,79.09123881238966L89.53750000000001,86.33203340752179L89.65833333333333,98.57710810578457L89.9,96.67002223922682L90.2625,90.92423866144952L90.38333333333333,91.99024688691726L90.50416666666666,87.44952061042198L90.74583333333334,82.87160401511014L91.22916666666667,88.7338760014745L91.47083333333333,79.04185320502202L91.71249999999999,93.36613714824809L92.19583333333334,105.81676493547474L92.31666666666668,115.53294988953579L92.4375,111.15104560207743L92.67916666666666,112.54049027233474L92.92083333333333,109.09299889494845L93.1625,128.5780623262416L93.40416666666667,113.55220212965125L93.525,108.92780890289865L93.88749999999999,112.21809875844501L94.12916666666666,115.44354665047015L94.25,123.59568085082708L94.37083333333334,107.77179276040495L94.49166666666666,114.48154041698238L94.6125,101.88671790322175L94.73333333333333,102.03722556747333L94.97500000000001,106.28346009415658L95.09583333333335,100.748801104974L95.7,95.50635237231367L95.82083333333334,102.20265287673601L96.0625,101.81499148022077L96.18333333333334,98.64525913850845L96.30416666666667,94.67592533844004L96.66666666666666,83.80439998461671L96.90833333333333,83.74004182177202L97.15,107.67686109588345L97.39166666666667,107.22805343442108L97.63333333333334,110.24810034001943L97.875,108.80669748920826L97.99583333333332,94.33459753461453L98.11666666666666,93.36746591606259L98.47916666666667,107.58214448187829L98.9625,99.77143876204254L99.08333333333333,105.3767846642547L99.325,85.87234129796924L99.6875,102.84590601483359L100.17083333333333,108.61742997204873L100.77499999999999,115.08212949877428L101.62083333333332,81.97797876602914L101.74166666666666,99.67038372963968L101.98333333333333,88.89589821785603L102.10416666666667,94.57923054751666L102.225,105.38404520123547L102.34583333333333,115.3575742695559L102.46666666666667,99.36520568539834L102.5875,97.26529799328938L102.82916666666667,104.95842076720876L102.94999999999999,101.43026274562345L103.43333333333334,105.8317149336359L103.55416666666666,86.43833282010196L104.03750000000001,81.75104749665434L104.39999999999999,112.0759310851644L104.64166666666667,113.97359584935269L104.7625,112.54242394427973L104.88333333333334,111.27298792917068L105.24583333333334,116.19526979072096L105.36666666666667,126.44508776245382L105.48750000000001,128.38401574528228L105.60833333333333,131.83067363856523L105.72916666666666,129.14670757591222L105.97083333333333,123.19543777159717L106.09166666666667,120.75494954452515L106.2125,120.923980403597L106.45416666666667,128.1886903104531L106.575,124.24402773031727L106.69583333333334,126.82668845727153L106.81666666666668,139.3714964938323L106.9375,116.61586435128385L107.05833333333332,124.78369652407194L107.3,108.98665729888972L107.42083333333333,126.94690201069017L107.78333333333333,117.02403651166748L108.26666666666667,107.14766332785278L108.62916666666666,114.03910600758232L108.75,108.44724261284071L108.87083333333334,114.1688560814796L109.1125,116.31969166462451L109.35416666666667,114.88815728678506L109.475,107.31373051532361L109.71666666666667,120.63658907164984L109.95833333333333,122.68025688198591L110.44166666666668,122.59712234835702L110.925,120.41668418267264L111.04583333333333,129.04561328165173L111.2875,110.48169207482162L111.40833333333333,120.46539039582939L111.52916666666667,128.83984119552036L111.65,125.98220443450438L111.77083333333334,122.43819099015084L112.25416666666666,126.44546880418238L112.375,122.89933045278163L113.10000000000001,112.28912303751288L113.34166666666665,126.15786458095911L113.46249999999999,124.13707786849764L113.58333333333333,108.92835568594114L113.70416666666667,117.15017890120322L113.94583333333334,120.06869858247396L114.30833333333334,122.994589106331L114.42916666666667,126.01277157466579L114.79166666666666,136.9319332337708L114.9125,138.9876276104295L115.03333333333333,130.81183883507782L115.275,129.34540991209002L115.51666666666667,135.89732750747982L115.87916666666668,140.46721841827028L116.24166666666666,123.03513623534221L116.60416666666667,118.69713848999268L116.72500000000001,125.62291618541957L116.84583333333333,133.35455673996663L117.0875,123.98902723139642L117.20833333333333,135.33106286719422L117.32916666666667,134.40519180137574L117.57083333333333,131.75032348234032L117.69166666666666,134.6040305240139L117.8125,133.68079029143095L118.41666666666667,135.68578116647188L118.89999999999999,135.21762149501237L119.02083333333333,140.7525697187005L119.2625,144.28061778192372L119.50416666666668,135.51696869948728L119.74583333333332,132.48323238341487L119.86666666666666,131.3870082140012L119.9875,134.3443518516863L120.10833333333333,134.97327641762536L120.22916666666667,134.80935010569755L120.35,137.56477795106377L120.59166666666667,144.5699469106547L120.83333333333334,137.0408018409662L121.07499999999999,141.92003503453145L121.4375,133.62019245944452L121.67916666666666,133.59812710888764L121.8,130.4157500772319L121.92083333333333,131.84947118402056L122.40416666666665,137.37680656483548L122.64583333333333,142.6048894916062L122.76666666666667,144.1274343574366L123.00833333333334,137.0488619710432L123.37083333333334,144.25660603479008L123.85416666666666,141.758641451826L124.21666666666667,142.8142785374809L124.57916666666667,144.92510225203085L124.7,139.39388484820182L124.94166666666668,141.1211614333288L125.18333333333332,143.91353205440552L125.425,144.4555778638025L126.02916666666667,145.39225604323485L126.27083333333333,143.4261716120352L126.39166666666667,141.24708035744374L126.5125,141.1162906360802L126.63333333333333,142.90575117457263L126.99583333333334,142.99893273345174L127.72083333333333,141.71627709647225L127.96249999999999,146.06297841884555L128.08333333333334,149.8738708666993L128.20416666666665,149.99540741386608L128.325,146.9638866844515L128.44583333333333,148.01864331177632L128.92916666666667,147.39510466870934L129.17083333333335,141.62811723120475L129.29166666666669,142.26031955682126L129.65416666666667,144.78228862598252L129.775,150.01066992129077L129.89583333333334,153.14823849041542L130.01666666666665,154.57472478051426L130.1375,147.88172777726194L130.37916666666666,150.40645960915552L130.5,149.90583072456553L130.62083333333334,151.31196899949418L130.74166666666665,152.97851484067243L130.98333333333332,149.76252085257647L131.34583333333333,152.69070169312974L131.5875,153.91853820508905L131.70833333333334,155.1422945927265L131.95000000000002,155.59140188094315L132.07083333333335,153.88940391415363L132.43333333333334,152.266122775038L132.79583333333335,153.1501254312218L132.91666666666666,152.95300455113434L133.7625,151.132471653197L133.88333333333333,150.595800041064L134.00416666666666,150.84477914420134L134.125,150.2809228939803L134.24583333333334,149.77001324865054L134.36666666666667,151.60647191033627L134.4875,152.17050784426127L134.72916666666666,151.42553304366763L134.85,151.44629033709276L134.97083333333333,148.57251751563658L135.33333333333334,150.69635974775258L135.45416666666668,150.50642963482872L135.57500000000002,149.4057672134684L135.69583333333333,150.54197175781508L135.9375,155.39851483346524L136.6625,152.73046591179056L136.78333333333333,152.1871388589702L137.14583333333334,151.0465770641465L137.99166666666667,155.03864344389694L138.35416666666669,155.69536544172166L138.8375,153.2417019231312L139.2,151.05193159382588L139.32083333333333,151.6565260584604L139.44166666666666,151.61868969457038L139.68333333333334,151.33752702560943L139.80416666666665,152.3978799530167L139.92499999999998,149.92404851759437L140.2875,148.44331690154925L140.40833333333333,149.79049209910337L140.65,154.53388847689064L140.89166666666668,157.26637027060454L141.01250000000002,159.1489923089535L141.25416666666666,155.09299331831312L141.49583333333334,157.7059189609543L141.61666666666667,155.2875330659708L141.85833333333335,157.03120336303311L142.1,156.86752050390913L142.22083333333333,157.7205565925566L142.34166666666667,157.9913346070351L142.4625,158.62323890297182L142.825,156.88828391466743L142.94583333333333,157.4952069491356L143.06666666666666,158.29685966785576L143.42916666666667,156.51619227653453L143.55,154.84744360896724L144.51666666666668,156.17003785687388L144.87916666666666,152.35522575000834L145,150.3251367500042L145.24166666666667,152.8876891158607L145.48333333333335,154.35973811424964L145.60416666666666,152.28604294784404L145.96666666666667,156.39612043142492L146.0875,155.21115665760377L146.32916666666668,156.46469600585388L146.45,156.13412869863737L146.57083333333333,157.03586727498816L146.69166666666666,156.57266004258827L147.05416666666667,154.0507921617154L148.02083333333331,153.71686471011836L148.2625,156.43161997706406L148.50416666666666,156.7201378041581L148.74583333333334,155.82535386157832L148.86666666666665,156.35437446875434L148.9875,157.519401439856L149.22916666666666,157.8786209005929L149.47083333333333,158.22613700886888L149.59166666666667,156.54403459804172L149.7125,158.00688067003793L150.075,157.6899739483582L150.19583333333335,157.0631733099337L150.31666666666666,158.0984314896553L150.92083333333332,159.34011334138037L151.1625,157.56935085824477L151.28333333333333,157.92974918883746L151.64583333333334,157.04925740734126L151.88750000000002,156.41206847635647L152.6125,156.67209785246885L152.73333333333332,157.10021278123574L152.975,155.61207782341774L153.21666666666667,156.34436661316835L153.70000000000002,155.56416149419445L153.9416666666667,157.89314958893502L154.1833333333333,158.4371851414429L154.42499999999998,158.34985480916885L154.66666666666666,157.95905459617512L154.90833333333333,159.1269252133037L155.02916666666667,159.01616371552745L155.15,156.9772027619591L155.27083333333334,156.7317619989449L155.39166666666668,157.42856785746162L156.11666666666667,157.05442612787394L156.23749999999998,157.0962566071172L156.9625,159.58198116234234L157.20416666666668,159.55911849579434L157.44583333333335,157.60860352154228L157.56666666666666,157.90152358581872L157.6875,157.4949379766145L158.775,157.7797450658132L159.01666666666668,156.43584783303902L159.37916666666666,149.82271193697295L159.74166666666665,153.85792635167934L159.8625,155.1587720137637L160.10416666666669,154.0058381014143L160.225,154.25865252442082L160.34583333333333,152.72841902304995L160.46666666666667,152.65171403162842L160.70833333333334,154.61243325530592L160.82916666666665,157.18585975395823L161.07083333333333,158.5615001573616L161.19166666666666,158.7740303259016L161.3125,158.71342023695505L161.675,159.3064036814966L161.79583333333332,159.75075606376018L162.0375,159.0542921370861L163.0041666666667,158.17324486616377L163.125,158.97573638176777L163.2458333333333,158.14361937517435L163.36666666666667,158.78778162279175L163.72916666666666,157.81088090182615L163.85,156.42318515720822L163.97083333333333,155.98256818107197L164.33333333333334,158.36766031919274L164.45416666666668,157.8221362637812L164.575,159.1212125433755L164.9375,159.25352723803454L166.3875,157.41264460875078L166.75,154.92884079709944L166.99166666666665,157.79871931979548L167.1125,159.11619390650418L167.35416666666666,158.15576889338905L167.475,158.71393426653609L167.8375,158.29770025173485L168.2,160.32652739769264L168.32083333333335,158.90713268545164L168.44166666666666,158.104176203089L168.5625,158.1638550644528L168.68333333333334,157.8990625655278L168.80416666666665,159.11363593281183L168.925,159.954758557288L169.04583333333332,159.85561522150206L169.2875,159.773299996305L169.52916666666667,160.12669665520474L169.64999999999998,160.26156163160155L169.89166666666665,154.1830541749355L170.13333333333333,157.90549078679405L170.375,155.37657876709306L170.49583333333334,157.54961746704095L170.61666666666667,157.4582286546163L170.7375,158.09835711167548L170.85833333333332,158.66364358740847L170.97916666666666,158.2590232053002L172.0666666666667,152.29314461147078L172.1875,152.8048275295048L172.42916666666667,156.99330586168966L172.54999999999998,157.05844594134064L173.03333333333333,154.6845720528569L173.15416666666667,156.09370915701118L173.275,157.3725087115476L173.51666666666668,158.11695948514594L173.87916666666666,159.21907251448545L174.24166666666667,158.81272268294572L174.48333333333335,156.8272170063011L174.72500000000002,153.44557336485232L174.84583333333333,152.73410869015567L175.0875,157.84550628036177L175.20833333333331,153.9127844865079L175.57083333333335,155.84070951450815L175.69166666666666,158.134776582048L175.8125,158.16837032374775L176.05416666666665,158.8796427165071L176.175,158.96914949610004L176.29583333333332,157.14733588748146L176.5375,156.04616437269172L176.65833333333333,154.24272097328696L176.77916666666667,153.12104432839726L176.9,151.93959947400816L177.02083333333334,154.3782285398835L177.14166666666668,155.68742529242755L177.74583333333334,153.9283191171812L177.86666666666665,152.4417425614052L178.10833333333332,154.8743172719237L178.59166666666667,157.39374855623333L178.71249999999998,156.41437044277086L178.95416666666665,154.9560930945248L179.4375,157.19830702465367L179.67916666666667,159.3170612893058L179.92083333333332,160.04848545309778L180.1625,160.01196490862193L180.28333333333333,158.4259218641572L180.40416666666667,158.19677266850798L180.525,157.9581871317354L180.76666666666665,159.62913369835863L181.1291666666667,159.39119369884884L181.25,159.75407990727882L181.49166666666667,160.2195226383082L181.61249999999998,159.6499832202675L181.73333333333335,160.22395711713688L181.975,160.1086472944295L182.45833333333334,158.1635172175283L182.7,158.23088260484803L182.82083333333333,158.14872307056638L183.0625,156.17299128772459L183.18333333333334,157.98715734296022L183.54583333333335,157.30065853292746L183.66666666666666,156.20566678211551L184.27083333333331,155.2832236278402L184.39166666666668,156.50346746305044L184.5125,155.7872593580009L184.63333333333335,157.42618654335922L184.875,158.88298112972836L185.11666666666665,157.38073861825686L185.2375,157.53802227016138L185.35833333333332,156.88766617318663L185.47916666666666,156.39437245736116L185.6,154.97433282060857L185.72083333333333,155.99576016530725L186.08333333333334,158.2562107804602L186.44583333333335,159.53843581633808L186.6875,159.76032962406634L187.05,159.16532872616983L187.17083333333332,158.48413665244948L187.29166666666669,158.77421834342675L187.4125,158.3007727381933L187.89583333333334,158.0204674376839L188.37916666666666,159.98385225515858L188.62083333333334,160.08360556532125L188.74166666666667,159.23666864429188L189.225,158.4536638156114L189.34583333333333,157.50788078971686L189.70833333333334,158.62630355556948L190.07083333333333,156.9500910270931L190.3125,154.98391411928156L190.55416666666667,154.78395006317103L190.67499999999998,156.27683937490667L190.79583333333335,158.11946398480728L191.15833333333333,159.80866437839381L191.4,159.30344316331332L191.52083333333334,158.73565936063648L191.7625,157.7769003996421L191.88333333333333,158.3102562611769L192.00416666666666,158.3658107306988L192.24583333333334,159.74157801940981L192.36666666666667,159.6575378455966L192.72916666666666,160.97766712140748L193.33333333333331,159.87826287865863L194.78333333333333,160.23299070875032L194.90416666666667,158.92296055326324L195.025,157.02470819183094L195.14583333333334,159.09248471018287L195.62916666666666,159.46469455076172L195.99166666666665,157.25255226760103L196.1125,157.1355351095145L196.35416666666669,158.6055275789293L196.475,158.78869513434077L196.59583333333333,156.7109373423883L196.71666666666667,156.9075392236561L197.20000000000002,154.4058079801785L197.32083333333333,154.28431665938507L197.44166666666666,154.09692248135877L197.68333333333334,154.417626934354L197.80416666666667,154.3199289877964L197.925,156.79768483702077L198.16666666666666,155.96025409609956L198.40833333333333,158.68775512587206L199.13333333333333,158.05572048138387L199.375,158.87924065178998L199.97916666666666,157.73602982216008L200.1,157.8585256169013L201.1875,154.86881287220473L201.30833333333334,154.4601485461287L201.79166666666666,157.7002942362618L202.275,156.71816566159652L202.6375,158.57352558494404L203,149.40697734580283L203.12083333333334,150.1464353945612L203.24166666666665,154.58718092748424L203.60416666666666,157.90814187412025L203.725,159.75539721832607L204.0875,156.13584756438811L204.32916666666668,155.71917955884902L204.45,157.2247108317319L204.57083333333335,158.35123277833318L205.41666666666669,157.0220427530335L205.5375,158.7872086384407L205.65833333333333,158.50413637637288L205.77916666666667,159.21262451285276L206.02083333333334,160.1000426728488L206.14166666666665,160.08543670702454L206.26250000000002,160.79359976020928L206.38333333333333,160.3410063028225L206.50416666666666,160.81914479562323L206.625,160.0817401896864L206.74583333333334,159.52877265155144L206.86666666666667,159.97837361952367L206.9875,160.19381999276635L207.35,159.01349385509369L207.59166666666667,158.60362932049816L208.19583333333333,157.63076580603985L208.3166666666667,158.08566346512166L208.4375,158.63879333329757L208.67916666666667,157.64419670828974L209.525,153.04929345110565L209.76666666666668,154.87414556759225L210.37083333333334,155.69874114049577L210.49166666666667,156.7137514249815L210.97500000000002,159.38598752654434L211.21666666666667,159.40425279300987L211.3375,158.243885951899L211.57916666666668,157.99971504756962L211.7,158.51705082958648L211.94166666666666,159.30179463711795L212.0625,157.56833327970347L212.7875,157.46440992772415L212.90833333333333,157.60404622731747L213.02916666666667,157.7907726003015L213.63333333333335,159.39159717039215L213.75416666666666,158.8996110173325L214.84166666666667,156.62668468521875L214.96249999999998,155.87474839755316L215.32500000000002,155.4365658607899L215.44583333333333,156.04063713513378L215.56666666666666,153.0131957585569L215.80833333333334,156.19755261839381L216.05,157.93134458285672L216.29166666666666,157.97431868100153L216.65416666666667,157.2067445111659L216.775,156.88567074049092L217.01666666666665,158.73646128746395L217.13750000000002,159.76018731294704L217.3791666666667,159.33273879107884L217.6208333333333,160.28812441359602L217.74166666666667,160.54750160786023L217.98333333333335,159.52719188027135L218.10416666666666,158.59153032736376L218.5875,158.86554421910375L218.70833333333334,159.27673875022236L218.95,158.38680478064475L219.07083333333333,159.8914832943703L219.19166666666666,159.79842373568164L219.3125,160.2513313570752L219.67499999999998,160.04134834258423L219.79583333333335,160.7622307794775L219.91666666666666,159.88202590692524L220.4,160.06983353734051L220.64166666666668,159.61120402451678L220.7625,158.52511069395464L220.88333333333335,159.10593662856797L221.125,157.99305621737508L221.36666666666665,157.51972360265913L221.60833333333332,157.71096148811267L221.85,156.05289928995398L221.97083333333333,156.57719678674684L222.09166666666667,155.2735226602893L222.33333333333334,156.27880624286L222.45416666666668,158.31326542681435L222.575,158.7760722762911L222.69583333333335,158.59877310554876L222.81666666666666,158.60728208192742L222.9375,156.93670224561498L223.17916666666665,157.13932135795687L223.3,155.36254650308166L223.6625,156.13565510501638L223.78333333333333,157.605736966965L224.02499999999998,157.7852936472933L224.14583333333334,156.78358573000187L224.50833333333333,157.6930221101115L224.62916666666666,154.65024122272837L224.75,157.1377865065504L224.87083333333334,158.20359763410607L225.23333333333332,158.15144163213122L225.71666666666667,159.14672161846687L225.95833333333334,159.48620902619965L226.07916666666665,159.35118479564585L226.20000000000002,159.29005517291782L226.5625,158.140472491163L226.6833333333333,159.2567383421763L226.92499999999998,157.3817893019991L227.40833333333333,157.74358036580693L227.52916666666667,155.293736158979L227.65,156.49017495755214L227.77083333333334,155.83594082918103L228.0125,149.27576348013923L228.49583333333334,156.66269852000616L228.61666666666667,158.05203760411382L228.85833333333335,157.00168937740895L228.97916666666666,157.20582996468744L229.10000000000002,155.00408213859586L229.22083333333333,155.19644079276705L229.4625,155.64874970707325L229.825,157.94863085854894L229.94583333333335,155.27356271097418L230.06666666666666,156.2590318842583L230.1875,158.38579844521843L230.30833333333334,159.29291941582994L230.67083333333332,158.53612427904667L230.79166666666666,158.69384724591774L231.39583333333334,159.1660932703477L231.6375,160.012203483446L231.75833333333335,159.72169654928015L231.87916666666666,160.16471463258998L232.3625,159.80495622247975L232.725,158.81533430185493L232.96666666666667,158.89829996506762L233.32916666666665,157.96700556542757L233.45000000000002,157.10621710449814L233.57083333333333,156.99445182222604L233.69166666666666,158.26470413151338L233.8125,158.9240968427364L234.05416666666667,159.39772031500945L234.175,158.55316679004292L234.29583333333332,156.71154273048774L234.65833333333333,154.21064737163323L234.77916666666667,155.70823404769513L235.02083333333334,157.0987726588198L235.14166666666665,156.33842000001152L235.26250000000002,156.2856251416645L235.625,154.77464739383345L235.86666666666667,154.21827235897896L235.98749999999998,157.27111112457808L236.10833333333335,158.03302445072023L236.22916666666666,158.5970468745378L237.075,158.31156713073062L237.19583333333333,157.68618929906782L237.55833333333334,158.19886696986163L238.16250000000002,158.90152859492298L238.64583333333331,160.25443203386808L238.8875,159.06582922747543L239.37083333333334,157.2775257509745L239.49166666666665,156.3043697642519L239.73333333333332,156.54507001927507L240.21666666666667,157.67980130031336L240.3375,155.53903523246825L240.45833333333334,153.62300016176422L240.7,153.20043030726418L240.82083333333335,156.34930734074842L240.94166666666666,157.9549682117141L241.425,157.82557625440327L241.66666666666669,157.42908637491163L241.90833333333333,155.69424317804643L242.14999999999998,158.1214367835461L242.27083333333334,158.97529571820735L242.51250000000002,157.70323880554736L242.99583333333334,158.4236871276029L243.2375,158.90505003954198L243.35833333333332,159.65893130565806L243.72083333333333,158.90274948957597L244.08333333333334,160.99905699143576L244.5666666666667,159.73626095729446L244.8083333333333,159.36444236071463L244.92916666666667,159.20370941841014L245.29166666666666,155.23821854480315L245.775,155.42976238496232L245.89583333333334,158.49919519331107L246.01666666666668,158.0145788950548L246.1375,157.85363612254312L246.5,157.97631046538973L246.62083333333334,156.97948299029932L246.74166666666667,156.06667374784334L246.98333333333335,156.48477653085365L247.10416666666666,156.41341790133785L247.22500000000002,153.78339545502266L247.46666666666667,154.07183896247142L247.5875,155.4680740081341L247.95,155.0335416260254L248.07083333333335,155.5714697537971L248.3125,154.82842739309078L248.55416666666665,158.00143669960104L248.675,158.12653315132317L248.79583333333332,157.52186836519905L249.64166666666668,156.29126701402723L249.7625,157.1176922840634L249.88333333333335,156.89192450181423L250.00416666666666,157.2998013179964L250.72916666666669,158.24778500606203L250.85,159.45627322689927L250.97083333333333,159.811422720313L251.09166666666667,160.32498526803064L251.21249999999998,159.6076119335591L251.45416666666665,158.70712147109774L251.81666666666666,159.8644748677068L252.17916666666667,157.26729490901226L252.6625,157.2133675834942L252.78333333333333,157.32811207972287L252.90416666666667,156.58133715158553L253.025,156.16499609879168L253.38750000000002,155.61434263539914L253.50833333333333,157.59624847395105L253.99166666666667,155.36963377494882L254.35416666666666,157.91132162014168L254.475,156.84515354571292L254.8375,160.59520021458124L254.95833333333334,160.73053842752182L255.07916666666668,160.1133624661113L255.2,160.03608720041908L255.32083333333333,160.27428542805177L255.68333333333334,160.00115579723027L255.80416666666667,159.92578019647937L255.92499999999998,160.23996707117664L256.04583333333335,160.08344779425204L256.5291666666667,158.38820353490354L256.65,160.12273373110455L256.7708333333333,160.33137528306605L257.1333333333333,159.94078760835217L257.375,160.61687056275616L257.49583333333334,158.59402745610137L257.6166666666667,158.80344345118334L257.85833333333335,160.2597572436704L257.97916666666663,160.08457408496176L258.1,158.6229882923288L258.3416666666667,158.27030888126814L258.4625,159.32670143319035L259.06666666666666,158.578815905975L259.30833333333334,154.1239399257486L259.4291666666667,155.26167864288726L259.67083333333335,156.86972104176354L260.0333333333333,157.96456721011563L260.275,158.96087527261423L260.3958333333333,158.82540264229888L260.51666666666665,158.34171097912488L260.7583333333333,158.36904537855898L261,158.2793309297578L261.12083333333334,160.01213033468454L261.2416666666667,158.99433068115374L261.72499999999997,160.12669535802718L261.84583333333336,160.65144459784932L262.08750000000003,160.78969425626136L262.32916666666665,159.65032379703615L262.93333333333334,158.40781807961767L263.4166666666667,160.69573029388957L263.53749999999997,160.1606126845745L263.65833333333336,160.41784579515593L263.77916666666664,159.77547822684937L265.2291666666667,158.9894831206105L265.4708333333333,158.02171674433308L265.7125,158.045736709098L265.95416666666665,159.78626009353488L266.075,160.03301777789866L266.1958333333333,159.16638863192586L266.31666666666666,159.32624394321752L266.4375,159.44105314755663L266.55833333333334,157.59054359484094L266.6791666666667,157.98957909166757L266.8,156.86310131659263L266.92083333333335,156.2758435820172L267.04166666666663,155.15483649326762L267.1625,157.36897832518187L267.4041666666667,159.48936077198445L267.525,158.5396940835837L267.64583333333337,158.48285373758878L267.8875,159.1714900757477L268.12916666666666,158.56657109132263L268.4916666666667,159.5496315489496L268.8541666666667,158.675457523202L269.0958333333333,158.18535821962456L269.2166666666667,159.64356085125044L269.4583333333333,159.9315939999466L269.8208333333333,160.78353242666515L270.0625,159.42711484260388L270.18333333333334,156.36493935537854L270.425,158.69409368605287L270.6666666666667,156.8105646698401L270.78749999999997,159.2512114495578L270.90833333333336,159.7892590135434L271.15000000000003,159.21198872901306L271.2708333333333,158.23066375582962L271.5125,157.05787147474678L271.6333333333333,156.9458434468903L271.875,156.9948994119854L271.99583333333334,154.1027360127914L272.96250000000003,155.70889579344464L273.0833333333333,157.48664299232937L273.325,157.55115396044835L273.4458333333333,156.0363214696359L273.9291666666667,159.74407535741037L274.5333333333333,159.84570000946647L274.6541666666667,160.1397357661193L274.775,158.4175881579256L274.8958333333333,159.57361295939202" style="fill: none;" fill="none"></path></g></g></g></g><g opacity="0.2"><g><g><g><path stroke="rgb(255, 112, 67)" stroke-width="2px" d="M24.770833333333332,40.832181294759124L24.891666666666666,71.59755261739096L25.375,91.38885224660238L25.495833333333334,83.08271408081055L25.737499999999997,60.78114280700683L25.858333333333334,48.05683352152508L25.979166666666668,39.30358022054037L26.34166666666667,5.826071421305329L26.4625,-2.6104661305745367L26.583333333333332,14.00436782836914L27.066666666666666,5.254577509562182L28.154166666666665,44.94397468566896L28.275000000000002,10.197463989257812L28.516666666666666,9.061255009969074L29,8.41908683776856L29.241666666666667,17.24403292338053L29.483333333333334,42.61978174845379L29.604166666666668,38.42494468688963L29.845833333333335,43.69284222920734L30.0875,53.589083353678376L30.208333333333336,67.26434338887533L30.570833333333336,67.9980655670166L30.691666666666666,68.00180015563964L30.8125,48.13901710510254L30.933333333333334,74.0816764831543L31.054166666666667,54.92070185343424L31.416666666666668,70.48748575846354L31.5375,93.76513703664143L31.77916666666667,61.62560119628907L32.020833333333336,10.146424611409515L32.141666666666666,56.76962877909342L32.2625,51.719186147054046L32.38333333333333,26.947071329752617L32.74583333333333,60.58422813415527L32.86666666666667,66.95768839518229L32.987500000000004,39.13550109863283L33.108333333333334,42.57715085347493L33.7125,20.845794677734375L34.31666666666666,5.678011957804358L34.4375,19.527201970418304L34.55833333333334,22.51859614054362L34.67916666666667,40.626699701945L34.8,33.73893000284832L34.920833333333334,44.60602836608885L35.525,24.6695494333903L36.49166666666667,23.066154734293633L36.854166666666664,-4.792235438028939L36.975,35.83351364135743L37.82083333333333,37.1518347422282L38.18333333333333,33.300274276733404L38.425000000000004,35.85877304077147L38.54583333333333,30.777061716715508L38.666666666666664,14.034402974446607L39.150000000000006,18.257113647460955L39.27083333333333,10.346123250325519L39.391666666666666,-16.020298767089855L39.875,-16.365046564737924L40.72083333333333,44.97820841471355L40.9625,17.60706888834636L41.204166666666666,46.17999903361002L41.324999999999996,11.348690541585285L41.44583333333333,28.227922058105463L41.56666666666667,10.138819630940759L42.05,44.64400800069174L42.29166666666667,48.47421340942381L42.65416666666667,67.99484024047851L42.775,69.70968977610269L42.895833333333336,79.55386734008789L43.137499999999996,59.33709055582682L43.25833333333333,67.89822756449381L43.37916666666667,53.101629002889L43.74166666666667,76.68794403076171L43.983333333333334,79.78237323760986L44.104166666666664,100.18558521270752L44.34583333333334,66.6967877705892L44.46666666666666,18.78028424580893L44.829166666666666,61.492661158243806L45.43333333333334,57.194183603922525L45.55416666666667,49.07404492696125L45.675,66.90303891499838L45.916666666666664,50.60368715922037L46.27916666666666,41.288638559977215L46.520833333333336,10.02523155212404L46.641666666666666,46.9959726969401L46.88333333333333,17.92654596964519L47.125,24.321791330973298L47.24583333333333,42.348967488606775L48.09166666666667,36.682894897460955L49.05833333333333,24.34048690795899L49.17916666666667,-17.16379585266114L49.300000000000004,30.03666254679362L49.78333333333333,10.327970886230474L50.145833333333336,38.4235979715983L50.50833333333333,74.82029889424642L50.62916666666667,66.14147707621258L50.99166666666667,44.07837626139323L51.1125,41.22177810668947L51.35416666666667,38.12812410990398L51.474999999999994,6.553150558471685L51.59583333333333,47.120142110188795L51.8375,11.880722300211602L52.199999999999996,43.12640698750815L52.32083333333333,-19.455814743041998L52.44166666666667,8.960862477620452L52.80416666666667,26.629846318562812L53.166666666666664,52.409292856852204L53.770833333333336,32.25970471700032L54.0125,39.744363530476875L54.25416666666666,63.52534116109213L54.375,39.33733863830568L54.979166666666664,57.15396321614584L55.34166666666666,87.64680576324463L55.4625,95.88421052296957L55.583333333333336,100.93813877105713L55.704166666666666,89.37936630249023L55.94583333333333,69.34240430196127L56.42916666666667,80.17307910919189L56.67083333333333,102.32611560821533L56.9125,62.720933405558284L57.15416666666667,65.6028928120931L57.75833333333333,80.42777239481607L58,66.88281555175782L58.483333333333334,58.950866190592464L59.0875,30.095159784952813L59.329166666666666,33.62314643859864L59.449999999999996,46.051382064819336L60.05416666666667,66.36619745890299L60.175,58.65636558532715L60.295833333333334,49.42558288574219L60.537499999999994,33.232621637980145L60.65833333333333,54.06494916280111L60.77916666666667,46.07796554565428L61.262499999999996,46.38114624023436L61.38333333333333,29.372980880737288L61.625,43.505841191609704L61.9875,18.7919859568278L62.47083333333334,60.016876220703125L62.59166666666666,26.52296918233236L62.7125,39.00374933878581L62.833333333333336,56.130436960856116L63.075,68.81301504770914L63.4375,45.8496011098226L63.55833333333334,59.6013636271159L63.67916666666667,46.85794003804526L64.04166666666667,27.79829724629721L64.1625,19.330275980631512L64.40416666666667,9.502581532796228L65.12916666666666,34.298178990681976L65.37083333333332,33.38412144978841L65.73333333333333,66.8183090209961L65.85416666666667,38.590104039510095L66.09583333333333,25.176785786946624L66.21666666666667,54.65913352966308L66.82083333333333,63.80360196431478L66.94166666666666,53.92392883300781L67.18333333333334,73.82912775675457L67.425,55.27040646870931L67.54583333333333,78.35760504404703L67.66666666666667,71.42043126424154L68.02916666666667,106.2607027689616L68.14999999999999,106.74290606180827L68.5125,94.28984673817952L68.63333333333333,91.24668324788412L68.875,95.06247088114421L68.99583333333334,99.00538730621338L69.2375,97.05178438822428L69.72083333333333,69.96702556610107L69.84166666666667,64.75132738749186L69.96249999999999,59.76786969502767L70.20416666666667,85.68362871805826L70.325,88.51321900685629L70.80833333333334,74.69860223134357L70.92916666666667,74.36102937062581L71.05,68.10868860880534L71.29166666666666,74.40721378326415L71.4125,55.71920216878256L71.53333333333333,63.80110092163086L71.65416666666667,58.51657880147299L72.74166666666667,73.31071027119955L72.8625,65.29792404174805L73.46666666666667,57.82511405944824L74.3125,59.51910082499185L74.43333333333332,23.635091018676775L74.91666666666667,66.95221099853515L75.0375,76.50156542460125L75.15833333333333,67.72252082824707L75.4,69.57604242960612L75.64166666666667,83.71219596862792L76.125,74.68838303883871L77.21249999999999,72.65231361389161L77.33333333333333,66.15432179768881L77.45416666666667,33.207373555501306L77.575,46.84012718200685L77.9375,71.86150315602619L78.30000000000001,87.18522192637126L78.6625,54.46040814717611L79.50833333333334,102.0566593805949L79.62916666666668,91.05902016957602L79.75,105.22795886993408L79.87083333333332,99.9207576115926L80.1125,99.7764383951823L80.23333333333333,105.6794989267985L80.59583333333333,119.5269206682841L80.71666666666667,117.96436030069987L80.8375,102.02666384379069L81.07916666666667,115.34515183766683L81.32083333333333,110.43387921651204L81.44166666666666,121.31935345331829L81.925,92.94652652740479L82.77083333333333,84.21182734171549L83.13333333333334,76.91549930572509L83.25416666666668,93.59946276346842L83.49583333333332,91.24397850036621L83.7375,87.64909178415934L84.1,62.24297396341959L85.42916666666666,57.222543843587246L85.79166666666667,90.5583589553833L85.91250000000001,88.30869369506836L86.03333333333335,80.19266306559244L86.27499999999999,82.73016891479492L86.51666666666667,91.00615876515707L86.6375,79.16256732940674L86.87916666666666,71.40051345825195L87.48333333333333,65.62316144307455L87.60416666666666,75.51075077056885L88.32916666666667,91.88165950775146L88.57083333333334,85.29398663838705L88.69166666666668,79.39864991505941L88.8125,68.70212039947509L88.93333333333332,83.5394090016683L89.05416666666666,69.73490390777587L89.175,85.91505438486735L89.29583333333333,94.75041205088297L89.41666666666667,77.331787109375L89.53750000000001,87.2087215423584L89.65833333333333,100.05969562530517L89.9,96.43911946614584L90.2625,90.22856082916259L90.38333333333333,92.1193151473999L90.50416666666666,86.89974657694498L90.74583333333334,82.31732711791992L91.22916666666667,89.44365781148275L91.47083333333333,77.86837959289551L91.71249999999999,95.1004674911499L92.19583333333334,107.3242400487264L92.31666666666668,116.70934896469116L92.4375,110.6205011367798L92.67916666666666,112.70871899922689L92.92083333333333,108.67558962504069L93.1625,130.93724040985109L93.40416666666667,111.73292757670085L93.525,108.36790479024252L93.88749999999999,112.61647466023763L94.12916666666666,115.83407173156738L94.25,124.58271055221557L94.37083333333334,105.85589599609375L94.49166666666666,115.29393138885499L94.6125,100.36178423563639L94.73333333333333,102.05544846852621L94.97500000000001,106.79757817586263L95.09583333333335,100.07868544260661L95.7,94.87161642710367L95.82083333333334,103.0134157180786L96.0625,101.76805489857992L96.18333333333334,98.26147988637288L96.30416666666667,94.19533335367838L96.66666666666666,82.488116645813L96.90833333333333,83.73224957784018L97.15,110.57504100799561L97.39166666666667,107.17371349334717L97.63333333333334,110.61375624338785L97.875,108.63217786153157L97.99583333333332,92.58237018585204L98.11666666666666,93.25036926269532L98.47916666666667,109.30320421854655L98.9625,98.82574793497722L99.08333333333333,106.0554588317871L99.325,83.51081676483155L99.6875,104.90100129445393L100.17083333333333,109.31622435251872L100.77499999999999,115.86485096613566L101.62083333333332,77.9698528925578L101.74166666666666,101.81251347859701L101.98333333333333,87.59136409759522L102.10416666666667,95.267347017924L102.225,106.69225145975749L102.34583333333333,116.56513160069784L102.46666666666667,97.4289099375407L102.5875,97.01104907989502L102.82916666666667,105.88987509409587L102.94999999999999,101.00308666229249L103.43333333333334,106.36462618509928L103.55416666666666,84.0902551651001L104.03750000000001,81.18352864583333L104.39999999999999,115.74755376180013L104.64166666666667,114.20335795084634L104.7625,112.36914304097493L104.88333333333334,111.11928939819336L105.24583333333334,116.79124113718669L105.36666666666667,127.68609711329142L105.48750000000001,128.61877384185792L105.60833333333333,132.24798199335734L105.72916666666666,128.8217430750529L105.97083333333333,122.47488044102988L106.09166666666667,120.45946442286174L106.2125,120.94444602330526L106.45416666666667,129.06827402114868L106.575,123.7664228439331L106.69583333333334,127.13938728968303L106.81666666666668,140.89037459691366L106.9375,113.86069812774657L107.05833333333332,125.77262687683105L107.3,107.07401129404704L107.42083333333333,129.12146078745525L107.78333333333333,115.82261333465576L108.26666666666667,105.95186926523844L108.62916666666666,114.87349592844646L108.75,107.7702008565267L108.87083333333334,114.86160748799642L109.1125,116.58010673522949L109.35416666666667,114.71483249664307L109.475,106.3966474533081L109.71666666666667,122.24967060089111L109.95833333333333,122.92769648234048L110.44166666666668,122.58705673217773L110.925,120.15268494288125L111.04583333333333,130.0903715133667L111.2875,108.23404242197672L111.40833333333333,121.67417898178101L111.52916666666667,129.85378815333047L111.65,125.63621253967285L111.77083333333334,122.00909519195557L112.25416666666666,126.93065490722657L112.375,122.46997737884521L113.10000000000001,111.00447909037273L113.34166666666665,127.83703956604003L113.46249999999999,123.89240862528482L113.58333333333333,107.08694089253744L113.70416666666667,118.14564628601075L113.94583333333334,120.42206195195516L114.30833333333334,123.34884490966797L114.42916666666667,126.37820173899331L114.79166666666666,138.2539841969808L114.9125,139.23652334213256L115.03333333333333,129.8219451268514L115.275,129.16786022186278L115.51666666666667,136.69060901006063L115.87916666666668,141.02052359580995L116.24166666666666,120.92452538808186L116.60416666666667,118.17191006342568L116.72500000000001,126.46146326065063L116.84583333333333,134.29067465464274L117.0875,122.85508419672647L117.20833333333333,136.70431381861368L117.32916666666667,134.2930908203125L117.57083333333333,131.42888202667237L117.69166666666666,134.94954662323L117.8125,133.56900784174601L118.41666666666667,135.92853790918986L118.89999999999999,135.16093848546348L119.02083333333333,141.42272040049235L119.2625,144.7077805519104L119.50416666666668,134.45589907964072L119.74583333333332,132.11591901779175L119.86666666666666,131.2542815208435L119.9875,134.70241587956747L120.10833333333333,135.04942423502604L120.22916666666667,134.7895025253296L120.35,137.8983947753906L120.59166666666667,145.41810638109843L120.83333333333334,136.1292013168335L121.07499999999999,142.51079421043397L121.4375,132.615278784434L121.67916666666666,133.59545551935832L121.8,130.0304398536682L121.92083333333333,132.02306073506674L122.40416666666665,138.04603551228843L122.64583333333333,143.23788607915242L122.76666666666667,144.3117783546448L123.00833333333334,136.19181509017943L123.37083333333334,145.12929253578187L123.85416666666666,141.45619730949403L124.21666666666667,142.9420910994212L124.57916666666667,145.1806728363037L124.7,138.72418588002523L124.94166666666668,141.33029357592264L125.18333333333332,144.25162177085878L125.425,144.52120672861736L126.02916666666667,145.50566550890605L126.27083333333333,143.18812551498414L126.39166666666667,140.98324419657388L126.5125,141.10045510927836L126.63333333333333,143.12241231600444L126.99583333333334,143.01021480560303L127.72083333333333,141.56097798347474L127.96249999999999,146.5892606417338L128.08333333333334,150.33527936935425L128.20416666666665,150.0101226011912L128.325,146.5968415737152L128.44583333333333,148.14634927113852L128.92916666666667,147.3196089585622L129.17083333333335,140.9298721154531L129.29166666666669,142.33686423301697L129.65416666666667,145.08763914108278L129.775,150.6437026341756L129.89583333333334,153.5281234741211L130.01666666666665,154.74743836720785L130.1375,147.0713649113973L130.37916666666666,150.71214462916055L130.5,149.84521646499633L130.62083333333334,151.48221892515818L130.74166666666665,153.1802939335505L130.98333333333332,149.37314041455588L131.34583333333333,153.04523479938507L131.5875,154.0672000249227L131.70833333333334,155.29046240647634L131.95000000000002,155.64577809969583L132.07083333333335,153.68333241144816L132.43333333333334,152.0695820093155L132.79583333333335,153.25715714295706L132.91666666666666,152.92913789749144L133.7625,150.91204838752748L133.88333333333333,150.53082186381022L134.00416666666666,150.87492459615072L134.125,150.21265330314637L134.24583333333334,149.7081542332967L134.36666666666667,151.82882340749106L134.4875,152.23879919052123L134.72916666666666,151.33533430099487L134.85,151.44880355199177L134.97083333333333,148.22457192738852L135.33333333333334,150.953506565094L135.45416666666668,150.4834336121877L135.57500000000002,149.27250315348306L135.69583333333333,150.67953912417093L135.9375,155.98652677536012L136.6625,152.40742859840392L136.78333333333333,152.12135486602784L137.14583333333334,150.90848213831583L137.99166666666667,155.52198780377705L138.35416666666669,155.77487886746724L138.8375,152.94462158679963L139.2,150.78680245081583L139.32083333333333,151.72972807884216L139.44166666666666,151.6141086101532L139.68333333333334,151.30348490873973L139.80416666666665,152.52626349131265L139.92499999999998,149.6245263258616L140.2875,148.26403549512227L140.40833333333333,149.95360299746196L140.65,155.10820104281106L140.89166666666668,157.59720887343087L141.01250000000002,159.37693309386572L141.25416666666666,154.60190823872884L141.49583333333334,158.02228215535482L141.61666666666667,154.9947240114212L141.85833333333335,157.24232039451599L142.1,156.8477023998896L142.22083333333333,157.8238389889399L142.34166666666667,158.02411938905715L142.4625,158.69974749485652L142.825,156.67822209993997L142.94583333333333,157.56869090398152L143.06666666666666,158.39392075936L143.42916666666667,156.30059577624002L143.55,154.6453978061676L144.51666666666668,156.33017258644105L144.87916666666666,151.8933426698049L145,150.07934122085572L145.24166666666667,153.197953303655L145.48333333333335,154.53796826203666L145.60416666666666,152.03496774832408L145.96666666666667,156.89375313123068L146.0875,155.0676857074102L146.32916666666668,156.61646982828776L146.45,156.09410485426585L146.57083333333333,157.1450463851293L146.69166666666666,156.51657665570576L147.05416666666667,153.74545389811198L148.02083333333331,153.6764340321223L148.2625,156.76031231880188L148.50416666666666,156.75507045586903L148.74583333333334,155.71701679229736L148.86666666666665,156.41842629114785L148.9875,157.66045851707457L149.22916666666666,157.92211383978525L149.47083333333333,158.26821295022964L149.59166666666667,156.34037197430928L149.7125,158.18399656216303L150.075,157.65160407622656L150.19583333333335,156.987282649676L150.31666666666666,158.22377665042876L150.92083333333332,159.4904515028L151.1625,157.35495360692343L151.28333333333333,157.97338486115137L151.64583333333334,156.94265077908835L151.88750000000002,156.3349200407664L152.6125,156.70358122984567L152.73333333333332,157.15204732418061L152.975,155.43190004825593L153.21666666666667,156.43302938143412L153.70000000000002,155.46969719727835L153.9416666666667,158.17513469457626L154.1833333333333,158.50305491685867L154.42499999999998,158.33928118149439L154.66666666666666,157.9117379784584L154.90833333333333,159.26832658847172L155.02916666666667,159.0027531305949L155.15,156.73033305009207L155.27083333333334,156.7020449558894L155.39166666666668,157.51293448607126L156.11666666666667,157.00912645657857L156.23749999999998,157.10132128397623L156.9625,159.88294332822164L157.20416666666668,159.55635037024817L157.44583333333335,157.37244251569112L157.56666666666666,157.93698924382528L157.6875,157.4457101225853L158.775,157.81422843535742L159.01666666666668,156.2731338183085L159.37916666666666,149.02201835314432L159.74166666666665,154.3464949131012L159.8625,155.31627350648245L160.10416666666669,153.8662452061971L160.225,154.28926234245301L160.34583333333333,152.5431441148122L160.46666666666667,152.6424268802007L160.70833333333334,154.84982975323996L160.82916666666665,157.49744054079056L161.07083333333333,158.72805751562117L161.19166666666666,158.79976267814635L161.3125,158.70608179569246L161.675,159.37819988330205L161.79583333333332,159.80455657641093L162.0375,158.96996690829596L163.0041666666667,158.0665709813436L163.125,159.0728990316391L163.2458333333333,158.0428697824478L163.36666666666667,158.86577436129252L163.72916666666666,157.69260144233704L163.85,156.25516818364463L163.97083333333333,155.92921993732452L164.33333333333334,158.65643829107285L164.45416666666668,157.7560862660408L164.575,159.27849980592728L164.9375,159.26954740285873L166.3875,157.1897574742635L166.75,154.62811118761698L166.99166666666665,158.14619340101876L167.1125,159.2757087667783L167.35416666666666,158.0394842505455L167.475,158.78151482741038L167.8375,158.24730420509974L168.2,160.57217014630635L168.32083333333335,158.7352777202924L168.44166666666666,158.00695725679398L168.5625,158.17108075618745L168.68333333333334,157.86700248718262L168.80416666666665,159.26069190104803L168.925,160.05659851630529L169.04583333333332,159.84361131985983L169.2875,159.76333357890448L169.52916666666667,160.16948459148406L169.64999999999998,160.2778905749321L169.89166666666665,153.4470913887024L170.13333333333333,158.35618939002356L170.375,155.07038762569428L170.49583333333334,157.8127208073934L170.61666666666667,157.4471636414528L170.7375,158.17586145401L170.85833333333332,158.73208634456L170.97916666666666,158.21003329356512L172.0666666666667,151.57081850369772L172.1875,152.86678016980488L172.42916666666667,157.5004310409228L172.54999999999998,157.06633285681406L173.03333333333333,154.39715234438577L173.15416666666667,156.26432216962178L173.275,157.52734094460806L173.51666666666668,158.20709478060405L173.87916666666666,159.3525122086207L174.24166666666667,158.763523375988L174.48333333333335,156.58681945800782L174.72500000000002,153.03613669077555L174.84583333333333,152.6479672273L175.0875,158.464375046889L175.20833333333331,153.436625345548L175.57083333333335,156.07413541475933L175.69166666666666,158.41253358125687L175.8125,158.17243772745132L176.05416666666665,158.96576089859008L176.175,158.97998663981755L176.29583333333332,156.92675755818686L176.5375,155.9128386735916L176.65833333333333,154.02436683972678L176.77916666666667,152.9852359453837L176.9,151.79655458132424L177.02083333333334,154.67348856131235L177.14166666666668,155.84593790372213L177.74583333333334,153.7153331677119L177.86666666666665,152.2617534716924L178.10833333333332,155.1688442548116L178.59166666666667,157.6987918059031L178.71249999999998,156.29579102993011L178.95416666666665,154.7795303662618L179.4375,157.46978584130605L179.67916666666667,159.5735920747121L179.92083333333332,160.13704353570938L180.1625,160.00754313866298L180.28333333333333,158.23388974666597L180.40416666666667,158.16902814706168L180.525,157.92930009365082L180.76666666666665,159.83144561449686L181.1291666666667,159.36238481998444L181.25,159.79801680246987L181.49166666666667,160.27587669094405L181.61249999999998,159.58102553288143L181.73333333333335,160.2934517145157L181.975,160.094686015447L182.45833333333334,157.92800819476446L182.7,158.23903895219166L182.82083333333333,158.1387755036354L183.0625,155.93377712567647L183.18333333333334,158.20680973529815L183.54583333333335,157.2175398429235L183.66666666666666,156.0730893055598L184.27083333333331,155.1715376853943L184.39166666666668,156.6512099901835L184.5125,155.70054357846578L184.63333333333335,157.62462167342505L184.875,159.05936433076857L185.11666666666665,157.19885275363922L185.2375,157.55706558227538L185.35833333333332,156.80892350673676L185.47916666666666,156.33464631239573L185.6,154.8023997704188L185.72083333333333,156.11943074067435L186.08333333333334,158.52989762624105L186.44583333333335,159.6936827937762L186.6875,159.7871956904729L187.05,159.09328825871148L187.17083333333332,158.40166048208872L187.29166666666669,158.8093403418859L187.4125,158.24344972769418L187.89583333333334,157.98652912775674L188.37916666666666,160.22157149314882L188.62083333333334,160.09568332036338L188.74166666666667,159.1341247121493L189.225,158.35886054039003L189.34583333333333,157.39336894353232L189.70833333333334,158.76171797116598L190.07083333333333,156.7471415281296L190.3125,154.74585682551066L190.55416666666667,154.759739168485L190.67499999999998,156.45759278933207L190.79583333333335,158.3425620317459L191.15833333333333,160.01318639914194L191.4,159.24227288166682L191.52083333333334,158.66691423654555L191.7625,157.66081747611364L191.88333333333333,158.37483297983806L192.00416666666666,158.372537056605L192.24583333333334,159.90815074046452L192.36666666666667,159.6473625779152L192.72916666666666,161.13750340143838L193.33333333333331,159.74515115420024L194.78333333333333,160.27593981822332L194.90416666666667,158.7643470366796L195.025,156.79487494627634L195.14583333333334,159.34284330209096L195.62916666666666,159.50976031621298L195.99166666666665,156.98471441268921L196.1125,157.1213671127955L196.35416666666669,158.78350872993468L196.475,158.81087237199148L196.59583333333333,156.45937025547028L196.71666666666667,156.93134303887686L197.20000000000002,154.10290778477986L197.32083333333333,154.26960694789886L197.44166666666666,154.07423350016276L197.68333333333334,154.45645662148794L197.80416666666667,154.3081000884374L197.925,157.09768218199412L198.16666666666666,155.85886113643647L198.40833333333333,159.017990676562L199.13333333333333,157.97919610738754L199.375,158.97894937197367L199.97916666666666,157.5976141611735L200.1,157.8733569463094L201.1875,154.50682971477508L201.30833333333334,154.41066900889078L201.79166666666666,158.09259887139L202.275,156.59925323327383L202.6375,158.79816557566323L203,148.2971262137095L203.12083333333334,150.23596618970237L203.24166666666665,155.1248496691386L203.60416666666666,158.31023131608964L203.725,159.97905593713125L204.0875,155.69760612646738L204.32916666666668,155.6687309662501L204.45,157.40699488719304L204.57083333333335,158.4876278122266L205.41666666666669,156.86110943158468L205.5375,159.00092827479045L205.65833333333333,158.4698630531629L205.77916666666667,159.2984055876732L206.02083333333334,160.20748792092004L206.14166666666665,160.08366827170053L206.26250000000002,160.87934147516887L206.38333333333333,160.28620799183847L206.50416666666666,160.87703600327174L206.625,159.99245801766713L206.74583333333334,159.4618214249611L206.86666666666667,160.03280961116155L206.9875,160.2199054280917L207.35,158.87058441241584L207.59166666666667,158.55400446653366L208.19583333333333,157.51297515630722L208.3166666666667,158.14074076016743L208.4375,158.70576421419779L208.67916666666667,157.5237746953964L209.525,152.49295987288156L209.76666666666668,155.09509178797404L210.37083333333334,155.798580066363L210.49166666666667,156.8366450468699L210.97500000000002,159.70953180789948L211.21666666666667,159.4064642826716L211.3375,158.10339310566584L211.57916666666668,157.97015175422032L211.7,158.5796878973643L211.94166666666666,159.3968084613482L212.0625,157.35845230817796L212.7875,157.45182727972667L212.90833333333333,157.62095286448798L213.02916666666667,157.81338072617848L213.63333333333335,159.58541897932687L213.75416666666666,158.84004318714142L214.84166666666667,156.35148732662202L214.96249999999998,155.78370678424835L215.32500000000002,155.38351236979167L215.44583333333333,156.11377580960593L215.56666666666666,152.64664456049601L215.80833333333334,156.58310255209605L216.05,158.14126558303832L216.29166666666666,157.97952182292937L216.65416666666667,157.113809521993L216.775,156.84679633776346L217.01666666666665,158.96054803530376L217.13750000000002,159.8841362039248L217.3791666666667,159.28098493417104L217.6208333333333,160.4037989060084L217.74166666666667,160.57890602151554L217.98333333333335,159.40365662177405L218.10416666666666,158.47824395100275L218.5875,158.8987207889557L218.70833333333334,159.326524635156L218.95,158.27905492782594L219.07083333333333,160.07366410096486L219.19166666666666,159.78715643485387L219.3125,160.3061677058538L219.67499999999998,160.01592439015707L219.79583333333335,160.84951250950496L219.91666666666666,159.77545401652654L220.4,160.09257257779439L220.64166666666668,159.55567489067712L220.7625,158.39361060460408L220.88333333333335,159.17626084486642L221.125,157.85831284920374L221.36666666666665,157.46241427262623L221.60833333333332,157.73411585092543L221.85,155.8521473646164L221.97083333333333,156.64067675272622L222.09166666666667,155.11567870775858L222.33333333333334,156.40052219231924L222.45416666666668,158.55959008137384L222.575,158.83210718631744L222.69583333333335,158.57730638980865L222.81666666666666,158.60831231673558L222.9375,156.73443473180134L223.17916666666665,157.16385371685027L223.3,155.14742129643759L223.6625,156.22926018238067L223.78333333333333,157.78372894128165L224.02499999999998,157.80703369379043L224.14583333333334,156.6623027086258L224.50833333333333,157.80313324133556L224.62916666666666,154.2818327744802L224.75,157.43896911938987L224.87083333333334,158.33264203071593L225.23333333333332,158.14512677987418L225.71666666666667,159.26722637017568L225.95833333333334,159.52731288274128L226.07916666666665,159.33483657042186L226.20000000000002,159.28265382846197L226.5625,158.00128535032272L226.6833333333333,159.39189160664876L226.92499999999998,157.15477753480275L227.40833333333333,157.78738466501235L227.52916666666667,154.99711825052896L227.65,156.6350352605184L227.77083333333334,155.75672862529754L228.0125,148.48148191769917L228.49583333333334,157.5570807894071L228.61666666666667,158.22025354703268L228.85833333333335,156.87451717058818L228.97916666666666,157.23054653803507L229.10000000000002,154.73750280539196L229.22083333333333,155.21973085403442L229.4625,155.70351356665293L229.825,158.22709180514016L229.94583333333335,154.9496755361557L230.06666666666666,156.37834877967833L230.1875,158.64329932928086L230.30833333333334,159.40275020599364L230.67083333333332,158.4444943745931L230.79166666666666,158.71294374863305L231.39583333333334,159.22327104012172L231.6375,160.11464732090633L231.75833333333335,159.68652306397757L231.87916666666666,160.21835359334946L232.3625,159.76139802932738L232.725,158.69551460742952L232.96666666666667,158.908345135053L233.32916666666665,157.85424794753393L233.45000000000002,157.00199608008066L233.57083333333333,156.9809197028478L233.69166666666666,158.418501496315L233.8125,159.00393362840018L234.05416666666667,159.45506486097972L234.175,158.45091143051783L234.29583333333332,156.48856582641602L234.65833333333333,153.90784838199616L234.77916666666667,155.88955620129903L235.02083333333334,157.26713383595148L235.14166666666665,156.24635936419168L235.26250000000002,156.27923293908438L235.625,154.59170389970143L235.86666666666667,154.15090856552123L235.98749999999998,157.64073734283448L236.10833333333335,158.12527404626212L236.22916666666666,158.66533658504486L237.075,158.27700231870017L237.19583333333333,157.6104709068934L237.55833333333334,158.2609400510788L238.16250000000002,158.98660421768824L238.64583333333331,160.41823648611705L238.8875,158.92191767692566L239.37083333333334,157.06100470225016L239.49166666666665,156.18654370307922L239.73333333333332,156.57421309947966L240.21666666666667,157.81719028949738L240.3375,155.27983934084574L240.45833333333334,153.39101385275524L240.7,153.14926714102427L240.82083333333335,156.73056151072183L240.94166666666666,158.14937558174134L241.425,157.8099099636078L241.66666666666669,157.38108087380726L241.90833333333333,155.48419489860535L242.14999999999998,158.41531224250792L242.27083333333334,159.0786777416865L242.51250000000002,157.549222946167L242.99583333333334,158.51091629664103L243.2375,158.96333164771397L243.35833333333332,159.75020840962728L243.72083333333333,158.81119384368262L244.08333333333334,161.25287000735602L244.5666666666667,159.5833663702011L244.8083333333333,159.31942396561305L244.92916666666667,159.18424847920735L245.29166666666666,154.75809184710184L245.775,155.45295379161834L245.89583333333334,158.8708305557569L246.01666666666668,157.95590337912242L246.1375,157.83414977788925L246.5,157.9911634127299L246.62083333333334,156.8587908744812L246.74166666666667,155.95615424315133L246.98333333333335,156.53539884090424L247.10416666666666,156.4047780672709L247.22500000000002,153.4649622440338L247.46666666666667,154.10676261583964L247.5875,155.63712488810222L247.95,154.98093008200328L248.07083333333335,155.63660006523133L248.3125,154.7384626229604L248.55416666666665,158.38561271429063L248.675,158.14167935848235L248.79583333333332,157.44865783055624L249.64166666666668,156.1422704378764L249.7625,157.21775274276735L249.88333333333335,156.86458938916525L250.00416666666666,157.34918550650278L250.72916666666669,158.36256330013276L250.85,159.6025924285253L250.97083333333333,159.85442288319268L251.09166666666667,160.3871654868126L251.21249999999998,159.52075507243475L251.45416666666665,158.59809347788493L251.81666666666666,160.00460285743077L252.17916666666667,156.95283814271292L252.6625,157.20683826605477L252.78333333333333,157.34200491110482L252.90416666666667,156.4909204562505L253.025,156.1145870923996L253.38750000000002,155.54767158826192L253.50833333333333,157.83621016740798L253.99166666666667,155.10004365444183L254.35416666666666,158.21905961036683L254.475,156.7160659313202L254.8375,161.0492417395115L254.95833333333334,160.7469246685505L255.07916666666668,160.0386371254921L255.2,160.0267310023308L255.32083333333333,160.30312557220458L255.68333333333334,159.9680862903595L255.80416666666667,159.91665400266646L255.92499999999998,160.2780076344808L256.04583333333335,160.06449702978134L256.5291666666667,158.18294974565507L256.65,160.33274411360424L256.7708333333333,160.3566368162632L257.1333333333333,159.89349672396978L257.375,160.69872814019521L257.49583333333334,158.3491092324257L257.6166666666667,158.82879875103632L257.85833333333335,160.43608223199845L257.97916666666663,160.06336356798806L258.1,158.44602499008178L258.3416666666667,158.22760778665543L258.4625,159.45460546414057L259.06666666666666,158.48826474348704L259.30833333333334,153.58456032276155L259.4291666666667,155.39943176110586L259.67083333333335,157.0644167582194L260.0333333333333,158.09712706009546L260.275,159.08150449991226L260.3958333333333,158.8090001265208L260.51666666666665,158.28314741452536L260.7583333333333,158.3723549246788L261,158.2684686422348L261.12083333333334,160.2219311594963L261.2416666666667,158.87109933296838L261.72499999999997,160.2637978076935L261.84583333333336,160.71497925917308L262.08750000000003,160.80643300414084L262.32916666666665,159.5123731136322L262.93333333333334,158.25738016764322L263.4166666666667,160.97274208664894L263.53749999999997,160.09582266012828L263.65833333333336,160.4489906112353L263.77916666666664,159.69770278135934L265.2291666666667,158.89431779384614L265.4708333333333,157.9045432368914L265.7125,158.04864495595297L265.95416666666665,159.9969961086909L266.075,160.06289426883063L266.1958333333333,159.0614604393641L266.31666666666666,159.34559862216315L266.4375,159.45495381355286L266.55833333333334,157.36649086872737L266.6791666666667,158.03789280653L266.8,156.72671163082123L266.92083333333335,156.20474062760672L267.04166666666663,155.01910917758943L267.1625,157.63705827792487L267.4041666666667,159.74608869155247L267.525,158.42471201817193L267.64583333333337,158.47597172260285L267.8875,159.2548675696055L268.12916666666666,158.49332977930703L268.4916666666667,159.66865680615106L268.8541666666667,158.5696158250173L269.0958333333333,158.12601884206137L269.2166666666667,159.82011453310648L269.4583333333333,159.96646796862285L269.8208333333333,160.8866819222768L270.0625,159.2628849109014L270.18333333333334,155.99418268203735L270.425,158.9760989189148L270.6666666666667,156.58251407146454L270.78749999999997,159.5467157681783L270.90833333333336,159.85440378586452L271.15000000000003,159.14209501743318L271.2708333333333,158.11184862454732L271.5125,156.91587420304617L271.6333333333333,156.93227951526643L271.875,157.0008389234543L271.99583333333334,153.7525637626648L272.96250000000003,155.90336356957755L273.0833333333333,157.7018859267235L273.325,157.55896470546722L273.4458333333333,155.85291125774384L273.9291666666667,160.1929962317149L274.5333333333333,159.85800433953602L274.6541666666667,160.1753365079562L274.775,158.2090770125389L274.8958333333333,159.71358008782067" style="fill: none;" fill="none"></path></g></g></g></g></g></g><g transform="translate(40, 178)" clip-path="url(#clip_1)"><clipPath id="clip_1"><rect width="290" height="22"></rect></clipPath><g><g><line x1="0" y1="0" x2="0" y2="5" style="visibility: inherit;" fill="rgb(0, 0, 0)" stroke="rgb(204, 204, 204)" stroke-width="1px"></line><line x1="24.166666666666664" y1="0" x2="24.166666666666664" y2="5" style="visibility: inherit;" fill="rgb(0, 0, 0)" stroke="rgb(204, 204, 204)" stroke-width="1px"></line><line x1="48.33333333333333" y1="0" x2="48.33333333333333" y2="5" style="visibility: inherit;" fill="rgb(0, 0, 0)" stroke="rgb(204, 204, 204)" stroke-width="1px"></line><line x1="72.5" y1="0" x2="72.5" y2="5" style="visibility: inherit;" fill="rgb(0, 0, 0)" stroke="rgb(204, 204, 204)" stroke-width="1px"></line><line x1="96.66666666666666" y1="0" x2="96.66666666666666" y2="5" style="visibility: inherit;" fill="rgb(0, 0, 0)" stroke="rgb(204, 204, 204)" stroke-width="1px"></line><line x1="120.83333333333334" y1="0" x2="120.83333333333334" y2="5" style="visibility: inherit;" fill="rgb(0, 0, 0)" stroke="rgb(204, 204, 204)" stroke-width="1px"></line><line x1="145" y1="0" x2="145" y2="5" style="visibility: inherit;" fill="rgb(0, 0, 0)" stroke="rgb(204, 204, 204)" stroke-width="1px"></line><line x1="169.16666666666669" y1="0" x2="169.16666666666669" y2="5" style="visibility: inherit;" fill="rgb(0, 0, 0)" stroke="rgb(204, 204, 204)" stroke-width="1px"></line><line x1="193.33333333333331" y1="0" x2="193.33333333333331" y2="5" style="visibility: inherit;" fill="rgb(0, 0, 0)" stroke="rgb(204, 204, 204)" stroke-width="1px"></line><line x1="217.5" y1="0" x2="217.5" y2="5" style="visibility: inherit;" fill="rgb(0, 0, 0)" stroke="rgb(204, 204, 204)" stroke-width="1px"></line><line x1="241.66666666666669" y1="0" x2="241.66666666666669" y2="5" style="visibility: inherit;" fill="rgb(0, 0, 0)" stroke="rgb(204, 204, 204)" stroke-width="1px"></line><line x1="265.8333333333333" y1="0" x2="265.8333333333333" y2="5" style="visibility: inherit;" fill="rgb(0, 0, 0)" stroke="rgb(204, 204, 204)" stroke-width="1px"></line><line x1="290" y1="0" x2="290" y2="5" style="visibility: inherit;" fill="rgb(0, 0, 0)" stroke="rgb(204, 204, 204)" stroke-width="1px"></line></g><g transform="translate(0, 8)"><text x="0" y="0" dx="0em" dy="0.95em" style="text-anchor: middle; visibility: hidden; font-family: &quot;Helvetica Neue&quot;, sans-serif; font-size: 12px; font-weight: 200;" fill="rgb(50, 49, 63)" stroke="none" stroke-width="1px">-200</text><text x="24.166666666666664" y="0" dx="0em" dy="0.95em" style="text-anchor: middle; visibility: inherit; font-family: &quot;Helvetica Neue&quot;, sans-serif; font-size: 12px; font-weight: 200;" fill="rgb(50, 49, 63)" stroke="none" stroke-width="1px">0</text><text x="48.33333333333333" y="0" dx="0em" dy="0.95em" style="text-anchor: middle; visibility: hidden; font-family: &quot;Helvetica Neue&quot;, sans-serif; font-size: 12px; font-weight: 200;" fill="rgb(50, 49, 63)" stroke="none" stroke-width="1px">200</text><text x="72.5" y="0" dx="0em" dy="0.95em" style="text-anchor: middle; visibility: inherit; font-family: &quot;Helvetica Neue&quot;, sans-serif; font-size: 12px; font-weight: 200;" fill="rgb(50, 49, 63)" stroke="none" stroke-width="1px">400</text><text x="96.66666666666666" y="0" dx="0em" dy="0.95em" style="text-anchor: middle; visibility: hidden; font-family: &quot;Helvetica Neue&quot;, sans-serif; font-size: 12px; font-weight: 200;" fill="rgb(50, 49, 63)" stroke="none" stroke-width="1px">600</text><text x="120.83333333333334" y="0" dx="0em" dy="0.95em" style="text-anchor: middle; visibility: inherit; font-family: &quot;Helvetica Neue&quot;, sans-serif; font-size: 12px; font-weight: 200;" fill="rgb(50, 49, 63)" stroke="none" stroke-width="1px">800</text><text x="145" y="0" dx="0em" dy="0.95em" style="text-anchor: middle; visibility: hidden; font-family: &quot;Helvetica Neue&quot;, sans-serif; font-size: 12px; font-weight: 200;" fill="rgb(50, 49, 63)" stroke="none" stroke-width="1px">1k</text><text x="169.16666666666669" y="0" dx="0em" dy="0.95em" style="text-anchor: middle; visibility: inherit; font-family: &quot;Helvetica Neue&quot;, sans-serif; font-size: 12px; font-weight: 200;" fill="rgb(50, 49, 63)" stroke="none" stroke-width="1px">1.2k</text><text x="193.33333333333331" y="0" dx="0em" dy="0.95em" style="text-anchor: middle; visibility: hidden; font-family: &quot;Helvetica Neue&quot;, sans-serif; font-size: 12px; font-weight: 200;" fill="rgb(50, 49, 63)" stroke="none" stroke-width="1px">1.4k</text><text x="217.5" y="0" dx="0em" dy="0.95em" style="text-anchor: middle; visibility: inherit; font-family: &quot;Helvetica Neue&quot;, sans-serif; font-size: 12px; font-weight: 200;" fill="rgb(50, 49, 63)" stroke="none" stroke-width="1px">1.6k</text><text x="241.66666666666669" y="0" dx="0em" dy="0.95em" style="text-anchor: middle; visibility: hidden; font-family: &quot;Helvetica Neue&quot;, sans-serif; font-size: 12px; font-weight: 200;" fill="rgb(50, 49, 63)" stroke="none" stroke-width="1px">1.8k</text><text x="265.8333333333333" y="0" dx="0em" dy="0.95em" style="text-anchor: middle; visibility: inherit; font-family: &quot;Helvetica Neue&quot;, sans-serif; font-size: 12px; font-weight: 200;" fill="rgb(50, 49, 63)" stroke="none" stroke-width="1px">2k</text><text x="290" y="0" dx="0em" dy="0.95em" style="text-anchor: middle; visibility: hidden; font-family: &quot;Helvetica Neue&quot;, sans-serif; font-size: 12px; font-weight: 200;" fill="rgb(50, 49, 63)" stroke="none" stroke-width="1px">2.2k</text></g><line x1="0" y1="0" x2="290" y2="0" fill="rgb(0, 0, 0)" stroke="rgb(204, 204, 204)" stroke-width="1px"></line></g></g></g></g></svg>