<svg viewBox="0 0 330 200" xmlns="http://www.w3.org/2000/svg"><g><g><g><g><g><line x1="30" y1="178" x2="25" y2="178" style="visibility: inherit;" fill="rgb(0, 0, 0)" stroke="rgb(204, 204, 204)" stroke-width="1px"></line><line x1="30" y1="165.28571428571428" x2="25" y2="165.28571428571428" style="visibility: inherit;" fill="rgb(0, 0, 0)" stroke="rgb(204, 204, 204)" stroke-width="1px"></line><line x1="30" y1="152.57142857142858" x2="25" y2="152.57142857142858" style="visibility: inherit;" fill="rgb(0, 0, 0)" stroke="rgb(204, 204, 204)" stroke-width="1px"></line><line x1="30" y1="139.85714285714286" x2="25" y2="139.85714285714286" style="visibility: inherit;" fill="rgb(0, 0, 0)" stroke="rgb(204, 204, 204)" stroke-width="1px"></line><line x1="30" y1="127.14285714285714" x2="25" y2="127.14285714285714" style="visibility: inherit;" fill="rgb(0, 0, 0)" stroke="rgb(204, 204, 204)" stroke-width="1px"></line><line x1="30" y1="114.42857142857143" x2="25" y2="114.42857142857143" style="visibility: inherit;" fill="rgb(0, 0, 0)" stroke="rgb(204, 204, 204)" stroke-width="1px"></line><line x1="30" y1="101.71428571428572" x2="25" y2="101.71428571428572" style="visibility: inherit;" fill="rgb(0, 0, 0)" stroke="rgb(204, 204, 204)" stroke-width="1px"></line><line x1="30" y1="89" x2="25" y2="89" style="visibility: inherit;" fill="rgb(0, 0, 0)" stroke="rgb(204, 204, 204)" stroke-width="1px"></line><line x1="30" y1="76.28571428571429" x2="25" y2="76.28571428571429" style="visibility: inherit;" fill="rgb(0, 0, 0)" stroke="rgb(204, 204, 204)" stroke-width="1px"></line><line x1="30" y1="63.57142857142857" x2="25" y2="63.57142857142857" style="visibility: inherit;" fill="rgb(0, 0, 0)" stroke="rgb(204, 204, 204)" stroke-width="1px"></line><line x1="30" y1="50.85714285714286" x2="25" y2="50.85714285714286" style="visibility: inherit;" fill="rgb(0, 0, 0)" stroke="rgb(204, 204, 204)" stroke-width="1px"></line><line x1="30" y1="38.14285714285714" x2="25" y2="38.14285714285714" style="visibility: inherit;" fill="rgb(0, 0, 0)" stroke="rgb(204, 204, 204)" stroke-width="1px"></line><line x1="30" y1="25.428571428571445" x2="25" y2="25.428571428571445" style="visibility: inherit;" fill="rgb(0, 0, 0)" stroke="rgb(204, 204, 204)" stroke-width="1px"></line><line x1="30" y1="12.714285714285722" x2="25" y2="12.714285714285722" style="visibility: inherit;" fill="rgb(0, 0, 0)" stroke="rgb(204, 204, 204)" stroke-width="1px"></line><line x1="30" y1="0" x2="25" y2="0" style="visibility: inherit;" fill="rgb(0, 0, 0)" stroke="rgb(204, 204, 204)" stroke-width="1px"></line></g><g transform="translate(20, 0)"><text x="0" y="178" dx="0em" dy="0.3em" style="text-anchor: end; visibility: hidden; font-family: &quot;Helvetica Neue&quot;, sans-serif; font-size: 12px; font-weight: 200;" fill="rgb(50, 49, 63)" stroke="none" stroke-width="1px">43</text><text x="0" y="165.28571428571428" dx="0em" dy="0.3em" style="text-anchor: end; visibility: inherit; font-family: &quot;Helvetica Neue&quot;, sans-serif; font-size: 12px; font-weight: 200;" fill="rgb(50, 49, 63)" stroke="none" stroke-width="1px">44</text><text x="0" y="152.57142857142858" dx="0em" dy="0.3em" style="text-anchor: end; visibility: hidden; font-family: &quot;Helvetica Neue&quot;, sans-serif; font-size: 12px; font-weight: 200;" fill="rgb(50, 49, 63)" stroke="none" stroke-width="1px">45</text><text x="0" y="139.85714285714286" dx="0em" dy="0.3em" style="text-anchor: end; visibility: inherit; font-family: &quot;Helvetica Neue&quot;, sans-serif; font-size: 12px; font-weight: 200;" fill="rgb(50, 49, 63)" stroke="none" stroke-width="1px">46</text><text x="0" y="127.14285714285714" dx="0em" dy="0.3em" style="text-anchor: end; visibility: hidden; font-family: &quot;Helvetica Neue&quot;, sans-serif; font-size: 12px; font-weight: 200;" fill="rgb(50, 49, 63)" stroke="none" stroke-width="1px">47</text><text x="0" y="114.42857142857143" dx="0em" dy="0.3em" style="text-anchor: end; visibility: inherit; font-family: &quot;Helvetica Neue&quot;, sans-serif; font-size: 12px; font-weight: 200;" fill="rgb(50, 49, 63)" stroke="none" stroke-width="1px">48</text><text x="0" y="101.71428571428572" dx="0em" dy="0.3em" style="text-anchor: end; visibility: hidden; font-family: &quot;Helvetica Neue&quot;, sans-serif; font-size: 12px; font-weight: 200;" fill="rgb(50, 49, 63)" stroke="none" stroke-width="1px">49</text><text x="0" y="89" dx="0em" dy="0.3em" style="text-anchor: end; visibility: inherit; font-family: &quot;Helvetica Neue&quot;, sans-serif; font-size: 12px; font-weight: 200;" fill="rgb(50, 49, 63)" stroke="none" stroke-width="1px">50</text><text x="0" y="76.28571428571429" dx="0em" dy="0.3em" style="text-anchor: end; visibility: hidden; font-family: &quot;Helvetica Neue&quot;, sans-serif; font-size: 12px; font-weight: 200;" fill="rgb(50, 49, 63)" stroke="none" stroke-width="1px">51</text><text x="0" y="63.57142857142857" dx="0em" dy="0.3em" style="text-anchor: end; visibility: inherit; font-family: &quot;Helvetica Neue&quot;, sans-serif; font-size: 12px; font-weight: 200;" fill="rgb(50, 49, 63)" stroke="none" stroke-width="1px">52</text><text x="0" y="50.85714285714286" dx="0em" dy="0.3em" style="text-anchor: end; visibility: hidden; font-family: &quot;Helvetica Neue&quot;, sans-serif; font-size: 12px; font-weight: 200;" fill="rgb(50, 49, 63)" stroke="none" stroke-width="1px">53</text><text x="0" y="38.14285714285714" dx="0em" dy="0.3em" style="text-anchor: end; visibility: inherit; font-family: &quot;Helvetica Neue&quot;, sans-serif; font-size: 12px; font-weight: 200;" fill="rgb(50, 49, 63)" stroke="none" stroke-width="1px">54</text><text x="0" y="25.428571428571445" dx="0em" dy="0.3em" style="text-anchor: end; visibility: hidden; font-family: &quot;Helvetica Neue&quot;, sans-serif; font-size: 12px; font-weight: 200;" fill="rgb(50, 49, 63)" stroke="none" stroke-width="1px">55</text><text x="0" y="12.714285714285722" dx="0em" dy="0.3em" style="text-anchor: end; visibility: inherit; font-family: &quot;Helvetica Neue&quot;, sans-serif; font-size: 12px; font-weight: 200;" fill="rgb(50, 49, 63)" stroke="none" stroke-width="1px">56</text><text x="0" y="0" dx="0em" dy="0.3em" style="text-anchor: end; visibility: hidden; font-family: &quot;Helvetica Neue&quot;, sans-serif; font-size: 12px; font-weight: 200;" fill="rgb(50, 49, 63)" stroke="none" stroke-width="1px">57</text></g><line x1="30" y1="0" x2="30" y2="178" fill="rgb(0, 0, 0)" stroke="rgb(204, 204, 204)" stroke-width="1px"></line></g></g><g transform="translate(30, 0)" clip-path="url(#clip_0)"><clipPath id="clip_0"><rect width="300" height="178"></rect></clipPath><g><g><g><line x1="0" y1="0" x2="0" y2="178" fill="rgb(0, 0, 0)" stroke="rgb(60, 60, 60)" stroke-width="1px" opacity="0.25"></line><line x1="25" y1="0" x2="25" y2="178" fill="rgb(0, 0, 0)" stroke="rgb(60, 60, 60)" stroke-width="1px" opacity="0.25"></line><line x1="50" y1="0" x2="50" y2="178" fill="rgb(0, 0, 0)" stroke="rgb(60, 60, 60)" stroke-width="1px" opacity="0.25"></line><line x1="75" y1="0" x2="75" y2="178" fill="rgb(0, 0, 0)" stroke="rgb(60, 60, 60)" stroke-width="1px" opacity="0.25"></line><line x1="100" y1="0" x2="100" y2="178" fill="rgb(0, 0, 0)" stroke="rgb(60, 60, 60)" stroke-width="1px" opacity="0.25"></line><line x1="125" y1="0" x2="125" y2="178" fill="rgb(0, 0, 0)" stroke="rgb(60, 60, 60)" stroke-width="1px" opacity="0.25"></line><line x1="150" y1="0" x2="150" y2="178" fill="rgb(0, 0, 0)" stroke="rgb(60, 60, 60)" stroke-width="1px" opacity="0.25"></line><line x1="175" y1="0" x2="175" y2="178" fill="rgb(0, 0, 0)" stroke="rgb(60, 60, 60)" stroke-width="1px" opacity="0.25"></line><line x1="200" y1="0" x2="200" y2="178" fill="rgb(0, 0, 0)" stroke="rgb(60, 60, 60)" stroke-width="1px" opacity="0.25"></line><line x1="225" y1="0" x2="225" y2="178" fill="rgb(0, 0, 0)" stroke="rgb(60, 60, 60)" stroke-width="1px" opacity="0.25"></line><line x1="250" y1="0" x2="250" y2="178" fill="rgb(0, 0, 0)" stroke="rgb(60, 60, 60)" stroke-width="1px" opacity="0.25"></line><line x1="275" y1="0" x2="275" y2="178" fill="rgb(0, 0, 0)" stroke="rgb(60, 60, 60)" stroke-width="1px" opacity="0.25"></line><line x1="300" y1="0" x2="300" y2="178" fill="rgb(0, 0, 0)" stroke="rgb(60, 60, 60)" stroke-width="1px" opacity="0.25"></line></g><g><line x1="0" y1="178" x2="300" y2="178" fill="rgb(0, 0, 0)" stroke="rgb(60, 60, 60)" stroke-width="1px" opacity="0.25"></line><line x1="0" y1="165.28571428571428" x2="300" y2="165.28571428571428" fill="rgb(0, 0, 0)" stroke="rgb(60, 60, 60)" stroke-width="1px" opacity="0.25"></line><line x1="0" y1="152.57142857142858" x2="300" y2="152.57142857142858" fill="rgb(0, 0, 0)" stroke="rgb(60, 60, 60)" stroke-width="1px" opacity="0.25"></line><line x1="0" y1="139.85714285714286" x2="300" y2="139.85714285714286" fill="rgb(0, 0, 0)" stroke="rgb(60, 60, 60)" stroke-width="1px" opacity="0.25"></line><line x1="0" y1="127.14285714285714" x2="300" y2="127.14285714285714" fill="rgb(0, 0, 0)" stroke="rgb(60, 60, 60)" stroke-width="1px" opacity="0.25"></line><line x1="0" y1="114.42857142857143" x2="300" y2="114.42857142857143" fill="rgb(0, 0, 0)" stroke="rgb(60, 60, 60)" stroke-width="1px" opacity="0.25"></line><line x1="0" y1="101.71428571428572" x2="300" y2="101.71428571428572" fill="rgb(0, 0, 0)" stroke="rgb(60, 60, 60)" stroke-width="1px" opacity="0.25"></line><line x1="0" y1="89" x2="300" y2="89" fill="rgb(0, 0, 0)" stroke="rgb(60, 60, 60)" stroke-width="1px" opacity="0.25"></line><line x1="0" y1="76.28571428571429" x2="300" y2="76.28571428571429" fill="rgb(0, 0, 0)" stroke="rgb(60, 60, 60)" stroke-width="1px" opacity="0.25"></line><line x1="0" y1="63.57142857142857" x2="300" y2="63.57142857142857" fill="rgb(0, 0, 0)" stroke="rgb(60, 60, 60)" stroke-width="1px" opacity="0.25"></line><line x1="0" y1="50.85714285714286" x2="300" y2="50.85714285714286" fill="rgb(0, 0, 0)" stroke="rgb(60, 60, 60)" stroke-width="1px" opacity="0.25"></line><line x1="0" y1="38.14285714285714" x2="300" y2="38.14285714285714" fill="rgb(0, 0, 0)" stroke="rgb(60, 60, 60)" stroke-width="1px" opacity="0.25"></line><line x1="0" y1="25.428571428571445" x2="300" y2="25.428571428571445" fill="rgb(0, 0, 0)" stroke="rgb(60, 60, 60)" stroke-width="1px" opacity="0.25"></line><line x1="0" y1="12.714285714285722" x2="300" y2="12.714285714285722" fill="rgb(0, 0, 0)" stroke="rgb(60, 60, 60)" stroke-width="1px" opacity="0.25"></line><line x1="0" y1="0" x2="300" y2="0" fill="rgb(0, 0, 0)" stroke="rgb(60, 60, 60)" stroke-width="1px" opacity="0.25"></line></g></g></g><g><g><line x1="0" y1="724.7142857142858" x2="300" y2="724.7142857142858" fill="rgb(0, 0, 0)" stroke="rgb(153, 153, 153)" stroke-width="1.5px"></line></g></g><g><g><line x1="25" y1="0" x2="25" y2="178" fill="rgb(0, 0, 0)" stroke="rgb(153, 153, 153)" stroke-width="1.5px"></line></g></g><g><g><g><g><g><path stroke="rgb(255, 112, 67)" stroke-width="2px" d="M25.625,1.7461384364536912L25.75,32.98333096909971L26.25,86.24328605713427L26.375,63.618798313278816L26.625,57.69450287944747L26.75,52.58836957223703L26.875,37.510313184633276L27.25,6.08079813730879L27.375,-12.110409315963409L27.499999999999996,25.57074531189872L28,31.41249336421751L29.124999999999996,69.92446502221938L29.25,19.08637080863724L29.5,19.063048573891706L30,26.78579212561891L30.25,13.446102165428982L30.5,37.395966832066705L30.625,66.46060609920738L30.875,39.96246705120876L31.125,60.486799928817746L31.25,-0.4492128478522659L31.625,78.75603983508121L31.75,76.68580283014286L31.875,58.520520927108336L32,64.32858027815918L32.125,81.64395753447333L32.5,58.96571169856546L32.625,103.2373284622173L32.875,68.1570621074644L33.125,56.96401285670629L33.25,82.14102391098521L33.375,81.90116639738012L33.5,52.37654011930222L33.875,69.94868213009096L34,86.30558265479102L34.125,47.87904563606807L34.25,88.02421883700308L34.875,30.39028427889275L35.5,15.736234919736859L35.625,34.836179685592896L35.75,62.359135112517265L35.875,49.61238293396613L36,31.750876551465865L36.125,-2.9232155349039886L36.75,55.05157875259104L37.75,26.496330159733645L38.125,23.179824543481743L38.25,48.54419358574765L39.12499999999999,38.34309827913927L39.49999999999999,52.60524884981251L39.75,35.63716241890543L39.875,34.15257360768294L40,26.19204410083998L40.5,3.2284046030483182L40.625,-9.739318330179714L41.25,-27.6736216356301L42.125,4.596295747071196L42.37499999999999,-58.663712372723126L42.74999999999999,-3.716338091207888L42.875,13.358570900055128L43,30.80646668067834L43.5,39.21429816086038L43.75,-7.714795966735352L44.125,89.28606600610391L44.25,52.64296909890899L44.375,6.308601298494153L44.625,71.09238070022968L44.75,82.56887202180502L44.87500000000001,93.09378996755699L45.25000000000001,110.50092669285638L45.5,100.42256426391111L45.62499999999999,112.12031559476439L45.875,89.97058797810308L46,53.64748517504471L46.375,80.0315516027274L47,94.92731770536642L47.125,88.52245001877482L47.25,93.11430796384401L47.5,61.45031166024168L47.875,33.854874665339935L48.12500000000001,11.37998808495044L48.25,48.97333618544721L48.49999999999999,39.137506673646385L48.75,52.445008123882346L48.87499999999999,39.714399051381804L49.75,37.776424979751425L50.75,33.499793592898925L50.875,47.73207461442266L51.00000000000001,32.11325101122108L51.5,-20.8162575338894L51.875,53.166762809038076L52.25,91.54435976604906L52.375,71.21234744086269L52.75,67.49107905322388L52.875,54.27246716039397L53.125,-3.223592827247302L53.25,17.623313243490998L53.375,32.909885764605775L53.625,34.19461407632602L54,23.91294560993353L54.125,12.952788875994855L54.25000000000001,-9.736958597099175L54.62500000000001,48.6105991780388L54.99999999999999,55.71669792429314L55.625,29.821196529858952L55.875,12.84649633887227L56.125,74.85915944770298L56.25,49.81578556696178L56.875,32.80553248187425L57.25,92.9974385480815L57.375,109.46626858370412L57.50000000000001,116.47553193815747L57.625,104.71480825062541L57.87499999999999,99.0114877519353L58.375,87.66162612294002L58.625,109.1708211477493L58.875,91.31559247842542L59.125,94.19833592335637L59.75,91.8316043399555L60,63.92214090761378L60.5,70.14937724184344L61.12499999999999,59.73667671140963L61.375,50.17949221537769L61.49999999999999,58.68369872737601L62.125,46.34748650496735L62.25,40.927338723200535L62.375,51.52035011366954L62.625,37.0978824632424L62.75,80.66467432465461L62.875,73.78720751077844L63.375,83.99189040954225L63.5,86.55239279085231L63.75,90.07897539877669L64.125,57.815340197298525L64.625,56.90159990188303L64.75,34.626418280213215L64.875,63.32447862025566L65,52.01092159887689L65.25,93.78735762672515L65.625,68.65469465132652L65.75,55.631955901912136L65.875,60.61977545528457L66.25,31.830324414506237L66.375,-4.175622603352565L66.625,8.058610521986651L67.375,35.39111026212791L67.625,67.43805459903595L68,79.85483068134634L68.125,55.46957022912326L68.375,29.24290314904144L68.5,66.26882260564825L69.125,80.32091098690033L69.25,73.85750316546364L69.5,80.36136464048897L69.75,66.32320324089658L69.875,77.22357045720156L70,88.14217277438192L70.375,114.72015298203843L70.5,121.98363235920084L70.875,116.360401255365L71,95.85287877337585L71.25,110.8008118570572L71.375,100.35960015091659L71.625,115.04030248620343L72.125,105.1831804207596L72.25,99.28556874196406L72.375,92.10466127014907L72.625,92.57609348021663L72.75,104.35371110951777L73.25,92.10232062927825L73.375,77.44836100481048L73.5,84.06632659220949L73.75,67.26187728737432L73.875,45.1968718801628L74,59.02766558146233L74.125,62.32948297382745L75.25,66.11151591296961L75.37499999999999,67.45411074174172L76,88.98579883856095L76.875,72.67091349223332L77,50.82391596524923L77.50000000000001,57.01070504207961L77.625,71.25213371630446L77.75,59.90492120892159L78,74.80588849260384L78.24999999999999,111.69813802542102L78.75,79.80793401939897L79.875,66.59301047080959L80,56.982337659272375L80.125,5.867821019883479L80.25,27.38831581961375L80.625,47.95685043587599L81,89.82037980548346L81.375,39.82806425185001L82.25,78.0404044978982L82.375,71.33972651361904L82.5,94.51437615857404L82.625,102.28857853890948L82.875,88.79618998073742L83,102.70045815074948L83.375,130.19307457924504L83.5,106.02446211402416L83.625,97.55475090184488L83.875,116.50173151998925L84.125,103.35026658528325L84.25,121.19748665646236L84.74999999999999,102.49527174606663L85.625,84.99021088221427L86,97.14652011554142L86.125,83.19144677902841L86.375,72.04257095123177L86.625,75.93716984116494L87,56.45878436324904L88.37499999999999,71.94322632135568L88.75,108.71194094811239L88.875,98.13109701113777L89,89.26461771879747L89.25,71.72704541241293L89.5,114.5111911141527L89.625,102.20020116352184L89.875,54.195735532248676L90.50000000000001,66.60442260791037L90.625,104.75274388267341L91.375,97.67395508087098L91.625,100.2577878375593L91.75,73.87254056242595L91.875,69.00138241061438L92,36.847472333270474L92.125,59.72419642378867L92.25,60.82344468087989L92.375,64.87935849561035L92.5,55.97478984637986L92.62500000000001,45.85950525445881L92.75,75.25182708846019L93,56.566082690631106L93.37500000000001,76.43266758767523L93.5,69.44487141219565L93.625,59.172929245451684L93.875,46.9357898817195L94.375,59.758852340306746L94.625,41.463132686315475L94.87499999999999,100.00749683484797L95.375,93.31265976017946L95.5,110.33922582430726L95.625,108.35572002898752L95.875,85.30952561661138L96.125,105.70338972589228L96.375,125.79025658286285L96.625,105.58356819173186L96.75,115.8087357834082L97.125,116.78226975375782L97.375,108.20235882332986L97.5,120.30464849550822L97.625,90.01393858667439L97.74999999999999,102.0806692794528L97.875,62.56343676948558L98,94.5977976323733L98.25,88.1937548453636L98.375,83.67982982017422L99,93.53015592364451L99.12500000000001,115.87650162996704L99.375,79.45398583675073L99.5,85.00499398878429L99.625,70.44466243908039L100,56.86280632801886L100.25,71.61518803163334L100.5,96.0918607807876L100.75,82.3667753061045L101,82.1323880784485L101.25,85.90059274933422L101.375,76.81867921947762L101.5,40.77548566494252L101.875,115.42779742382486L102.375,109.75947095983817L102.5,127.70773581532274L102.75000000000001,93.81640195975409L103.125,96.44831249877682L103.625,96.08270491373854L104.24999999999999,97.81514307690303L105.125,67.33265417876336L105.25,63.886831844090324L105.5,52.13222398435565L105.62500000000001,61.81065154345984L105.75,67.63289533303713L105.875,82.49120996743494L106,68.2364611139307L106.125,42.32095829329424L106.37499999999999,88.94533299902396L106.5,80.26491507748969L107,103.0572433204344L107.12499999999999,68.98041993424651L107.625,51.9616560002201L108,101.82273002242735L108.25,90.52230147807713L108.375,92.22202296785284L108.50000000000001,103.1659728761928L108.875,79.33315093340434L109,118.06055739256966L109.125,100.16058691427016L109.25000000000001,121.38305985446227L109.375,129.55552730283517L109.625,112.2089314056677L109.75,117.42752048083281L109.875,114.37239223712872L110.125,121.70700271350368L110.25,111.96455039357458L110.375,110.87792817381192L110.5,122.77813325283377L110.625,97.09236259261746L110.75,97.80547236110476L111,89.84205471390419L111.125,106.4860531369546L111.5,109.08561495461139L112,90.87700467010296L112.375,89.59346816103961L112.5,78.55334223769664L112.625,94.042669293406L112.87499999999999,93.19038353916356L113.125,90.86137862193667L113.25,76.40676749503349L113.5,84.56596305717073L113.75,91.16856166276236L114.25,81.00981676808145L114.75,110.1003144223786L114.875,106.17468339914522L115.125,99.0920595544919L115.25,70.40794761551369L115.375,113.78052444180585L115.5,114.35737098925465L115.625,96.78596359657233L116.125,101.66994734008861L116.25,89.19994975209553L117,93.92299265105491L117.25,95.90579797420595L117.375,88.33372099148211L117.5,69.92631488169359L117.625,91.25224092515683L117.87500000000001,61.11790513419214L118.25,75.50186262150577L118.375,60.56900194001291L118.75,87.04944544333836L118.875,86.81170063382916L119,64.84942000739052L119.25,75.68898372484676L119.5,82.70094393804938L119.875,86.6731111511548L120.25,55.724124192103744L120.625,60.510583255241556L120.75000000000001,92.2229751427066L120.875,115.84244535960181L121.125,99.41264698859003L121.25,102.69887804343404L121.375,102.89142485835391L121.625,82.84998635680044L121.75,99.72569881470761L121.875,85.93668280579845L122.5,96.74879154736497L122.99999999999999,110.42587365712447L123.125,125.5791334562704L123.375,118.93241664381569L123.625,111.99049263658765L123.875,83.51578400666621L124,81.35985479086655L124.125,121.49366797385537L124.25,117.49215656040067L124.37500000000001,106.39137421982002L124.5,92.85945545797686L124.75,122.22737080886367L125,111.15393214599015L125.25,120.27458863050713L125.625,104.69096190100446L125.87499999999999,122.68745903807076L126,90.39505764450595L126.125,86.6189571692974L126.625,115.89606405126861L126.875,111.24183362245815L127,90.8980172447438L127.25000000000001,102.78871096880789L127.625,127.19534963839098L128.125,108.88244385208041L128.5,103.12350476130716L128.875,89.68331022660611L129,87.60501774983472L129.25,82.12843072749419L129.5,79.98251878168317L129.75,102.63439213183274L130.375,95.18108911830429L130.625,87.75187080488284L130.75,103.20992379200962L130.875,84.88521269796898L131,56.57020905920152L131.375,77.18917788914987L132.125,46.43636173222211L132.375,69.76464937106992L132.5,89.13219795500383L132.625,86.6144340280488L132.75,90.8375439924783L132.875,101.97307473322586L133.375,73.87950461434897L133.625,61.13453681747639L133.75,96.3515922277872L134.125,87.9176544949551L134.25,100.17458358800818L134.375,109.37254888388047L134.5,136.31284284084296L134.625,78.74224080575915L134.875,110.97212146223957L135,119.41586667485888L135.125,129.35548692808547L135.25,141.84975600463258L135.5,108.43668947230053L135.875,122.73680816700531L136.125,139.41843485322096L136.25,126.00872710349984L136.5,138.8143047926286L136.625,120.14511064767152L137,104.62034697697837L137.375,81.10285265452644L137.5,119.31310027418891L138.375,116.12606257349147L138.5,109.5621102129978L138.625,107.8131601974897L138.75,66.66331586048071L138.875,80.96115170851292L139,72.00784740558518L139.125,98.62768927090177L139.375,95.19003744835491L139.5,95.11252700244759L139.625,109.95397345546628L140,113.2078100322382L140.125,111.00800370120282L140.25,112.06615226550485L140.375,118.89532993923369L140.625,131.4472349705954L141.375,140.7094184117364L141.5,120.77895214286553L141.875,83.26010560427406L142.75,115.80374526181154L143.125,128.2787503195745L143.625,90.1385020289685L144,70.30540193817505L144.125,70.59229997034058L144.25,83.65510363326439L144.5,72.75608440510882L144.625,61.13520917002076L144.75,98.0170750526077L145.125,42.10866973695954L145.25,96.57667356129313L145.5,103.6565222367548L145.75,93.93405844558461L145.875,116.79152698504438L146.125,81.60633139788783L146.375,105.22617698468001L146.5,65.19531327941935L146.75,96.11923306844764L147,96.40529566984031L147.125,102.36919537899803L147.25,111.69108095833616L147.375,132.10858024020442L147.75,109.27311686587586L147.875,120.95272843303803L148,123.36107258170904L148.375,137.39776542892992L148.5,119.58774488632999L149.5,115.07289389767479L149.875,92.4565979655791L150,108.45286975060554L150.25,105.46371562328581L150.5,105.3704838599467L150.625,131.0249074965681L151,149.77422172175272L151.125,124.63879258169149L151.37500000000003,125.03209554277497L151.5,110.53672436654104L151.625,110.45497304136602L151.75,101.3397959455406L152.125,85.97879348649762L153.125,98.41684613845364L153.375,106.74544737018789L153.625,125.03714890828283L153.875,115.90495710903716L154,105.96552681936643L154.125,113.60325181540192L154.37499999999997,149.7439510814045L154.625,143.51109535222005L154.75,100.22996577371298L154.875,90.8513120508057L155.25,94.63633036682253L155.375,95.91621338647367L155.5,114.64612077142966L156.125,121.99501871639261L156.375,115.25063645766713L156.49999999999997,124.81001785808576L156.875,76.12590198133786L157.12500000000003,98.58823937085884L157.875,88.66975936385869L157.99999999999997,88.3944301612863L158.25,120.33477340815482L158.5,115.68289610904824L159,61.431633894191904L159.25,76.2517051555539L159.5,64.0710087657389L159.75,122.3883842242354L160,105.26920644766831L160.25,121.17375086233587L160.375,117.39712380110515L160.5,107.43763705554301L160.625,85.98737661404517L160.75000000000003,88.09075886669964L161.5,102.66506862456094L161.62499999999997,125.30689016431256L162.375,150.83463233834212L162.625,136.93488734105523L162.875,104.05404660524256L163,145.34820112551185L163.125,135.51823537548597L164.25,118.23625207218122L164.5,121.24735802557076L164.875,114.05963005023676L165.25,104.36347112103935L165.375,116.55723810294376L165.625,107.95053514790946L165.75,90.50439901999064L165.87499999999997,109.65664670975957L166,114.77833430278389L166.25,119.04097825655609L166.375,118.61510070271598L166.625,115.71275111863883L166.75,127.86514912442274L166.875,115.82975302394695L167.25,124.00310540073521L167.37499999999997,127.91082154355774L167.625,106.60776363724419L168.625,111.36643449333015L168.75,135.3508224795137L168.875,124.4044814486371L169,155.2600620547501L169.375,128.36294404749404L169.49999999999997,138.1043138846893L169.625,97.35979873210088L170,102.16792631726607L170.12500000000003,105.40927047001651L170.25,102.09984600359094L170.625,118.06859652669559L172.125,99.13499657054787L172.5,97.29147063826875L172.75,110.69517393870915L172.875,137.15550906579352L173.12499999999997,129.17726476452344L173.25,126.70449926768165L173.625,124.799675457304L174,143.14379915785014L174.125,135.90120071048477L174.25,146.07306863590856L174.375,146.78702206496962L174.5,141.2603557198784L174.625,145.4861351239411L174.75,149.90692674630486L174.875,130.8855530799688L175.125,143.6394432735476L175.375,155.29987916588408L175.5,124.46461645082232L175.75,93.11917559468546L176,126.77471961011754L176.25,113.90878368578818L176.375,131.54629846193512L176.5,147.70272650647192L176.625,137.133492408866L176.74999999999997,131.85689177645358L176.875,133.58104089606812L178,103.31972589699997L178.125,73.7425219020901L178.375,117.60040270565318L178.5,119.80616677363497L179,118.21267600780328L179.125,121.76323265891952L179.25,132.348503827655L179.50000000000003,131.83426330003573L179.875,129.05016949550333L180.25,124.87324996619375L180.5,131.68323599722083L180.75,98.89549303122668L180.875,98.53290809556935L181.125,115.75020214997022L181.25,108.84531618077723L181.625,107.4753030215997L181.75,96.69904363331517L181.875,121.13610363727247L182.125,117.61928026713142L182.25,111.43828083713979L182.375,93.72717702537476L182.625,93.06653959392526L182.75,82.49659533812073L182.875,55.074396665936675L183,86.93140221052664L183.12500000000003,92.2340860022483L183.25,82.85325131126177L183.875,73.25665015197481L184,75.7827976820069L184.25,101.51067797031801L184.75,114.65376907206041L184.875,104.15114413210046L185.125,102.03206436303724L185.625,117.6848012516405L185.875,140.355571818607L186.12499999999997,124.0892949732239L186.375,148.61703217585125L186.5,116.66832580660466L186.625,125.03455556476396L186.75000000000003,127.78401193655881L187,138.37024211500633L187.375,147.68611375985338L187.5,130.0706963902773L187.75,143.04954437893832L187.875,136.7730677816251L188,139.90321991451427L188.24999999999997,136.1248858855332L188.75,110.1114737007666L189,147.91073535719255L189.125,140.05605109294552L189.375,142.9604233867253L189.5,140.46649821722139L189.875,154.9028627383332L190,140.08109401242734L190.625,101.0437211943752L190.75,113.0793111005927L190.875,99.5292074402075L191,112.66369322190181L191.25,103.82844774090768L191.5,142.0994863352486L191.625,142.88960811935192L191.75,134.35694636411105L191.87499999999997,105.44302928970394L192,104.60089343229608L192.125,131.42659720697904L192.50000000000003,135.69356716431707L192.875,111.29892585093167L193.125,139.06004185017693L193.5,150.34579428849588L193.625,117.68676380204352L193.75,112.91923753556006L193.875,107.32063622666408L194.375,111.27941459897183L194.875,148.38016509063632L195.125,137.83838249104363L195.25,134.38789382631438L195.75,79.29473726852382L195.875,63.08844042234641L196.25,103.15499055443522L196.625,124.49540646034781L196.875,101.50436622420337L197.125,131.96772940177095L197.25,108.87390235081322L197.375,129.55097020772436L197.75,118.83962291161947L198,104.82848692651967L198.125,110.04640550390532L198.375,101.65016789183392L198.5,96.66133461355409L198.625,127.78986475977611L198.875,135.95536965317626L199,113.04772782642142L199.375,156.04067752177485L200,133.62181134600536L201.5,139.82436595251704L201.625,125.94583777548766L201.75,116.46332758415767L201.87500000000003,116.05433019634982L202.375,123.42375398758696L202.75,117.83151976851512L202.875,119.52599328948835L203.125,118.32038306349014L203.25,119.92822599156705L203.37499999999997,137.3099581914607L203.5,137.88306459382608L204.00000000000003,112.06346007656217L204.125,113.65099793396129L204.25,97.30523413141228L204.5,142.72462512636764L204.625,149.22178241926994L204.75,135.44762342805646L205,111.11908302400792L205.25,111.78772413449188L206,132.1854264491311L206.25,154.92737041031822L206.875,129.3213274913052L206.99999999999997,120.94941923296997L208.125,126.67098567193614L208.25,120.92609172940712L208.75,89.44430922975656L209.25,102.14361703656677L209.625,117.39859363468281L210,76.32051777807307L210.125,101.5453897063042L210.25,125.76638160662625L210.62499999999997,130.4962532659013L210.75,135.86629603195146L211.125,92.86689475364244L211.375,58.368139776651645L211.5,109.51320356478531L211.625,100.81423697001705L212.5,85.8866006983178L212.625,105.17288058058364L212.74999999999997,152.5890478051479L212.875,154.6962049031729L213.125,167.47429537377045L213.25,141.69055628910883L213.37500000000003,133.62042523957186L213.5,132.04279849135582L213.625,134.973811393735L213.75,120.02028616517396L213.875,132.29079015772214L214,128.92845565180102L214.125,127.7427203365105L214.5,144.22030844007224L214.75,145.16573353849137L215.375,151.18912011710682L215.5,154.05856324125455L215.625,163.3721911521641L215.875,160.80505612188563L216.75,124.29285757108623L217.00000000000003,120.01814534348989L217.625,100.133367557989L217.75,105.97852594096146L218.25,103.80570997424867L218.50000000000003,128.60627779433662L218.625,121.03711252327278L218.875,122.44915948918339L219,112.74867929493506L219.25,124.13183614323707L219.375,115.52264240416024L220.125,117.32460677186126L220.25,100.78867104803234L220.375,117.41523128929725L221,143.6905479516562L221.125,152.51757229706496L222.25,107.72841696004303L222.375,114.27793027087266L222.75000000000003,112.36293261130922L222.875,106.69605932316531L223,92.57532998987482L223.25,102.80874923405153L223.5,118.07511523544517L223.75,122.99833146136692L224.125,93.67236381507442L224.25000000000003,110.87096952481615L224.5,100.19144276479753L224.625,122.81930699186819L224.875,95.86632235256172L225.125,126.83545491263976L225.25,121.6821812201473L225.5,103.67392839465185L225.625,102.30979995919706L226.125,164.06749565319654L226.25,157.75365986135574L226.5,159.47874734632524L226.625,151.89064764335225L226.75,135.50029369216864L226.875,148.70952581142296L227.24999999999997,161.9644074174816L227.375,146.94391412094362L227.5,151.91779820253126L228,152.03035107681012L228.25,162.10682793896572L228.375,145.84540239020407L228.5,140.20934020130613L228.75,124.36267202865862L229,120.5995693533697L229.25,128.19495388384067L229.5,129.18164501361287L229.625,87.95544746929662L229.75,89.01676109148941L230.00000000000003,111.7132551921261L230.125,95.64837704371206L230.25,116.79903540623289L230.375,107.82756486684187L230.5,116.41073296482998L230.625,119.58064347285858L230.875,112.20975857605367L231,111.04060266540185L231.375,107.79398803019384L231.49999999999997,133.34752348427332L231.75,120.95620401457299L231.875,129.7932755899529L232.25,149.86132775541415L232.375,139.52427827167796L232.5,127.28019384376395L232.625,121.83317902812664L232.99999999999997,108.67573755954238L233.5,120.96569554867736L233.75,134.07227853949286L233.875,159.24100817838683L234,146.15745375988755L234.375,143.78416374325045L234.5,104.549289093102L234.75,84.93966073992958L235.25,111.64901384479312L235.375,110.28584370886074L235.5,127.10646691087501L235.625,111.21995023911863L235.875,113.49824905854659L236.375,107.83120137509485L236.5,112.18359253293413L236.75,122.8446028087076L236.875,93.58571828044694L237,106.00031855494885L237.125,124.65668916947232L237.375,111.45099547630612L237.75,117.70072306014711L237.875,105.12539667918865L238,107.2829015013691L238.125,129.478603814244L238.25,138.61810931473894L238.625,129.52328996824065L238.74999999999997,164.98967353495382L239.37500000000003,157.08594203198842L239.625,145.16223903446377L239.75,130.39609947423918L239.875,154.44465018574016L240.375,126.4415655484814L240.75,137.56350664951356L241,158.31826644171048L241.375,159.2731813498363L241.50000000000003,152.86405854794052L241.625,148.51796458085053L241.75,138.7117330737274L241.875,151.10650957134177L242.125,145.38920536524788L242.25,141.81064191521688L242.37499999999997,122.65985756746144L242.75,115.54766637030274L242.875,120.34581399233699L243.125,107.10092032066599L243.25,120.10197918066008L243.375,125.94994184555769L243.75,70.5661989068725L244,97.08718501312244L244.125,112.17516011332289L244.25,122.9424183341962L244.375,102.58482508834868L245.25,135.0787828223625L245.375,118.88727276164687L245.75,130.73481779616594L246.375,103.31863603086563L246.875,159.01036867408675L247.125,148.42613405107164L247.625,110.76272582049846L247.75,72.70747094623096L248,120.30456434379522L248.5,138.5887472930891L248.625,114.71494873222463L248.75000000000003,92.4385330883941L249,113.77322280793906L249.125,119.80582019704649L249.25,139.72755804382288L249.75,103.64423783097128L250,105.61327303094224L250.24999999999997,109.48658656918116L250.5,135.01844245403345L250.625,149.85799160410994L250.87500000000003,130.41536360027163L251.375,128.82225634393743L251.625,133.63007796841814L251.74999999999997,134.29040343375524L252.125,167.64175856857855L252.5,149.78593591504793L253,116.91765072124636L253.25,137.87426062708542L253.375,129.22183698078533L253.75,151.40198836654622L254.25,152.4266124538967L254.375,143.3216414973157L254.50000000000003,141.16289146305422L254.625,134.5904151648856L255,143.20757711328542L255.125,143.6502236631434L255.25,135.9051037637738L255.5,81.9107010290497L255.625,127.39864321288124L255.75,90.61897850492022L256,89.1024273719256L256.125,118.18063871605216L256.5,133.72974358085582L256.625,148.43805348497244L256.875,135.07484894568853L257.125,121.94069842786848L257.25,113.11795947657912L257.375,138.6306978013095L258.25,140.1827557172429L258.375,155.576886726349L258.5,131.105815947319L258.625,106.77855956151937L259.375,110.61146732579766L259.5,121.67863883478135L259.625,111.28000789894156L259.75,146.53670507558502L259.875,145.07425625370166L260.125,118.18028046990312L260.5,114.01080671217107L260.875,102.15896550399512L261.375,132.64808869548682L261.5,132.01600569677092L261.625,138.14724592525755L261.75,120.14414944277522L262.125,118.27777499668352L262.25,114.49848404194445L262.75,107.33570753158725L263.125,98.56322667185172L263.25,83.1284820580921L263.625,136.616610524467L263.75,112.34239746011482L263.875,115.90099233162846L264,135.7931384488457L264.125,140.9502606806422L264.5,123.86954286341802L264.625,131.18845353914384L264.75,148.3292050264693L264.875,158.3235893775824L265.375,126.44572834474315L265.5,147.71480343653565L265.625,155.93119737823648L266,157.21710692540492L266.25,134.04184293804553L266.375,131.41903258057417L266.5,145.28481213752872L266.75,163.81990190532858L266.875,167.2228945072682L267,165.38560408130715L267.25,162.91357487596534L267.375,148.32017423697744L268,128.63504927439806L268.25,123.32848784849044L268.375,128.98668273142533L268.625,116.10069851477905L269,119.15307684253273L269.25,116.66336878145032L269.375,116.07688643224361L269.5,136.39471492853L269.75,141.86902677131087L270,142.63499181495533L270.125,148.58915770095865L270.25,143.31430146473926L270.75,155.06462908926744L270.875,158.9330369027005L271.125,151.36429717555507L271.375,156.93868263081373L272,145.02762127401974L272.5,136.38517096380502L272.625,120.09648354579089L272.75,159.65803836956928L272.875,160.72688611527923L274.375,109.03714020339729L274.625,99.50849719543378L274.875,81.85022114646509L275.125,120.54651615327968L275.25,121.91552285518475L275.375,112.21567240167465L275.5,114.4373456872694L275.625,112.33039699563689L275.75,104.41522301704312L275.875,127.54873745306304L276,122.95768809866615L276.125,118.92371792321131L276.25,107.4285918536128L276.375,139.9090035138007L276.625,160.1763355504412L276.75,123.62026842593616L276.875,121.50985349631387L277.125,116.46303319790047L277.375,101.77243783526862L277.75,136.59991043394902L278.125,139.01558103077622L278.375,132.91611632981508L278.5,144.40230077131395L278.75,140.53331545499898L279.125,167.4814925458942L279.375,132.92018756144648L279.5,137.66357227759738L279.75,157.97024998653993L280,142.3205308884912L280.125,144.14543887787949L280.25,165.7800075893279L280.5,157.6337366016822L280.625,141.24003429482045L280.875,144.9428064727441L281,130.80321397691637L281.25,113.25566616817045L281.375,120.01819810818452L282.375,146.58367360186074L282.5,149.49579166669062L282.75,108.13558926874909L282.875,103.2037396624046L283.375,139.9603245687901L284,150.19560357271644L284.125,166.6915758563681L284.25,133.61374082768936L284.375,164.1225626196199" style="fill: none;" fill="none"></path></g></g></g></g><g opacity="0.2"><g><g><g><path stroke="rgb(255, 112, 67)" stroke-width="2px" d="M25.625,1.7461384364536912L25.75,36.356947762625566L26.25,92.61658532278878L26.375,60.88296127319336L26.625,56.97730909075055L26.75,51.97014726911273L26.875,35.68472181047713L27.25,2.2754314967564255L27.375,-14.312932150704512L27.499999999999996,30.133037567138672L28,32.11979021344865L29.124999999999996,74.58734948294503L29.25,12.931085859026211L29.5,19.060224805559415L30,27.72083282470703L30.25,11.830982753208701L30.5,40.2957262311663L30.625,69.97964314052037L30.875,36.7541721888951L31.125,62.97180884225028L31.25,-7.827115740094854L31.625,88.34591347830636L31.75,76.43514633178711L31.875,56.32113701956612L32,65.03179822649274L32.125,83.74043818882534L32.5,56.219915117536274L32.625,108.59756905691964L32.875,63.90967559814453L33.125,55.60880061558315L33.25,85.18936157226562L33.375,81.87212535313198L33.5,48.801809583391446L33.875,72.07625089372907L34,88.28601455688477L34.125,43.226505279541016L34.25,92.88484518868583L34.875,23.412184579031816L35.5,13.96197782244002L35.625,37.14872905186246L35.75,65.69151088169643L35.875,48.06905419485909L36,29.58827263968331L36.125,-7.121423993791865L36.75,62.07094846452985L37.75,23.038968222481856L38.125,22.778274536132812L38.25,51.61521584647042L39.12499999999999,37.107988085065585L39.49999999999999,54.3320563180106L39.75,33.582730429513106L39.875,33.972825186593184L40,25.22821317400252L40.5,0.44805363246371144L40.625,-11.309401375906816L41.25,-29.170920235770097L42.125,8.503415788923007L42.37499999999999,-66.32299586704798L42.625,4.838038308279863L42.74999999999999,-3.921706063406816L42.875,15.425936562674394L43,32.918992178780684L43.5,40.23228672572543L43.75,-13.396793910435264L44.125,101.03056498936245L44.25,48.206360953194746L44.375,0.6986105782644927L44.625,78.93615668160575L44.75,83.95840236118862L44.87500000000001,94.36810738699776L45.25000000000001,112.60851723807198L45.5,99.20231410435268L45.62499999999999,113.53663526262557L45.875,87.28878239222935L46,49.24962071010043L46.375,83.22603498186383L47,96.73084095546177L47.125,87.74697276524135L47.25,93.67027282714844L47.5,57.616554260253906L47.875,30.513723100934726L48.12500000000001,8.6588134765625L48.25,53.52499716622489L48.49999999999999,37.94662148611886L48.75,54.05623027256557L48.87499999999999,38.173024858747226L49.75,37.54178237915039L50.75,32.981995173863L50.875,49.455265590122764L51.00000000000001,30.222182682582314L51.5,-27.22476305280412L51.875,62.124348231724326L52.25,96.19097464425224L52.375,68.7506239754813L52.75,67.04052189418248L52.875,52.672007424490786L53.125,-10.184999193463995L53.25,20.147378104073653L53.375,34.76072638375419L53.625,34.35016414097379L54,22.66807992117745L54.125,11.625774383544922L54.25000000000001,-12.484147753034307L54.62500000000001,55.67510168892997L54.99999999999999,56.57707759312221L55.625,26.685866764613564L55.875,10.791263580322266L56.125,82.36741910661969L56.25,46.78362819126676L56.875,30.745995112827842L57.25,100.28524780273438L57.375,111.46025248936245L57.50000000000001,117.32418714250838L57.625,103.29086412702287L57.87499999999999,98.32095118931362L58.375,86.2874276297433L58.625,111.7750734601702L58.875,89.15374864850725L59.125,94.54736764090401L59.75,91.54504939488002L60,60.54296820504325L60.5,70.90334756033761L61.12499999999999,58.47594615391323L61.375,49.02234431675504L61.49999999999999,59.713356018066406L62.125,44.853864397321445L62.25,40.271087646484375L62.375,52.802912030901226L62.625,35.351664406912676L62.75,85.9395773751395L62.875,72.95450973510742L63.375,85.22743497576032L63.5,86.86240877423968L63.75,90.50596073695591L64.125,53.90898077828544L64.625,56.790967668805806L64.75,31.929423195975176L64.875,66.79913166591099L65,50.641118730817524L65.25,98.84549113682338L65.625,65.61172648838588L65.75,54.05521174839565L65.875,61.223681858607705L66.25,28.344606127057773L66.375,-8.53508704049247L66.625,9.539885384695879L67.375,38.70042637416293L67.625,71.31817790440151L68,81.35820715767997L68.125,52.517094748360776L68.375,26.067477090018144L68.5,70.75178146362305L69.125,82.02228491646903L69.25,73.07493809291294L69.5,81.1488276890346L69.75,64.62351553780692L69.875,78.54334586007255L70,89.46415601457869L70.375,117.93811471121651L70.5,122.86306708199638L70.875,115.67956161499023L71,93.36990519932338L71.25,112.61065128871373L71.375,99.09541756766183L71.625,116.81778662545341L72.125,103.98971721104213L72.25,98.5715081351144L72.375,91.23522404261998L72.625,92.63317271641323L72.75,105.77970068795341L73.25,90.6189684186663L73.375,75.67411477225167L73.5,84.86760493687221L73.75,65.22725786481585L73.875,42.52532414027621L74,60.70224598475865L74.125,62.72925458635602L75.25,66.56943021501813L75.37499999999999,67.61666706630162L76,91.5927745274135L76.875,70.69556862967355L77,48.17876379830497L77.50000000000001,57.75977815900531L77.625,72.97643225533622L77.75,58.53104346139091L78,76.61004148210797L78.24999999999999,116.16491263253349L78.75,75.94678824288505L79.875,64.99299730573382L80,55.818713596888955L80.125,-0.32093211582727577L80.25,29.99393626621793L80.625,50.44721112932477L81,94.88905824933732L81.375,33.77518299647738L82.25,82.66701071602958L82.375,70.52843366350446L82.5,97.32027544294084L82.625,103.22984967912947L82.875,87.16258239746094L83,104.38393456595284L83.375,133.52177701677596L83.5,103.0982175554548L83.625,96.52927017211914L83.875,118.79576056344169L84.125,101.7579367501395L84.25,123.35836083548409L84.74999999999999,100.23087801252092L85.625,82.8707640511649L86,98.6183602469308L86.125,81.50181906563895L86.375,70.69270706176758L86.625,76.40871320452008L87,54.100414821079795L88.37499999999999,73.81802422659737L88.75,113.16375841413225L88.875,96.85000828334263L89,88.19109780447823L89.25,69.60366221836635L89.5,119.6913343157087L89.625,100.70963287353516L89.875,48.383535657610196L90.50000000000001,68.10681969778878L90.625,109.37159892490932L91.375,96.8168819972447L91.625,100.5706285749163L91.75,70.67791421072823L91.875,68.41160093035016L92,32.95439801897322L92.125,62.494024004255024L92.25,60.956537519182476L92.375,65.3704332624163L92.5,54.89665821620396L92.62500000000001,44.63478469848633L92.75,78.81053870064872L93,54.30368314470563L93.37500000000001,78.83803885323661L93.5,68.598815373012L93.625,57.92924118041992L93.875,45.454163142613L94.375,61.31142044067383L94.625,39.24795586722237L94.87499999999999,107.09582792009627L95.375,92.502074105399L95.5,112.40073830740792L95.625,108.11556461879185L95.875,82.51917920793805L96.125,108.17260197230748L96.375,128.22229875837053L96.625,103.13701847621373L96.75,117.04676055908203L97.125,116.90014157976424L97.375,107.1635355268206L97.5,121.76994814191545L97.625,86.34645353044782L97.74999999999999,103.54166357857841L97.875,57.778839111328125L98,98.47639737810408L98.25,87.41837746756417L98.375,83.13330078125L99,94.72279630388533L99.12500000000001,118.58211299351284L99.375,75.04408482142857L99.5,85.67708914620536L99.625,68.68175234113421L100,55.21836635044643L100.25,73.40135083879743L100.5,99.05540411812919L100.75,80.70499365670341L101,82.10400935581752L101.25,86.35683277675084L101.375,75.71907533918109L101.5,36.41151155744279L101.875,124.4664181300572L102.375,109.07317134312221L102.5,129.88084411621094L102.75000000000001,89.71296691894531L103.125,96.76697431291853L103.625,96.0384385245187L104.24999999999999,98.024900163923L105.125,63.64194924490792L105.25,63.46962465558734L105.5,50.70902034214565L105.62500000000001,62.982479095458984L105.75,68.33783067975726L105.875,84.29019873482841L106,66.51054981776646L106.125,39.1832068307059L106.37499999999999,94.59043666294643L106.5,79.21392277308873L107,105.81685256958008L107.12499999999999,64.85452651977539L107.625,49.90108816964286L108,107.85972104753768L108.25,89.15408815656389L108.375,92.42781884329659L108.50000000000001,104.49102510724748L108.875,76.44756262642997L109,122.74952588762557L109.125,97.99332591465541L109.25000000000001,123.95259693690709L109.375,130.5450188773019L109.625,110.10867091587612L109.75,118.05936758858817L109.875,114.00248881748745L110.125,122.59504972185408L110.25,110.78497096470424L110.375,110.74636404854911L110.5,124.21896525791713L110.625,93.98242623465401L110.75,97.89181300571987L111,88.87787410191127L111.125,108.5012457711356L111.5,109.40036010742188L112,88.6723747253418L112.375,89.4380623953683L112.5,77.21664537702289L112.625,95.91805866786412L112.87499999999999,93.08719199044364L113.125,90.57939147949219L113.25,74.65665762765067L113.5,85.55384772164481L113.75,91.96797943115234L114.25,79.7798342023577L114.75,113.62248229980469L114.875,105.69938278198242L115.125,98.2345221383231L115.25,66.9349833897182L115.375,119.03191266741072L115.5,114.42721339634487L115.625,94.6584837777274L116.125,102.26128169468471L116.25,87.69012941632953L117,94.49484089442662L117.25,96.14586857386998L117.375,87.41692243303571L117.5,67.69761548723493L117.625,93.83430371965682L117.87500000000001,57.46935326712472L118.25,77.24341801234654L118.375,58.76098741803851L118.75,90.25559779575893L118.875,86.78291538783482L119,62.19030979701451L119.25,77.00139726911273L119.5,83.54992566789899L119.875,87.15404619489398L120.25,51.97693743024554L120.625,61.09010968889508L120.75000000000001,96.06259209769112L120.875,118.70220184326172L121.125,97.4233888898577L121.25,103.09676252092635L121.375,102.91473770141602L121.625,80.42344447544643L121.75,101.76894651140486L121.875,84.26716068812779L122.5,98.05788094656808L122.99999999999999,112.08184323992049L123.125,127.41383307320731L123.375,118.12765720912388L123.625,111.14999062674386L123.875,80.0681735447475L124,81.09882300240653L124.125,126.3529188973563L124.25,117.0076686314174L124.37500000000001,105.04733330862862L124.5,91.22106170654297L124.75,125.78312737601144L125,109.81320190429688L125.25,121.3788833618164L125.625,102.80415507725307L125.87499999999999,124.8664071219308L126,86.48521532331195L126.125,86.16176114763532L126.625,119.44082587105888L126.875,110.67831693376814L127,88.4348645891462L127.25000000000001,104.2283913748605L127.625,130.1504135131836L128.125,106.6651862008231L128.5,102.42623410906111L128.875,88.05602209908622L129,87.35338592529297L129.25,81.46534620012555L129.5,79.72269984654018L129.75,105.37699563162667L130.375,94.27867126464844L130.625,86.8523690359933L130.75,105.08152662004744L130.875,82.66652570452008L131,53.14193507603237L131.375,79.6856449672154L132.125,42.712926592145664L132.375,72.58915056501117L132.5,91.4771477835519L132.625,86.30959265572685L132.75,91.34886223929269L132.875,103.32132284981864L133.375,70.4780409676688L133.625,59.59142412458148L133.75,100.61554064069475L134.125,86.89650508335659L134.25,101.65860639299666L134.375,110.4862038748605L134.5,139.57467215401786L134.625,71.77180916922433L134.875,114.87439400809151L135,120.43820353916713L135.125,130.55893870762418L135.25,143.36251504080636L135.5,104.3911612374442L135.875,124.4682126726423L136.125,141.4381833757673L136.25,124.38513020106724L136.5,140.36475590297152L136.625,117.88471494402205L137,102.74066707066127L137.375,78.2554430280413L137.5,123.939453125L138.375,115.74018805367606L138.5,108.76737158639091L138.625,107.6014039175851L138.75,61.68104771205357L138.875,82.69227981567383L139,70.92381504603794L139.125,101.8507194519043L139.375,94.77381951468331L139.5,95.10314232962472L139.625,111.75091988699776L140,113.60177230834961L140.125,110.74165943690709L140.25,112.19426890781948L140.375,119.72218104771206L140.625,132.96697235107422L141.375,141.83084869384766L141.5,118.36584636143276L141.875,78.71746499197823L142.75,119.74400656563895L143.125,129.78917694091797L143.625,85.52062443324498L144,67.90408488682338L144.125,70.6270365033831L144.25,85.23669869559151L144.5,71.43647221156529L144.625,59.728197370256694L144.75,102.48259244646346L145.125,35.33949061802457L145.25,103.17145429338728L145.5,104.51372364589146L145.75,92.75689915248326L145.875,119.55902317592076L146.125,77.3462404523577L146.375,108.08597891671317L146.5,60.34852709089007L146.75,99.86338479178292L147,96.4399310520717L147.125,103.09128189086914L147.25,112.81973975045341L147.375,134.5806541442871L147.75,106.50828497750419L147.875,122.36685180664062L148,123.65266581944057L148.375,139.09727532523019L148.5,117.4313746861049L149.5,114.52625274658203L149.875,89.71830204554966L150,110.3896380833217L150.25,105.10180010114397L150.5,105.35919570922852L150.625,134.131048474993L151,152.04431806291853L151.125,121.59548950195312L151.37500000000003,125.07971518380302L151.5,108.78167942592076L151.625,110.44507489885603L151.75,100.23616463797433L152.125,84.11894117082868L153.125,99.92279870169503L153.375,107.75384303501674L153.625,127.25183922903878L153.875,114.79926572527205L154,104.76209803989956L154.125,114.52799878801619L154.37499999999997,154.11973081316268L154.625,142.7564446585519L154.75,94.98964963640486L154.875,89.71577998570034L155.25,95.09460612705776L155.375,96.07117680140904L155.5,116.9138674054827L156.125,122.88479559762138L156.375,114.43405205862862L156.49999999999997,125.96743174961635L156.875,70.23141261509487L157.12500000000003,101.3078945704869L157.875,87.46886716570172L157.99999999999997,88.36109433855329L158.25,124.2019898550851L158.5,115.11966432843889L159,54.863095419747495L159.25,78.04606355939593L159.5,62.59621592930385L159.75,129.4492323739188L160,103.19648088727678L160.25,123.0994131905692L160.375,116.93986402239119L160.5,106.23177991594588L160.625,83.39025987897601L160.75000000000003,88.34542846679688L161.5,104.42967115129744L161.62499999999997,128.04827662876676L162.375,153.92543520246232L162.625,135.25195857456754L162.875,100.07295826503209L163,150.34794180733817L163.125,134.32806015014648L164.25,116.14381463187081L164.5,121.61193139212472L164.875,113.18936702183315L165.25,103.18949672154018L165.375,118.03361347743443L165.625,106.90846797398159L165.75,88.39208657400948L165.87499999999997,111.97552871704102L166,115.3984489440918L166.25,119.55708312988281L166.375,118.5635370526995L166.625,115.36134556361607L166.75,129.3365156991141L166.875,114.37255259922573L167.25,124.99270411900112L167.37499999999997,128.38395309448242L167.625,104.02846963065011L168.625,111.94259643554688L168.75,138.254761832101L168.875,123.07913970947266L169,158.9959395272391L169.375,125.10634231567383L169.49999999999997,139.28376225062777L169.625,92.42660631452287L170,102.75007629394531L170.12500000000003,105.80172021048409L170.25,101.69915335518974L170.625,120.00203268868583L172.125,96.84258760724748L172.5,97.06826346261161L172.75,112.31804384504045L172.875,140.3592267717634L173.12499999999997,128.21128899710519L173.25,126.40510613577706L173.625,124.56904656546456L174,145.36483655657088L174.125,135.0242941720145L174.25,147.30464008876257L174.375,146.87346485682897L174.5,140.59120777675082L174.625,145.9977765764509L174.75,150.44217954363143L174.875,128.58251680646623L175.125,145.18363625662667L175.375,156.71168082101005L175.5,120.731198992048L175.75,89.32398768833706L176,130.84960610525948L176.25,112.35102462768555L176.375,133.68178231375558L176.5,149.65888595581055L176.625,135.85380935668945L176.74999999999997,131.21802084786552L176.875,133.78979437691825L178,99.65579986572266L178.125,70.16142545427594L178.375,122.91054970877511L178.5,120.07323237827846L179,118.0197421482631L179.125,122.19312068394252L179.25,133.63012858799527L179.50000000000003,131.77200099400113L179.875,128.71308190482003L180.25,124.36752428327287L180.5,132.5077634538923L180.75,94.92567661830357L180.875,98.48900767735073L181.125,117.83480725969588L181.25,108.00929859706334L181.625,107.30942698887416L181.75,95.39429473876953L181.875,124.0948508126395L182.125,117.19347654070174L182.25,110.68990870884487L182.375,91.58278329031808L182.625,92.98655210222518L182.75,81.21682630266461L182.875,51.75422014508929L183,90.78852844238281L183.12500000000003,92.87611498151506L183.25,81.7174551827567L183.875,72.09472983224052L184,76.08865410940987L184.25,104.62571280343192L184.75,116.24508503505162L184.875,102.87952586582729L185.125,101.77549416678292L185.625,119.57997567313058L185.875,143.10046332223075L186.12499999999997,122.11983544485909L186.375,151.58675820486886L186.5,112.8000967843192L186.625,126.0475071498326L186.75000000000003,128.1169057573591L187,139.65198298863004L187.375,148.81404440743583L187.5,127.9378880092076L187.75,144.62097440447127L187.875,136.01313563755582L188,140.28220694405692L188.24999999999997,135.66741943359375L188.75,106.96186774117606L189,152.4873275756836L189.125,139.105035509382L189.375,143.31207384381975L189.5,140.16454315185547L189.875,156.65076337541853L190,138.28653008597237L190.625,96.31722314017159L190.75,114.53653499058315L190.875,97.88861192975725L191,114.25396728515625L191.25,102.75870949881417L191.5,146.73319952828544L191.625,142.9852730887277L191.75,133.32384381975447L191.87499999999997,101.94224112374442L192,104.49893079485213L192.125,134.67455237252372L192.50000000000003,136.2101958138602L192.875,108.34531457083565L193.125,142.4212532043457L193.5,151.71223068237305L193.625,113.7325314113072L193.75,112.34200341360909L193.875,106.64277866908482L194.375,111.7587285723005L194.875,152.87218420846122L195.125,136.5620231628418L195.25,133.97012165614535L195.75,72.624265398298L195.875,61.126243046351846L196.25,108.00609752110073L196.625,127.0792236328125L196.875,98.72069767543248L197.125,135.6561186654227L197.25,106.07778876168388L197.375,132.05447169712613L197.75,117.54273332868303L198,103.13207135881697L198.125,110.67817143031529L198.375,100.63358306884766L198.5,96.05730547223772L198.625,131.55878993443082L198.875,136.94401822771346L199,110.27415684291294L199.375,161.24610192435128L200,130.90741947719027L201.5,140.57534790039062L201.625,124.2654778616769L201.75,115.31522096906389L201.87500000000003,116.00481033325195L202.375,124.31601606096541L202.75,117.15443311418807L202.875,119.73115376063755L203.125,118.17441231863839L203.25,120.12289755684989L203.37499999999997,139.41447285243441L203.5,137.952454158238L204.00000000000003,108.93731961931502L204.125,113.84321103777205L204.25,95.32615062168666L204.5,148.22383390154158L204.625,150.00843375069755L204.75,133.77990014212472L205,108.17347499302456L205.25,111.86868068150112L206,134.65510341099332L206.25,157.68087932041715L206.875,126.2210442679269L206.99999999999997,119.93578011648995L208.125,127.36373138427734L208.25,120.23052161080497L208.75,85.63261359078544L209.25,103.6812013898577L209.625,119.24560873849052L210,71.34693908691406L210.125,104.59952218191964L210.25,128.69896806989397L210.62499999999997,131.06892830984933L210.75,136.516480582101L211.125,87.66068921770368L211.375,54.19116047450474L211.5,115.7056552342006L211.625,99.7609988621303L212.5,84.07921872820172L212.625,107.50799070085799L212.74999999999997,158.33001872471402L212.875,154.9513315473284L213.125,169.021418435233L213.25,138.56875828334262L213.37500000000003,132.6433241707938L213.5,131.85178538731168L213.625,135.32868739536832L213.75,118.20976965767997L213.875,133.77645656040738L214,128.52135685511996L214.125,127.59915597098214L214.5,146.21535273960657L214.75,145.28020204816545L215.375,151.9184090750558L215.5,154.40598460606165L215.625,164.49985013689314L215.875,160.49423708234514L216.75,119.87209810529436L217.00000000000003,119.50057928902763L217.625,97.7257935660226L217.75,106.68623570033482L218.25,103.54263360159737L218.50000000000003,131.60903712681363L218.625,120.12066650390625L218.875,122.62012481689453L219,111.57418169294084L219.25,125.51006589617049L219.375,114.4802736554827L220.125,117.54278182983398L220.25,98.78656223842076L220.375,119.42831257411412L221,146.87186431884766L221.125,153.5863151550293L222.25,102.30551474434989L222.375,115.0709206717355L222.75000000000003,112.13107190813338L222.875,106.0099356515067L223,90.86564527239119L223.25,104.04777308872768L223.5,119.92350932529995L223.75,123.59441593715123L224.125,90.12168611798967L224.25000000000003,112.95331192016602L224.5,98.89840589250838L224.625,125.55900355747768L224.875,92.60295649937221L225.125,130.5850808279855L225.25,121.05824225289481L225.5,101.49355697631836L225.625,102.14463642665318L226.125,171.54488481794084L226.25,156.98920440673828L226.5,159.68761444091797L226.625,150.97190911429269L226.75,133.51581137520927L226.875,150.30884987967355L227.24999999999997,163.5692585536412L227.375,145.12528937203544L227.5,152.52001735142298L228,152.0439785548619L228.25,163.32684980119978L228.375,143.87653023856026L228.5,139.52694702148438L228.75,122.44401713779995L229,120.14394705636161L229.25,129.11457443237305L229.5,129.3011098589216L229.625,82.96393476213727L229.75,89.14526094709123L230.00000000000003,114.46126120431083L230.125,93.70330211094448L230.25,119.35987745012557L230.375,106.7413330078125L230.5,117.44995062691825L230.625,119.9644442967006L230.875,111.31731959751674L231,110.8990456717355L231.375,107.40090015956334L231.49999999999997,136.44144930158342L231.75,119.4559097290039L231.875,130.86323492867606L232.25,152.2910919189453L232.375,138.272707257952L232.5,125.79772622244698L232.625,121.17367499215263L232.99999999999997,107.08268410818917L233.5,122.45371736798967L233.75,135.65917423793246L233.875,162.28834315708704L234,144.57334627423967L234.375,143.4968147277832L234.5,99.7988782610212L234.75,82.56540080479213L235.25,114.88288170950753L235.375,110.12079620361328L235.5,129.1430446079799L235.625,109.29647064208984L235.875,113.7740968976702L236.375,107.14505658830916L236.5,112.71056365966797L236.75,124.1353977748326L236.875,90.0431627546038L237,107.5034315926688L237.125,126.91553224836076L237.375,109.8520998273577L237.75,118.45741653442383L237.875,103.60282352992466L238,107.54412405831474L238.125,132.16597584315707L238.25,139.72468621390206L238.625,128.422123500279L238.74999999999997,169.28380966186523L239.37500000000003,156.12898799351285L239.625,143.7185619899205L239.75,128.60827091761996L239.875,157.35635811941964L240.375,123.05105754307338L240.75,138.91010938371932L241,160.8311745779855L241.375,159.38879884992326L241.50000000000003,152.08806610107422L241.625,147.99175589425224L241.75,137.52443150111606L241.875,152.6072224208287L242.125,144.6969757080078L242.25,141.3773629324777L242.37499999999997,120.34115273611886L242.75,114.68654905046736L242.875,120.926755632673L243.125,105.49727848597935L243.25,121.6760984148298L243.375,126.65799113682338L243.75,63.86054393223354L244,100.29824611118862L244.125,114.001955304827L244.25,124.24607740129744L244.375,100.12000438145229L245.25,139.01302882603238L245.375,116.92686571393693L245.75,132.1692739214216L246.375,99.99918801443917L246.875,165.75331388201033L247.125,147.14463479178292L247.625,106.20258222307478L247.75,68.09988403320312L248,126.06744112287248L248.5,140.80252729143416L248.625,111.82439913068498L248.75000000000003,89.74138859340123L249,116.35634667532784L249.125,120.53622436523438L249.25,142.13960702078683L249.75,99.27540533883231L250,105.85167639596122L250.24999999999997,109.9555527823312L250.5,138.1097433907645L250.625,151.65470831734794L250.87500000000003,128.06132343837191L251.375,128.62936891828264L251.625,134.21219090053012L251.74999999999997,134.37035315377372L252.125,171.67981501988L252.5,147.62402016775948L253,112.93808255876814L253.25,140.41160801478793L253.375,128.17423411778043L253.75,154.08747754778182L254.25,152.55067007882255L254.375,142.21924591064453L254.50000000000003,140.90151814052035L254.625,133.7946444920131L255,144.250910622733L255.125,143.70381764003207L255.25,134.96735382080078L255.5,75.37326213291713L255.625,132.9061519077846L255.75,86.165835244315L256,88.91880907331195L256.125,121.7013190133231L256.5,135.612370627267L256.625,150.21888024466378L256.875,133.45688247680664L257.125,120.350464957101L257.25,112.04973547799247L257.375,141.71968405587333L258.25,140.37067304338728L258.375,157.4407501220703L258.5,128.14295087541853L258.625,103.8331069946289L259.375,111.07554136003768L259.5,123.01861027308873L259.625,110.02098083496094L259.75,150.8054531642369L259.875,144.89718845912387L260.125,114.92405918666294L260.5,113.505982535226L260.875,100.72398921421596L261.375,136.33959688459123L261.5,131.93947546822685L261.625,138.889593396868L261.75,117.96440233503068L262.125,118.05180140904018L262.25,114.04090172903878L262.75,106.46846553257534L263.125,97.50108773367745L263.25,81.25970132010323L263.625,143.0927516392299L263.75,109.40336717878068L263.875,116.33185359409877L264,138.2016045706613L264.125,141.57466561453683L264.5,121.80147389003209L264.625,132.07459967476981L264.75,150.40454265049524L264.875,159.53367178780692L265.375,122.58607700892857L265.5,150.2899829319545L265.625,156.92600740705217L266,157.37280000959123L266.25,131.23586927141463L266.375,131.1014725821359L266.5,146.9636284964425L266.75,166.0640607561384L266.875,167.6349160330636L267,165.163151877267L267.25,162.61427089146204L267.375,146.5532602582659L268,126.2516484941755L268.25,122.68598937988281L268.375,129.67175565447127L268.625,114.54051208496094L269,119.52264731270927L269.25,116.36192430768693L269.375,116.00587735857283L269.5,138.85472106933594L269.75,142.53183582850863L270,142.72773197719027L270.125,149.31006567818778L270.25,142.67564174107144L270.75,156.48731449672152L270.875,159.40140914916992L271.125,150.44790267944336L271.375,157.61360822405135L272,143.58547483171736L272.5,135.33877563476562L272.625,118.12431062970842L272.75,164.448002406529L272.875,160.8562981741769L274.375,102.77874047415597L274.625,98.35480499267578L274.875,79.71222359793526L275.125,125.23171779087612L275.25,122.0812770298549L275.375,111.04125104631697L275.5,114.7063375200544L275.625,112.0752955845424L275.75,103.45688356672014L275.875,130.34965624128068L276,122.40182113647461L276.125,118.43530000959123L276.25,106.03680528913225L276.375,143.84160940987724L276.625,162.63022777012415L276.75,119.19419751848494L276.875,121.25433240618025L277.125,115.85198320661272L277.375,99.99375588553292L277.75,140.81668962751115L278.125,139.30806132725309L278.375,132.17761611938477L278.5,145.79300471714566L278.75,140.06487328665597L279.125,170.74427631923132L279.375,128.73563494001115L279.5,138.23788343157088L279.75,160.4289060320173L280,140.42572184971402L280.125,144.36639186314176L280.25,168.39943967546736L280.5,156.64741679600309L280.625,139.25514657156808L280.875,145.39112418038505L281,129.09124537876676L281.25,111.13107517787388L281.375,120.83698000226701L282.375,149.80012130737305L282.5,149.84837995256697L282.75,103.12785175868443L282.875,102.60660988943917L283.375,144.41067341395785L284,151.43485260009766L284.125,168.68884604317802L284.25,129.60880116053988L284.375,167.81645584106445" style="fill: none;" fill="none"></path></g></g></g></g></g></g><g transform="translate(30, 178)" clip-path="url(#clip_1)"><clipPath id="clip_1"><rect width="300" height="22"></rect></clipPath><g><g><line x1="0" y1="0" x2="0" y2="5" style="visibility: inherit;" fill="rgb(0, 0, 0)" stroke="rgb(204, 204, 204)" stroke-width="1px"></line><line x1="25" y1="0" x2="25" y2="5" style="visibility: inherit;" fill="rgb(0, 0, 0)" stroke="rgb(204, 204, 204)" stroke-width="1px"></line><line x1="50" y1="0" x2="50" y2="5" style="visibility: inherit;" fill="rgb(0, 0, 0)" stroke="rgb(204, 204, 204)" stroke-width="1px"></line><line x1="75" y1="0" x2="75" y2="5" style="visibility: inherit;" fill="rgb(0, 0, 0)" stroke="rgb(204, 204, 204)" stroke-width="1px"></line><line x1="100" y1="0" x2="100" y2="5" style="visibility: inherit;" fill="rgb(0, 0, 0)" stroke="rgb(204, 204, 204)" stroke-width="1px"></line><line x1="125" y1="0" x2="125" y2="5" style="visibility: inherit;" fill="rgb(0, 0, 0)" stroke="rgb(204, 204, 204)" stroke-width="1px"></line><line x1="150" y1="0" x2="150" y2="5" style="visibility: inherit;" fill="rgb(0, 0, 0)" stroke="rgb(204, 204, 204)" stroke-width="1px"></line><line x1="175" y1="0" x2="175" y2="5" style="visibility: inherit;" fill="rgb(0, 0, 0)" stroke="rgb(204, 204, 204)" stroke-width="1px"></line><line x1="200" y1="0" x2="200" y2="5" style="visibility: inherit;" fill="rgb(0, 0, 0)" stroke="rgb(204, 204, 204)" stroke-width="1px"></line><line x1="225" y1="0" x2="225" y2="5" style="visibility: inherit;" fill="rgb(0, 0, 0)" stroke="rgb(204, 204, 204)" stroke-width="1px"></line><line x1="250" y1="0" x2="250" y2="5" style="visibility: inherit;" fill="rgb(0, 0, 0)" stroke="rgb(204, 204, 204)" stroke-width="1px"></line><line x1="275" y1="0" x2="275" y2="5" style="visibility: inherit;" fill="rgb(0, 0, 0)" stroke="rgb(204, 204, 204)" stroke-width="1px"></line><line x1="300" y1="0" x2="300" y2="5" style="visibility: inherit;" fill="rgb(0, 0, 0)" stroke="rgb(204, 204, 204)" stroke-width="1px"></line></g><g transform="translate(0, 8)"><text x="0" y="0" dx="0em" dy="0.95em" style="text-anchor: middle; visibility: hidden; font-family: &quot;Helvetica Neue&quot;, sans-serif; font-size: 12px; font-weight: 200;" fill="rgb(50, 49, 63)" stroke="none" stroke-width="1px">-200</text><text x="25" y="0" dx="0em" dy="0.95em" style="text-anchor: middle; visibility: inherit; font-family: &quot;Helvetica Neue&quot;, sans-serif; font-size: 12px; font-weight: 200;" fill="rgb(50, 49, 63)" stroke="none" stroke-width="1px">0</text><text x="50" y="0" dx="0em" dy="0.95em" style="text-anchor: middle; visibility: hidden; font-family: &quot;Helvetica Neue&quot;, sans-serif; font-size: 12px; font-weight: 200;" fill="rgb(50, 49, 63)" stroke="none" stroke-width="1px">200</text><text x="75" y="0" dx="0em" dy="0.95em" style="text-anchor: middle; visibility: inherit; font-family: &quot;Helvetica Neue&quot;, sans-serif; font-size: 12px; font-weight: 200;" fill="rgb(50, 49, 63)" stroke="none" stroke-width="1px">400</text><text x="100" y="0" dx="0em" dy="0.95em" style="text-anchor: middle; visibility: hidden; font-family: &quot;Helvetica Neue&quot;, sans-serif; font-size: 12px; font-weight: 200;" fill="rgb(50, 49, 63)" stroke="none" stroke-width="1px">600</text><text x="125" y="0" dx="0em" dy="0.95em" style="text-anchor: middle; visibility: inherit; font-family: &quot;Helvetica Neue&quot;, sans-serif; font-size: 12px; font-weight: 200;" fill="rgb(50, 49, 63)" stroke="none" stroke-width="1px">800</text><text x="150" y="0" dx="0em" dy="0.95em" style="text-anchor: middle; visibility: hidden; font-family: &quot;Helvetica Neue&quot;, sans-serif; font-size: 12px; font-weight: 200;" fill="rgb(50, 49, 63)" stroke="none" stroke-width="1px">1k</text><text x="175" y="0" dx="0em" dy="0.95em" style="text-anchor: middle; visibility: inherit; font-family: &quot;Helvetica Neue&quot;, sans-serif; font-size: 12px; font-weight: 200;" fill="rgb(50, 49, 63)" stroke="none" stroke-width="1px">1.2k</text><text x="200" y="0" dx="0em" dy="0.95em" style="text-anchor: middle; visibility: hidden; font-family: &quot;Helvetica Neue&quot;, sans-serif; font-size: 12px; font-weight: 200;" fill="rgb(50, 49, 63)" stroke="none" stroke-width="1px">1.4k</text><text x="225" y="0" dx="0em" dy="0.95em" style="text-anchor: middle; visibility: inherit; font-family: &quot;Helvetica Neue&quot;, sans-serif; font-size: 12px; font-weight: 200;" fill="rgb(50, 49, 63)" stroke="none" stroke-width="1px">1.6k</text><text x="250" y="0" dx="0em" dy="0.95em" style="text-anchor: middle; visibility: hidden; font-family: &quot;Helvetica Neue&quot;, sans-serif; font-size: 12px; font-weight: 200;" fill="rgb(50, 49, 63)" stroke="none" stroke-width="1px">1.8k</text><text x="275" y="0" dx="0em" dy="0.95em" style="text-anchor: middle; visibility: inherit; font-family: &quot;Helvetica Neue&quot;, sans-serif; font-size: 12px; font-weight: 200;" fill="rgb(50, 49, 63)" stroke="none" stroke-width="1px">2k</text><text x="300" y="0" dx="0em" dy="0.95em" style="text-anchor: middle; visibility: hidden; font-family: &quot;Helvetica Neue&quot;, sans-serif; font-size: 12px; font-weight: 200;" fill="rgb(50, 49, 63)" stroke="none" stroke-width="1px">2.2k</text></g><line x1="0" y1="0" x2="300" y2="0" fill="rgb(0, 0, 0)" stroke="rgb(204, 204, 204)" stroke-width="1px"></line></g></g></g></g></svg>