<svg viewBox="0 0 330 200" xmlns="http://www.w3.org/2000/svg"><g><g><g><g><g><line x1="40" y1="178" x2="35" y2="178" style="visibility: inherit;" fill="rgb(0, 0, 0)" stroke="rgb(204, 204, 204)" stroke-width="1px"></line><line x1="40" y1="161.8181818181818" x2="35" y2="161.8181818181818" style="visibility: inherit;" fill="rgb(0, 0, 0)" stroke="rgb(204, 204, 204)" stroke-width="1px"></line><line x1="40" y1="145.63636363636363" x2="35" y2="145.63636363636363" style="visibility: inherit;" fill="rgb(0, 0, 0)" stroke="rgb(204, 204, 204)" stroke-width="1px"></line><line x1="40" y1="129.45454545454544" x2="35" y2="129.45454545454544" style="visibility: inherit;" fill="rgb(0, 0, 0)" stroke="rgb(204, 204, 204)" stroke-width="1px"></line><line x1="40" y1="113.27272727272727" x2="35" y2="113.27272727272727" style="visibility: inherit;" fill="rgb(0, 0, 0)" stroke="rgb(204, 204, 204)" stroke-width="1px"></line><line x1="40" y1="97.0909090909091" x2="35" y2="97.0909090909091" style="visibility: inherit;" fill="rgb(0, 0, 0)" stroke="rgb(204, 204, 204)" stroke-width="1px"></line><line x1="40" y1="80.90909090909089" x2="35" y2="80.90909090909089" style="visibility: inherit;" fill="rgb(0, 0, 0)" stroke="rgb(204, 204, 204)" stroke-width="1px"></line><line x1="40" y1="64.72727272727275" x2="35" y2="64.72727272727275" style="visibility: inherit;" fill="rgb(0, 0, 0)" stroke="rgb(204, 204, 204)" stroke-width="1px"></line><line x1="40" y1="48.54545454545453" x2="35" y2="48.54545454545453" style="visibility: inherit;" fill="rgb(0, 0, 0)" stroke="rgb(204, 204, 204)" stroke-width="1px"></line><line x1="40" y1="32.363636363636346" x2="35" y2="32.363636363636346" style="visibility: inherit;" fill="rgb(0, 0, 0)" stroke="rgb(204, 204, 204)" stroke-width="1px"></line><line x1="40" y1="16.181818181818187" x2="35" y2="16.181818181818187" style="visibility: inherit;" fill="rgb(0, 0, 0)" stroke="rgb(204, 204, 204)" stroke-width="1px"></line><line x1="40" y1="0" x2="35" y2="0" style="visibility: inherit;" fill="rgb(0, 0, 0)" stroke="rgb(204, 204, 204)" stroke-width="1px"></line></g><g transform="translate(30, 0)"><text x="0" y="178" dx="0em" dy="0.3em" style="text-anchor: end; visibility: hidden; font-family: &quot;Helvetica Neue&quot;, sans-serif; font-size: 12px; font-weight: 200;" fill="rgb(50, 49, 63)" stroke="none" stroke-width="1px">0.7</text><text x="0" y="161.8181818181818" dx="0em" dy="0.3em" style="text-anchor: end; visibility: inherit; font-family: &quot;Helvetica Neue&quot;, sans-serif; font-size: 12px; font-weight: 200;" fill="rgb(50, 49, 63)" stroke="none" stroke-width="1px">0.8</text><text x="0" y="145.63636363636363" dx="0em" dy="0.3em" style="text-anchor: end; visibility: hidden; font-family: &quot;Helvetica Neue&quot;, sans-serif; font-size: 12px; font-weight: 200;" fill="rgb(50, 49, 63)" stroke="none" stroke-width="1px">0.9</text><text x="0" y="129.45454545454544" dx="0em" dy="0.3em" style="text-anchor: end; visibility: inherit; font-family: &quot;Helvetica Neue&quot;, sans-serif; font-size: 12px; font-weight: 200;" fill="rgb(50, 49, 63)" stroke="none" stroke-width="1px">1</text><text x="0" y="113.27272727272727" dx="0em" dy="0.3em" style="text-anchor: end; visibility: hidden; font-family: &quot;Helvetica Neue&quot;, sans-serif; font-size: 12px; font-weight: 200;" fill="rgb(50, 49, 63)" stroke="none" stroke-width="1px">1.1</text><text x="0" y="97.0909090909091" dx="0em" dy="0.3em" style="text-anchor: end; visibility: inherit; font-family: &quot;Helvetica Neue&quot;, sans-serif; font-size: 12px; font-weight: 200;" fill="rgb(50, 49, 63)" stroke="none" stroke-width="1px">1.2</text><text x="0" y="80.90909090909089" dx="0em" dy="0.3em" style="text-anchor: end; visibility: hidden; font-family: &quot;Helvetica Neue&quot;, sans-serif; font-size: 12px; font-weight: 200;" fill="rgb(50, 49, 63)" stroke="none" stroke-width="1px">1.3</text><text x="0" y="64.72727272727275" dx="0em" dy="0.3em" style="text-anchor: end; visibility: inherit; font-family: &quot;Helvetica Neue&quot;, sans-serif; font-size: 12px; font-weight: 200;" fill="rgb(50, 49, 63)" stroke="none" stroke-width="1px">1.4</text><text x="0" y="48.54545454545453" dx="0em" dy="0.3em" style="text-anchor: end; visibility: hidden; font-family: &quot;Helvetica Neue&quot;, sans-serif; font-size: 12px; font-weight: 200;" fill="rgb(50, 49, 63)" stroke="none" stroke-width="1px">1.5</text><text x="0" y="32.363636363636346" dx="0em" dy="0.3em" style="text-anchor: end; visibility: inherit; font-family: &quot;Helvetica Neue&quot;, sans-serif; font-size: 12px; font-weight: 200;" fill="rgb(50, 49, 63)" stroke="none" stroke-width="1px">1.6</text><text x="0" y="16.181818181818187" dx="0em" dy="0.3em" style="text-anchor: end; visibility: hidden; font-family: &quot;Helvetica Neue&quot;, sans-serif; font-size: 12px; font-weight: 200;" fill="rgb(50, 49, 63)" stroke="none" stroke-width="1px">1.7</text><text x="0" y="0" dx="0em" dy="0.3em" style="text-anchor: end; visibility: hidden; font-family: &quot;Helvetica Neue&quot;, sans-serif; font-size: 12px; font-weight: 200;" fill="rgb(50, 49, 63)" stroke="none" stroke-width="1px">1.8</text></g><line x1="40" y1="0" x2="40" y2="178" fill="rgb(0, 0, 0)" stroke="rgb(204, 204, 204)" stroke-width="1px"></line></g></g><g transform="translate(40, 0)" clip-path="url(#clip_0)"><clipPath id="clip_0"><rect width="290" height="178"></rect></clipPath><g><g><g><line x1="0" y1="0" x2="0" y2="178" fill="rgb(0, 0, 0)" stroke="rgb(60, 60, 60)" stroke-width="1px" opacity="0.25"></line><line x1="24.166666666666664" y1="0" x2="24.166666666666664" y2="178" fill="rgb(0, 0, 0)" stroke="rgb(60, 60, 60)" stroke-width="1px" opacity="0.25"></line><line x1="48.33333333333333" y1="0" x2="48.33333333333333" y2="178" fill="rgb(0, 0, 0)" stroke="rgb(60, 60, 60)" stroke-width="1px" opacity="0.25"></line><line x1="72.5" y1="0" x2="72.5" y2="178" fill="rgb(0, 0, 0)" stroke="rgb(60, 60, 60)" stroke-width="1px" opacity="0.25"></line><line x1="96.66666666666666" y1="0" x2="96.66666666666666" y2="178" fill="rgb(0, 0, 0)" stroke="rgb(60, 60, 60)" stroke-width="1px" opacity="0.25"></line><line x1="120.83333333333334" y1="0" x2="120.83333333333334" y2="178" fill="rgb(0, 0, 0)" stroke="rgb(60, 60, 60)" stroke-width="1px" opacity="0.25"></line><line x1="145" y1="0" x2="145" y2="178" fill="rgb(0, 0, 0)" stroke="rgb(60, 60, 60)" stroke-width="1px" opacity="0.25"></line><line x1="169.16666666666669" y1="0" x2="169.16666666666669" y2="178" fill="rgb(0, 0, 0)" stroke="rgb(60, 60, 60)" stroke-width="1px" opacity="0.25"></line><line x1="193.33333333333331" y1="0" x2="193.33333333333331" y2="178" fill="rgb(0, 0, 0)" stroke="rgb(60, 60, 60)" stroke-width="1px" opacity="0.25"></line><line x1="217.5" y1="0" x2="217.5" y2="178" fill="rgb(0, 0, 0)" stroke="rgb(60, 60, 60)" stroke-width="1px" opacity="0.25"></line><line x1="241.66666666666669" y1="0" x2="241.66666666666669" y2="178" fill="rgb(0, 0, 0)" stroke="rgb(60, 60, 60)" stroke-width="1px" opacity="0.25"></line><line x1="265.8333333333333" y1="0" x2="265.8333333333333" y2="178" fill="rgb(0, 0, 0)" stroke="rgb(60, 60, 60)" stroke-width="1px" opacity="0.25"></line><line x1="290" y1="0" x2="290" y2="178" fill="rgb(0, 0, 0)" stroke="rgb(60, 60, 60)" stroke-width="1px" opacity="0.25"></line></g><g><line x1="0" y1="178" x2="290" y2="178" fill="rgb(0, 0, 0)" stroke="rgb(60, 60, 60)" stroke-width="1px" opacity="0.25"></line><line x1="0" y1="161.8181818181818" x2="290" y2="161.8181818181818" fill="rgb(0, 0, 0)" stroke="rgb(60, 60, 60)" stroke-width="1px" opacity="0.25"></line><line x1="0" y1="145.63636363636363" x2="290" y2="145.63636363636363" fill="rgb(0, 0, 0)" stroke="rgb(60, 60, 60)" stroke-width="1px" opacity="0.25"></line><line x1="0" y1="129.45454545454544" x2="290" y2="129.45454545454544" fill="rgb(0, 0, 0)" stroke="rgb(60, 60, 60)" stroke-width="1px" opacity="0.25"></line><line x1="0" y1="113.27272727272727" x2="290" y2="113.27272727272727" fill="rgb(0, 0, 0)" stroke="rgb(60, 60, 60)" stroke-width="1px" opacity="0.25"></line><line x1="0" y1="97.0909090909091" x2="290" y2="97.0909090909091" fill="rgb(0, 0, 0)" stroke="rgb(60, 60, 60)" stroke-width="1px" opacity="0.25"></line><line x1="0" y1="80.90909090909089" x2="290" y2="80.90909090909089" fill="rgb(0, 0, 0)" stroke="rgb(60, 60, 60)" stroke-width="1px" opacity="0.25"></line><line x1="0" y1="64.72727272727275" x2="290" y2="64.72727272727275" fill="rgb(0, 0, 0)" stroke="rgb(60, 60, 60)" stroke-width="1px" opacity="0.25"></line><line x1="0" y1="48.54545454545453" x2="290" y2="48.54545454545453" fill="rgb(0, 0, 0)" stroke="rgb(60, 60, 60)" stroke-width="1px" opacity="0.25"></line><line x1="0" y1="32.363636363636346" x2="290" y2="32.363636363636346" fill="rgb(0, 0, 0)" stroke="rgb(60, 60, 60)" stroke-width="1px" opacity="0.25"></line><line x1="0" y1="16.181818181818187" x2="290" y2="16.181818181818187" fill="rgb(0, 0, 0)" stroke="rgb(60, 60, 60)" stroke-width="1px" opacity="0.25"></line><line x1="0" y1="0" x2="290" y2="0" fill="rgb(0, 0, 0)" stroke="rgb(60, 60, 60)" stroke-width="1px" opacity="0.25"></line></g></g></g><g><g><line x1="0" y1="291.27272727272725" x2="290" y2="291.27272727272725" fill="rgb(0, 0, 0)" stroke="rgb(153, 153, 153)" stroke-width="1.5px"></line></g></g><g><g><line x1="24.166666666666664" y1="0" x2="24.166666666666664" y2="178" fill="rgb(0, 0, 0)" stroke="rgb(153, 153, 153)" stroke-width="1.5px"></line></g></g><g><g><g><g><g><path stroke="rgb(255, 112, 67)" stroke-width="2px" d="M24.891666666666666,-12.676738147153458L25.375,52.2567074487269L25.495833333333334,16.390333276070578L25.737499999999997,13.26049653980948L25.858333333333334,15.838058945842818L25.979166666666668,-6.880299589554596L27.066666666666666,-4.935664721046521L28.154166666666665,62.28862334252754L28.275000000000002,-1.802120125190072L28.516666666666666,8.359832704897997L29,35.88902706014335L29.241666666666667,16.306275961188987L29.483333333333334,50.51645089056436L29.604166666666668,63.504468246175676L29.845833333333335,40.23644054996262L30.0875,81.84936439953783L30.208333333333336,81.95867789771657L30.570833333333336,75.85013220342361L30.691666666666666,63.331354886809294L30.8125,39.05452442696031L30.933333333333334,73.3740550137054L31.054166666666667,68.91689510022431L31.416666666666668,47.53364682523343L31.5375,91.1331731654998L31.77916666666667,52.96372244418774L32.020833333333336,51.220136045114046L32.141666666666666,80.06985912512744L32.2625,68.87356122529845L32.38333333333333,43.00962988510389L32.74583333333333,68.37393099608738L32.86666666666667,78.69961930734168L32.987500000000004,63.555422409369754L33.108333333333334,91.82335148730651L33.7125,29.84236471069292L34.31666666666666,28.54272515311058L34.4375,40.1894420600662L34.55833333333334,67.48557270330258L34.67916666666667,58.92020396968934L34.8,61.63970017118389L34.920833333333334,47.759835990652505L35.525,54.448535102070565L36.49166666666667,63.85242504502281L36.854166666666664,8.512655689541532L36.975,48.46478611975172L37.82083333333333,47.76523722592458L38.18333333333333,64.31399801762494L38.425000000000004,61.9270630128142L38.54583333333333,30.861257334150878L38.666666666666664,28.700996456775016L39.150000000000006,19.448269023727363L39.27083333333333,-2.1555139395877916L39.391666666666666,-1.9161726545371778L39.75416666666667,9.394966985616179L39.875,-12.573855135877011L40.72083333333333,53.869130094972675L40.9625,0.7922406495404459L41.204166666666666,2.339860161974002L41.324999999999996,-6.349398154819454L41.44583333333333,48.71568781269502L41.56666666666667,54.97657069049268L42.05,62.73413656780629L42.29166666666667,64.6004436485152L42.65416666666667,99.5125431649843L42.775,85.83695419125807L42.895833333333336,87.32057290430298L43.137499999999996,81.11143412484242L43.25833333333333,74.32651799452366L43.37916666666667,79.01396763645164L43.74166666666667,83.51701037757971L43.983333333333334,68.80974504508391L44.104166666666664,103.98856894890423L44.34583333333334,80.30743601061297L44.46666666666666,44.798085492259816L44.829166666666666,67.78095321934794L45.43333333333334,74.66199161632554L45.55416666666667,81.82639212374629L45.675,90.71047525004374L45.916666666666664,54.556837646779016L46.27916666666666,22.898381453571574L46.520833333333336,37.5753884234428L46.641666666666666,57.969076513108504L46.88333333333333,45.956160703839856L47.125,70.07533182329985L47.24583333333333,73.67534532587183L48.09166666666667,69.18477302826106L49.05833333333333,65.88070111818344L49.17916666666667,65.9723760318905L49.300000000000004,27.886266622541484L49.78333333333333,35.45059178621793L50.145833333333336,54.81014341012751L50.50833333333333,101.22897511139477L50.62916666666667,68.01943550890232L50.99166666666667,58.964869954067666L51.1125,57.166638603264545L51.35416666666667,-13.282010969405803L51.474999999999994,6.956126115287788L51.59583333333333,14.06724709529766L51.8375,13.945893072124477L52.199999999999996,22.248513302500243L52.32083333333333,1.2799249653038487L52.44166666666667,-5.4927661535699315L52.80416666666667,45.24947598946761L53.166666666666664,56.15841054706027L53.770833333333336,15.364972301602734L54.0125,49.65923574872423L54.25416666666666,76.68607207783195L54.375,47.785068381874794L54.979166666666664,74.80791782760173L55.34166666666666,91.17151904313056L55.4625,101.96457378036997L55.583333333333336,95.66289992840456L55.704166666666666,76.64206762079135L55.94583333333333,90.57831417280337L56.42916666666667,69.64964197818833L56.67083333333333,93.77694758297848L56.9125,72.96563949545583L57.15416666666667,67.87433948054829L57.75833333333333,84.95830192231655L58,68.15151884313377L58.483333333333334,58.58334217164122L59.0875,44.51677845694397L59.329166666666666,55.4913371395523L59.449999999999996,53.995240494549705L60.05416666666667,50.14657061096658L60.175,55.13055541236689L60.295833333333334,49.19612882243317L60.537499999999994,46.893490187872146L60.65833333333333,89.83730575373208L60.77916666666667,86.17771625492914L61.262499999999996,67.31677365456301L61.38333333333333,84.89147736904049L61.625,82.62680398569785L61.9875,50.20467212364329L62.47083333333334,62.21779073010748L62.59166666666666,46.48044241831903L62.7125,60.22524472743008L62.833333333333336,56.88913996278484L63.075,101.4421501945871L63.4375,73.44249532508312L63.55833333333334,52.81315273769185L63.67916666666667,57.49144258314938L64.04166666666667,23.67765059583016L64.1625,8.994409497485918L64.40416666666667,12.909815646490955L65.12916666666666,42.625113725262196L65.37083333333332,56.606203232895396L65.73333333333333,71.99907195849246L65.85416666666667,39.00618032498815L66.09583333333333,22.616866676335803L66.21666666666667,43.033138195844316L66.82083333333333,62.513464522553576L66.94166666666666,63.622351606138295L67.18333333333334,74.90876071633569L67.425,46.76004738860979L67.54583333333333,72.79936490642062L67.66666666666667,83.05457001192481L68.02916666666667,110.65419736759283L68.14999999999999,106.98967511097285L68.5125,105.60753919724257L68.63333333333333,99.65688100479211L68.875,97.69922530884305L68.99583333333334,75.53337829732071L69.2375,99.7862907534176L69.72083333333333,86.64950105305671L69.84166666666667,92.43552607543748L69.96249999999999,82.47365672421998L70.20416666666667,83.86978484682845L70.325,95.93306565236792L70.80833333333334,75.38201961555505L70.92916666666667,68.80167959206975L71.05,66.16976805809729L71.29166666666666,59.37887547865863L71.4125,34.815935732571404L71.53333333333333,69.86917168483208L71.65416666666667,68.19345567889562L72.74166666666667,61.582764201993186L72.8625,54.594525171832416L73.46666666666667,70.10513738146493L74.3125,46.10344612169001L74.43333333333332,27.821405729566976L74.91666666666667,55.46393585804438L75.0375,67.8128344615127L75.15833333333333,41.34110034938104L75.4,51.3382432259875L75.64166666666667,91.01519874104349L76.125,54.713241601743235L77.21249999999999,56.81903218743044L77.33333333333333,32.55606936801743L77.45416666666667,12.36864367003372L77.575,12.224991467136022L77.9375,48.44119010225995L78.30000000000001,80.63417248196767L78.6625,33.57671450743317L79.50833333333334,64.65243899377644L79.62916666666668,72.3564014705278L79.75,85.75010976615313L79.87083333333332,104.85631505451263L80.1125,72.35868867532085L80.23333333333333,85.36667764920834L80.59583333333333,114.69688761231188L80.71666666666667,100.08969981058827L80.8375,82.8884090601732L81.07916666666667,95.30557077870732L81.32083333333333,73.92665250081204L81.44166666666666,97.16293403039043L81.925,72.28948352259326L82.77083333333333,88.89332572567108L83.13333333333334,80.3673993216733L83.25416666666668,101.27578775301966L83.49583333333332,58.928449754339155L83.7375,68.48715887468266L84.1,57.45274076199662L85.42916666666666,63.96353108176619L85.79166666666667,107.2055245977143L85.91250000000001,85.20558946165261L86.03333333333335,86.06867223256774L86.27499999999999,58.88747450007223L86.51666666666667,105.45690652692349L86.6375,82.43228170008483L86.87916666666666,44.63888248795132L87.48333333333333,41.754656955571534L87.60416666666666,84.45065270251814L88.32916666666667,81.30294301002994L88.57083333333334,82.05003536088996L88.69166666666668,45.72287858076558L88.8125,40.44587995852362L88.93333333333332,-0.27398050587515854L89.05416666666666,25.22332832605892L89.175,24.981731862563834L89.29583333333333,36.638357662529415L89.41666666666667,20.820557740551465L89.53750000000001,14.606818837788978L89.65833333333333,48.67117175150338L89.9,22.151555849033628L90.2625,51.465483467902814L90.38333333333333,59.117136691691115L90.50416666666666,54.83300138973483L90.74583333333334,43.89787727140151L91.22916666666667,46.356088549925346L91.47083333333333,14.06764481578341L91.71249999999999,74.86866958771286L92.19583333333334,78.09943621418239L92.31666666666668,90.36103004699484L92.4375,96.92794491245606L92.67916666666666,71.27593046485329L92.92083333333333,96.99321549354723L93.1625,115.87796185043348L93.40416666666667,86.16077891450647L93.525,91.40351743198188L93.88749999999999,87.33421541867452L94.12916666666666,79.95663921798534L94.25,111.32751416574567L94.37083333333334,70.74015482700582L94.49166666666666,77.32793351697093L94.6125,60.01167354011568L94.73333333333333,74.89804724378345L94.97500000000001,85.18085066748503L95.09583333333335,63.18244283792119L95.7,77.74935748943717L95.82083333333334,111.31044270162295L96.0625,60.876201835316806L96.18333333333334,70.00214216546276L96.30416666666667,72.9942902713491L96.66666666666666,51.364140517988844L96.90833333333333,44.32071061717426L97.15,81.5152781637247L97.39166666666667,88.41601062299361L97.63333333333334,73.23344355782241L97.875,72.45121425167079L97.99583333333332,61.958340009079876L98.11666666666666,56.98578882807239L98.47916666666667,93.6076421971189L98.9625,87.6468527423763L99.08333333333333,106.85248612111641L99.325,81.11835419416249L99.6875,74.19728454820353L100.17083333333333,76.05025123308282L100.77499999999999,81.53556978776528L101.62083333333332,37.038183619709145L101.74166666666666,29.65755872514356L101.98333333333333,30.23550508531727L102.10416666666667,34.979383449957226L102.225,57.52959590484808L102.34583333333333,53.2806427948657L102.46666666666667,27.752906576289405L102.5875,7.725291162505897L102.82916666666667,52.34901791367504L102.94999999999999,53.609050082443034L103.43333333333334,74.62083688801039L103.55416666666666,41.22138887985324L104.03750000000001,20.18671900302752L104.39999999999999,79.67845385530633L104.64166666666667,76.33037713055877L104.7625,78.75650679377668L104.88333333333334,104.06547371473626L105.24583333333334,77.15043187827138L105.36666666666667,118.19130090033289L105.48750000000001,98.60746228469904L105.60833333333333,108.30755012379534L105.72916666666666,107.27980272468109L105.97083333333333,93.91499589114972L106.09166666666667,100.24494497707462L106.2125,94.39576167159044L106.45416666666667,105.1086699975077L106.575,98.88709344903361L106.69583333333334,96.61889761176468L106.81666666666668,120.44208089831949L106.9375,84.0326821298602L107.05833333333332,89.44132815101243L107.3,76.42216275349041L107.42083333333333,107.06661879772776L107.78333333333333,87.69816428032496L108.26666666666667,88.6695925872444L108.62916666666666,76.00632666219484L108.75,74.13408481524479L108.87083333333334,76.98042661715816L109.1125,78.76000104286626L109.35416666666667,73.25243143341645L109.475,63.43145392684576L109.71666666666667,83.83496717492554L109.95833333333333,92.29428193369888L110.44166666666668,77.8959450199662L110.925,98.64812039817156L111.04583333333333,89.4318408397002L111.2875,78.13895313376611L111.40833333333333,65.4213361672814L111.52916666666667,89.54131434038479L111.65,101.99582023015721L111.77083333333334,72.76834919063089L112.25416666666666,77.7286143926141L112.375,60.71092517433475L113.10000000000001,92.07622991213509L113.34166666666665,79.20573975973478L113.46249999999999,82.22817453157883L113.58333333333333,66.2428140778193L113.70416666666667,71.34790728267171L113.94583333333334,50.19096444402864L114.30833333333334,50.63268653684442L114.42916666666667,40.43336521847925L114.79166666666666,65.68084567350826L114.9125,46.04894641671078L115.03333333333333,23.86910334266011L115.275,48.12969270091318L115.51666666666667,63.49853833930456L115.87916666666668,67.60701673014874L116.24166666666666,18.79762261266717L116.60416666666667,21.4200044711109L116.72500000000001,65.06338614348152L116.84583333333333,88.9982358865113L117.0875,72.65498884627654L117.20833333333333,81.49495193207083L117.32916666666667,85.2816115908139L117.57083333333333,64.57149331272072L117.69166666666666,85.46154305771852L117.8125,80.97742161753122L118.41666666666667,92.1249395455299L118.89999999999999,82.8838617516748L119.02083333333333,104.85894479435207L119.2625,102.5529960865765L119.50416666666668,82.03924959549295L119.74583333333332,73.43667228182068L119.86666666666666,78.22084777767908L119.9875,106.77949694885265L120.10833333333333,91.35918494273587L120.22916666666667,78.04089256079332L120.35,84.83747432742535L120.59166666666667,95.33815063048807L120.83333333333334,93.38045605321288L121.07499999999999,86.76673866624893L121.4375,83.34605498030197L121.67916666666666,83.27672643393305L121.8,65.18516353210615L121.92083333333333,67.47605855374596L122.40416666666665,89.60784618117373L122.64583333333333,86.26061531116461L122.76666666666667,74.03028648455339L123.00833333333334,74.9861916598253L123.37083333333334,104.85634350379604L123.85416666666666,82.6763533176122L124.21666666666667,96.25792062042979L124.57916666666667,53.622432481637034L124.7,58.811786976128985L124.94166666666668,58.42812986254728L125.18333333333332,66.38989269604384L125.425,86.10489625140906L126.02916666666667,79.92756144053374L126.27083333333333,63.22109690528367L126.39166666666667,70.09956527704438L126.5125,38.32667418122821L126.63333333333333,16.317633045112586L126.99583333333334,37.77761332449822L127.72083333333333,26.198150041509678L127.96249999999999,60.629262981846196L128.08333333333334,73.30904875060146L128.20416666666665,59.923716075378806L128.325,67.13259577498506L128.44583333333333,79.26962644835841L128.92916666666667,57.323323876760995L129.17083333333335,41.89738154471911L129.29166666666669,75.55618673357135L129.65416666666667,78.32674331332863L129.775,85.76608105099956L129.89583333333334,85.88443737658675L130.01666666666665,118.4433728996824L130.1375,65.09989420178232L130.37916666666666,101.29427882828134L130.5,107.07231869536076L130.62083333333334,110.39442107653082L130.74166666666665,123.9601466917555L130.98333333333332,94.60458129914157L131.34583333333333,103.50909499819589L131.5875,114.45079333137443L131.70833333333334,95.8031785469981L131.95000000000002,112.45488709542875L132.07083333333335,87.01005703049398L132.43333333333334,95.56544222226914L132.79583333333335,88.4624633122068L132.91666666666666,100.18652532776154L133.7625,86.19957704584941L133.88333333333333,78.54538857686384L134.00416666666666,84.45869051780527L134.125,47.33621444178988L134.24583333333334,80.99864111299367L134.36666666666667,76.21392489859787L134.4875,72.68576408517949L134.72916666666666,82.22425136813429L134.85,96.3845006016714L134.97083333333333,91.97818909057645L135.33333333333334,79.57587090174609L135.45416666666668,83.39724732096614L135.57500000000002,78.39753010941534L135.69583333333333,80.58137622694778L135.9375,110.77378277885742L136.6625,118.37071506402575L136.78333333333333,97.85722664223957L137.14583333333334,52.95059196618965L137.99166666666667,99.88348990481884L138.35416666666669,104.50777182031086L138.8375,67.5315782273877L139.2,38.53864378561343L139.32083333333333,54.394430813357474L139.44166666666666,63.88744813513688L139.68333333333334,47.86598730599755L139.80416666666665,56.26453715743878L139.92499999999998,81.39875501507026L140.2875,37.92011005342266L140.40833333333333,74.10357161551568L140.65,79.75692076681739L140.89166666666668,73.81319047516769L141.01250000000002,96.37594010757437L141.25416666666666,59.81804275372218L141.49583333333334,69.79318870009075L141.61666666666667,16.962863296825304L141.85833333333335,88.04885150953345L142.1,75.63510330220198L142.22083333333333,84.26324487385222L142.34166666666667,88.2402383285116L142.4625,103.20933105546102L142.825,84.368743989487L142.94583333333333,104.82076182312134L143.06666666666666,120.76002059464335L143.42916666666667,114.76448207524021L143.55,99.35646727710674L144.51666666666668,105.11283667924121L144.87916666666666,86.75562227721835L145,104.0234356602173L145.24166666666667,90.52768669788773L145.48333333333335,107.06570900925949L145.60416666666666,106.43817116229584L145.96666666666667,124.62347852398565L146.0875,98.34082318346879L146.32916666666668,96.51261590146059L146.45,90.18557786534136L146.57083333333333,82.96508660862011L146.69166666666666,67.2225615953095L147.05416666666667,67.16875812165237L148.02083333333331,83.55434701527766L148.2625,84.49568555687638L148.50416666666666,119.32607614919857L148.74583333333334,94.31380199532731L148.86666666666665,86.41713259058608L148.9875,84.69417450395825L149.22916666666666,119.02629481514141L149.47083333333333,113.19957039565632L149.59166666666667,65.58141124360418L149.7125,66.75268231156907L150.075,74.46693434279635L150.19583333333335,73.84018976738437L150.31666666666666,106.02513933864277L150.92083333333332,96.61909295502596L151.1625,85.85204625659578L151.28333333333333,98.542847359536L151.64583333333334,36.404301721997086L151.88750000000002,50.59189286855735L152.6125,58.208318184069725L152.73333333333332,56.25146388751264L152.975,86.46802301188445L153.21666666666667,83.47085814136845L153.70000000000002,49.53234325159028L153.9416666666667,58.15331940829249L154.1833333333333,39.26957203341581L154.42499999999998,97.14544934760343L154.66666666666666,84.40681766872352L154.90833333333333,102.16076609712374L155.02916666666667,104.25301448506585L155.15,115.8258171221153L155.27083333333334,87.73553089847489L155.39166666666668,89.19023050831103L156.11666666666667,106.97075074376484L156.23749999999998,114.11602098231663L156.9625,127.84905484799937L157.20416666666668,106.80421077772655L157.44583333333335,94.02023182670531L157.56666666666666,120.20110407172186L157.6875,108.20960381134158L158.775,86.1860405650559L159.01666666666668,95.36838920244686L159.37916666666666,82.83782811864485L159.74166666666665,85.42111880868698L159.8625,106.79305446522574L160.10416666666669,112.6044249756698L160.225,102.09183346190592L160.34583333333333,97.05603395796791L160.46666666666667,81.15376611274806L160.70833333333334,93.58953521009478L160.82916666666665,96.16989379529804L161.07083333333333,117.65864005477926L161.19166666666666,121.44096030660519L161.3125,99.79182379762624L161.675,111.34566172836811L161.79583333333332,125.5158817226993L162.0375,105.94830080947825L163.0041666666667,82.80300859762401L163.125,111.52937502248899L163.2458333333333,94.03994684297169L163.36666666666667,132.41196600423024L163.72916666666666,99.08273051520639L163.85,104.88651237214376L163.97083333333333,70.86789331604297L164.33333333333334,69.80934627575391L164.45416666666668,64.61787349645167L164.575,71.93765552308044L164.9375,92.76932694802632L166.3875,57.9209300439434L166.75,58.193642781206336L166.99166666666665,103.40240654767298L167.1125,112.29790847982768L167.35416666666666,99.88445040931587L167.475,110.34080328986511L167.8375,97.63780099962084L168.2,116.52879126681607L168.32083333333335,125.81320308682655L168.44166666666666,127.54900171740158L168.5625,120.89681697875744L168.68333333333334,118.90398745894494L168.80416666666665,129.6320571974716L168.925,124.37901600052055L169.04583333333332,105.4682355389277L169.2875,122.35249902808259L169.52916666666667,135.7349915920426L169.64999999999998,111.3749021647902L169.89166666666665,96.6573282354414L170.13333333333333,128.2060980347569L170.375,97.74069030519287L170.49583333333334,113.6164706556164L170.61666666666667,121.03307268290175L170.7375,114.6201993631187L170.85833333333332,110.75137282517599L170.97916666666666,113.10751320697607L172.0666666666667,107.88055089213627L172.1875,87.42871634642341L172.42916666666667,114.12464688387269L172.54999999999998,107.71514278033115L173.03333333333333,94.91494714845848L173.15416666666667,98.689670530312L173.275,102.02397379247483L173.51666666666668,113.03163052524053L173.87916666666666,105.21605980521514L174.24166666666667,125.01513043993691L174.48333333333335,113.21882952537801L174.72500000000002,83.02760815927526L174.84583333333333,75.31544891312559L175.0875,89.70720529846896L175.20833333333331,98.19108916296699L175.57083333333335,100.97636053397918L175.69166666666666,97.77475989924811L175.8125,117.48824084730177L176.05416666666665,106.35343785407532L176.175,99.97518559803656L176.29583333333332,91.12502248086169L176.5375,93.34485604950261L176.65833333333333,79.19022954863046L176.77916666666667,34.90489696722477L176.9,65.49422415142561L177.02083333333334,75.13086573163469L177.14166666666668,74.82845353252345L177.74583333333334,63.718533480530425L177.86666666666665,59.514511958373845L178.10833333333332,87.31141347718858L178.59166666666667,97.06322385471765L178.71249999999998,84.41399133975472L178.95416666666665,62.630218191414954L179.4375,95.74978904102448L179.67916666666667,114.93183372416547L179.92083333333332,107.05636605464161L180.1625,134.29826736974098L180.28333333333333,100.95668903390073L180.40416666666667,103.9090925742556L180.525,108.27886599161921L180.76666666666665,122.37068812621736L181.1291666666667,123.16939951507328L181.25,117.22831200963019L181.49166666666667,122.12942537538757L181.61249999999998,113.93710872275594L181.73333333333335,135.26468993574437L181.975,128.0835473307442L182.45833333333334,98.14571980427378L182.7,129.90112208885796L182.82083333333333,118.99115814682267L183.0625,119.69736294488175L183.18333333333334,127.52617816233055L183.54583333333335,132.27190613675376L183.66666666666666,121.45192107565725L184.27083333333331,79.63347201481457L184.39166666666668,108.89524556498706L184.5125,91.40687583941542L184.63333333333335,103.38853356199671L184.875,103.97261370315077L185.11666666666665,120.84196924582716L185.2375,118.03622262484535L185.35833333333332,110.53015878209054L185.47916666666666,104.20868905039752L185.6,97.53134948034241L185.72083333333333,102.23886597160745L186.08333333333334,127.33291467055865L186.44583333333335,111.18765484708543L186.6875,108.97094950106342L187.05,125.01891216214821L187.17083333333332,95.7377992868538L187.29166666666669,88.50893582296494L187.4125,98.55220995423814L187.89583333333334,106.62365342302414L188.37916666666666,140.38847339533896L188.62083333333334,109.74260269652639L188.74166666666667,109.23203039635345L189.225,70.9572812286555L189.34583333333333,41.266255553720896L189.70833333333334,80.86385194570333L190.07083333333333,112.96442536756061L190.3125,69.03813860525024L190.55416666666667,103.22001523422355L190.67499999999998,101.5316498177926L190.79583333333335,109.95443542656795L191.15833333333333,103.07114940567332L191.4,79.73501048403078L191.52083333333334,80.04912891749674L191.7625,64.85454698889527L191.88333333333333,75.26243009103882L192.00416666666666,104.21048006382226L192.24583333333334,111.63461606979043L192.36666666666667,111.3626786833534L192.72916666666666,139.43663602072405L193.33333333333331,132.37053030706363L194.78333333333333,116.71725757585564L194.90416666666667,117.67086902383232L195.025,114.42061560866186L195.14583333333334,122.76882177090837L195.62916666666666,128.431194729893L195.99166666666665,113.83487255276503L196.1125,132.05333117358492L196.35416666666669,110.09536112516085L196.475,115.60928261600544L196.59583333333333,111.63443083958126L196.71666666666667,115.10876974201454L197.20000000000002,104.06475195772958L197.32083333333333,107.40701039144413L197.44166666666666,100.9269295538056L197.68333333333334,121.65066859900455L197.80416666666667,126.28444385637121L197.925,111.88864982564685L198.16666666666666,105.9137132635063L198.40833333333333,108.36216652464479L199.13333333333333,112.99200355992629L199.375,140.04644891741714L199.97916666666666,115.93080553829847L200.1,107.87082135387547L201.1875,117.68776339634029L201.30833333333334,115.4156216376048L201.79166666666666,60.647597864032775L202.275,77.18013479965526L202.6375,112.85202894097135L203,69.21064688052991L203.12083333333334,98.10648601574616L203.24166666666665,106.6996285034848L203.60416666666666,98.02190959334911L203.725,113.59085113300165L204.0875,76.48854450879138L204.32916666666668,50.69105681676503L204.45,94.44255048596841L204.57083333333335,112.73363761453014L205.41666666666669,98.52267819064822L205.5375,104.7700527222414L205.65833333333333,131.2665057336888L205.77916666666667,137.723759507895L206.02083333333334,147.57945615434676L206.14166666666665,140.92978368221648L206.26250000000002,128.98734389018878L206.38333333333333,131.82417592084315L206.50416666666666,128.49158138980553L206.625,129.33080903777272L206.74583333333334,114.30540310860536L206.86666666666667,141.0812904139927L206.9875,125.88330674157973L207.35,115.49329000532254L207.59166666666667,117.02171685531079L208.19583333333333,126.67025871109094L208.3166666666667,125.80223368883219L208.4375,129.94331661814698L208.67916666666667,143.67548234154387L209.525,107.3138697106846L209.76666666666668,106.916704885652L210.37083333333334,113.91288987937467L210.49166666666667,111.05821515696857L210.97500000000002,113.696073239025L211.21666666666667,141.16314367683657L211.3375,131.06133622398116L211.57916666666668,118.2193114652259L211.7,108.70079441607085L211.94166666666666,142.26849417203414L212.0625,124.92657898984237L212.7875,111.28557057269124L212.90833333333333,103.7353170494782L213.02916666666667,130.99171903999004L213.63333333333335,122.83074035171882L213.75416666666666,126.64031301197676L214.84166666666667,91.8232984579202L214.96249999999998,83.65938868943377L215.32500000000002,76.04230917041443L215.44583333333333,85.91930180551736L215.56666666666666,84.62079292958921L215.80833333333334,111.10320223006516L216.05,103.14896411196382L216.29166666666666,129.41508174817238L216.65416666666667,83.83768599717362L216.775,93.57743492225478L217.01666666666665,97.67874927871298L217.13750000000002,120.24706183398565L217.3791666666667,102.10961586017993L217.6208333333333,124.1695879909795L217.74166666666667,128.14638617306693L217.98333333333335,103.50895826522115L218.10416666666666,109.09362121592713L218.5875,146.20598193512075L218.70833333333334,136.57007181989135L218.95,138.01615844438672L219.07083333333333,133.99768725049222L219.19166666666666,131.2356781711379L219.3125,127.52812072295163L219.67499999999998,143.08548206681732L219.79583333333335,128.7714897737598L219.91666666666666,127.96229141298465L220.4,134.05645443418902L220.64166666666668,137.9988076566838L220.7625,134.4358708611444L220.88333333333335,127.23455735416633L221.125,123.60929961846927L221.36666666666665,112.59317378794951L221.60833333333332,116.3875958874332L221.85,101.7191716935739L221.97083333333333,104.54589817612215L222.09166666666667,100.47784817889816L222.33333333333334,106.04987912480262L222.45416666666668,104.17916666162357L222.575,122.32870337792465L222.69583333333335,129.37701544901884L222.81666666666666,125.92103197527337L222.9375,116.45041931005919L223.17916666666665,107.32136050949235L223.3,115.23236280563617L223.6625,126.69032223448352L223.78333333333333,137.83875007801808L224.02499999999998,114.55241789278097L224.14583333333334,126.67664769757675L224.50833333333333,145.9425680854908L224.62916666666666,126.6220858698845L224.75,122.23885356295867L224.87083333333334,98.89985365061291L225.23333333333332,106.03084189523831L225.71666666666667,101.92003183629434L225.95833333333334,112.5650761872808L226.07916666666665,151.05950725545424L226.20000000000002,122.50376854959967L226.5625,129.56275184687442L226.6833333333333,92.65803638369289L226.92499999999998,62.00428709038573L227.40833333333333,87.30974812230413L227.52916666666667,87.15019161719816L227.65,117.71503259800406L227.77083333333334,104.63907233216754L228.0125,90.5456004204154L228.49583333333334,110.98076478642966L228.61666666666667,105.61511542762706L228.85833333333335,111.31209492200259L228.97916666666666,86.38216400380404L229.10000000000002,76.88298003915561L229.22083333333333,99.71262553639107L229.4625,82.48604792394836L229.825,126.13196541753489L229.94583333333335,111.53361947322779L230.06666666666666,114.85617699245438L230.1875,125.48850469896969L230.30833333333334,139.19605026854026L230.67083333333332,114.655455685909L230.79166666666666,144.25745135310376L231.39583333333334,137.71070657073957L231.6375,138.64368941779622L231.75833333333335,122.59925661907599L231.87916666666666,140.12795745988512L232.3625,124.77703049020684L232.725,126.11216488592663L232.96666666666667,133.75721938428197L233.32916666666665,139.9247715074222L233.45000000000002,135.632358913968L233.57083333333333,134.89154961656402L233.69166666666666,133.8025992685246L233.8125,138.64589261078783L234.05416666666667,125.08136412190663L234.175,120.14069018875509L234.29583333333332,120.72461579601743L234.65833333333333,98.08326304268532L234.77916666666667,119.46700408626532L235.02083333333334,112.87300326961089L235.14166666666665,127.48714463168105L235.26250000000002,134.42155381672077L235.625,114.52102861953449L235.86666666666667,117.25000999967745L235.98749999999998,123.06340116524098L236.10833333333335,124.37625352677513L236.22916666666666,126.7224329026563L237.075,141.24989546432172L237.19583333333333,130.92420599304887L237.55833333333334,106.51734380577781L238.16250000000002,100.46979348205245L238.64583333333331,147.3444764290932L238.8875,132.6589179140214L239.37083333333334,102.33214775264118L239.49166666666665,52.100625122443574L239.73333333333332,94.66276826797912L240.21666666666667,120.85921439122677L240.3375,110.15130908674065L240.45833333333334,86.51894603568014L240.7,109.24060618519101L240.82083333333335,106.34294595710028L240.94166666666666,119.2890740738865L241.425,107.62294522716229L241.66666666666669,83.13957530250948L241.90833333333333,85.41604163197047L242.14999999999998,110.45103414597067L242.27083333333334,134.07448886496863L242.51250000000002,117.49445806732655L242.99583333333334,108.60692081074599L243.2375,123.20111057507825L243.35833333333332,146.053786387199L243.72083333333333,145.01998163867563L244.08333333333334,151.36913771637188L244.5666666666667,131.19660823030452L244.8083333333333,144.83351187428383L244.92916666666667,128.53315047176895L245.29166666666666,134.40371570313488L245.775,139.49142936120384L245.89583333333334,140.3385213330198L246.01666666666668,137.6726296592372L246.1375,127.78995606988266L246.5,120.02367703502034L246.62083333333334,122.94792712443612L246.74166666666667,126.33333407656323L246.98333333333335,91.08216742496901L247.10416666666666,126.67672741268223L247.22500000000002,101.55762177750803L247.46666666666667,114.82470698927193L247.5875,121.9854835112925L247.95,131.31158148277493L248.07083333333335,128.91111402611125L248.3125,118.76834890154403L248.55416666666665,121.92824469711383L248.675,121.46032523402187L248.79583333333332,142.7820925851472L249.64166666666668,135.26117436793078L249.7625,140.52088959370911L249.88333333333335,117.11501530664759L250.00416666666666,109.76997560542173L250.72916666666669,106.99280902890568L250.85,124.75060671561062L250.97083333333333,110.58820130926169L251.09166666666667,151.1621726880472L251.21249999999998,150.66820340785873L251.45416666666665,130.16274190046477L251.81666666666666,115.64545254466438L252.17916666666667,96.50427906750757L252.6625,102.6946511441889L252.78333333333333,122.89225217226071L252.90416666666667,107.30380142991943L253.025,84.95204325183148L253.38750000000002,110.05160533639221L253.50833333333333,125.36767505153733L253.99166666666667,104.33396409268734L254.35416666666666,98.62197860268287L254.475,81.86666013304284L254.8375,136.2544815840817L254.95833333333334,121.79135893686762L255.07916666666668,112.53204790136499L255.2,122.74208738017892L255.32083333333333,127.0289574444432L255.68333333333334,117.86575374625312L255.80416666666667,136.39593709651552L255.92499999999998,141.92264686095984L256.04583333333335,144.16847596581152L256.5291666666667,143.10496266815358L256.65,145.82045524056605L256.7708333333333,144.57096767911963L257.1333333333333,136.48913475383927L257.375,149.52265223830886L257.49583333333334,126.40912661595803L257.6166666666667,130.639940790466L257.85833333333335,144.16698672853926L257.97916666666663,144.01905528300261L258.1,138.37594530356722L258.3416666666667,139.966501594239L258.4625,148.95772250750358L259.06666666666666,126.46961202423799L259.30833333333334,126.38289087700738L259.4291666666667,129.7194125010653L259.67083333333335,128.65775400032285L260.0333333333333,118.27650334892856L260.275,137.4744318780396L260.3958333333333,140.83056427362317L260.51666666666665,132.72323825726673L260.7583333333333,122.9580021203887L261,121.40038214469303L261.12083333333334,126.16430646133523L261.2416666666667,125.56445796243989L261.72499999999997,128.03768995025277L261.84583333333336,132.04668577804603L262.08750000000003,150.54908968662292L262.32916666666665,147.47377864200257L262.93333333333334,125.38122388449756L263.4166666666667,142.05978614464692L263.53749999999997,111.45816515141347L263.65833333333336,152.87302540886517L263.77916666666664,146.1173566715464L265.2291666666667,115.3646370432071L265.4708333333333,95.51833218789835L265.7125,95.52544782555337L265.95416666666665,122.2478557863412L266.075,121.66799612143032L266.1958333333333,107.96863913109672L266.31666666666666,112.73421004882192L266.4375,128.30039979864904L266.55833333333334,89.32770863714134L266.6791666666667,96.48690316853404L266.8,91.41930489613762L266.92083333333335,102.80558168587403L267.04166666666663,76.2594458473166L267.1625,111.10730654701663L267.4041666666667,139.49491818913333L267.525,118.36778725104638L267.64583333333337,125.6575248786622L267.8875,140.1464616648861L268.12916666666666,113.78143729017627L268.4916666666667,149.59975354332704L268.8541666666667,148.9293940535181L269.0958333333333,143.5752212461372L269.2166666666667,142.59314218484243L269.4583333333333,126.4141946367455L269.8208333333333,147.36827381548784L270.0625,129.24962072096793L270.18333333333334,133.79213079070752L270.425,148.28632203259593L270.6666666666667,130.24113622240947L270.78749999999997,142.4886680658334L270.90833333333336,145.1845539928514L271.15000000000003,143.94324723473275L271.2708333333333,132.53118243953872L271.5125,129.531196756482L271.6333333333333,111.29333339622742L271.875,121.08312228799542L271.99583333333334,120.57591782908639L272.96250000000003,133.9678734632752L273.0833333333333,138.98664663895147L273.325,121.07439257946612L273.4458333333333,125.4134652162731L273.9291666666667,150.7880711715621L274.5333333333333,136.0951917988993L274.6541666666667,153.44702482213438L274.775,134.99270490194448L274.8958333333333,147.66080824148787" style="fill: none;" fill="none"></path></g></g></g></g><g opacity="0.2"><g><g><g><path stroke="rgb(255, 112, 67)" stroke-width="2px" d="M24.891666666666666,-8.966940186240436L25.375,60.02690328251232L25.495833333333334,12.053238175132066L25.737499999999997,12.881599252874224L25.858333333333334,16.150135907259852L25.979166666666668,-9.630948500199764L27.066666666666666,-3.729314674030661L28.154166666666665,70.42788691954179L28.275000000000002,-9.561985926194637L28.516666666666666,9.590203675356776L29,39.22215821526268L29.241666666666667,13.935270222750574L29.483333333333334,54.6584900075739L29.604166666666668,65.07700846411966L29.845833333333335,37.41923540288752L30.0875,86.88770047101109L30.208333333333336,81.97191316431218L30.570833333333336,75.11053250052713L30.691666666666666,61.81562848524614L30.8125,36.11517724123868L30.933333333333334,77.52933450178666L31.054166666666667,68.37723896720193L31.416666666666668,44.944643670862376L31.5375,96.41203958337957L31.77916666666667,48.342309128154426L32.020833333333336,51.009029171683565L32.141666666666666,83.56287492405285L32.2625,67.51795564998281L32.38333333333333,39.87812250310725L32.74583333333333,71.44494503194636L32.86666666666667,79.94981475309892L32.987500000000004,61.72182009436868L33.108333333333334,95.24592585997148L33.7125,22.33794030276212L34.31666666666666,28.385369690981776L34.4375,41.59958267211914L34.55833333333334,70.79048538208008L34.67916666666667,57.88314138759267L34.8,61.96896652741866L34.920833333333334,46.079314318570226L35.525,55.258377595381305L36.49166666666667,64.99101261659102L36.854166666666664,1.812324870716452L36.975,53.302039579911664L37.82083333333333,47.68053848093206L38.18333333333333,66.31765963814475L38.425000000000004,61.638061913577005L38.54583333333333,27.09992660175672L38.666666666666664,28.43944020704791L39.150000000000006,18.327983639457017L39.27083333333333,-4.771218603307517L39.391666666666666,-1.8871941132979089L39.75416666666667,10.764477166262537L39.875,-15.23375736583364L40.72083333333333,61.91379646821456L40.9625,-5.634109193628461L41.204166666666666,2.527240102941363L41.324999999999996,-7.401460820978315L41.44583333333333,55.382761001586914L41.56666666666667,55.73461480574174L42.05,63.673393422907054L42.29166666666667,64.8264090798118L42.65416666666667,103.73956866697831L42.775,84.1811653917486L42.895833333333336,87.50020386955954L43.137499999999996,80.35965499010952L43.25833333333333,73.5050259069963L43.37916666666667,79.58150638233532L43.74166666666667,84.06222183054143L43.983333333333334,67.02904475818981L44.104166666666664,108.24788843501697L44.34583333333334,77.4402136369185L44.46666666666666,40.4987470886924L44.829166666666666,70.56363227150656L45.43333333333334,75.4951218258251L45.55416666666667,82.6938307502053L45.675,91.78612657026811L45.916666666666664,50.17949138988149L46.27916666666666,19.065294829281896L46.520833333333336,39.35242514176801L46.641666666666666,60.43826744773172L46.88333333333333,44.501682108098805L47.125,72.99559020996094L47.24583333333333,74.11122140017422L48.09166666666667,68.64107144962658L49.05833333333333,65.48065653714268L49.17916666666667,65.98347568511963L49.300000000000004,23.27494395862928L49.78333333333333,36.36645178361371L50.145833333333336,57.15412499687888L50.50833333333333,106.84919240257956L50.62916666666667,63.9985495480624L50.99166666666667,57.86857726357199L51.1125,56.94891552491622L51.35416666666667,-21.811668092554243L51.474999999999994,9.406483520161032L51.59583333333333,14.928234837271958L51.8375,13.931199984117L52.199999999999996,23.253763285550207L52.32083333333333,-1.2588727257468406L52.44166666666667,-6.3127780827609L52.80416666666667,51.39315553144975L53.166666666666664,57.47922325134277L53.770833333333336,10.425856460224509L54.0125,53.811455986716524L54.25416666666666,79.9583796154369L54.375,44.28584371913564L54.979166666666664,78.0797426483848L55.34166666666666,93.15276223962958L55.4625,103.27135619250211L55.583333333333336,94.8999169956554L55.704166666666666,74.33909689296377L55.94583333333333,92.26566241004251L56.42916666666667,67.11567718332464L56.67083333333333,96.69819086248224L56.9125,70.44588470458984L57.15416666666667,67.25790405273438L57.75833333333333,87.02676374262029L58,66.11661685596813L58.483333333333334,57.42486338181929L59.0875,42.81365190852773L59.329166666666666,56.82009536569768L59.449999999999996,53.8140987482938L60.05416666666667,49.68058815869418L60.175,55.73399751836604L60.295833333333334,48.477610804817886L60.537499999999994,46.614695375615895L60.65833333333333,95.03678118098865L60.77916666666667,85.73462694341487L61.262499999999996,65.03316177021374L61.38333333333333,87.01935629411177L61.625,82.35260586305098L61.9875,46.27912252599543L62.47083333333334,63.67229387976907L62.59166666666666,44.57502356442538L62.7125,61.889413616873995L62.833333333333336,56.4852169643749L63.075,106.83646085045554L63.4375,70.05240258303554L63.55833333333334,50.315429644151166L63.67916666666667,58.05787229537964L64.04166666666667,19.58360403234309L64.1625,7.216617974368006L64.40416666666667,13.383878274397404L65.12916666666666,46.222930084575324L65.37083333333332,58.29898088628596L65.73333333333333,73.86278252168135L65.85416666666667,35.011525284160285L66.09583333333333,20.632510315288215L66.21666666666667,45.50506344708529L66.82083333333333,64.87206905538386L66.94166666666666,63.75661147724499L67.18333333333334,76.27527661757036L67.425,43.35190720991656L67.54583333333333,75.95210738615556L67.66666666666667,84.29623161662708L68.02916666666667,113.99585628509521L68.14999999999999,106.5459885597229L68.5125,105.44019538705999L68.63333333333333,98.93639772588556L68.875,97.4621997313066L68.99583333333334,72.84962103583597L69.2375,102.72274203733964L69.72083333333333,85.05894804000854L69.84166666666667,93.13607619025491L69.96249999999999,81.26751110770486L70.20416666666667,84.03882278095593L70.325,97.39364225214177L70.80833333333334,72.89377637342973L70.92916666666667,68.00495680895717L71.05,65.85110612349077L71.29166666666666,58.55665978518398L71.4125,31.841947512193173L71.53333333333333,74.11328545483677L71.65416666666667,67.99056629701094L72.74166666666667,60.782366579229176L72.8625,53.748415513472125L73.46666666666667,71.98310388218273L74.3125,43.197411753914565L74.43333333333332,25.60788514397362L74.91666666666667,58.8107892816717L75.0375,69.30799258839001L75.15833333333333,38.13600249723956L75.4,52.54865962808782L75.64166666666667,95.8191350590099L76.125,50.31793737411499L77.21249999999999,57.073993379419505L77.33333333333333,29.618401223962962L77.45416666666667,9.924426208842902L77.575,12.207598599520594L77.9375,52.826111013239085L78.30000000000001,84.53197752345692L78.6625,27.879174752668888L79.50833333333334,68.41497065804221L79.62916666666668,73.28916822780263L79.75,87.37176951495083L79.87083333333332,107.16962242126465L80.1125,68.42399848591198L80.23333333333333,86.94163595546375L80.59583333333333,118.24807895313609L80.71666666666667,98.3211165341464L80.8375,80.80574157021262L81.07916666666667,96.80899394642223L81.32083333333333,71.33817360617898L81.44166666666666,99.9762954711914L81.925,69.27789982882412L82.77083333333333,90.90365639599887L83.13333333333334,79.33511226827449L83.25416666666668,103.80729666623202L83.49583333333332,53.80119358409536L83.7375,69.64449136907405L84.1,56.116734981536865L85.42916666666666,64.75183304873379L85.79166666666667,112.44110228798606L85.91250000000001,82.54192018508911L86.03333333333335,86.173171043396L86.27499999999999,55.59647746519609L86.51666666666667,111.0953579382463L86.6375,79.64454685557972L86.87916666666666,40.06300007213247L87.48333333333333,41.405445792458266L87.60416666666666,89.6201230395924L88.32916666666667,80.92183017730713L88.57083333333334,82.14049048857255L88.69166666666668,41.324523275548756L88.8125,39.80696084282616L88.93333333333332,-5.204187826676815L89.05416666666666,28.310446435754955L89.175,24.95248027281329L89.29583333333333,38.04969800602308L89.41666666666667,18.905398108742446L89.53750000000001,13.854482737454504L89.65833333333333,52.79555528814143L89.9,18.940660650079906L90.2625,55.014703403819695L90.38333333333333,60.043570041656494L90.50416666666666,54.314294424924L90.74583333333334,42.57389363375577L91.22916666666667,46.653719511899084L91.47083333333333,10.158281673084616L91.71249999999999,82.23022864081643L92.19583333333334,78.49060526761143L92.31666666666668,91.84561764110218L92.4375,97.72304222800516L92.67916666666666,68.17008118195967L92.92083333333333,100.10696749253707L93.1625,118.16445580395785L93.40416666666667,82.56273434378885L93.525,92.03828846324573L93.88749999999999,86.84151965921575L94.12916666666666,79.06339008157903L94.25,115.1257815361023L94.37083333333334,65.82599024339156L94.49166666666666,78.12555694580078L94.6125,57.91508600928567L94.73333333333333,76.70043329759078L94.97500000000001,86.42585377259688L95.09583333333335,60.518958481875345L95.7,79.51306464455344L95.82083333333334,115.37389248067683L96.0625,54.76981392773716L96.18333333333334,71.10707664489746L96.30416666666667,73.35656829313798L96.66666666666666,48.745243462649256L96.90833333333333,43.4679186560891L97.15,86.01865629716353L97.39166666666667,89.25152531537142L97.63333333333334,71.39519552751021L97.875,72.35650487379594L97.99583333333332,60.687902320515036L98.11666666666666,56.383731061762035L98.47916666666667,98.04167825525457L98.9625,86.925142808394L99.08333333333333,109.17783186652444L99.325,78.00256243619053L99.6875,73.3593075058677L100.17083333333333,76.27460145950317L100.77499999999999,82.19971149617976L101.62083333333332,31.650607715953498L101.74166666666666,28.763940464366584L101.98333333333333,30.305480653589427L102.10416666666667,35.553754373030216L102.225,60.25989068638195L102.34583333333333,52.7661955573342L102.46666666666667,24.66210443323311L102.5875,5.300422928550034L102.82916666666667,57.751890659332275L102.94999999999999,53.76161003112793L103.43333333333334,77.16486488689077L103.55416666666666,37.17750952460548L104.03750000000001,17.63992040807551L104.39999999999999,86.881489016793L104.64166666666667,75.92500461231579L104.7625,79.0502534346147L104.88333333333334,107.12978809530084L105.24583333333334,73.89165999672629L105.36666666666667,123.16037472811612L105.48750000000001,96.23632487383756L105.60833333333333,109.48200022090565L105.72916666666666,107.15536694093184L105.97083333333333,92.29683542251587L106.09166666666667,101.01135136864401L106.2125,93.68756458976053L106.45416666666667,106.40574858405374L106.575,98.13380839607932L106.69583333333334,96.34427300366488L106.81666666666668,123.32650219310415L106.9375,79.6243692744862L107.05833333333332,90.09618663787842L107.3,74.84585124796087L107.42083333333333,110.77693410353227L107.78333333333333,85.35310476476496L108.26666666666667,88.78720946745439L108.62916666666666,74.47310612418435L108.75,73.90740082480691L108.87083333333334,77.32505096088757L109.1125,78.97546521100132L109.35416666666667,72.5855956511064L109.475,62.24236696416682L109.71666666666667,86.30534770271994L109.95833333333333,93.31850390000777L110.44166666666668,76.15264862233943L110.925,101.1607156233354L111.04583333333333,88.31596842679112L111.2875,76.77165282856335L111.40833333333333,63.88153500990434L111.52916666666667,92.46167044206099L111.65,103.503764889457L111.77083333333334,69.2295970916748L112.25416666666666,78.32918461886318L112.375,58.65048746629195L113.10000000000001,95.87382286245172L113.34166666666665,77.64742929285222L113.46249999999999,82.59411954879761L113.58333333333333,64.30736684799194L113.70416666666667,71.96601273796774L113.94583333333334,47.6293614994396L114.30833333333334,50.68616858395664L114.42916666666667,39.1984698122198L114.79166666666666,68.7377155043862L114.9125,43.671990004452795L115.03333333333333,21.183651490644962L115.275,51.06707347523083L115.51666666666667,65.3593402775851L115.87916666666668,68.10445581782949L116.24166666666666,12.887965028936236L116.60416666666667,21.737512588500977L116.72500000000001,70.34756239977749L116.84583333333333,91.89617733521895L117.0875,70.67621005665173L117.20833333333333,82.56526136398315L117.32916666666667,85.7400860786438L117.57083333333333,62.06399020281704L117.69166666666666,87.99083159186624L117.8125,80.4345010844144L118.41666666666667,93.47463902560148L118.89999999999999,81.76498686183582L119.02083333333333,107.51960507306185L119.2625,102.2738005031239L119.50416666666668,79.55552244186401L119.74583333333332,72.39510462500833L119.86666666666666,78.80009772560813L119.9875,110.2372706153176L120.10833333333333,89.49215165051547L120.22916666666667,76.42836388674648L120.35,85.66037884625523L120.59166666666667,96.60953296314587L120.83333333333334,93.14342576807196L121.07499999999999,85.96597467769276L121.4375,82.93189148469405L121.67916666666666,83.26833239468662L121.8,62.994705243544146L121.92083333333333,67.75343149358577L122.40416666666665,92.28747966072775L122.64583333333333,85.85534520582719L122.76666666666667,72.54948433962734L123.00833333333334,75.10192905772817L123.37083333333334,108.47290897369385L123.85416666666666,79.99088365381414L124.21666666666667,97.90232563018799L124.57916666666667,48.46028817783704L124.7,59.44009447097778L124.94166666666668,58.381678104400635L125.18333333333332,67.35387294942683L125.425,88.491914619099L126.02916666666667,79.17963301051746L126.27083333333333,61.19834110953592L126.39166666666667,70.93238431757146L126.5125,34.47973220998591L126.63333333333333,13.652861248363166L126.99583333333334,40.37590690092608L127.72083333333333,24.79615224491468L127.96249999999999,64.7980524409901L128.08333333333334,74.84426944906062L128.20416666666665,58.303070415150046L128.325,68.00541977448897L128.44583333333333,80.73913240432739L128.92916666666667,54.666148229078814L129.17083333333335,40.02966655384412L129.29166666666669,79.63146807930686L129.65416666666667,78.66219186782837L129.775,86.66680804165928L129.89583333333334,85.89876751466231L130.01666666666665,122.38548616929486L130.1375,58.64126673611729L130.37916666666666,105.67655858126554L130.5,107.77190199765292L130.62083333333334,110.79664871909402L130.74166666666665,125.60263364965266L130.98333333333332,91.05032001842152L131.34583333333333,104.5872199752114L131.5875,115.77557295018977L131.70833333333334,93.54539559104226L131.95000000000002,114.47101324254817L132.07083333333335,83.92929285222834L132.43333333333334,96.60129603472623L132.79583333333335,87.60246138139205L132.91666666666666,101.60603059421886L133.7625,84.50609003413807L133.88333333333333,77.61864826895975L134.00416666666666,85.17465084249324L134.125,42.84156487204811L134.24583333333334,85.0743609341708L134.36666666666667,75.6346094825051L134.4875,72.2585876638239L134.72916666666666,83.3791354786266L134.85,98.09897023981267L134.97083333333333,91.4446894905784L135.33333333333334,78.07424493269487L135.45416666666668,83.85992518338291L135.57500000000002,77.79218318245627L135.69583333333333,80.84578808871181L135.9375,114.42936563491821L136.6625,119.29052300886673L136.78333333333333,95.37353073466907L137.14583333333334,47.51346579464999L137.99166666666667,105.56594839963046L138.35416666666669,105.06766245581888L138.8375,63.054639989679515L139.2,35.028288494456916L139.32083333333333,56.314189780842185L139.44166666666666,65.03682691400701L139.68333333333334,45.92616917870262L139.80416666666665,57.28140193765813L139.92499999999998,84.4419114372947L140.2875,32.655879497528076L140.40833333333333,78.48452884500676L140.65,80.44140698693015L140.89166666666668,73.09354600039394L141.01250000000002,99.10775284333663L141.25416666666666,55.391750248995706L141.49583333333334,71.00094179673629L141.61666666666667,10.566366499120562L141.85833333333335,96.6556751944802L142.1,74.13209342956543L142.22083333333333,85.30790775472468L142.34166666666667,88.72175771539861L142.4625,105.02173241701993L142.825,82.08759667656638L142.94583333333333,107.29701510342684L143.06666666666666,122.68988600644198L143.42916666666667,114.03856485540217L143.55,97.49092288450761L144.51666666666668,105.80979620326649L144.87916666666666,84.53299990567295L145,106.11415745995261L145.24166666666667,88.8936722495339L145.48333333333335,109.06807045503096L145.60416666666666,106.36219124360518L145.96666666666667,126.82528703862971L146.0875,95.15861827676946L146.32916666666668,96.29126345027576L146.45,89.41952393271707L146.57083333333333,82.09085672551936L146.69166666666666,65.31651596589522L147.05416666666667,67.16224379972978L148.02083333333331,85.53825239701705L148.2625,84.60965928164394L148.50416666666666,123.5432086424394L148.74583333333334,91.28541005741467L148.86666666666665,85.46103360436179L148.9875,84.48556522889571L149.22916666666666,123.18309861963445L149.47083333333333,112.49409255114469L149.59166666666667,59.815983902324334L149.7125,66.89449540051548L150.075,75.40094692056829L150.19583333333335,73.76430589502507L150.31666666666666,109.92197179794312L150.92083333333332,95.48024428974499L151.1625,84.5484127998352L151.28333333333333,100.0794017531655L151.64583333333334,28.88080068068072L151.88750000000002,52.309672962535515L152.6125,59.130486271598116L152.73333333333332,56.01453534039585L152.975,90.12653017044067L153.21666666666667,83.10797270861538L153.70000000000002,45.423195708881735L153.9416666666667,59.19711472771384L154.1833333333333,36.9831990328702L154.42499999999998,104.15284256501631L154.66666666666666,82.8644721291282L154.90833333333333,104.31034729697488L155.02916666666667,104.50633603876287L155.15,117.22700847278941L155.27083333333334,84.33446485346013L155.39166666666668,89.36636005748402L156.11666666666667,109.12354915792291L156.23749999999998,114.98114338788119L156.9625,129.51179885864258L157.20416666666668,104.2561803297563L157.44583333333335,92.47239581021395L157.56666666666666,123.37098546461624L157.6875,106.75771812959151L158.775,83.51951048590921L159.01666666666668,96.48015338724309L159.37916666666666,81.32067498293789L159.74166666666665,85.7338939146562L159.8625,109.38068793036722L160.10416666666669,113.30804382671009L160.225,100.81900848041882L160.34583333333333,96.44631832296197L160.46666666666667,79.22837942296809L160.70833333333334,95.09521128914572L160.82916666666665,96.48231389305808L161.07083333333333,120.26041650772095L161.19166666666666,121.89890939539129L161.3125,97.17062789743596L161.675,112.74455690383911L161.79583333333332,127.2315585829995L162.0375,103.57913181998514L163.0041666666667,80.00066380067305L163.125,115.00745526227084L163.2458333333333,91.92239275845614L163.36666666666667,137.05790554393423L163.72916666666666,95.0473522272977L163.85,105.58921241760254L163.97083333333333,66.74904706261374L164.33333333333334,69.68118138746782L164.45416666666668,63.989309527657255L164.575,72.82390715859152L164.9375,95.29154725508256L166.3875,53.7016174143011L166.75,58.22666181217541L166.99166666666665,108.87611337141557L167.1125,113.37494234605269L167.35416666666666,98.38147566535257L167.475,111.6068191094832L167.8375,96.09976933219217L168.2,118.81604120948097L168.32083333333335,126.93732469732112L168.44166666666666,127.75916567715731L168.5625,120.09139550815928L168.68333333333334,118.66270316730845L168.80416666666665,130.93097147074613L168.925,123.74299755963412L169.04583333333332,103.17858947407116L169.2875,124.3967820514332L169.52916666666667,137.35529338229787L169.64999999999998,108.42547429691662L169.89166666666665,94.87537982247092L170.13333333333333,132.02590424364263L170.375,94.05205349488692L170.49583333333334,115.53865033929998L170.61666666666667,121.93104691938919L170.7375,113.84375281767412L170.85833333333332,110.28294988112016L170.97916666666666,113.39278580925681L172.0666666666667,107.2476899840615L172.1875,84.95248525792903L172.42916666666667,117.35688959468496L172.54999999999998,106.93910416689786L173.03333333333333,93.36514767733487L173.15416666666667,99.14669981869784L173.275,102.42767867175016L173.51666666666668,114.3643961386247L173.87916666666666,104.26977994225241L174.24166666666667,127.41232733293012L174.48333333333335,111.79057784513994L174.72500000000002,79.37216880104758L174.84583333333333,74.38168972188777L175.0875,91.44970495050605L175.20833333333331,99.21828586404973L175.57083333333335,101.31359069997613L175.69166666666666,97.38712215423584L175.8125,119.87507486343384L176.05416666666665,105.00527785041116L176.175,99.20293084057894L176.29583333333332,90.05347806757148L176.5375,93.61362513628873L176.65833333333333,77.47644068978049L176.77916666666667,29.542995712973863L176.9,69.1978646625172L177.02083333333334,76.29763399470937L177.14166666666668,74.79183860258622L177.74583333333334,62.373386209661305L177.86666666666665,59.005504868247286L178.10833333333332,90.67695760726929L178.59166666666667,98.24393632195212L178.71249999999998,82.88246991417624L178.95416666666665,59.992720994082376L179.4375,99.75978192416105L179.67916666666667,117.25432343916458L179.92083333333332,106.10283409465443L180.1625,137.59661416573957L180.28333333333333,96.9198163205927L180.40416666666667,104.26655847376043L180.525,108.80794169686057L180.76666666666665,124.07687286897138L181.1291666666667,123.266104481437L181.25,116.50898751345548L181.49166666666667,122.72283372012052L181.61249999999998,112.94521388140592L181.73333333333335,137.8469531319358L181.975,127.2140816341747L182.45833333333334,94.5209604176608L182.7,133.74594658071345L182.82083333333333,117.67022080854935L183.0625,119.78286756168711L183.18333333333334,128.4740616191517L183.54583333333335,132.84650100361216L183.66666666666666,120.14187804135409L184.27083333333331,74.57025172493674L184.39166666666668,112.43815088272095L184.5125,89.28944990851663L184.63333333333335,104.8392275463451L184.875,104.04333192651922L185.11666666666665,122.88444727117366L185.2375,117.69651339270851L185.35833333333332,109.62135284597223L185.47916666666666,103.44330930709839L185.6,96.72288235751066L185.72083333333333,102.80883433602072L186.08333333333334,130.3712075623599L186.44583333333335,109.23284760388461L186.6875,108.70255916768853L187.05,126.96193903142756L187.17083333333332,92.19255243648182L187.29166666666669,87.63369226455688L187.4125,99.76821175488558L187.89583333333334,107.60091339458118L188.37916666666666,144.4765906117179L188.62083333333334,106.03211610967462L188.74166666666667,109.17021222548051L189.225,66.32311877337368L189.34583333333333,37.671378005634665L189.70833333333334,85.65817975997925L190.07083333333333,116.85104188052091L190.3125,63.71970926631582L190.55416666666667,107.35862809961492L190.67499999999998,101.32722889293323L190.79583333333335,110.97423458099365L191.15833333333333,102.23774706233631L191.4,76.90955868634312L191.52083333333334,80.08716119419445L191.7625,63.014844244176686L191.88333333333333,76.52257737246426L192.00416666666666,107.71540091254495L192.24583333333334,112.53350249203768L192.36666666666667,111.32975352894177L192.72916666666666,142.83572502569717L193.33333333333331,131.5149928439747L194.78333333333333,114.82201827656138L194.90416666666667,117.78632870587435L195.025,114.02708716826004L195.14583333333334,123.77959112687543L195.62916666666666,129.116773518649L195.99166666666665,112.06760484522039L196.1125,134.25915351780978L196.35416666666669,107.43677282333374L196.475,116.27688746018842L196.59583333333333,111.15317075902765L196.71666666666667,115.52942960912532L197.20000000000002,102.72758388519287L197.32083333333333,107.81167845292525L197.44166666666666,100.14234577525745L197.68333333333334,124.15982086008245L197.80416666666667,126.84548390995371L197.925,110.14566131071611L198.16666666666666,105.1902904510498L198.40833333333333,108.65861602263017L199.13333333333333,113.5525667884133L199.375,143.3220992521806L199.97916666666666,113.01097427714954L200.1,106.89494882930408L201.1875,118.87636176022616L201.30833333333334,115.14051927219737L201.79166666666666,54.01649184660478L202.275,79.18183209679343L202.6375,117.17104751413518L203,63.92671272971414L203.12083333333334,101.6050853729248L203.24166666666665,107.74005382711236L203.60416666666666,96.97124407508157L203.725,115.47587992928246L204.0875,71.99633698029952L204.32916666666668,47.5675941814076L204.45,99.73981653560291L204.57083333333335,114.94825354489413L205.41666666666669,96.80206875367598L205.5375,105.52646129781549L205.65833333333333,134.47459645704788L205.77916666666667,138.50557947158813L206.02083333333334,148.77274677970192L206.14166666666665,140.1246663873846L206.26250000000002,127.54139826514503L206.38333333333333,132.1676488572901L206.50416666666666,128.0880833972584L206.625,129.43241956017235L206.74583333333334,112.4861835566434L206.86666666666667,144.32321398908442L206.9875,124.0431921265342L207.35,114.2353059161793L207.59166666666667,117.20677302100441L208.19583333333333,127.83846781470558L208.3166666666667,125.6971364888278L208.4375,130.4447033405304L208.67916666666667,145.33812124078923L209.525,102.91134262084961L209.76666666666668,106.86861766468395L210.37083333333334,114.75996160507202L210.49166666666667,110.71258189461447L210.97500000000002,114.01545515927401L211.21666666666667,144.48875310204244L211.3375,129.83824742924082L211.57916666666668,116.664447480982L211.7,107.54832822626287L211.94166666666666,146.33274481513283L212.0625,122.82688522338867L212.7875,109.63396865671331L212.90833333333333,102.82116079330444L213.02916666666667,134.29182152314618L213.63333333333335,121.84263979304922L213.75416666666666,127.10156171972102L214.84166666666667,87.60778548500754L214.96249999999998,82.67093324661255L215.32500000000002,75.12006187438965L215.44583333333333,87.1151708689603L215.56666666666666,84.46357436613603L215.80833333333334,114.30959259379995L216.05,102.18589492277665L216.29166666666666,132.5952843319286L216.65416666666667,78.31934660131282L216.775,94.75668703426014L217.01666666666665,98.17532097209583L217.13750000000002,122.979548107494L217.3791666666667,99.91360222209583L217.6208333333333,126.84052632071754L217.74166666666667,128.6278819170865L217.98333333333335,100.52595129880038L218.10416666666666,109.76979116960005L218.5875,150.69940677556124L218.70833333333334,135.40339211984113L218.95,138.1912451657382L219.07083333333333,133.51114589517766L219.19166666666666,130.90126451579007L219.3125,127.0792236328125L219.67499999999998,144.9691087766127L219.79583333333335,127.03840550509366L219.91666666666666,127.86431672356346L220.4,134.79431273720482L220.64166666666668,138.4761329347437L220.7625,134.00448389486832L220.88333333333335,126.36264944076538L221.125,123.17036706751043L221.36666666666665,111.2593827681108L221.60833333333332,116.8470102223483L221.85,99.94317414543845L221.97083333333333,104.88814757087015L222.09166666666667,99.98530400883068L222.33333333333334,106.72451964291659L222.45416666666668,103.95266784321178L222.575,124.52618091756648L222.69583333333335,130.23039852489126L222.81666666666666,125.5025945143266L222.9375,115.30375320261174L223.17916666666665,106.21604845740579L223.3,116.19019716436213L223.6625,128.07760880210182L223.78333333333333,139.18855972723526L224.02499999999998,111.73299650712447L224.14583333333334,128.14460377259687L224.50833333333333,148.27521315487948L224.62916666666666,124.2828346599232L224.75,121.70814830606633L224.87083333333334,96.07405545494773L225.23333333333332,106.89423509077592L225.71666666666667,101.42231043902311L225.95833333333334,113.85393805937333L226.07916666666665,155.7202679677443L226.20000000000002,119.04634727131236L226.5625,130.4174269546162L226.6833333333333,88.18975244868885L226.92499999999998,58.29284659298985L227.40833333333333,90.37363802302967L227.52916666666667,87.13087311657993L227.65,121.41570841182363L227.77083333333334,103.05588431791826L228.0125,88.83921592885798L228.49583333333334,113.45497751235962L228.61666666666667,104.96546281467785L228.85833333333335,112.00186373970725L228.97916666666666,83.36374187469482L229.10000000000002,75.73285462639548L229.22083333333333,102.47675301811911L229.4625,80.40031879598445L229.825,131.41644870151174L229.94583333333335,109.76610673557629L230.06666666666666,115.25845974141902L230.1875,126.77582688765091L230.30833333333334,140.8557082522999L230.67083333333332,111.68417293375188L230.79166666666666,147.84154948321256L231.39583333333334,136.91805137287486L231.6375,138.75665146654302L231.75833333333335,120.65665713223544L231.87916666666666,142.250266530297L232.3625,122.91839807683772L232.725,126.27381792935458L232.96666666666667,134.68285378542814L233.32916666666665,140.67151548645714L233.45000000000002,135.11264976588163L233.57083333333333,134.80185521732676L233.69166666666666,133.67075326225975L233.8125,139.23230032487348L234.05416666666667,123.4390221075578L234.175,119.54249199953946L234.29583333333332,120.79531530900434L234.65833333333333,95.34193333712491L234.77916666666667,122.05606690320101L235.02083333333334,112.0746264891191L235.14166666666665,129.25656981901687L235.26250000000002,135.2611459602009L235.625,112.11154799027877L235.86666666666667,117.58042478561401L235.98749999999998,123.76726466959173L236.10833333333335,124.53520874543622L236.22916666666666,127.00649946386164L237.075,143.00882590900767L237.19583333333333,129.67401040684092L237.55833333333334,103.56225286830555L238.16250000000002,99.73757886886597L238.64583333333331,153.01988647200844L238.8875,130.88084580681542L239.37083333333334,98.66029665686868L239.49166666666665,46.01878157528964L239.73333333333332,99.81603223627263L240.21666666666667,124.03098141063344L240.3375,108.85483624718405L240.45833333333334,83.65762853622437L240.7,111.99165920777754L240.82083333333335,105.9921081716364L240.94166666666666,120.8565425005826L241.425,106.2104542905634L241.66666666666669,80.17522109638561L241.90833333333333,85.69166760011153L242.14999999999998,113.48217673735185L242.27083333333334,136.9347277771343L242.51250000000002,115.48701039227572L242.99583333333334,107.53085127743807L243.2375,124.96812009811401L243.35833333333332,148.8207022927024L243.72083333333333,144.89481245387685L244.08333333333334,152.13786961815572L244.5666666666667,128.75419434634122L244.8083333333333,146.48461679978803L244.92916666666667,126.55956411361694L245.29166666666666,135.11450162800875L245.775,140.10743056644094L245.89583333333334,140.44108403812754L246.01666666666668,137.34985353729942L246.1375,126.59339917789805L246.5,119.0833652236245L246.62083333333334,123.30198431015015L246.74166666666667,126.74322639812124L246.98333333333335,86.81408895145763L247.10416666666666,130.98638265783137L247.22500000000002,98.51629508625378L247.46666666666667,116.43103569204158L247.5875,122.85248335925016L247.95,132.44075029546565L248.07083333333335,128.62047446857798L248.3125,117.54030110619286L248.55416666666665,122.31083297729492L248.675,121.40367130799726L248.79583333333332,145.36365186084402L249.64166666666668,134.35056992010635L249.7625,141.15771610086614L249.88333333333335,114.2811202135953L250.00416666666666,108.88066586581144L250.72916666666669,106.656560160897L250.85,126.90065396915782L250.97083333333333,108.87347060983831L251.09166666666667,156.07471630790016L251.21249999999998,150.60839546810496L251.45416666666665,127.68001786145297L251.81666666666666,113.88775383342396L252.17916666666667,94.18673788417469L252.6625,103.44415807723999L252.78333333333333,125.33770162409002L252.90416666666667,105.41641053286466L253.025,82.24577656659214L253.38750000000002,113.09056576815519L253.50833333333333,127.22208707982844L253.99166666666667,101.78728159991178L254.35416666666666,97.9303929155523L254.475,79.83798928694291L254.8375,142.83955413644964L254.95833333333334,120.04021852666682L255.07916666666668,111.41096539930864L255.2,123.97828050093216L255.32083333333333,127.54799552397293L255.68333333333334,116.75630755857986L255.80416666666667,138.63950189677152L255.92499999999998,142.5918000611392L256.04583333333335,144.44039249420166L256.5291666666667,142.97619648413223L256.65,146.14923685247248L256.7708333333333,144.4196844317696L257.1333333333333,135.51061686602506L257.375,151.10070144046438L257.49583333333334,123.61062799800527L257.6166666666667,131.15219183401626L257.85833333333335,145.80479049682617L257.97916666666663,144.0011443008076L258.1,137.69269880381498L258.3416666666667,140.15908015858042L258.4625,150.04634566740555L259.06666666666666,123.74683631550181L259.30833333333334,126.37239100716332L259.4291666666667,130.12338597124273L259.67083333333335,128.52921238812533L260.0333333333333,117.0195806243203L260.275,139.7988447492773L260.3958333333333,141.2369121421467L260.51666666666665,131.74163376201284L260.7583333333333,121.77566411278465L261,121.21179138530385L261.12083333333334,126.74110447276723L261.2416666666667,125.49183056571266L261.72499999999997,128.33713956312698L261.84583333333336,132.532079891725L262.08750000000003,152.7892910567197L262.32916666666665,147.10143156485123L262.93333333333334,122.70634057305077L263.4166666666667,144.07916363802823L263.53749999999997,107.75303615223278L263.65833333333336,157.88738068667325L263.77916666666664,145.29940574819392L265.2291666666667,111.64121359044854L265.4708333333333,93.11541635339911L265.7125,95.52630936015736L265.95416666666665,125.48330428383568L266.075,121.59778889742765L266.1958333333333,106.30997258966619L266.31666666666666,113.31120742451061L266.4375,130.18509541858327L266.55833333333334,84.60904199426824L266.6791666666667,97.35371147502552L266.8,90.80573918602683L266.92083333333335,104.1841891895641L267.04166666666663,73.04533971439709L267.1625,115.32655425505203L267.4041666666667,142.931983275847L267.525,115.80979381908071L267.64583333333337,126.54013885151255L267.8875,141.9007275538011L268.12916666666666,110.58925945108587L268.4916666666667,153.93650035424665L268.8541666666667,148.84822945161298L269.0958333333333,142.9269581708041L269.2166666666667,142.47423575141212L269.4583333333333,124.45530861074275L269.8208333333333,149.90531479228628L270.0625,127.05588245391846L270.18333333333334,134.34212079915133L270.425,150.04122411121023L270.6666666666667,128.05629309740934L270.78749999999997,143.9715530872345L270.90833333333336,145.5109617059881L271.15000000000003,143.79295448823407L271.2708333333333,131.14945262128657L271.5125,129.16796979037198L271.6333333333333,109.08516159924594L271.875,122.26843305067581L271.99583333333334,120.51450742374766L272.96250000000003,135.58932100642812L273.0833333333333,139.59430079026654L273.325,118.90564433011141L273.4458333333333,125.93882378664884L273.9291666666667,153.86033287915316L274.5333333333333,134.31623330983248L274.6541666666667,155.54791940342295L274.775,132.75832536003807L274.8958333333333,149.19461447542363" style="fill: none;" fill="none"></path></g></g></g></g></g></g><g transform="translate(40, 178)" clip-path="url(#clip_1)"><clipPath id="clip_1"><rect width="290" height="22"></rect></clipPath><g><g><line x1="0" y1="0" x2="0" y2="5" style="visibility: inherit;" fill="rgb(0, 0, 0)" stroke="rgb(204, 204, 204)" stroke-width="1px"></line><line x1="24.166666666666664" y1="0" x2="24.166666666666664" y2="5" style="visibility: inherit;" fill="rgb(0, 0, 0)" stroke="rgb(204, 204, 204)" stroke-width="1px"></line><line x1="48.33333333333333" y1="0" x2="48.33333333333333" y2="5" style="visibility: inherit;" fill="rgb(0, 0, 0)" stroke="rgb(204, 204, 204)" stroke-width="1px"></line><line x1="72.5" y1="0" x2="72.5" y2="5" style="visibility: inherit;" fill="rgb(0, 0, 0)" stroke="rgb(204, 204, 204)" stroke-width="1px"></line><line x1="96.66666666666666" y1="0" x2="96.66666666666666" y2="5" style="visibility: inherit;" fill="rgb(0, 0, 0)" stroke="rgb(204, 204, 204)" stroke-width="1px"></line><line x1="120.83333333333334" y1="0" x2="120.83333333333334" y2="5" style="visibility: inherit;" fill="rgb(0, 0, 0)" stroke="rgb(204, 204, 204)" stroke-width="1px"></line><line x1="145" y1="0" x2="145" y2="5" style="visibility: inherit;" fill="rgb(0, 0, 0)" stroke="rgb(204, 204, 204)" stroke-width="1px"></line><line x1="169.16666666666669" y1="0" x2="169.16666666666669" y2="5" style="visibility: inherit;" fill="rgb(0, 0, 0)" stroke="rgb(204, 204, 204)" stroke-width="1px"></line><line x1="193.33333333333331" y1="0" x2="193.33333333333331" y2="5" style="visibility: inherit;" fill="rgb(0, 0, 0)" stroke="rgb(204, 204, 204)" stroke-width="1px"></line><line x1="217.5" y1="0" x2="217.5" y2="5" style="visibility: inherit;" fill="rgb(0, 0, 0)" stroke="rgb(204, 204, 204)" stroke-width="1px"></line><line x1="241.66666666666669" y1="0" x2="241.66666666666669" y2="5" style="visibility: inherit;" fill="rgb(0, 0, 0)" stroke="rgb(204, 204, 204)" stroke-width="1px"></line><line x1="265.8333333333333" y1="0" x2="265.8333333333333" y2="5" style="visibility: inherit;" fill="rgb(0, 0, 0)" stroke="rgb(204, 204, 204)" stroke-width="1px"></line><line x1="290" y1="0" x2="290" y2="5" style="visibility: inherit;" fill="rgb(0, 0, 0)" stroke="rgb(204, 204, 204)" stroke-width="1px"></line></g><g transform="translate(0, 8)"><text x="0" y="0" dx="0em" dy="0.95em" style="text-anchor: middle; visibility: hidden; font-family: &quot;Helvetica Neue&quot;, sans-serif; font-size: 12px; font-weight: 200;" fill="rgb(50, 49, 63)" stroke="none" stroke-width="1px">-200</text><text x="24.166666666666664" y="0" dx="0em" dy="0.95em" style="text-anchor: middle; visibility: inherit; font-family: &quot;Helvetica Neue&quot;, sans-serif; font-size: 12px; font-weight: 200;" fill="rgb(50, 49, 63)" stroke="none" stroke-width="1px">0</text><text x="48.33333333333333" y="0" dx="0em" dy="0.95em" style="text-anchor: middle; visibility: hidden; font-family: &quot;Helvetica Neue&quot;, sans-serif; font-size: 12px; font-weight: 200;" fill="rgb(50, 49, 63)" stroke="none" stroke-width="1px">200</text><text x="72.5" y="0" dx="0em" dy="0.95em" style="text-anchor: middle; visibility: inherit; font-family: &quot;Helvetica Neue&quot;, sans-serif; font-size: 12px; font-weight: 200;" fill="rgb(50, 49, 63)" stroke="none" stroke-width="1px">400</text><text x="96.66666666666666" y="0" dx="0em" dy="0.95em" style="text-anchor: middle; visibility: hidden; font-family: &quot;Helvetica Neue&quot;, sans-serif; font-size: 12px; font-weight: 200;" fill="rgb(50, 49, 63)" stroke="none" stroke-width="1px">600</text><text x="120.83333333333334" y="0" dx="0em" dy="0.95em" style="text-anchor: middle; visibility: inherit; font-family: &quot;Helvetica Neue&quot;, sans-serif; font-size: 12px; font-weight: 200;" fill="rgb(50, 49, 63)" stroke="none" stroke-width="1px">800</text><text x="145" y="0" dx="0em" dy="0.95em" style="text-anchor: middle; visibility: hidden; font-family: &quot;Helvetica Neue&quot;, sans-serif; font-size: 12px; font-weight: 200;" fill="rgb(50, 49, 63)" stroke="none" stroke-width="1px">1k</text><text x="169.16666666666669" y="0" dx="0em" dy="0.95em" style="text-anchor: middle; visibility: inherit; font-family: &quot;Helvetica Neue&quot;, sans-serif; font-size: 12px; font-weight: 200;" fill="rgb(50, 49, 63)" stroke="none" stroke-width="1px">1.2k</text><text x="193.33333333333331" y="0" dx="0em" dy="0.95em" style="text-anchor: middle; visibility: hidden; font-family: &quot;Helvetica Neue&quot;, sans-serif; font-size: 12px; font-weight: 200;" fill="rgb(50, 49, 63)" stroke="none" stroke-width="1px">1.4k</text><text x="217.5" y="0" dx="0em" dy="0.95em" style="text-anchor: middle; visibility: inherit; font-family: &quot;Helvetica Neue&quot;, sans-serif; font-size: 12px; font-weight: 200;" fill="rgb(50, 49, 63)" stroke="none" stroke-width="1px">1.6k</text><text x="241.66666666666669" y="0" dx="0em" dy="0.95em" style="text-anchor: middle; visibility: hidden; font-family: &quot;Helvetica Neue&quot;, sans-serif; font-size: 12px; font-weight: 200;" fill="rgb(50, 49, 63)" stroke="none" stroke-width="1px">1.8k</text><text x="265.8333333333333" y="0" dx="0em" dy="0.95em" style="text-anchor: middle; visibility: inherit; font-family: &quot;Helvetica Neue&quot;, sans-serif; font-size: 12px; font-weight: 200;" fill="rgb(50, 49, 63)" stroke="none" stroke-width="1px">2k</text><text x="290" y="0" dx="0em" dy="0.95em" style="text-anchor: middle; visibility: hidden; font-family: &quot;Helvetica Neue&quot;, sans-serif; font-size: 12px; font-weight: 200;" fill="rgb(50, 49, 63)" stroke="none" stroke-width="1px">2.2k</text></g><line x1="0" y1="0" x2="290" y2="0" fill="rgb(0, 0, 0)" stroke="rgb(204, 204, 204)" stroke-width="1px"></line></g></g></g></g></svg>